<svg width="330" height="274" viewBox="0 0 330 274" fill="none" xmlns="http://www.w3.org/2000/svg">
<path d="M43 125.636L46.4669 103.639L49.3242 93.4801L50.5007 94.3267L51.5092 98.3177L53.0219 93.4801L55.543 97.713L57.0557 106.058L58.0641 107.63L59.5768 99.8899L60.9214 102.43L63.1064 107.025L65.4594 95.778L67.8125 89.0054L69.4932 88.6426L70.6697 85.7401L72.0143 89.0054L73.3589 84.8935L77.5608 78L78.9054 80.056L79.9139 84.4097L82.0988 81.1444L84.9561 87.1913L86.3007 86.3448L87.4772 87.1913L88.6538 92.1498L90.3345 92.8755L91.0068 90.0939L93.0237 93.4801H93.696L95.5448 88.6426L96.8894 89.4892L98.066 93.4801L98.7383 100.736L100.251 99.648L101.596 107.025L102.772 106.421L103.949 99.8899L105.461 110.17L107.982 107.025L109.327 99.2852L110.335 108.597L111.848 110.532L112.857 118.877L114.033 118.514L115.882 122.868H117.395L118.571 116.821L119.243 117.547L120.756 113.193L121.933 123.231L123.277 124.803H124.454L125.798 120.329L127.143 121.901L128.824 118.877L131.009 108.356L133.362 111.137L134.874 107.025L136.051 111.137L137.564 110.532L138.74 107.872L140.421 111.137L141.429 117.547L142.606 124.803L143.614 134.478L144.959 135.083L146.472 132.543L147.648 139.558L149.161 138.953L150.337 133.269L151.682 133.511L152.858 131.213L154.203 123.957L155.716 124.803L157.06 129.641L158.237 130.245L159.413 132.181L160.758 129.399L163.447 128.19L164.287 124.44L165.968 124.803L167.649 129.399L170.674 131.818L172.187 127.343L173.364 129.157L174.372 122.264L175.717 120.933L177.061 118.394L178.238 120.933H180.087L181.431 123.231L182.44 116.579L184.961 109.928L186.473 110.532L187.65 112.588L188.994 108.477L192.86 109.444L193.701 110.532L195.045 104.848H196.39L197.566 100.132L200.424 98.4386L201.768 100.736L202.945 100.132L204.289 103.76L205.466 109.444L206.642 110.291L208.155 109.081L209.163 105.574L210.508 115.128L211.685 115.854L214.206 120.933L215.886 120.57L216.559 122.868L217.735 123.715L219.416 119.724L220.088 118.394L223.282 111.258L224.626 122.868L226.139 121.659L228.324 126.255L230.005 125.287L232.19 131.697L234.039 134.478L234.711 137.986L236.055 140.283L237.4 140.888L238.745 136.655L241.098 145L243.619 131.697L245.132 132.422L246.812 135.083L247.821 141.493L250.174 144.516L251.686 145L252.695 140.042L254.208 145L255.384 138.953L256.561 136.655L259.25 139.558L260.09 134.478L263.284 127.222L265.805 130.729L266.645 124.924L269.502 127.585L270.511 134.116L271.855 136.171L275.553 129.157L277.234 134.478L278.242 121.054L279.419 119.119L281.1 121.054L282.444 119.119L283.621 121.054L284.965 121.78L285.974 120.329L287.486 121.417L288.663 117.91L290.176 116.217H291.184L292.697 120.57L294.041 121.417L295.05 113.677L297.739 114.04L300.26 121.78L301.437 122.505L302.949 120.329L304.63 122.505V118.756L307.319 117.063L309 118.756" stroke="black" stroke-opacity="0.25" stroke-width="1.96571"/>
<path d="M43 125.309L44.848 121.611L47.1581 118.112L48.1976 116.167L49.4521 113.868L50.9696 112.023L52.5866 111.285L53.2796 107.417L54.1673 105.38L55.5145 112.023H56.6933L58.0405 100.213L60.7349 101.135L63.0925 113.868L64.7765 114.422L65.7869 111.654L67.1341 113.868L68.4813 108.701L69.3233 106.302L71.0073 108.701L72.1861 118.112L74.7121 126.047L76.2277 125.309L77.2381 120.327L78.7537 125.309L80.2693 123.649L81.4481 124.756L82.2901 129L83.4689 123.649L86.837 125.309L87.679 122.357L88.8578 126.047L94.0782 118.112L95.5938 107.04L96.7726 104.272L98.2882 102.981L100.814 122.357L101.993 118.112L103.172 110.178L104.687 116.821L105.866 116.267L107.55 111.838L108.561 105.933L109.908 102.243L111.929 92.0931L114.286 95.0457L115.465 91.1705L116.139 87.1107L117.991 89.1406L119.17 71.9789L120.349 76.5923L121.191 82.1283L123.043 84.5272L123.885 91.1705L125.064 89.1406L125.737 86.0035H127.927L130.453 78.2531L131.968 76.0387L132.642 63.4903L134.157 68.2882L135.673 69.949L136.852 68.2882L138.031 59.9842L139.378 54.6327L140.893 55.3708L141.904 53.1564L144.43 54.6327L145.609 61.645H147.124L147.966 70.3181L149.313 68.2882L153.523 66.8119L154.702 71.9789L156.386 70.3181L157.733 69.949L159.754 79.5448L160.581 74.1933L161.591 68.2882H162.938L164.791 65.1511L165.633 69.3954L167.148 71.4253L167.99 82.1283L169.506 78.8067L170.685 85.6344L173.379 83.6046L175.905 74.9315H177.084L178.094 80.652L180.789 82.1283L182.136 86.9262L184.157 83.051H184.999L186.683 74.1933H188.03L188.703 85.0808L189.714 88.2179L191.061 88.587H192.56H194.076L195.271 86.188L195.809 90.0633H197.31L197.797 80.652L199.313 83.6046L200.491 81.2056L201.67 87.8489H202.849L204.028 85.6344L205.712 69.7645L206.722 76.2232H207.901L209.08 84.7118L210.259 83.6046L211.606 77.884L213.29 78.4376L214.469 67.181V63.6749L216.153 57.0316L217.5 53.1564L218.173 57.0316L220.715 74.5624L221.22 68.6573L223.073 74.5624L226.104 70.1336L227.283 71.0562L228.798 76.9613L230.819 74.5624L231.493 80.652H233.008L234.861 78.4376L235.871 62.7522L237.05 69.949H238.229L239.744 78.0685H240.923L242.102 71.6098L244.291 72.5325V73.2706L245.47 71.6098L247.322 56.109L249.006 68.6573L251.701 71.6098L252.038 57.7698L253.722 67.9192L255.742 68.6573L256.416 56.8471L257.595 58.6924L258.942 45.9596L260.121 40.239H261.3L262.984 47.0668H263.994L265.51 42.0844L266.857 46.5132L268.204 45.0369L268.878 37.471L270.562 37.1019L271.909 38.3937L273.93 29.7206L275.782 32.6731L276.792 33.4112L278.14 27.1371L279.318 24L282.686 33.4112L284.202 40.239L285.886 35.4411L286.896 37.471L289.422 56.2935L290.938 52.7873L292.622 47.0668H293.296L294.474 53.8946V56.2935L295.316 53.8946L296.664 45.5905L297.169 39.1318L299.863 36.3638L300.874 43.007L302.052 37.471L303.568 35.4411L304.41 44.6678C305.084 47.1898 306.431 52.0861 306.431 51.4956C306.431 50.9051 307.553 44.4833 308.115 41.3462L309 33.4112" stroke="#28CE83" stroke-width="1.96571"/>
<path d="M14.9377 12.0186C14.9377 11.1065 14.4974 10.4041 13.6691 10.0581C14.3401 9.7646 14.6651 9.19847 14.6651 8.47509C14.6651 7.31139 13.7949 6.51462 12.474 6.51462C11.8764 6.51462 11.3522 6.69284 10.9119 7.04929V8.13961H11.0482C11.4046 7.65735 11.8659 7.41623 12.4425 7.41623C13.2708 7.41623 13.7006 7.888 13.7006 8.59041C13.7006 9.3138 13.1974 9.71218 12.2224 9.71218H11.824V10.5928H12.2433C13.3337 10.5928 13.9732 11.096 13.9732 11.9347C13.9732 12.763 13.3441 13.2452 12.453 13.2452C11.6877 13.2452 11.195 12.8993 10.7861 12.2388H10.6288V13.4864C11.1006 13.9267 11.7191 14.1468 12.4845 14.1468C13.2393 14.1468 13.8369 13.9581 14.2772 13.5702C14.7175 13.1823 14.9377 12.6581 14.9377 12.0186ZM18.7565 6.51462C17.2468 6.51462 16.1565 7.888 16.1565 10.3307C16.1565 12.7735 17.2468 14.1468 18.7565 14.1468C20.2662 14.1468 21.3565 12.7735 21.3565 10.3307C21.3565 7.888 20.2662 6.51462 18.7565 6.51462ZM18.7565 13.2452C17.75 13.2452 17.121 12.2073 17.121 10.3307C17.121 8.45412 17.75 7.41623 18.7565 7.41623C19.7629 7.41623 20.392 8.45412 20.392 10.3307C20.392 12.2073 19.7629 13.2452 18.7565 13.2452ZM22.5519 8.37025C22.5519 9.48154 23.3801 10.2259 24.4285 10.2259C25.4769 10.2259 26.3051 9.48154 26.3051 8.37025C26.3051 7.25897 25.4769 6.51462 24.4285 6.51462C23.3801 6.51462 22.5519 7.25897 22.5519 8.37025ZM28.5591 6.66139L24.2607 14.0001H25.0785L29.3768 6.66139H28.5591ZM25.5083 8.37025C25.5083 9.04122 25.0156 9.47105 24.4285 9.47105C23.8414 9.47105 23.3486 9.04122 23.3486 8.37025C23.3486 7.69929 23.8414 7.26945 24.4285 7.26945C25.0156 7.26945 25.5083 7.69929 25.5083 8.37025ZM27.3325 12.2912C27.3325 13.4025 28.1607 14.1468 29.2091 14.1468C30.2575 14.1468 31.0857 13.4025 31.0857 12.2912C31.0857 11.1799 30.2575 10.4356 29.2091 10.4356C28.1607 10.4356 27.3325 11.1799 27.3325 12.2912ZM30.2889 12.2912C30.2889 12.9622 29.7962 13.392 29.2091 13.392C28.622 13.392 28.1293 12.9622 28.1293 12.2912C28.1293 11.6202 28.622 11.1904 29.2091 11.1904C29.7962 11.1904 30.2889 11.6202 30.2889 12.2912Z" fill="black"/>
<path d="M11.8606 51.1404L13.7372 48.792C14.3662 48.0267 14.7227 47.3977 14.7227 46.517C14.7227 45.2275 13.8735 44.5146 12.6888 44.5146C11.934 44.5146 11.2316 44.8186 10.8227 45.3324V46.4332H10.959C11.3259 45.8565 11.934 45.4162 12.6364 45.4162C13.2969 45.4162 13.7582 45.8251 13.7582 46.5904C13.7582 47.2194 13.4646 47.7436 13.0138 48.2993L10.4348 51.4968V52.0001H14.9219V51.1404H11.8606ZM18.7565 44.5146C17.2468 44.5146 16.1565 45.888 16.1565 48.3307C16.1565 50.7735 17.2468 52.1468 18.7565 52.1468C20.2662 52.1468 21.3565 50.7735 21.3565 48.3307C21.3565 45.888 20.2662 44.5146 18.7565 44.5146ZM18.7565 51.2452C17.75 51.2452 17.121 50.2073 17.121 48.3307C17.121 46.4541 17.75 45.4162 18.7565 45.4162C19.7629 45.4162 20.392 46.4541 20.392 48.3307C20.392 50.2073 19.7629 51.2452 18.7565 51.2452ZM22.5519 46.3703C22.5519 47.4815 23.3801 48.2259 24.4285 48.2259C25.4769 48.2259 26.3051 47.4815 26.3051 46.3703C26.3051 45.259 25.4769 44.5146 24.4285 44.5146C23.3801 44.5146 22.5519 45.259 22.5519 46.3703ZM28.5591 44.6614L24.2607 52.0001H25.0785L29.3768 44.6614H28.5591ZM25.5083 46.3703C25.5083 47.0412 25.0156 47.4711 24.4285 47.4711C23.8414 47.4711 23.3486 47.0412 23.3486 46.3703C23.3486 45.6993 23.8414 45.2695 24.4285 45.2695C25.0156 45.2695 25.5083 45.6993 25.5083 46.3703ZM27.3325 50.2912C27.3325 51.4025 28.1607 52.1468 29.2091 52.1468C30.2575 52.1468 31.0857 51.4025 31.0857 50.2912C31.0857 49.1799 30.2575 48.4356 29.2091 48.4356C28.1607 48.4356 27.3325 49.1799 27.3325 50.2912ZM30.2889 50.2912C30.2889 50.9622 29.7962 51.392 29.2091 51.392C28.622 51.392 28.1293 50.9622 28.1293 50.2912C28.1293 49.6202 28.622 49.1904 29.2091 49.1904C29.7962 49.1904 30.2889 49.6202 30.2889 50.2912Z" fill="black"/>
<path d="M13.5248 82.6614C13.4514 83.3638 12.8119 83.8041 11.9627 83.8041V84.6848C12.5603 84.6848 13.0216 84.538 13.3676 84.234V90.0001H14.2901V82.6614H13.5248ZM18.7565 82.5146C17.2468 82.5146 16.1565 83.888 16.1565 86.3307C16.1565 88.7735 17.2468 90.1468 18.7565 90.1468C20.2662 90.1468 21.3565 88.7735 21.3565 86.3307C21.3565 83.888 20.2662 82.5146 18.7565 82.5146ZM18.7565 89.2452C17.75 89.2452 17.121 88.2073 17.121 86.3307C17.121 84.4541 17.75 83.4162 18.7565 83.4162C19.7629 83.4162 20.392 84.4541 20.392 86.3307C20.392 88.2073 19.7629 89.2452 18.7565 89.2452ZM22.5519 84.3703C22.5519 85.4815 23.3801 86.2259 24.4285 86.2259C25.4769 86.2259 26.3051 85.4815 26.3051 84.3703C26.3051 83.259 25.4769 82.5146 24.4285 82.5146C23.3801 82.5146 22.5519 83.259 22.5519 84.3703ZM28.5591 82.6614L24.2607 90.0001H25.0785L29.3768 82.6614H28.5591ZM25.5083 84.3703C25.5083 85.0412 25.0156 85.4711 24.4285 85.4711C23.8414 85.4711 23.3486 85.0412 23.3486 84.3703C23.3486 83.6993 23.8414 83.2695 24.4285 83.2695C25.0156 83.2695 25.5083 83.6993 25.5083 84.3703ZM27.3325 88.2912C27.3325 89.4025 28.1607 90.1468 29.2091 90.1468C30.2575 90.1468 31.0857 89.4025 31.0857 88.2912C31.0857 87.1799 30.2575 86.4356 29.2091 86.4356C28.1607 86.4356 27.3325 87.1799 27.3325 88.2912ZM30.2889 88.2912C30.2889 88.9622 29.7962 89.392 29.2091 89.392C28.622 89.392 28.1293 88.9622 28.1293 88.2912C28.1293 87.6202 28.622 87.1904 29.2091 87.1904C29.7962 87.1904 30.2889 87.6202 30.2889 88.2912Z" fill="black"/>
<path d="M28.2293 120.515C26.7197 120.515 25.6293 121.888 25.6293 124.331C25.6293 126.773 26.7197 128.147 28.2293 128.147C29.739 128.147 30.8293 126.773 30.8293 124.331C30.8293 121.888 29.739 120.515 28.2293 120.515ZM28.2293 127.245C27.2229 127.245 26.5939 126.207 26.5939 124.331C26.5939 122.454 27.2229 121.416 28.2293 121.416C29.2358 121.416 29.8648 122.454 29.8648 124.331C29.8648 126.207 29.2358 127.245 28.2293 127.245Z" fill="black"/>
<path d="M7.70035 166.149V166.988H10.6148V166.149H7.70035ZM13.5248 162.249C13.4515 162.952 12.8119 163.392 11.9628 163.392V164.273C12.5603 164.273 13.0216 164.126 13.3676 163.822V169.588H14.2902V162.249H13.5248ZM18.7565 162.103C17.2468 162.103 16.1565 163.476 16.1565 165.919C16.1565 168.361 17.2468 169.735 18.7565 169.735C20.2662 169.735 21.3565 168.361 21.3565 165.919C21.3565 163.476 20.2662 162.103 18.7565 162.103ZM18.7565 168.833C17.7501 168.833 17.121 167.795 17.121 165.919C17.121 164.042 17.7501 163.004 18.7565 163.004C19.763 163.004 20.392 164.042 20.392 165.919C20.392 167.795 19.763 168.833 18.7565 168.833ZM22.5519 163.958C22.5519 165.069 23.3801 165.814 24.4285 165.814C25.4769 165.814 26.3051 165.069 26.3051 163.958C26.3051 162.847 25.4769 162.103 24.4285 162.103C23.3801 162.103 22.5519 162.847 22.5519 163.958ZM28.5591 162.249L24.2608 169.588H25.0785L29.3769 162.249H28.5591ZM25.5083 163.958C25.5083 164.629 25.0156 165.059 24.4285 165.059C23.8414 165.059 23.3487 164.629 23.3487 163.958C23.3487 163.287 23.8414 162.857 24.4285 162.857C25.0156 162.857 25.5083 163.287 25.5083 163.958ZM27.3325 167.879C27.3325 168.99 28.1607 169.735 29.2091 169.735C30.2575 169.735 31.0857 168.99 31.0857 167.879C31.0857 166.768 30.2575 166.024 29.2091 166.024C28.1607 166.024 27.3325 166.768 27.3325 167.879ZM30.2889 167.879C30.2889 168.55 29.7962 168.98 29.2091 168.98C28.622 168.98 28.1293 168.55 28.1293 167.879C28.1293 167.208 28.622 166.778 29.2091 166.778C29.7962 166.778 30.2889 167.208 30.2889 167.879Z" fill="black"/>
<path d="M42.5881 6.10352e-05L42.7035 170" stroke="black" stroke-opacity="0.37" stroke-width="0.655238"/>
<path d="M106.704 6.10352e-05L106.833 170" stroke="black" stroke-opacity="0.15" stroke-width="1.31048" stroke-dasharray="3.28 6.55"/>
<path d="M170.833 6.10352e-05L170.997 170" stroke="black" stroke-opacity="0.15" stroke-width="1.31048" stroke-dasharray="3.28 6.55"/>
<path d="M234.997 6.10352e-05L235.162 170" stroke="black" stroke-opacity="0.15" stroke-width="1.31048" stroke-dasharray="3.28 6.55"/>
<path d="M299.162 6.10352e-05L299.326 170" stroke="black" stroke-opacity="0.15" stroke-width="1.31048" stroke-dasharray="3.28 6.55"/>
<path d="M41.8352 170.324L299 170.324" stroke="black" stroke-opacity="0.37" stroke-width="0.655238"/>
<path d="M43 125L309 125" stroke="black" stroke-opacity="0.2" stroke-width="0.655238" stroke-dasharray="3.28 6.55"/>
<path d="M43 87L309 87" stroke="black" stroke-opacity="0.2" stroke-width="0.655238" stroke-dasharray="3.28 6.55"/>
<path d="M43 49L309 49" stroke="black" stroke-opacity="0.2" stroke-width="0.655238" stroke-dasharray="3.28 6.55"/>
<path d="M43 11L309 11" stroke="black" stroke-opacity="0.2" stroke-width="0.655238" stroke-dasharray="3.28 6.55"/>
<circle cx="18.7786" cy="234.19" r="8.19048" fill="#1EAC6C"/>
<path d="M40.8961 238.19H39.7211V231.905H36.3761V238.19H35.2011V230.99H40.8961V238.19ZM49.4684 234.59C49.4684 235.124 49.3818 235.615 49.2084 236.065C49.0351 236.515 48.7901 236.904 48.4734 237.23C48.1601 237.554 47.7818 237.807 47.3384 237.99C46.8984 238.174 46.4084 238.265 45.8684 238.265C45.3318 238.265 44.8418 238.174 44.3984 237.99C43.9584 237.807 43.5801 237.554 43.2634 237.23C42.9468 236.904 42.7018 236.515 42.5284 236.065C42.3551 235.615 42.2684 235.124 42.2684 234.59C42.2684 234.057 42.3551 233.565 42.5284 233.115C42.7018 232.665 42.9468 232.277 43.2634 231.95C43.5801 231.624 43.9584 231.369 44.3984 231.185C44.8418 231.002 45.3318 230.91 45.8684 230.91C46.4084 230.91 46.8984 231.002 47.3384 231.185C47.7818 231.369 48.1601 231.624 48.4734 231.95C48.7901 232.277 49.0351 232.665 49.2084 233.115C49.3818 233.565 49.4684 234.057 49.4684 234.59ZM48.2734 234.59C48.2734 234.177 48.2168 233.805 48.1034 233.475C47.9934 233.145 47.8334 232.865 47.6234 232.635C47.4168 232.405 47.1651 232.229 46.8684 232.105C46.5718 231.982 46.2384 231.92 45.8684 231.92C45.5018 231.92 45.1701 231.982 44.8734 232.105C44.5768 232.229 44.3234 232.405 44.1134 232.635C43.9034 232.865 43.7418 233.145 43.6284 233.475C43.5151 233.805 43.4584 234.177 43.4584 234.59C43.4584 235.007 43.5151 235.38 43.6284 235.71C43.7418 236.04 43.9034 236.32 44.1134 236.55C44.3234 236.777 44.5768 236.952 44.8734 237.075C45.1701 237.195 45.5018 237.255 45.8684 237.255C46.2384 237.255 46.5718 237.195 46.8684 237.075C47.1651 236.952 47.4168 236.777 47.6234 236.55C47.8334 236.32 47.9934 236.04 48.1034 235.71C48.2168 235.38 48.2734 235.007 48.2734 234.59ZM53.0903 234.66C53.3503 234.66 53.5787 234.627 53.7753 234.56C53.9753 234.494 54.1403 234.4 54.2703 234.28C54.4037 234.157 54.5037 234.009 54.5703 233.835C54.637 233.662 54.6703 233.469 54.6703 233.255C54.6703 233.045 54.637 232.857 54.5703 232.69C54.507 232.524 54.4103 232.382 54.2803 232.265C54.1503 232.149 53.9853 232.06 53.7853 232C53.5887 231.937 53.357 231.905 53.0903 231.905H52.0203V234.66H53.0903ZM53.0903 230.99C53.5603 230.99 53.967 231.045 54.3103 231.155C54.657 231.265 54.942 231.42 55.1653 231.62C55.392 231.817 55.5603 232.055 55.6703 232.335C55.7803 232.612 55.8353 232.919 55.8353 233.255C55.8353 233.599 55.777 233.914 55.6603 234.2C55.5437 234.484 55.3703 234.729 55.1403 234.935C54.9103 235.139 54.6237 235.299 54.2803 235.415C53.9403 235.529 53.5437 235.585 53.0903 235.585H52.0203V238.19H50.8503V230.99H53.0903ZM62.0088 231.965H59.7638V238.19H58.5988V231.965H56.3488V230.99H62.0088V231.965ZM66.4684 236.41C66.7517 236.407 67.01 236.352 67.2434 236.245C67.48 236.139 67.6817 235.995 67.8484 235.815C68.0184 235.635 68.1484 235.427 68.2384 235.19C68.3317 234.95 68.3784 234.694 68.3784 234.42C68.3784 234.15 68.3317 233.895 68.2384 233.655C68.1484 233.415 68.0184 233.205 67.8484 233.025C67.6817 232.845 67.48 232.704 67.2434 232.6C67.01 232.494 66.7517 232.437 66.4684 232.43V236.41ZM65.3634 232.43C65.0767 232.437 64.815 232.494 64.5784 232.6C64.345 232.704 64.145 232.845 63.9784 233.025C63.8117 233.205 63.6817 233.415 63.5884 233.655C63.4984 233.895 63.4534 234.15 63.4534 234.42C63.4534 234.694 63.4984 234.95 63.5884 235.19C63.6817 235.427 63.8117 235.635 63.9784 235.815C64.145 235.995 64.345 236.139 64.5784 236.245C64.815 236.352 65.0767 236.407 65.3634 236.41V232.43ZM66.4684 231.52C66.7684 231.53 67.0534 231.572 67.3234 231.645C67.5934 231.719 67.8417 231.819 68.0684 231.945C68.295 232.072 68.4984 232.224 68.6784 232.4C68.8617 232.577 69.0167 232.772 69.1434 232.985C69.27 233.195 69.3667 233.422 69.4334 233.665C69.5034 233.909 69.5384 234.16 69.5384 234.42C69.5384 234.814 69.4634 235.184 69.3134 235.53C69.1634 235.877 68.9534 236.182 68.6834 236.445C68.4134 236.705 68.09 236.914 67.7134 237.07C67.3367 237.227 66.9217 237.312 66.4684 237.325V238.19H65.3634V237.325C64.91 237.312 64.4934 237.227 64.1134 237.07C63.7367 236.914 63.4117 236.705 63.1384 236.445C62.8684 236.182 62.6584 235.877 62.5084 235.53C62.3584 235.184 62.2834 234.814 62.2834 234.42C62.2834 234.027 62.3584 233.657 62.5084 233.31C62.6617 232.964 62.875 232.66 63.1484 232.4C63.4217 232.14 63.7467 231.932 64.1234 231.775C64.5 231.619 64.9134 231.534 65.3634 231.52V230.675H66.4684V231.52ZM75.3328 237.245L75.3278 238.19H70.8378V230.99H75.3278V231.935H72.0128V234.105H74.6628V235.02H72.0128V237.245H75.3328ZM82.3395 238.19H81.1645V231.905H79.0045C78.9579 232.815 78.8929 233.605 78.8095 234.275C78.7262 234.945 78.6262 235.515 78.5095 235.985C78.3962 236.455 78.2662 236.839 78.1195 237.135C77.9762 237.432 77.8162 237.664 77.6395 237.83C77.4662 237.997 77.2795 238.11 77.0795 238.17C76.8795 238.23 76.6679 238.26 76.4445 238.26C76.0245 238.26 75.8145 238.185 75.8145 238.035V237.295H76.1845C76.3079 237.295 76.4312 237.274 76.5545 237.23C76.6812 237.184 76.8029 237.087 76.9195 236.94C77.0362 236.794 77.1479 236.582 77.2545 236.305C77.3612 236.025 77.4579 235.652 77.5445 235.185C77.6312 234.719 77.7045 234.144 77.7645 233.46C77.8279 232.774 77.8745 231.95 77.9045 230.99H82.3395V238.19ZM86.5981 237.265C86.8614 237.265 87.0831 237.237 87.2631 237.18C87.4464 237.12 87.5947 237.039 87.7081 236.935C87.8214 236.829 87.9031 236.705 87.9531 236.565C88.0064 236.422 88.0331 236.267 88.0331 236.1C88.0331 235.92 88.0081 235.759 87.9581 235.615C87.9081 235.472 87.8264 235.352 87.7131 235.255C87.5997 235.155 87.4514 235.079 87.2681 235.025C87.0881 234.972 86.8664 234.945 86.6031 234.945H85.3231V237.265H86.5981ZM86.6031 234.02C87.0564 234.02 87.4447 234.07 87.7681 234.17C88.0947 234.27 88.3631 234.409 88.5731 234.585C88.7831 234.759 88.9364 234.965 89.0331 235.205C89.1331 235.445 89.1831 235.704 89.1831 235.98C89.1831 236.317 89.1247 236.622 89.0081 236.895C88.8947 237.165 88.7281 237.397 88.5081 237.59C88.2881 237.784 88.0164 237.932 87.6931 238.035C87.3731 238.139 87.0081 238.19 86.5981 238.19H84.1531V230.99H85.3231V234.02H86.6031ZM92.9411 233.5C92.7911 233.247 92.6878 232.984 92.6311 232.71C92.5778 232.434 92.5728 232.162 92.6161 231.895C92.6594 231.625 92.7494 231.369 92.8861 231.125C93.0261 230.879 93.2111 230.657 93.4411 230.46L93.7761 230.665C93.8361 230.702 93.8628 230.749 93.8561 230.805C93.8494 230.862 93.8294 230.909 93.7961 230.945C93.7194 231.039 93.6494 231.157 93.5861 231.3C93.5228 231.444 93.4794 231.602 93.4561 231.775C93.4361 231.949 93.4428 232.13 93.4761 232.32C93.5094 232.51 93.5811 232.697 93.6911 232.88C93.7444 232.964 93.7594 233.039 93.7361 233.105C93.7161 233.169 93.6678 233.214 93.5911 233.24L92.9411 233.5ZM94.5361 233.5C94.3861 233.247 94.2828 232.984 94.2261 232.71C94.1728 232.434 94.1678 232.162 94.2111 231.895C94.2544 231.625 94.3444 231.369 94.4811 231.125C94.6211 230.879 94.8061 230.657 95.0361 230.46L95.3711 230.665C95.4311 230.702 95.4578 230.749 95.4511 230.805C95.4444 230.862 95.4244 230.909 95.3911 230.945C95.3144 231.039 95.2444 231.157 95.1811 231.3C95.1178 231.444 95.0744 231.602 95.0511 231.775C95.0311 231.949 95.0378 232.13 95.0711 232.32C95.1044 232.51 95.1761 232.697 95.2861 232.88C95.3394 232.964 95.3544 233.039 95.3311 233.105C95.3111 233.169 95.2628 233.214 95.1861 233.24L94.5361 233.5ZM99.4656 237.265C99.729 237.265 99.9506 237.235 100.131 237.175C100.314 237.112 100.462 237.027 100.576 236.92C100.692 236.814 100.776 236.689 100.826 236.545C100.879 236.399 100.906 236.242 100.906 236.075C100.906 235.735 100.789 235.469 100.556 235.275C100.326 235.079 99.9606 234.98 99.4606 234.98H98.0156V237.265H99.4656ZM98.0156 231.905V234.155H99.1856C99.6856 234.155 100.059 234.059 100.306 233.865C100.552 233.672 100.676 233.394 100.676 233.03C100.676 232.634 100.559 232.347 100.326 232.17C100.096 231.994 99.734 231.905 99.2406 231.905H98.0156ZM99.2406 230.99C99.7006 230.99 100.094 231.035 100.421 231.125C100.747 231.212 101.016 231.337 101.226 231.5C101.436 231.664 101.589 231.864 101.686 232.1C101.786 232.334 101.836 232.597 101.836 232.89C101.836 233.06 101.809 233.225 101.756 233.385C101.706 233.542 101.626 233.69 101.516 233.83C101.409 233.967 101.274 234.09 101.111 234.2C100.947 234.31 100.754 234.402 100.531 234.475C101.551 234.692 102.061 235.234 102.061 236.1C102.061 236.407 102.002 236.689 101.886 236.945C101.772 237.199 101.606 237.419 101.386 237.605C101.169 237.789 100.901 237.932 100.581 238.035C100.261 238.139 99.8956 238.19 99.4856 238.19H96.8456V230.99H99.2406ZM105.924 237.265C106.187 237.265 106.409 237.237 106.589 237.18C106.772 237.12 106.92 237.039 107.034 236.935C107.147 236.829 107.229 236.705 107.279 236.565C107.332 236.422 107.359 236.267 107.359 236.1C107.359 235.92 107.334 235.759 107.284 235.615C107.234 235.472 107.152 235.352 107.039 235.255C106.925 235.155 106.777 235.079 106.594 235.025C106.414 234.972 106.192 234.945 105.929 234.945H104.649V237.265H105.924ZM105.929 234.02C106.382 234.02 106.77 234.07 107.094 234.17C107.42 234.27 107.689 234.409 107.899 234.585C108.109 234.759 108.262 234.965 108.359 235.205C108.459 235.445 108.509 235.704 108.509 235.98C108.509 236.317 108.45 236.622 108.334 236.895C108.22 237.165 108.054 237.397 107.834 237.59C107.614 237.784 107.342 237.932 107.019 238.035C106.699 238.139 106.334 238.19 105.924 238.19H103.479V230.99H104.649V234.02H105.929ZM110.864 238.19H109.689V230.99H110.864V238.19ZM117.671 236.585C117.734 236.585 117.789 236.61 117.836 236.66L118.301 237.165C118.007 237.519 117.647 237.792 117.221 237.985C116.794 238.175 116.284 238.27 115.691 238.27C115.164 238.27 114.687 238.18 114.261 238C113.837 237.817 113.476 237.564 113.176 237.24C112.876 236.914 112.644 236.525 112.481 236.075C112.321 235.625 112.241 235.13 112.241 234.59C112.241 234.05 112.326 233.555 112.496 233.105C112.669 232.652 112.911 232.264 113.221 231.94C113.534 231.614 113.907 231.36 114.341 231.18C114.777 231 115.257 230.91 115.781 230.91C116.301 230.91 116.759 230.995 117.156 231.165C117.556 231.332 117.902 231.555 118.196 231.835L117.811 232.38C117.784 232.417 117.752 232.449 117.716 232.475C117.679 232.502 117.629 232.515 117.566 232.515C117.499 232.515 117.422 232.485 117.336 232.425C117.252 232.362 117.144 232.294 117.011 232.22C116.881 232.144 116.716 232.075 116.516 232.015C116.319 231.952 116.072 231.92 115.776 231.92C115.432 231.92 115.117 231.98 114.831 232.1C114.544 232.22 114.297 232.395 114.091 232.625C113.884 232.855 113.722 233.135 113.606 233.465C113.492 233.795 113.436 234.17 113.436 234.59C113.436 235.014 113.496 235.392 113.616 235.725C113.736 236.055 113.901 236.335 114.111 236.565C114.321 236.792 114.567 236.965 114.851 237.085C115.134 237.205 115.439 237.265 115.766 237.265C115.966 237.265 116.144 237.255 116.301 237.235C116.461 237.212 116.607 237.177 116.741 237.13C116.874 237.08 116.999 237.019 117.116 236.945C117.236 236.872 117.354 236.782 117.471 236.675C117.537 236.615 117.604 236.585 117.671 236.585ZM126.03 234.59C126.03 235.124 125.943 235.615 125.77 236.065C125.596 236.515 125.351 236.904 125.035 237.23C124.721 237.554 124.343 237.807 123.9 237.99C123.46 238.174 122.97 238.265 122.43 238.265C121.893 238.265 121.403 238.174 120.96 237.99C120.52 237.807 120.141 237.554 119.825 237.23C119.508 236.904 119.263 236.515 119.09 236.065C118.916 235.615 118.83 235.124 118.83 234.59C118.83 234.057 118.916 233.565 119.09 233.115C119.263 232.665 119.508 232.277 119.825 231.95C120.141 231.624 120.52 231.369 120.96 231.185C121.403 231.002 121.893 230.91 122.43 230.91C122.97 230.91 123.46 231.002 123.9 231.185C124.343 231.369 124.721 231.624 125.035 231.95C125.351 232.277 125.596 232.665 125.77 233.115C125.943 233.565 126.03 234.057 126.03 234.59ZM124.835 234.59C124.835 234.177 124.778 233.805 124.665 233.475C124.555 233.145 124.395 232.865 124.185 232.635C123.978 232.405 123.726 232.229 123.43 232.105C123.133 231.982 122.8 231.92 122.43 231.92C122.063 231.92 121.731 231.982 121.435 232.105C121.138 232.229 120.885 232.405 120.675 232.635C120.465 232.865 120.303 233.145 120.19 233.475C120.076 233.805 120.02 234.177 120.02 234.59C120.02 235.007 120.076 235.38 120.19 235.71C120.303 236.04 120.465 236.32 120.675 236.55C120.885 236.777 121.138 236.952 121.435 237.075C121.731 237.195 122.063 237.255 122.43 237.255C122.8 237.255 123.133 237.195 123.43 237.075C123.726 236.952 123.978 236.777 124.185 236.55C124.395 236.32 124.555 236.04 124.665 235.71C124.778 235.38 124.835 235.007 124.835 234.59ZM133.352 238.19H132.297C132.183 238.19 132.088 238.16 132.012 238.1C131.935 238.04 131.863 237.952 131.797 237.835L130.092 235.32C130.048 235.254 130.005 235.199 129.962 235.155C129.918 235.109 129.87 235.072 129.817 235.045C129.763 235.015 129.703 234.995 129.637 234.985C129.57 234.972 129.495 234.965 129.412 234.965H128.582V238.19H127.412V230.99H128.582V234.07H129.287C129.433 234.07 129.557 234.047 129.657 234C129.757 233.954 129.855 233.864 129.952 233.73L131.677 231.31C131.733 231.217 131.802 231.14 131.882 231.08C131.965 231.02 132.063 230.99 132.177 230.99H133.167L131.107 233.91C131.023 234.034 130.928 234.135 130.822 234.215C130.715 234.295 130.597 234.359 130.467 234.405C130.653 234.455 130.812 234.537 130.942 234.65C131.075 234.764 131.2 234.92 131.317 235.12L133.352 238.19ZM140.308 230.99V238.19H139.138V233.41C139.138 233.25 139.141 233.084 139.148 232.91C139.158 232.737 139.176 232.55 139.203 232.35C139.139 232.524 139.071 232.685 138.998 232.835C138.928 232.982 138.858 233.112 138.788 233.225L135.738 237.825C135.711 237.869 135.679 237.912 135.643 237.955C135.609 237.999 135.569 238.039 135.523 238.075C135.479 238.109 135.433 238.137 135.383 238.16C135.333 238.18 135.279 238.19 135.223 238.19H134.348V230.99H135.523V235.765C135.523 235.925 135.518 236.094 135.508 236.27C135.501 236.444 135.484 236.627 135.458 236.82C135.521 236.65 135.588 236.492 135.658 236.345C135.731 236.195 135.801 236.065 135.868 235.955L138.918 231.355C138.944 231.312 138.974 231.269 139.008 231.225C139.044 231.182 139.084 231.144 139.128 231.11C139.174 231.074 139.223 231.045 139.273 231.025C139.323 231.002 139.376 230.99 139.433 230.99H140.308ZM146.618 237.245L146.613 238.19H142.123V230.99H146.613V231.935H143.298V234.105H145.948V235.02H143.298V237.245H146.618ZM155.53 231.965H153.285V238.19H152.12V231.965H149.87V230.99H155.53V231.965ZM161.127 237.245L161.122 238.19H156.632V230.99H161.122V231.935H157.807V234.105H160.457V235.02H157.807V237.245H161.127ZM168.179 238.19H167.014C166.934 238.19 166.869 238.169 166.819 238.125C166.769 238.082 166.729 238.034 166.699 237.98L164.909 235.095C164.896 235.135 164.881 235.174 164.864 235.21C164.851 235.247 164.834 235.282 164.814 235.315L163.084 237.98C163.047 238.034 163.006 238.082 162.959 238.125C162.916 238.169 162.857 238.19 162.784 238.19H161.694L164.124 234.49L161.794 230.99H162.954C163.037 230.99 163.097 231.004 163.134 231.03C163.174 231.054 163.209 231.09 163.239 231.14L164.989 233.89C165.006 233.85 165.022 233.81 165.039 233.77C165.056 233.73 165.077 233.689 165.104 233.645L166.734 231.16C166.767 231.104 166.804 231.062 166.844 231.035C166.884 231.005 166.932 230.99 166.989 230.99H168.104L165.754 234.44L168.179 238.19ZM175.156 230.99V238.19H173.986V234.985H170.371V238.19H169.196V230.99H170.371V234.14H173.986V230.99H175.156ZM183.736 234.59C183.736 235.124 183.65 235.615 183.476 236.065C183.303 236.515 183.058 236.904 182.741 237.23C182.428 237.554 182.05 237.807 181.606 237.99C181.166 238.174 180.676 238.265 180.136 238.265C179.6 238.265 179.11 238.174 178.666 237.99C178.226 237.807 177.848 237.554 177.531 237.23C177.215 236.904 176.97 236.515 176.796 236.065C176.623 235.615 176.536 235.124 176.536 234.59C176.536 234.057 176.623 233.565 176.796 233.115C176.97 232.665 177.215 232.277 177.531 231.95C177.848 231.624 178.226 231.369 178.666 231.185C179.11 231.002 179.6 230.91 180.136 230.91C180.676 230.91 181.166 231.002 181.606 231.185C182.05 231.369 182.428 231.624 182.741 231.95C183.058 232.277 183.303 232.665 183.476 233.115C183.65 233.565 183.736 234.057 183.736 234.59ZM182.541 234.59C182.541 234.177 182.485 233.805 182.371 233.475C182.261 233.145 182.101 232.865 181.891 232.635C181.685 232.405 181.433 232.229 181.136 232.105C180.84 231.982 180.506 231.92 180.136 231.92C179.77 231.92 179.438 231.982 179.141 232.105C178.845 232.229 178.591 232.405 178.381 232.635C178.171 232.865 178.01 233.145 177.896 233.475C177.783 233.805 177.726 234.177 177.726 234.59C177.726 235.007 177.783 235.38 177.896 235.71C178.01 236.04 178.171 236.32 178.381 236.55C178.591 236.777 178.845 236.952 179.141 237.075C179.438 237.195 179.77 237.255 180.136 237.255C180.506 237.255 180.84 237.195 181.136 237.075C181.433 236.952 181.685 236.777 181.891 236.55C182.101 236.32 182.261 236.04 182.371 235.71C182.485 235.38 182.541 235.007 182.541 234.59ZM190.573 238.19H189.398V231.905H187.238C187.191 232.815 187.126 233.605 187.043 234.275C186.959 234.945 186.859 235.515 186.743 235.985C186.629 236.455 186.499 236.839 186.353 237.135C186.209 237.432 186.049 237.664 185.873 237.83C185.699 237.997 185.513 238.11 185.313 238.17C185.113 238.23 184.901 238.26 184.678 238.26C184.258 238.26 184.048 238.185 184.048 238.035V237.295H184.418C184.541 237.295 184.664 237.274 184.788 237.23C184.914 237.184 185.036 237.087 185.153 236.94C185.269 236.794 185.381 236.582 185.488 236.305C185.594 236.025 185.691 235.652 185.778 235.185C185.864 234.719 185.938 234.144 185.998 233.46C186.061 232.774 186.108 231.95 186.138 230.99H190.573V238.19ZM199.151 234.59C199.151 235.124 199.065 235.615 198.891 236.065C198.718 236.515 198.473 236.904 198.156 237.23C197.843 237.554 197.465 237.807 197.021 237.99C196.581 238.174 196.091 238.265 195.551 238.265C195.015 238.265 194.525 238.174 194.081 237.99C193.641 237.807 193.263 237.554 192.946 237.23C192.63 236.904 192.385 236.515 192.211 236.065C192.038 235.615 191.951 235.124 191.951 234.59C191.951 234.057 192.038 233.565 192.211 233.115C192.385 232.665 192.63 232.277 192.946 231.95C193.263 231.624 193.641 231.369 194.081 231.185C194.525 231.002 195.015 230.91 195.551 230.91C196.091 230.91 196.581 231.002 197.021 231.185C197.465 231.369 197.843 231.624 198.156 231.95C198.473 232.277 198.718 232.665 198.891 233.115C199.065 233.565 199.151 234.057 199.151 234.59ZM197.956 234.59C197.956 234.177 197.9 233.805 197.786 233.475C197.676 233.145 197.516 232.865 197.306 232.635C197.1 232.405 196.848 232.229 196.551 232.105C196.255 231.982 195.921 231.92 195.551 231.92C195.185 231.92 194.853 231.982 194.556 232.105C194.26 232.229 194.006 232.405 193.796 232.635C193.586 232.865 193.425 233.145 193.311 233.475C193.198 233.805 193.141 234.177 193.141 234.59C193.141 235.007 193.198 235.38 193.311 235.71C193.425 236.04 193.586 236.32 193.796 236.55C194.006 236.777 194.26 236.952 194.556 237.075C194.853 237.195 195.185 237.255 195.551 237.255C195.921 237.255 196.255 237.195 196.551 237.075C196.848 236.952 197.1 236.777 197.306 236.55C197.516 236.32 197.676 236.04 197.786 235.71C197.9 235.38 197.956 235.007 197.956 234.59ZM204.923 231.905H201.708V238.19H200.533V230.99H204.923V231.905ZM211.984 230.99V238.19H210.814V233.41C210.814 233.25 210.817 233.084 210.824 232.91C210.834 232.737 210.852 232.55 210.879 232.35C210.815 232.524 210.747 232.685 210.674 232.835C210.604 232.982 210.534 233.112 210.464 233.225L207.414 237.825C207.387 237.869 207.355 237.912 207.319 237.955C207.285 237.999 207.245 238.039 207.199 238.075C207.155 238.109 207.109 238.137 207.059 238.16C207.009 238.18 206.955 238.19 206.899 238.19H206.024V230.99H207.199V235.765C207.199 235.925 207.194 236.094 207.184 236.27C207.177 236.444 207.16 236.627 207.134 236.82C207.197 236.65 207.264 236.492 207.334 236.345C207.407 236.195 207.477 236.065 207.544 235.955L210.594 231.355C210.62 231.312 210.65 231.269 210.684 231.225C210.72 231.182 210.76 231.144 210.804 231.11C210.85 231.074 210.899 231.045 210.949 231.025C210.999 231.002 211.052 230.99 211.109 230.99H211.984ZM219.76 230.99V238.19H218.59V233.41C218.59 233.25 218.593 233.084 218.6 232.91C218.61 232.737 218.628 232.55 218.655 232.35C218.591 232.524 218.523 232.685 218.45 232.835C218.38 232.982 218.31 233.112 218.24 233.225L215.19 237.825C215.163 237.869 215.131 237.912 215.095 237.955C215.061 237.999 215.021 238.039 214.975 238.075C214.931 238.109 214.885 238.137 214.835 238.16C214.785 238.18 214.731 238.19 214.675 238.19H213.8V230.99H214.975V235.765C214.975 235.925 214.97 236.094 214.96 236.27C214.953 236.444 214.936 236.627 214.91 236.82C214.973 236.65 215.04 236.492 215.11 236.345C215.183 236.195 215.253 236.065 215.32 235.955L218.37 231.355C218.396 231.312 218.426 231.269 218.46 231.225C218.496 231.182 218.536 231.144 218.58 231.11C218.626 231.074 218.675 231.045 218.725 231.025C218.775 231.002 218.828 230.99 218.885 230.99H219.76ZM222.11 230.51C222.26 230.764 222.362 231.029 222.415 231.305C222.469 231.579 222.474 231.85 222.43 232.12C222.387 232.387 222.295 232.644 222.155 232.89C222.019 233.137 221.835 233.357 221.605 233.55L221.27 233.345C221.214 233.309 221.187 233.262 221.19 233.205C221.197 233.145 221.217 233.099 221.25 233.065C221.327 232.972 221.397 232.854 221.46 232.71C221.524 232.567 221.565 232.41 221.585 232.24C221.609 232.067 221.604 231.885 221.57 231.695C221.54 231.505 221.469 231.317 221.355 231.13C221.302 231.044 221.287 230.969 221.31 230.905C221.334 230.842 221.382 230.797 221.455 230.77L222.11 230.51ZM223.705 230.51C223.855 230.764 223.957 231.029 224.01 231.305C224.064 231.579 224.069 231.85 224.025 232.12C223.982 232.387 223.89 232.644 223.75 232.89C223.614 233.137 223.43 233.357 223.2 233.55L222.865 233.345C222.809 233.309 222.782 233.262 222.785 233.205C222.792 233.145 222.812 233.099 222.845 233.065C222.922 232.972 222.992 232.854 223.055 232.71C223.119 232.567 223.16 232.41 223.18 232.24C223.204 232.067 223.199 231.885 223.165 231.695C223.135 231.505 223.064 231.317 222.95 231.13C222.897 231.044 222.882 230.969 222.905 230.905C222.929 230.842 222.977 230.797 223.05 230.77L223.705 230.51Z" fill="black"/>
<circle cx="18.7786" cy="265.571" r="8.19048" fill="#B7B7B7"/>
<path d="M40.3365 262.371V269.571H39.1665V264.791C39.1665 264.631 39.1698 264.465 39.1765 264.291C39.1865 264.118 39.2048 263.931 39.2315 263.731C39.1682 263.905 39.0998 264.066 39.0265 264.216C38.9565 264.363 38.8865 264.493 38.8165 264.606L35.7665 269.206C35.7398 269.25 35.7082 269.293 35.6715 269.336C35.6382 269.38 35.5982 269.42 35.5515 269.456C35.5082 269.49 35.4615 269.518 35.4115 269.541C35.3615 269.561 35.3082 269.571 35.2515 269.571H34.3765V262.371H35.5515V267.146C35.5515 267.306 35.5465 267.475 35.5365 267.651C35.5298 267.825 35.5132 268.008 35.4865 268.201C35.5498 268.031 35.6165 267.873 35.6865 267.726C35.7598 267.576 35.8298 267.446 35.8965 267.336L38.9465 262.736C38.9732 262.693 39.0032 262.65 39.0365 262.606C39.0732 262.563 39.1132 262.525 39.1565 262.491C39.2032 262.455 39.2515 262.426 39.3015 262.406C39.3515 262.383 39.4048 262.371 39.4615 262.371H40.3365ZM48.1123 262.371V269.571H46.9423V266.366H43.3273V269.571H42.1523V262.371H43.3273V265.521H46.9423V262.371H48.1123ZM54.493 268.656V263.286H52.333C52.293 264.043 52.238 264.711 52.168 265.291C52.098 265.868 52.0147 266.373 51.918 266.806C51.8247 267.236 51.7197 267.603 51.603 267.906C51.4897 268.206 51.3664 268.456 51.233 268.656H54.493ZM56.813 268.656V270.961C56.813 271.061 56.778 271.143 56.708 271.206C56.6414 271.27 56.553 271.301 56.443 271.301H55.743V269.571H50.213V270.961C50.213 271.061 50.178 271.143 50.108 271.206C50.0414 271.27 49.953 271.301 49.843 271.301H49.143V268.656H49.903C49.9997 268.606 50.0964 268.526 50.193 268.416C50.293 268.306 50.388 268.15 50.478 267.946C50.568 267.743 50.653 267.486 50.733 267.176C50.8164 266.866 50.8914 266.488 50.958 266.041C51.0247 265.591 51.0814 265.065 51.128 264.461C51.1747 263.858 51.2097 263.161 51.233 262.371H55.668V268.656H56.813ZM62.5016 268.626L62.4966 269.571H58.0066V262.371H62.4966V263.316H59.1816V265.486H61.8316V266.401H59.1816V268.626H62.5016ZM69.8083 269.571H68.7533C68.6399 269.571 68.5449 269.541 68.4683 269.481C68.3916 269.421 68.3199 269.333 68.2533 269.216L66.5483 266.701C66.5049 266.635 66.4616 266.58 66.4183 266.536C66.3749 266.49 66.3266 266.453 66.2733 266.426C66.2199 266.396 66.1599 266.376 66.0933 266.366C66.0266 266.353 65.9516 266.346 65.8683 266.346H65.0383V269.571H63.8683V262.371H65.0383V265.451H65.7433C65.8899 265.451 66.0133 265.428 66.1133 265.381C66.2133 265.335 66.3116 265.245 66.4083 265.111L68.1333 262.691C68.1899 262.598 68.2583 262.521 68.3383 262.461C68.4216 262.401 68.5199 262.371 68.6333 262.371H69.6233L67.5633 265.291C67.4799 265.415 67.3849 265.516 67.2783 265.596C67.1716 265.676 67.0533 265.74 66.9233 265.786C67.1099 265.836 67.2683 265.918 67.3983 266.031C67.5316 266.145 67.6566 266.301 67.7733 266.501L69.8083 269.571ZM75.4917 267.966C75.5551 267.966 75.6101 267.991 75.6567 268.041L76.1217 268.546C75.8284 268.9 75.4684 269.173 75.0417 269.366C74.6151 269.556 74.1051 269.651 73.5117 269.651C72.9851 269.651 72.5084 269.561 72.0817 269.381C71.6584 269.198 71.2967 268.945 70.9967 268.621C70.6967 268.295 70.4651 267.906 70.3017 267.456C70.1417 267.006 70.0617 266.511 70.0617 265.971C70.0617 265.431 70.1467 264.936 70.3167 264.486C70.4901 264.033 70.7317 263.645 71.0417 263.321C71.3551 262.995 71.7284 262.741 72.1617 262.561C72.5984 262.381 73.0784 262.291 73.6017 262.291C74.1217 262.291 74.5801 262.376 74.9767 262.546C75.3767 262.713 75.7234 262.936 76.0167 263.216L75.6317 263.761C75.6051 263.798 75.5734 263.83 75.5367 263.856C75.5001 263.883 75.4501 263.896 75.3867 263.896C75.3201 263.896 75.2434 263.866 75.1567 263.806C75.0734 263.743 74.9651 263.675 74.8317 263.601C74.7017 263.525 74.5367 263.456 74.3367 263.396C74.1401 263.333 73.8934 263.301 73.5967 263.301C73.2534 263.301 72.9384 263.361 72.6517 263.481C72.3651 263.601 72.1184 263.776 71.9117 264.006C71.7051 264.236 71.5434 264.516 71.4267 264.846C71.3134 265.176 71.2567 265.551 71.2567 265.971C71.2567 266.395 71.3167 266.773 71.4367 267.106C71.5567 267.436 71.7217 267.716 71.9317 267.946C72.1417 268.173 72.3884 268.346 72.6717 268.466C72.9551 268.586 73.2601 268.646 73.5867 268.646C73.7867 268.646 73.9651 268.636 74.1217 268.616C74.2817 268.593 74.4284 268.558 74.5617 268.511C74.6951 268.461 74.8201 268.4 74.9367 268.326C75.0567 268.253 75.1751 268.163 75.2917 268.056C75.3584 267.996 75.4251 267.966 75.4917 267.966ZM83.5876 263.601C83.5509 263.661 83.5126 263.706 83.4726 263.736C83.4326 263.763 83.3826 263.776 83.3226 263.776C83.2592 263.776 83.1876 263.75 83.1076 263.696C83.0309 263.643 82.9342 263.585 82.8176 263.521C82.7042 263.455 82.5692 263.395 82.4126 263.341C82.2559 263.285 82.0692 263.256 81.8526 263.256C81.6526 263.256 81.4759 263.281 81.3226 263.331C81.1726 263.381 81.0459 263.451 80.9426 263.541C80.8392 263.631 80.7609 263.738 80.7076 263.861C80.6576 263.981 80.6326 264.113 80.6326 264.256C80.6326 264.44 80.6809 264.593 80.7776 264.716C80.8742 264.836 81.0009 264.94 81.1576 265.026C81.3176 265.113 81.4992 265.19 81.7026 265.256C81.9059 265.32 82.1126 265.388 82.3226 265.461C82.5359 265.535 82.7442 265.618 82.9476 265.711C83.1509 265.805 83.3309 265.923 83.4876 266.066C83.6476 266.21 83.7759 266.385 83.8726 266.591C83.9692 266.798 84.0176 267.05 84.0176 267.346C84.0176 267.666 83.9626 267.966 83.8526 268.246C83.7426 268.526 83.5826 268.771 83.3726 268.981C83.1659 269.188 82.9092 269.351 82.6026 269.471C82.2992 269.591 81.9526 269.651 81.5626 269.651C81.3326 269.651 81.1076 269.628 80.8876 269.581C80.6709 269.538 80.4626 269.476 80.2626 269.396C80.0659 269.313 79.8809 269.213 79.7076 269.096C79.5342 268.98 79.3792 268.85 79.2426 268.706L79.5826 268.146C79.6126 268.1 79.6509 268.063 79.6976 268.036C79.7442 268.01 79.7959 267.996 79.8526 267.996C79.9292 267.996 80.0142 268.033 80.1076 268.106C80.2009 268.176 80.3126 268.255 80.4426 268.341C80.5759 268.425 80.7359 268.503 80.9226 268.576C81.1092 268.646 81.3326 268.681 81.5926 268.681C82.0159 268.681 82.3426 268.578 82.5726 268.371C82.8059 268.165 82.9226 267.88 82.9226 267.516C82.9226 267.313 82.8742 267.148 82.7776 267.021C82.6809 266.891 82.5526 266.783 82.3926 266.696C82.2359 266.61 82.0559 266.536 81.8526 266.476C81.6492 266.416 81.4426 266.353 81.2326 266.286C81.0226 266.216 80.8159 266.136 80.6126 266.046C80.4092 265.953 80.2276 265.833 80.0676 265.686C79.9109 265.536 79.7842 265.353 79.6876 265.136C79.5909 264.916 79.5426 264.643 79.5426 264.316C79.5426 264.056 79.5926 263.805 79.6926 263.561C79.7959 263.318 79.9442 263.103 80.1376 262.916C80.3342 262.726 80.5759 262.575 80.8626 262.461C81.1492 262.348 81.4759 262.291 81.8426 262.291C82.2559 262.291 82.6342 262.356 82.9776 262.486C83.3242 262.616 83.6226 262.801 83.8726 263.041L83.5876 263.601ZM91.4066 268.871L90.5266 268.031C90.8166 267.581 91.0266 267.041 91.1566 266.431L90.1466 266.101C90.0566 266.551 89.9266 266.951 89.7566 267.281L88.2466 265.841C89.2566 265.271 89.6766 264.751 89.6766 264.031C89.6766 263.081 88.9366 262.491 87.8066 262.491C86.5766 262.491 85.7766 263.161 85.7766 264.141C85.7766 264.651 85.9866 265.111 86.5566 265.681C85.4166 266.321 84.9366 266.931 84.9366 267.801C84.9366 268.901 86.0066 269.671 87.4866 269.671C88.4066 269.671 89.2066 269.371 89.8366 268.831L90.7166 269.681L91.4066 268.871ZM87.8066 263.381C88.3266 263.381 88.6166 263.651 88.6166 264.051C88.6166 264.431 88.3566 264.721 87.5466 265.161C87.0466 264.661 86.9166 264.431 86.9166 264.121C86.9166 263.691 87.2466 263.381 87.8066 263.381ZM87.5766 268.651C86.7166 268.651 86.1566 268.251 86.1566 267.671C86.1566 267.171 86.4366 266.801 87.2466 266.351L89.0966 268.121C88.6666 268.471 88.1566 268.651 87.5766 268.651ZM94.7821 266.041C95.0421 266.041 95.2704 266.008 95.4671 265.941C95.6671 265.875 95.8321 265.781 95.9621 265.661C96.0954 265.538 96.1954 265.39 96.2621 265.216C96.3288 265.043 96.3621 264.85 96.3621 264.636C96.3621 264.426 96.3288 264.238 96.2621 264.071C96.1988 263.905 96.1021 263.763 95.9721 263.646C95.8421 263.53 95.6771 263.441 95.4771 263.381C95.2804 263.318 95.0488 263.286 94.7821 263.286H93.7121V266.041H94.7821ZM94.7821 262.371C95.2521 262.371 95.6588 262.426 96.0021 262.536C96.3488 262.646 96.6338 262.801 96.8571 263.001C97.0838 263.198 97.2521 263.436 97.3621 263.716C97.4721 263.993 97.5271 264.3 97.5271 264.636C97.5271 264.98 97.4688 265.295 97.3521 265.581C97.2354 265.865 97.0621 266.11 96.8321 266.316C96.6021 266.52 96.3154 266.68 95.9721 266.796C95.6321 266.91 95.2354 266.966 94.7821 266.966H93.7121V269.571H92.5421V262.371H94.7821ZM102.132 265.031C102.306 264.995 102.471 264.968 102.627 264.951C102.787 264.935 102.941 264.926 103.087 264.926C103.464 264.926 103.796 264.983 104.082 265.096C104.372 265.206 104.614 265.36 104.807 265.556C105.004 265.753 105.151 265.985 105.247 266.251C105.347 266.515 105.397 266.801 105.397 267.111C105.397 267.495 105.331 267.843 105.197 268.156C105.064 268.47 104.879 268.738 104.642 268.961C104.406 269.181 104.126 269.351 103.802 269.471C103.482 269.591 103.136 269.651 102.762 269.651C102.542 269.651 102.332 269.63 102.132 269.586C101.936 269.543 101.751 269.485 101.577 269.411C101.404 269.335 101.244 269.248 101.097 269.151C100.951 269.051 100.819 268.948 100.702 268.841L101.032 268.381C101.102 268.281 101.196 268.231 101.312 268.231C101.386 268.231 101.466 268.258 101.552 268.311C101.639 268.365 101.739 268.423 101.852 268.486C101.969 268.546 102.106 268.603 102.262 268.656C102.419 268.71 102.606 268.736 102.822 268.736C103.059 268.736 103.271 268.698 103.457 268.621C103.644 268.545 103.801 268.438 103.927 268.301C104.057 268.161 104.156 267.995 104.222 267.801C104.289 267.608 104.322 267.396 104.322 267.166C104.322 266.956 104.291 266.768 104.227 266.601C104.167 266.435 104.076 266.293 103.952 266.176C103.832 266.06 103.681 265.971 103.497 265.911C103.314 265.848 103.102 265.816 102.862 265.816C102.686 265.816 102.504 265.831 102.317 265.861C102.134 265.891 101.947 265.938 101.757 266.001L101.087 265.811L101.677 262.371H105.162V262.836C105.162 262.99 105.114 263.115 105.017 263.211C104.921 263.308 104.759 263.356 104.532 263.356H102.422L102.132 265.031ZM111.633 265.971C111.633 266.601 111.565 267.146 111.428 267.606C111.295 268.066 111.11 268.448 110.873 268.751C110.637 269.055 110.358 269.28 110.038 269.426C109.718 269.573 109.373 269.646 109.003 269.646C108.633 269.646 108.288 269.573 107.968 269.426C107.648 269.28 107.37 269.055 107.133 268.751C106.9 268.448 106.717 268.066 106.583 267.606C106.45 267.146 106.383 266.601 106.383 265.971C106.383 265.341 106.45 264.796 106.583 264.336C106.717 263.873 106.9 263.491 107.133 263.191C107.37 262.888 107.648 262.663 107.968 262.516C108.288 262.366 108.633 262.291 109.003 262.291C109.373 262.291 109.718 262.366 110.038 262.516C110.358 262.663 110.637 262.888 110.873 263.191C111.11 263.491 111.295 263.873 111.428 264.336C111.565 264.796 111.633 265.341 111.633 265.971ZM110.523 265.971C110.523 265.438 110.48 264.995 110.393 264.641C110.31 264.285 110.198 264 110.058 263.786C109.918 263.573 109.757 263.421 109.573 263.331C109.39 263.241 109.2 263.196 109.003 263.196C108.803 263.196 108.612 263.241 108.428 263.331C108.248 263.421 108.088 263.573 107.948 263.786C107.808 264 107.697 264.285 107.613 264.641C107.53 264.995 107.488 265.438 107.488 265.971C107.488 266.505 107.53 266.95 107.613 267.306C107.697 267.66 107.808 267.943 107.948 268.156C108.088 268.37 108.248 268.521 108.428 268.611C108.612 268.701 108.803 268.746 109.003 268.746C109.2 268.746 109.39 268.701 109.573 268.611C109.757 268.521 109.918 268.37 110.058 268.156C110.198 267.943 110.31 267.66 110.393 267.306C110.48 266.95 110.523 266.505 110.523 265.971ZM117.534 265.971C117.534 266.601 117.466 267.146 117.329 267.606C117.196 268.066 117.011 268.448 116.774 268.751C116.537 269.055 116.259 269.28 115.939 269.426C115.619 269.573 115.274 269.646 114.904 269.646C114.534 269.646 114.189 269.573 113.869 269.426C113.549 269.28 113.271 269.055 113.034 268.751C112.801 268.448 112.617 268.066 112.484 267.606C112.351 267.146 112.284 266.601 112.284 265.971C112.284 265.341 112.351 264.796 112.484 264.336C112.617 263.873 112.801 263.491 113.034 263.191C113.271 262.888 113.549 262.663 113.869 262.516C114.189 262.366 114.534 262.291 114.904 262.291C115.274 262.291 115.619 262.366 115.939 262.516C116.259 262.663 116.537 262.888 116.774 263.191C117.011 263.491 117.196 263.873 117.329 264.336C117.466 264.796 117.534 265.341 117.534 265.971ZM116.424 265.971C116.424 265.438 116.381 264.995 116.294 264.641C116.211 264.285 116.099 264 115.959 263.786C115.819 263.573 115.657 263.421 115.474 263.331C115.291 263.241 115.101 263.196 114.904 263.196C114.704 263.196 114.512 263.241 114.329 263.331C114.149 263.421 113.989 263.573 113.849 263.786C113.709 264 113.597 264.285 113.514 264.641C113.431 264.995 113.389 265.438 113.389 265.971C113.389 266.505 113.431 266.95 113.514 267.306C113.597 267.66 113.709 267.943 113.849 268.156C113.989 268.37 114.149 268.521 114.329 268.611C114.512 268.701 114.704 268.746 114.904 268.746C115.101 268.746 115.291 268.701 115.474 268.611C115.657 268.521 115.819 268.37 115.959 268.156C116.099 267.943 116.211 267.66 116.294 267.306C116.381 266.95 116.424 266.505 116.424 265.971Z" fill="black"/>
<path d="M44.5803 180C43.0903 180 42.2603 180.83 42.2603 182.04C42.2603 183.17 43.0303 184.07 44.3603 184.11L42.0203 187H43.0903L45.3603 184.14H46.3403V187H47.2403V180H44.5803ZM44.6203 183.3L44.5203 183.91H44.5103L44.6203 183.3C43.7103 183.3 43.2003 182.82 43.2003 182.07C43.2003 181.34 43.7103 180.82 44.6603 180.82H46.3403V183.3H44.6203ZM52.3819 181.98V183.97H49.9619V181.98H49.1019V187H49.9619V184.73H52.3819V187H53.2419V181.98H52.3819ZM59.1031 185.55C59.1031 184.95 58.7531 184.5 58.1831 184.3C58.5731 184.1 58.7731 183.77 58.7731 183.32C58.7731 182.53 58.1431 181.98 57.1731 181.98H54.9831V187H57.4031C58.4031 187 59.1031 186.42 59.1031 185.55ZM57.0831 182.74C57.6331 182.74 57.8931 183.04 57.8931 183.39C57.8931 183.75 57.6331 184.04 57.0831 184.04H55.8431V182.74H57.0831ZM58.2231 185.5C58.2231 185.93 57.8831 186.24 57.3131 186.24H55.8431V184.76H57.3131C57.8831 184.76 58.2231 185.09 58.2231 185.5ZM43.3203 198.18L45.1103 195.94C45.7103 195.21 46.0503 194.61 46.0503 193.77C46.0503 192.54 45.2403 191.86 44.1103 191.86C43.3903 191.86 42.7203 192.15 42.3303 192.64V193.69H42.4603C42.8103 193.14 43.3903 192.72 44.0603 192.72C44.6903 192.72 45.1303 193.11 45.1303 193.84C45.1303 194.44 44.8503 194.94 44.4203 195.47L41.9603 198.52V199H46.2403V198.18H43.3203ZM49.898 191.86C48.458 191.86 47.418 193.17 47.418 195.5C47.418 197.83 48.458 199.14 49.898 199.14C51.338 199.14 52.378 197.83 52.378 195.5C52.378 193.17 51.338 191.86 49.898 191.86ZM49.898 198.28C48.938 198.28 48.338 197.29 48.338 195.5C48.338 193.71 48.938 192.72 49.898 192.72C50.858 192.72 51.458 193.71 51.458 195.5C51.458 197.29 50.858 198.28 49.898 198.28ZM54.7801 198.18L56.5701 195.94C57.1701 195.21 57.5101 194.61 57.5101 193.77C57.5101 192.54 56.7001 191.86 55.5701 191.86C54.8501 191.86 54.1801 192.15 53.7901 192.64V193.69H53.9201C54.2701 193.14 54.8501 192.72 55.5201 192.72C56.1501 192.72 56.5901 193.11 56.5901 193.84C56.5901 194.44 56.3101 194.94 55.8801 195.47L53.4201 198.52V199H57.7001V198.18H54.7801ZM60.0363 198.18L61.8263 195.94C62.4263 195.21 62.7663 194.61 62.7663 193.77C62.7663 192.54 61.9563 191.86 60.8263 191.86C60.1063 191.86 59.4363 192.15 59.0463 192.64V193.69H59.1763C59.5263 193.14 60.1063 192.72 60.7763 192.72C61.4063 192.72 61.8463 193.11 61.8463 193.84C61.8463 194.44 61.5663 194.94 61.1363 195.47L58.6763 198.52V199H62.9563V198.18H60.0363Z" fill="black"/>
<path d="M292.929 180C291.439 180 290.609 180.83 290.609 182.04C290.609 183.17 291.379 184.07 292.709 184.11L290.369 187H291.439L293.709 184.14H294.689V187H295.589V180H292.929ZM292.969 183.3L292.869 183.91H292.859L292.969 183.3C292.059 183.3 291.549 182.82 291.549 182.07C291.549 181.34 292.059 180.82 293.009 180.82H294.689V183.3H292.969ZM300.731 181.98V183.97H298.311V181.98H297.451V187H298.311V184.73H300.731V187H301.591V181.98H300.731ZM307.452 185.55C307.452 184.95 307.102 184.5 306.532 184.3C306.922 184.1 307.122 183.77 307.122 183.32C307.122 182.53 306.492 181.98 305.522 181.98H303.332V187H305.752C306.752 187 307.452 186.42 307.452 185.55ZM305.432 182.74C305.982 182.74 306.242 183.04 306.242 183.39C306.242 183.75 305.982 184.04 305.432 184.04H304.192V182.74H305.432ZM306.572 185.5C306.572 185.93 306.232 186.24 305.662 186.24H304.192V184.76H305.662C306.232 184.76 306.572 185.09 306.572 185.5ZM289.887 198.18L291.677 195.94C292.277 195.21 292.617 194.61 292.617 193.77C292.617 192.54 291.807 191.86 290.677 191.86C289.957 191.86 289.287 192.15 288.897 192.64V193.69H289.027C289.377 193.14 289.957 192.72 290.627 192.72C291.257 192.72 291.697 193.11 291.697 193.84C291.697 194.44 291.417 194.94 290.987 195.47L288.527 198.52V199H292.807V198.18H289.887ZM296.465 191.86C295.025 191.86 293.985 193.17 293.985 195.5C293.985 197.83 295.025 199.14 296.465 199.14C297.905 199.14 298.945 197.83 298.945 195.5C298.945 193.17 297.905 191.86 296.465 191.86ZM296.465 198.28C295.505 198.28 294.905 197.29 294.905 195.5C294.905 193.71 295.505 192.72 296.465 192.72C297.425 192.72 298.025 193.71 298.025 195.5C298.025 197.29 297.425 198.28 296.465 198.28ZM301.347 198.18L303.137 195.94C303.737 195.21 304.077 194.61 304.077 193.77C304.077 192.54 303.267 191.86 302.137 191.86C301.417 191.86 300.747 192.15 300.357 192.64V193.69H300.487C300.837 193.14 301.417 192.72 302.087 192.72C302.717 192.72 303.157 193.11 303.157 193.84C303.157 194.44 302.877 194.94 302.447 195.47L299.987 198.52V199H304.267V198.18H301.347ZM309.333 197.11C309.333 196.24 308.913 195.57 308.123 195.24C308.763 194.96 309.073 194.42 309.073 193.73C309.073 192.62 308.243 191.86 306.983 191.86C306.413 191.86 305.913 192.03 305.493 192.37V193.41H305.623C305.963 192.95 306.403 192.72 306.953 192.72C307.743 192.72 308.153 193.17 308.153 193.84C308.153 194.53 307.673 194.91 306.743 194.91H306.363V195.75H306.763C307.803 195.75 308.413 196.23 308.413 197.03C308.413 197.82 307.813 198.28 306.963 198.28C306.233 198.28 305.763 197.95 305.373 197.32H305.223V198.51C305.673 198.93 306.263 199.14 306.993 199.14C307.713 199.14 308.283 198.96 308.703 198.59C309.123 198.22 309.333 197.72 309.333 197.11Z" fill="black"/>
<path d="M103.077 187H104.057L101.147 180H100.527L97.6173 187H98.5773L99.3173 185.14H102.347L103.077 187ZM99.6273 184.36L100.827 181.31L102.037 184.36H99.6273ZM105.221 181.98V187H106.081V182.74H108.441V187H109.301V181.98H105.221ZM116.044 184.49C116.074 182.74 114.834 181.82 113.654 181.84C112.934 181.84 112.244 182.17 111.804 182.8V181.98H111.044V188.94H111.904V186.31C112.344 186.86 112.984 187.14 113.664 187.14C114.864 187.14 116.044 186.26 116.044 184.49ZM115.164 184.49C115.164 185.76 114.344 186.34 113.504 186.34C112.664 186.34 111.844 185.76 111.844 184.49C111.844 183.22 112.664 182.64 113.504 182.64C114.344 182.64 115.164 183.22 115.164 184.49ZM97.8039 198.18L99.5939 195.94C100.194 195.21 100.534 194.61 100.534 193.77C100.534 192.54 99.7239 191.86 98.5939 191.86C97.8739 191.86 97.2039 192.15 96.8139 192.64V193.69H96.9439C97.2939 193.14 97.8739 192.72 98.5439 192.72C99.1739 192.72 99.6139 193.11 99.6139 193.84C99.6139 194.44 99.3339 194.94 98.9039 195.47L96.4439 198.52V199H100.724V198.18H97.8039ZM104.382 191.86C102.942 191.86 101.902 193.17 101.902 195.5C101.902 197.83 102.942 199.14 104.382 199.14C105.822 199.14 106.862 197.83 106.862 195.5C106.862 193.17 105.822 191.86 104.382 191.86ZM104.382 198.28C103.422 198.28 102.822 197.29 102.822 195.5C102.822 193.71 103.422 192.72 104.382 192.72C105.342 192.72 105.942 193.71 105.942 195.5C105.942 197.29 105.342 198.28 104.382 198.28ZM109.264 198.18L111.054 195.94C111.654 195.21 111.994 194.61 111.994 193.77C111.994 192.54 111.184 191.86 110.054 191.86C109.334 191.86 108.664 192.15 108.274 192.64V193.69H108.404C108.754 193.14 109.334 192.72 110.004 192.72C110.634 192.72 111.074 193.11 111.074 193.84C111.074 194.44 110.794 194.94 110.364 195.47L107.904 198.52V199H112.184V198.18H109.264ZM114.52 198.18L116.31 195.94C116.91 195.21 117.25 194.61 117.25 193.77C117.25 192.54 116.44 191.86 115.31 191.86C114.59 191.86 113.92 192.15 113.53 192.64V193.69H113.66C114.01 193.14 114.59 192.72 115.26 192.72C115.89 192.72 116.33 193.11 116.33 193.84C116.33 194.44 116.05 194.94 115.62 195.47L113.16 198.52V199H117.44V198.18H114.52Z" fill="black"/>
<path d="M163.031 180L158.971 185.44V180H158.071V187H158.771L162.831 181.56V187H163.731V180H163.031ZM172.48 184.49C172.48 182.84 171.37 181.84 169.96 181.84C168.68 181.84 167.64 182.66 167.46 184.03H166.45V181.98H165.59V187H166.45V184.79H167.44C167.56 186.26 168.64 187.14 169.96 187.14C171.37 187.14 172.48 186.14 172.48 184.49ZM171.6 184.49C171.6 185.69 170.87 186.34 169.95 186.34C169.04 186.34 168.29 185.69 168.29 184.49C168.29 183.29 169.04 182.64 169.95 182.64C170.87 182.64 171.6 183.29 171.6 184.49ZM174.485 181.98L174.455 183.05C174.395 185.39 174.085 186.19 173.415 186.19H173.265V187H173.555C174.595 186.98 175.085 186.39 175.225 183.24L175.245 182.74H176.985V187H177.845V181.98H174.485ZM183.569 185.39C183.569 184.36 182.879 183.79 181.759 183.79H180.449V181.98H179.589V187H181.759C182.869 187 183.569 186.42 183.569 185.39ZM182.689 185.39C182.689 185.92 182.349 186.24 181.679 186.24H180.449V184.54H181.679C182.349 184.54 182.689 184.86 182.689 185.39ZM161.304 198.18L163.094 195.94C163.694 195.21 164.034 194.61 164.034 193.77C164.034 192.54 163.224 191.86 162.094 191.86C161.374 191.86 160.704 192.15 160.314 192.64V193.69H160.444C160.794 193.14 161.374 192.72 162.044 192.72C162.674 192.72 163.114 193.11 163.114 193.84C163.114 194.44 162.834 194.94 162.404 195.47L159.944 198.52V199H164.224V198.18H161.304ZM167.882 191.86C166.442 191.86 165.402 193.17 165.402 195.5C165.402 197.83 166.442 199.14 167.882 199.14C169.322 199.14 170.362 197.83 170.362 195.5C170.362 193.17 169.322 191.86 167.882 191.86ZM167.882 198.28C166.922 198.28 166.322 197.29 166.322 195.5C166.322 193.71 166.922 192.72 167.882 192.72C168.842 192.72 169.442 193.71 169.442 195.5C169.442 197.29 168.842 198.28 167.882 198.28ZM172.764 198.18L174.554 195.94C175.154 195.21 175.494 194.61 175.494 193.77C175.494 192.54 174.684 191.86 173.554 191.86C172.834 191.86 172.164 192.15 171.774 192.64V193.69H171.904C172.254 193.14 172.834 192.72 173.504 192.72C174.134 192.72 174.574 193.11 174.574 193.84C174.574 194.44 174.294 194.94 173.864 195.47L171.404 198.52V199H175.684V198.18H172.764ZM178.02 198.18L179.81 195.94C180.41 195.21 180.75 194.61 180.75 193.77C180.75 192.54 179.94 191.86 178.81 191.86C178.09 191.86 177.42 192.15 177.03 192.64V193.69H177.16C177.51 193.14 178.09 192.72 178.76 192.72C179.39 192.72 179.83 193.11 179.83 193.84C179.83 194.44 179.55 194.94 179.12 195.47L176.66 198.52V199H180.94V198.18H178.02Z" fill="black"/>
<path d="M229.596 179.86C227.526 179.86 225.976 181.31 225.976 183.5C225.976 185.69 227.526 187.14 229.596 187.14C231.666 187.14 233.216 185.69 233.216 183.5C233.216 181.31 231.666 179.86 229.596 179.86ZM229.596 186.28C228.046 186.28 226.916 185.17 226.916 183.5C226.916 181.83 228.046 180.72 229.596 180.72C231.146 180.72 232.276 181.83 232.276 183.5C232.276 185.17 231.146 186.28 229.596 186.28ZM238.982 187L236.562 184.25L238.732 181.98H237.622L235.612 184.14V181.98H234.752V187H235.612V184.44L237.812 187H238.982ZM243.547 181.98H239.487V182.74H241.087V187H241.947V182.74H243.547V181.98ZM225.304 198.18L227.094 195.94C227.694 195.21 228.034 194.61 228.034 193.77C228.034 192.54 227.224 191.86 226.094 191.86C225.374 191.86 224.704 192.15 224.314 192.64V193.69H224.444C224.794 193.14 225.374 192.72 226.044 192.72C226.674 192.72 227.114 193.11 227.114 193.84C227.114 194.44 226.834 194.94 226.404 195.47L223.944 198.52V199H228.224V198.18H225.304ZM231.882 191.86C230.442 191.86 229.402 193.17 229.402 195.5C229.402 197.83 230.442 199.14 231.882 199.14C233.322 199.14 234.362 197.83 234.362 195.5C234.362 193.17 233.322 191.86 231.882 191.86ZM231.882 198.28C230.922 198.28 230.322 197.29 230.322 195.5C230.322 193.71 230.922 192.72 231.882 192.72C232.842 192.72 233.442 193.71 233.442 195.5C233.442 197.29 232.842 198.28 231.882 198.28ZM236.764 198.18L238.554 195.94C239.154 195.21 239.494 194.61 239.494 193.77C239.494 192.54 238.684 191.86 237.554 191.86C236.834 191.86 236.164 192.15 235.774 192.64V193.69H235.904C236.254 193.14 236.834 192.72 237.504 192.72C238.134 192.72 238.574 193.11 238.574 193.84C238.574 194.44 238.294 194.94 237.864 195.47L235.404 198.52V199H239.684V198.18H236.764ZM242.02 198.18L243.81 195.94C244.41 195.21 244.75 194.61 244.75 193.77C244.75 192.54 243.94 191.86 242.81 191.86C242.09 191.86 241.42 192.15 241.03 192.64V193.69H241.16C241.51 193.14 242.09 192.72 242.76 192.72C243.39 192.72 243.83 193.11 243.83 193.84C243.83 194.44 243.55 194.94 243.12 195.47L240.66 198.52V199H244.94V198.18H242.02Z" fill="black"/>
</svg>
