<svg width="672" height="360" viewBox="0 0 672 360" fill="none" xmlns="http://www.w3.org/2000/svg">
<path d="M34.3513 203.124L42.6443 165.908L49.4789 148.72L52.2932 150.152L54.7054 156.905L58.3237 148.72L64.3543 155.882L67.9726 170L70.3849 172.66L74.0032 159.565L77.2195 163.862L82.446 171.637L88.0745 152.608L93.703 141.149L97.7234 140.536L100.538 135.625L103.754 141.149L106.97 134.193L117.021 122.53L120.237 126.008L122.65 133.374L127.876 127.85L134.711 138.08L137.927 136.648L140.741 138.08L143.556 146.469L147.576 147.697L149.184 142.991L154.009 148.72H155.617L160.039 140.536L163.255 141.968L166.07 148.72L167.678 160.997L171.296 159.155L174.512 171.637L177.327 170.614L180.141 159.565L183.759 176.957L189.79 171.637L193.006 158.542L195.418 174.297L199.037 177.571L201.449 191.689L204.263 191.075L208.686 198.441H212.304L215.118 188.211L216.726 189.438L220.345 182.072L223.159 199.055L226.375 201.715H229.19L232.406 194.144L235.622 196.804L239.643 191.689L244.869 173.888L250.498 178.594L254.116 171.637L256.93 178.594L260.548 177.571L263.363 173.069L267.383 178.594L269.795 189.438L272.61 201.715L275.022 218.084L278.238 219.107L281.856 214.811L284.671 226.678L288.289 225.655L291.103 216.038L294.32 216.447L297.134 212.56L300.35 200.283L303.968 201.715L307.185 209.9L309.999 210.923L312.813 214.197L316.03 209.491L322.462 207.444L324.472 201.101L328.493 201.715L332.513 209.491L339.75 213.583L343.368 206.012L346.182 209.081L348.595 197.418L351.811 195.168L355.027 190.871L357.841 195.168H362.264L365.48 199.055L367.892 187.801L373.923 176.548L377.541 177.571L380.356 181.049L383.572 174.092L392.819 175.729L394.829 177.571L398.045 167.954H401.261L404.076 159.974L410.91 157.109L414.127 160.997L416.941 159.974L420.157 166.112L422.971 175.729L425.786 177.162L429.404 175.115L431.816 169.182L435.033 185.346L437.847 186.574L443.877 195.168L447.898 194.554L449.506 198.441L452.32 199.874L456.341 193.121L457.949 190.871L465.587 178.798L468.804 198.441L472.422 196.395L477.649 204.171L481.669 202.534L486.895 213.378L491.318 218.084L492.926 224.018L496.142 227.906L499.359 228.929L502.575 221.767L508.203 235.886L514.234 213.378L517.852 214.606L521.873 219.107L524.285 229.952L529.913 235.067L533.532 235.886L535.944 227.497L539.562 235.886L542.376 225.655L545.191 221.767L551.623 226.678L553.634 218.084L561.272 205.807L567.303 211.741L569.313 201.92L576.148 206.421L578.56 217.471L581.776 220.949L590.621 209.081L594.641 218.084L597.054 195.372L599.868 192.098L603.888 195.372L607.104 192.098L609.919 195.372L613.135 196.6L615.547 194.144L619.166 195.986L621.98 190.052L625.598 187.188H628.01L631.629 194.554L634.845 195.986L637.257 182.891L643.69 183.505L649.72 196.6L652.535 197.828L656.153 194.144L660.173 197.828V191.485L666.606 188.62L670.626 191.485" stroke="black" stroke-opacity="0.25" stroke-width="1.96571"/>
<path d="M34.0754 202.803L38.4902 196.572L44.0086 190.677L46.4919 187.398L49.4889 183.525L53.114 180.416L56.9769 179.173L58.6325 172.655L60.753 169.223L63.9713 180.416H66.7874L70.0057 160.517L76.4424 162.072L82.0744 183.525L86.0974 184.458L88.5111 179.794L91.7294 183.525L94.9478 174.82L96.9592 170.778L100.982 174.82L103.798 190.677L109.833 204.046L113.453 202.803L115.867 194.408L119.488 202.803L123.108 200.004L125.924 201.87L127.936 209.021L130.752 200.004L138.797 202.803L140.809 197.828L143.625 204.046L156.096 190.677L159.717 172.021L162.533 167.358L166.153 165.181L172.188 197.828L175.004 190.677L177.82 177.307L181.44 188.5L184.256 187.567L188.279 180.105L190.693 170.156L193.911 163.937L198.739 146.837L204.371 151.811L207.187 145.282L208.796 138.442L213.221 141.862L216.037 112.946L218.853 120.719L220.865 130.047L225.29 134.089L227.302 145.282L230.118 141.862L231.727 136.576H236.957L242.991 123.518L246.612 119.787L248.221 98.6439L251.841 106.728L255.462 109.526L258.278 106.728L261.094 92.7364L264.312 83.7197L267.933 84.9633L270.347 81.2323L276.381 83.7197L279.197 95.5347H282.818L284.829 110.148L288.047 106.728L298.105 104.24L300.921 112.946L304.944 110.148L308.162 109.526L312.99 125.694L314.964 116.677L317.377 106.728H320.596L325.021 101.442L327.032 108.593L330.653 112.014L332.664 130.047L336.285 124.45L339.101 135.954L345.538 132.534L351.572 117.921H354.388L356.802 127.56L363.238 130.047L366.457 138.131L371.284 131.602H373.296L377.319 116.677H380.537L382.146 135.022L384.56 140.307L387.778 140.929H391.36H394.981L397.835 136.887L399.12 143.417H402.707L403.87 127.56L407.49 132.534L410.307 128.492L413.123 139.686H415.939L418.755 135.954L422.778 109.215L425.191 120.097H428.007L430.823 134.4L433.639 132.534L436.858 122.896L440.881 123.829L443.697 104.862V98.9548L447.72 87.7616L450.938 81.2323L452.547 87.7616L458.619 117.299L459.826 107.35L464.251 117.299L471.492 109.837L474.308 111.392L477.929 121.341L482.756 117.299L484.366 127.56H487.986L492.411 123.829L494.825 97.4002L497.641 109.526H500.457L504.078 123.207H506.894L509.71 112.324L514.94 113.879V115.123L517.756 112.324L522.181 86.207L526.204 107.35L532.64 112.324L533.445 89.0053L537.468 106.106L542.295 107.35L543.905 87.4507L546.721 90.5599L549.939 69.1064L552.755 59.4678H555.571L559.594 70.9719H562.008L565.628 62.577L568.847 70.0391L572.065 67.5517L573.674 54.804L577.697 54.1821L580.915 56.3586L585.743 41.7453L590.168 46.72L592.582 47.9637L595.8 37.3924L598.616 32.1067L606.662 47.9637L610.283 59.4678L614.306 51.3838L616.719 54.804L622.754 86.518L626.374 80.6104L630.397 70.9719H632.006L634.822 82.476V86.518L636.834 82.476L640.052 68.4845L641.259 57.6023L647.696 52.9384L650.11 64.1316L652.926 54.804L656.546 51.3838L658.558 66.9299C660.167 71.1792 663.385 79.429 663.385 78.434C663.385 77.4391 666.067 66.619 667.408 61.3333L669.523 47.9637" stroke="#28CE83" stroke-width="1.96571"/>
<path d="M1.19994 267.657V268.495H4.11444V267.657H1.19994ZM7.02444 263.757C6.95105 264.459 6.31154 264.899 5.46235 264.899V265.78C6.05993 265.78 6.52122 265.633 6.86718 265.329V271.095H7.78976V263.757H7.02444ZM12.2561 263.61C10.7464 263.61 9.65612 264.983 9.65612 267.426C9.65612 269.869 10.7464 271.242 12.2561 271.242C13.7658 271.242 14.8561 269.869 14.8561 267.426C14.8561 264.983 13.7658 263.61 12.2561 263.61ZM12.2561 270.34C11.2497 270.34 10.6206 269.302 10.6206 267.426C10.6206 265.549 11.2497 264.511 12.2561 264.511C13.2626 264.511 13.8916 265.549 13.8916 267.426C13.8916 269.302 13.2626 270.34 12.2561 270.34ZM16.0515 265.465C16.0515 266.577 16.8797 267.321 17.9281 267.321C18.9765 267.321 19.8047 266.577 19.8047 265.465C19.8047 264.354 18.9765 263.61 17.9281 263.61C16.8797 263.61 16.0515 264.354 16.0515 265.465ZM22.0587 263.757L17.7604 271.095H18.5781L22.8765 263.757H22.0587ZM19.0079 265.465C19.0079 266.136 18.5152 266.566 17.9281 266.566C17.341 266.566 16.8483 266.136 16.8483 265.465C16.8483 264.794 17.341 264.365 17.9281 264.365C18.5152 264.365 19.0079 264.794 19.0079 265.465ZM20.8321 269.386C20.8321 270.498 21.6603 271.242 22.7087 271.242C23.7571 271.242 24.5853 270.498 24.5853 269.386C24.5853 268.275 23.7571 267.531 22.7087 267.531C21.6603 267.531 20.8321 268.275 20.8321 269.386ZM23.7885 269.386C23.7885 270.057 23.2958 270.487 22.7087 270.487C22.1216 270.487 21.6289 270.057 21.6289 269.386C21.6289 268.715 22.1216 268.286 22.7087 268.286C23.2958 268.286 23.7885 268.715 23.7885 269.386Z" fill="black"/>
<path d="M21.7137 198.741C20.204 198.741 19.1137 200.115 19.1137 202.557C19.1137 205 20.204 206.374 21.7137 206.374C23.2234 206.374 24.3137 205 24.3137 202.557C24.3137 200.115 23.2234 198.741 21.7137 198.741ZM21.7137 205.472C20.7073 205.472 20.0782 204.434 20.0782 202.557C20.0782 200.681 20.7073 199.643 21.7137 199.643C22.7201 199.643 23.3492 200.681 23.3492 202.557C23.3492 204.434 22.7201 205.472 21.7137 205.472Z" fill="black"/>
<path d="M6.88735 132.709C6.81397 133.411 6.17445 133.852 5.32527 133.852V134.732C5.92284 134.732 6.38413 134.586 6.7301 134.282V140.048H7.65267V132.709H6.88735ZM12.119 132.562C10.6094 132.562 9.51904 133.936 9.51904 136.378C9.51904 138.821 10.6094 140.194 12.119 140.194C13.6287 140.194 14.719 138.821 14.719 136.378C14.719 133.936 13.6287 132.562 12.119 132.562ZM12.119 139.293C11.1126 139.293 10.4835 138.255 10.4835 136.378C10.4835 134.502 11.1126 133.464 12.119 133.464C13.1255 133.464 13.7545 134.502 13.7545 136.378C13.7545 138.255 13.1255 139.293 12.119 139.293ZM15.9144 134.418C15.9144 135.529 16.7426 136.273 17.791 136.273C18.8394 136.273 19.6676 135.529 19.6676 134.418C19.6676 133.307 18.8394 132.562 17.791 132.562C16.7426 132.562 15.9144 133.307 15.9144 134.418ZM21.9216 132.709L17.6233 140.048H18.441L22.7394 132.709H21.9216ZM18.8708 134.418C18.8708 135.089 18.3781 135.519 17.791 135.519C17.2039 135.519 16.7112 135.089 16.7112 134.418C16.7112 133.747 17.2039 133.317 17.791 133.317C18.3781 133.317 18.8708 133.747 18.8708 134.418ZM20.695 138.339C20.695 139.45 21.5232 140.194 22.5716 140.194C23.62 140.194 24.4482 139.45 24.4482 138.339C24.4482 137.227 23.62 136.483 22.5716 136.483C21.5232 136.483 20.695 137.227 20.695 138.339ZM23.6515 138.339C23.6515 139.01 23.1587 139.44 22.5716 139.44C21.9845 139.44 21.4918 139.01 21.4918 138.339C21.4918 137.668 21.9845 137.238 22.5716 137.238C23.1587 137.238 23.6515 137.668 23.6515 138.339Z" fill="black"/>
<path d="M5.11937 73.6643L6.99597 71.3159C7.625 70.5506 7.98145 69.9215 7.98145 69.0409C7.98145 67.7514 7.13226 67.0385 5.94759 67.0385C5.19276 67.0385 4.49034 67.3425 4.08147 67.8562V68.957H4.21776C4.5847 68.3804 5.19276 67.9401 5.89517 67.9401C6.55565 67.9401 7.01694 68.349 7.01694 69.1143C7.01694 69.7433 6.72339 70.2675 6.27259 70.8231L3.69357 74.0207V74.5239H8.18064V73.6643H5.11937ZM12.0153 67.0385C10.5056 67.0385 9.41528 68.4119 9.41528 70.8546C9.41528 73.2973 10.5056 74.6707 12.0153 74.6707C13.5249 74.6707 14.6152 73.2973 14.6152 70.8546C14.6152 68.4119 13.5249 67.0385 12.0153 67.0385ZM12.0153 73.7691C11.0088 73.7691 10.3798 72.7312 10.3798 70.8546C10.3798 68.978 11.0088 67.9401 12.0153 67.9401C13.0217 67.9401 13.6507 68.978 13.6507 70.8546C13.6507 72.7312 13.0217 73.7691 12.0153 73.7691ZM15.8106 68.8941C15.8106 70.0054 16.6389 70.7498 17.6872 70.7498C18.7356 70.7498 19.5639 70.0054 19.5639 68.8941C19.5639 67.7828 18.7356 67.0385 17.6872 67.0385C16.6389 67.0385 15.8106 67.7828 15.8106 68.8941ZM21.8179 67.1853L17.5195 74.5239H18.3372L22.6356 67.1853H21.8179ZM18.7671 68.8941C18.7671 69.5651 18.2743 69.9949 17.6872 69.9949C17.1002 69.9949 16.6074 69.5651 16.6074 68.8941C16.6074 68.2232 17.1002 67.7933 17.6872 67.7933C18.2743 67.7933 18.7671 68.2232 18.7671 68.8941ZM20.5913 72.8151C20.5913 73.9263 21.4195 74.6707 22.4679 74.6707C23.5162 74.6707 24.3445 73.9263 24.3445 72.8151C24.3445 71.7038 23.5162 70.9594 22.4679 70.9594C21.4195 70.9594 20.5913 71.7038 20.5913 72.8151ZM23.5477 72.8151C23.5477 73.486 23.055 73.9159 22.4679 73.9159C21.8808 73.9159 21.388 73.486 21.388 72.8151C21.388 72.1441 21.8808 71.7143 22.4679 71.7143C23.055 71.7143 23.5477 72.1441 23.5477 72.8151Z" fill="black"/>
<path d="M8.19645 7.01856C8.19645 6.10647 7.75613 5.40405 6.92791 5.05809C7.59887 4.76454 7.92387 4.19841 7.92387 3.47503C7.92387 2.31133 7.05372 1.51456 5.73276 1.51456C5.13518 1.51456 4.61099 1.69278 4.17067 2.04923V3.13955H4.30696C4.66341 2.65729 5.12469 2.41617 5.7013 2.41617C6.52953 2.41617 6.95936 2.88794 6.95936 3.59035C6.95936 4.31374 6.45614 4.71212 5.48114 4.71212H5.08276V5.59276H5.50211C6.59243 5.59276 7.23194 6.09598 7.23194 6.93469C7.23194 7.76291 6.60291 8.24517 5.71179 8.24517C4.94647 8.24517 4.45373 7.8992 4.04486 7.23872H3.8876V8.48629C4.35938 8.92661 4.97792 9.14677 5.74324 9.14677C6.49807 9.14677 7.09565 8.95806 7.53597 8.57016C7.97629 8.18226 8.19645 7.65807 8.19645 7.01856ZM12.0153 1.51456C10.5056 1.51456 9.41528 2.88794 9.41528 5.33067C9.41528 7.77339 10.5056 9.14677 12.0153 9.14677C13.5249 9.14677 14.6152 7.77339 14.6152 5.33067C14.6152 2.88794 13.5249 1.51456 12.0153 1.51456ZM12.0153 8.24517C11.0088 8.24517 10.3798 7.20727 10.3798 5.33067C10.3798 3.45406 11.0088 2.41617 12.0153 2.41617C13.0217 2.41617 13.6507 3.45406 13.6507 5.33067C13.6507 7.20727 13.0217 8.24517 12.0153 8.24517ZM15.8106 3.37019C15.8106 4.48148 16.6389 5.22583 17.6873 5.22583C18.7356 5.22583 19.5639 4.48148 19.5639 3.37019C19.5639 2.25891 18.7356 1.51456 17.6873 1.51456C16.6389 1.51456 15.8106 2.25891 15.8106 3.37019ZM21.8179 1.66133L17.5195 9H18.3372L22.6356 1.66133H21.8179ZM18.7671 3.37019C18.7671 4.04116 18.2743 4.47099 17.6873 4.47099C17.1002 4.47099 16.6074 4.04116 16.6074 3.37019C16.6074 2.69923 17.1002 2.26939 17.6873 2.26939C18.2743 2.26939 18.7671 2.69923 18.7671 3.37019ZM20.5913 7.29114C20.5913 8.40242 21.4195 9.14677 22.4679 9.14677C23.5163 9.14677 24.3445 8.40242 24.3445 7.29114C24.3445 6.17985 23.5163 5.4355 22.4679 5.4355C21.4195 5.4355 20.5913 6.17985 20.5913 7.29114ZM23.5477 7.29114C23.5477 7.9621 23.055 8.39194 22.4679 8.39194C21.8808 8.39194 21.388 7.9621 21.388 7.29114C21.388 6.62017 21.8808 6.19034 22.4679 6.19034C23.055 6.19034 23.5477 6.62017 23.5477 7.29114Z" fill="black"/>
<path d="M33.7994 0L33.9162 268.648" stroke="black" stroke-opacity="0.37" stroke-width="0.655238"/>
<path d="M191.916 0L192.046 268.648" stroke="black" stroke-opacity="0.15" stroke-width="1.31048" stroke-dasharray="3.28 6.55"/>
<path d="M350.046 0L350.21 268.648" stroke="black" stroke-opacity="0.15" stroke-width="1.31048" stroke-dasharray="3.28 6.55"/>
<path d="M508.21 0L508.375 268.648" stroke="black" stroke-opacity="0.15" stroke-width="1.31048" stroke-dasharray="3.28 6.55"/>
<path d="M666.375 0L666.539 268.648" stroke="black" stroke-opacity="0.15" stroke-width="1.31048" stroke-dasharray="3.28 6.55"/>
<path d="M33.9962 268.648H670.626" stroke="black" stroke-opacity="0.37" stroke-width="0.655238"/>
<path d="M33.9962 203.124L670.626 203.124" stroke="black" stroke-opacity="0.2" stroke-width="0.655238" stroke-dasharray="3.28 6.55"/>
<path d="M33.9962 137.6L670.626 137.6" stroke="black" stroke-opacity="0.2" stroke-width="0.655238" stroke-dasharray="3.28 6.55"/>
<path d="M33.9962 72.0762L670.626 72.0762" stroke="black" stroke-opacity="0.2" stroke-width="0.655238" stroke-dasharray="3.28 6.55"/>
<circle cx="41.9899" cy="319.429" r="8.19048" fill="#1EAC6C"/>
<path d="M64.2234 323.929H62.9915V317.34H59.4847V323.929H58.2528V316.38H64.2234V323.929ZM73.2105 320.155C73.2105 320.714 73.1196 321.229 72.9379 321.701C72.7562 322.173 72.4993 322.58 72.1673 322.922C71.8388 323.261 71.4422 323.527 70.9774 323.719C70.5161 323.911 70.0024 324.007 69.4363 324.007C68.8737 324.007 68.3599 323.911 67.8952 323.719C67.4339 323.527 67.0372 323.261 66.7053 322.922C66.3733 322.58 66.1164 322.173 65.9347 321.701C65.753 321.229 65.6621 320.714 65.6621 320.155C65.6621 319.595 65.753 319.08 65.9347 318.608C66.1164 318.136 66.3733 317.729 66.7053 317.387C67.0372 317.044 67.4339 316.777 67.8952 316.585C68.3599 316.393 68.8737 316.296 69.4363 316.296C70.0024 316.296 70.5161 316.393 70.9774 316.585C71.4422 316.777 71.8388 317.044 72.1673 317.387C72.4993 317.729 72.7562 318.136 72.9379 318.608C73.1196 319.08 73.2105 319.595 73.2105 320.155ZM71.9576 320.155C71.9576 319.721 71.8982 319.332 71.7794 318.986C71.6641 318.64 71.4964 318.346 71.2762 318.105C71.0595 317.864 70.7957 317.679 70.4847 317.549C70.1736 317.42 69.8242 317.355 69.4363 317.355C69.0519 317.355 68.7042 317.42 68.3931 317.549C68.0821 317.679 67.8165 317.864 67.5964 318.105C67.3762 318.346 67.2067 318.64 67.0879 318.986C66.9691 319.332 66.9097 319.721 66.9097 320.155C66.9097 320.591 66.9691 320.983 67.0879 321.329C67.2067 321.675 67.3762 321.968 67.5964 322.209C67.8165 322.447 68.0821 322.63 68.3931 322.76C68.7042 322.886 69.0519 322.948 69.4363 322.948C69.8242 322.948 70.1736 322.886 70.4847 322.76C70.7957 322.63 71.0595 322.447 71.2762 322.209C71.4964 321.968 71.6641 321.675 71.7794 321.329C71.8982 320.983 71.9576 320.591 71.9576 320.155ZM77.0076 320.228C77.2801 320.228 77.5195 320.193 77.7257 320.123C77.9354 320.053 78.1084 319.955 78.2447 319.83C78.3844 319.7 78.4893 319.545 78.5592 319.363C78.6291 319.181 78.664 318.979 78.664 318.755C78.664 318.535 78.6291 318.337 78.5592 318.163C78.4928 317.988 78.3914 317.839 78.2551 317.717C78.1188 317.595 77.9459 317.502 77.7362 317.439C77.53 317.373 77.2871 317.34 77.0076 317.34H75.8858V320.228H77.0076ZM77.0076 316.38C77.5003 316.38 77.9266 316.438 78.2866 316.553C78.65 316.669 78.9488 316.831 79.183 317.041C79.4206 317.247 79.5971 317.497 79.7124 317.79C79.8277 318.08 79.8854 318.402 79.8854 318.755C79.8854 319.115 79.8242 319.445 79.7019 319.746C79.5796 320.043 79.3979 320.3 79.1567 320.516C78.9156 320.729 78.6151 320.897 78.2551 321.019C77.8987 321.138 77.4828 321.198 77.0076 321.198H75.8858V323.929H74.6592V316.38H77.0076ZM86.3576 317.403H84.004V323.929H82.7826V317.403H80.4237V316.38H86.3576V317.403ZM91.0329 322.063C91.3299 322.059 91.6007 322.001 91.8454 321.89C92.0935 321.778 92.3049 321.628 92.4796 321.439C92.6578 321.25 92.7941 321.032 92.8885 320.784C92.9863 320.532 93.0353 320.263 93.0353 319.976C93.0353 319.693 92.9863 319.426 92.8885 319.174C92.7941 318.923 92.6578 318.703 92.4796 318.514C92.3049 318.325 92.0935 318.177 91.8454 318.068C91.6007 317.956 91.3299 317.897 91.0329 317.89V322.063ZM89.8744 317.89C89.5739 317.897 89.2995 317.956 89.0514 318.068C88.8068 318.177 88.5971 318.325 88.4224 318.514C88.2477 318.703 88.1114 318.923 88.0135 319.174C87.9192 319.426 87.872 319.693 87.872 319.976C87.872 320.263 87.9192 320.532 88.0135 320.784C88.1114 321.032 88.2477 321.25 88.4224 321.439C88.5971 321.628 88.8068 321.778 89.0514 321.89C89.2995 322.001 89.5739 322.059 89.8744 322.063V317.89ZM91.0329 316.936C91.3474 316.946 91.6462 316.99 91.9292 317.067C92.2123 317.144 92.4726 317.249 92.7103 317.382C92.9479 317.514 93.1611 317.673 93.3498 317.859C93.542 318.044 93.7045 318.248 93.8373 318.472C93.9701 318.692 94.0714 318.93 94.1413 319.185C94.2147 319.44 94.2514 319.704 94.2514 319.976C94.2514 320.389 94.1728 320.777 94.0155 321.14C93.8582 321.503 93.6381 321.823 93.355 322.099C93.072 322.372 92.733 322.59 92.3381 322.755C91.9432 322.919 91.5081 323.008 91.0329 323.022V323.929H89.8744V323.022C89.3991 323.008 88.9623 322.919 88.5639 322.755C88.169 322.59 87.8283 322.372 87.5417 322.099C87.2587 321.823 87.0385 321.503 86.8813 321.14C86.724 320.777 86.6454 320.389 86.6454 319.976C86.6454 319.564 86.724 319.176 86.8813 318.813C87.042 318.449 87.2657 318.131 87.5522 317.859C87.8388 317.586 88.1795 317.368 88.5744 317.203C88.9693 317.039 89.4026 316.95 89.8744 316.936V316.05H91.0329V316.936ZM100.326 322.938L100.321 323.929H95.6137V316.38H100.321V317.371H96.8456V319.646H99.6238V320.605H96.8456V322.938H100.326ZM107.672 323.929H106.44V317.34H104.176C104.127 318.294 104.058 319.122 103.971 319.824C103.884 320.527 103.779 321.124 103.657 321.617C103.538 322.11 103.401 322.512 103.248 322.823C103.097 323.134 102.93 323.377 102.745 323.551C102.563 323.726 102.367 323.845 102.157 323.908C101.948 323.971 101.726 324.002 101.492 324.002C101.051 324.002 100.831 323.923 100.831 323.766V322.99H101.219C101.348 322.99 101.478 322.968 101.607 322.922C101.74 322.873 101.867 322.772 101.99 322.618C102.112 322.464 102.229 322.243 102.341 321.953C102.453 321.659 102.554 321.268 102.645 320.778C102.736 320.289 102.813 319.686 102.876 318.97C102.942 318.25 102.991 317.387 103.022 316.38H107.672V323.929ZM112.136 322.959C112.413 322.959 112.645 322.929 112.834 322.87C113.026 322.807 113.181 322.721 113.3 322.613C113.419 322.501 113.505 322.372 113.557 322.225C113.613 322.075 113.641 321.912 113.641 321.738C113.641 321.549 113.615 321.379 113.562 321.229C113.51 321.079 113.424 320.953 113.305 320.852C113.187 320.747 113.031 320.666 112.839 320.611C112.65 320.555 112.418 320.527 112.142 320.527H110.8V322.959H112.136ZM112.142 319.557C112.617 319.557 113.024 319.609 113.363 319.714C113.706 319.819 113.987 319.964 114.207 320.149C114.427 320.331 114.588 320.548 114.689 320.799C114.794 321.051 114.847 321.322 114.847 321.612C114.847 321.965 114.785 322.284 114.663 322.571C114.544 322.854 114.369 323.097 114.139 323.3C113.908 323.502 113.623 323.658 113.284 323.766C112.949 323.875 112.566 323.929 112.136 323.929H109.573V316.38H110.8V319.557H112.142ZM118.786 319.012C118.629 318.746 118.521 318.47 118.461 318.184C118.405 317.894 118.4 317.609 118.446 317.329C118.491 317.046 118.585 316.777 118.729 316.522C118.875 316.263 119.069 316.031 119.311 315.825L119.662 316.04C119.725 316.078 119.753 316.127 119.746 316.186C119.739 316.246 119.718 316.295 119.683 316.333C119.602 316.431 119.529 316.555 119.463 316.705C119.396 316.856 119.351 317.022 119.326 317.203C119.305 317.385 119.312 317.576 119.347 317.775C119.382 317.974 119.457 318.17 119.573 318.362C119.629 318.449 119.644 318.528 119.62 318.598C119.599 318.664 119.548 318.711 119.468 318.739L118.786 319.012ZM120.459 319.012C120.301 318.746 120.193 318.47 120.134 318.184C120.078 317.894 120.072 317.609 120.118 317.329C120.163 317.046 120.258 316.777 120.401 316.522C120.548 316.263 120.742 316.031 120.983 315.825L121.334 316.04C121.397 316.078 121.425 316.127 121.418 316.186C121.411 316.246 121.39 316.295 121.355 316.333C121.275 316.431 121.201 316.555 121.135 316.705C121.068 316.856 121.023 317.022 120.998 317.203C120.977 317.385 120.984 317.576 121.019 317.775C121.054 317.974 121.13 318.17 121.245 318.362C121.301 318.449 121.316 318.528 121.292 318.598C121.271 318.664 121.22 318.711 121.14 318.739L120.459 319.012ZM125.627 322.959C125.903 322.959 126.135 322.928 126.324 322.865C126.516 322.798 126.671 322.709 126.79 322.597C126.913 322.485 127 322.354 127.052 322.204C127.108 322.05 127.136 321.886 127.136 321.711C127.136 321.355 127.014 321.075 126.769 320.873C126.528 320.666 126.146 320.563 125.621 320.563H124.106V322.959H125.627ZM124.106 317.34V319.698H125.333C125.857 319.698 126.249 319.597 126.507 319.394C126.766 319.192 126.895 318.9 126.895 318.519C126.895 318.103 126.773 317.803 126.528 317.617C126.287 317.432 125.908 317.34 125.391 317.34H124.106ZM125.391 316.38C125.873 316.38 126.285 316.428 126.628 316.522C126.97 316.613 127.252 316.744 127.472 316.915C127.692 317.086 127.853 317.296 127.954 317.544C128.059 317.789 128.111 318.065 128.111 318.372C128.111 318.551 128.083 318.723 128.027 318.891C127.975 319.055 127.891 319.211 127.776 319.358C127.664 319.501 127.522 319.63 127.351 319.746C127.18 319.861 126.977 319.957 126.743 320.034C127.812 320.261 128.347 320.829 128.347 321.738C128.347 322.059 128.286 322.354 128.164 322.623C128.045 322.889 127.87 323.12 127.639 323.315C127.412 323.508 127.131 323.658 126.796 323.766C126.46 323.875 126.077 323.929 125.648 323.929H122.88V316.38H125.391ZM132.397 322.959C132.673 322.959 132.906 322.929 133.094 322.87C133.287 322.807 133.442 322.721 133.561 322.613C133.68 322.501 133.765 322.372 133.818 322.225C133.874 322.075 133.902 321.912 133.902 321.738C133.902 321.549 133.875 321.379 133.823 321.229C133.771 321.079 133.685 320.953 133.566 320.852C133.447 320.747 133.292 320.666 133.1 320.611C132.911 320.555 132.679 320.527 132.402 320.527H131.061V322.959H132.397ZM132.402 319.557C132.878 319.557 133.285 319.609 133.624 319.714C133.966 319.819 134.248 319.964 134.468 320.149C134.688 320.331 134.849 320.548 134.95 320.799C135.055 321.051 135.107 321.322 135.107 321.612C135.107 321.965 135.046 322.284 134.924 322.571C134.805 322.854 134.63 323.097 134.4 323.3C134.169 323.502 133.884 323.658 133.545 323.766C133.21 323.875 132.827 323.929 132.397 323.929H129.834V316.38H131.061V319.557H132.402ZM137.576 323.929H136.344V316.38H137.576V323.929ZM144.712 322.246C144.779 322.246 144.836 322.272 144.885 322.325L145.373 322.854C145.065 323.225 144.688 323.511 144.241 323.714C143.793 323.913 143.259 324.013 142.637 324.013C142.084 324.013 141.585 323.918 141.137 323.73C140.694 323.537 140.314 323.272 140 322.933C139.685 322.59 139.442 322.183 139.271 321.711C139.104 321.24 139.02 320.721 139.02 320.155C139.02 319.588 139.109 319.069 139.287 318.598C139.469 318.122 139.722 317.715 140.047 317.376C140.376 317.034 140.767 316.768 141.221 316.58C141.679 316.391 142.182 316.296 142.731 316.296C143.276 316.296 143.757 316.386 144.172 316.564C144.592 316.739 144.955 316.973 145.263 317.266L144.859 317.838C144.831 317.876 144.798 317.909 144.76 317.937C144.721 317.965 144.669 317.979 144.602 317.979C144.532 317.979 144.452 317.948 144.361 317.885C144.274 317.818 144.16 317.747 144.02 317.67C143.884 317.589 143.711 317.518 143.501 317.455C143.295 317.389 143.037 317.355 142.726 317.355C142.366 317.355 142.035 317.418 141.735 317.544C141.434 317.67 141.176 317.853 140.959 318.094C140.742 318.336 140.573 318.629 140.451 318.975C140.332 319.321 140.272 319.714 140.272 320.155C140.272 320.598 140.335 320.995 140.461 321.344C140.587 321.69 140.76 321.984 140.98 322.225C141.2 322.463 141.459 322.644 141.756 322.77C142.053 322.896 142.373 322.959 142.715 322.959C142.925 322.959 143.112 322.948 143.276 322.928C143.444 322.903 143.598 322.866 143.737 322.817C143.877 322.765 144.008 322.7 144.131 322.623C144.256 322.547 144.38 322.452 144.503 322.34C144.573 322.278 144.642 322.246 144.712 322.246ZM153.476 320.155C153.476 320.714 153.385 321.229 153.203 321.701C153.022 322.173 152.765 322.58 152.433 322.922C152.104 323.261 151.708 323.527 151.243 323.719C150.782 323.911 150.268 324.007 149.702 324.007C149.139 324.007 148.625 323.911 148.161 323.719C147.699 323.527 147.303 323.261 146.971 322.922C146.639 322.58 146.382 322.173 146.2 321.701C146.018 321.229 145.928 320.714 145.928 320.155C145.928 319.595 146.018 319.08 146.2 318.608C146.382 318.136 146.639 317.729 146.971 317.387C147.303 317.044 147.699 316.777 148.161 316.585C148.625 316.393 149.139 316.296 149.702 316.296C150.268 316.296 150.782 316.393 151.243 316.585C151.708 316.777 152.104 317.044 152.433 317.387C152.765 317.729 153.022 318.136 153.203 318.608C153.385 319.08 153.476 319.595 153.476 320.155ZM152.223 320.155C152.223 319.721 152.164 319.332 152.045 318.986C151.93 318.64 151.762 318.346 151.542 318.105C151.325 317.864 151.061 317.679 150.75 317.549C150.439 317.42 150.09 317.355 149.702 317.355C149.317 317.355 148.97 317.42 148.659 317.549C148.348 317.679 148.082 317.864 147.862 318.105C147.642 318.346 147.472 318.64 147.353 318.986C147.235 319.332 147.175 319.721 147.175 320.155C147.175 320.591 147.235 320.983 147.353 321.329C147.472 321.675 147.642 321.968 147.862 322.209C148.082 322.447 148.348 322.63 148.659 322.76C148.97 322.886 149.317 322.948 149.702 322.948C150.09 322.948 150.439 322.886 150.75 322.76C151.061 322.63 151.325 322.447 151.542 322.209C151.762 321.968 151.93 321.675 152.045 321.329C152.164 320.983 152.223 320.591 152.223 320.155ZM161.152 323.929H160.046C159.927 323.929 159.828 323.897 159.747 323.834C159.667 323.771 159.592 323.679 159.522 323.557L157.734 320.92C157.689 320.85 157.643 320.792 157.598 320.747C157.553 320.698 157.502 320.66 157.446 320.632C157.39 320.6 157.327 320.579 157.257 320.569C157.187 320.555 157.109 320.548 157.021 320.548H156.151V323.929H154.925V316.38H156.151V319.609H156.89C157.044 319.609 157.173 319.585 157.278 319.536C157.383 319.487 157.486 319.393 157.588 319.253L159.396 316.716C159.455 316.618 159.527 316.538 159.611 316.475C159.698 316.412 159.801 316.38 159.92 316.38H160.958L158.798 319.442C158.711 319.571 158.611 319.678 158.5 319.761C158.388 319.845 158.264 319.912 158.127 319.961C158.323 320.013 158.489 320.099 158.625 320.217C158.765 320.336 158.896 320.501 159.019 320.71L161.152 323.929ZM168.445 316.38V323.929H167.218V318.917C167.218 318.75 167.221 318.575 167.228 318.393C167.239 318.212 167.258 318.016 167.286 317.806C167.22 317.988 167.148 318.157 167.071 318.315C166.998 318.468 166.924 318.605 166.851 318.723L163.653 323.546C163.625 323.591 163.592 323.637 163.554 323.682C163.519 323.728 163.477 323.77 163.428 323.808C163.383 323.843 163.334 323.873 163.281 323.897C163.229 323.918 163.173 323.929 163.113 323.929H162.196V316.38H163.428V321.386C163.428 321.554 163.423 321.731 163.412 321.916C163.405 322.098 163.388 322.29 163.36 322.492C163.426 322.314 163.496 322.148 163.57 321.994C163.646 321.837 163.72 321.701 163.79 321.586L166.987 316.763C167.015 316.718 167.047 316.672 167.082 316.627C167.12 316.581 167.162 316.541 167.207 316.506C167.256 316.468 167.307 316.438 167.359 316.417C167.412 316.393 167.468 316.38 167.527 316.38H168.445ZM175.061 322.938L175.055 323.929H170.348V316.38H175.055V317.371H171.58V319.646H174.358V320.605H171.58V322.938H175.061ZM184.404 317.403H182.05V323.929H180.829V317.403H178.47V316.38H184.404V317.403ZM190.272 322.938L190.266 323.929H185.559V316.38H190.266V317.371H186.791V319.646H189.569V320.605H186.791V322.938H190.272ZM197.664 323.929H196.443C196.359 323.929 196.291 323.906 196.239 323.861C196.186 323.815 196.144 323.764 196.113 323.709L194.236 320.684C194.222 320.726 194.207 320.766 194.189 320.805C194.175 320.843 194.158 320.88 194.137 320.915L192.323 323.709C192.284 323.764 192.241 323.815 192.192 323.861C192.146 323.906 192.085 323.929 192.008 323.929H190.866L193.413 320.05L190.971 316.38H192.187C192.274 316.38 192.337 316.394 192.375 316.422C192.417 316.447 192.454 316.485 192.485 316.538L194.32 319.421C194.338 319.379 194.355 319.337 194.373 319.295C194.39 319.253 194.413 319.209 194.441 319.164L196.15 316.559C196.184 316.499 196.223 316.455 196.265 316.428C196.307 316.396 196.357 316.38 196.417 316.38H197.586L195.122 319.997L197.664 323.929ZM204.979 316.38V323.929H203.752V320.569H199.962V323.929H198.73V316.38H199.962V319.683H203.752V316.38H204.979ZM213.974 320.155C213.974 320.714 213.884 321.229 213.702 321.701C213.52 322.173 213.263 322.58 212.931 322.922C212.603 323.261 212.206 323.527 211.741 323.719C211.28 323.911 210.766 324.007 210.2 324.007C209.638 324.007 209.124 323.911 208.659 323.719C208.198 323.527 207.801 323.261 207.469 322.922C207.137 322.58 206.88 322.173 206.699 321.701C206.517 321.229 206.426 320.714 206.426 320.155C206.426 319.595 206.517 319.08 206.699 318.608C206.88 318.136 207.137 317.729 207.469 317.387C207.801 317.044 208.198 316.777 208.659 316.585C209.124 316.393 209.638 316.296 210.2 316.296C210.766 316.296 211.28 316.393 211.741 316.585C212.206 316.777 212.603 317.044 212.931 317.387C213.263 317.729 213.52 318.136 213.702 318.608C213.884 319.08 213.974 319.595 213.974 320.155ZM212.722 320.155C212.722 319.721 212.662 319.332 212.543 318.986C212.428 318.64 212.26 318.346 212.04 318.105C211.824 317.864 211.56 317.679 211.249 317.549C210.938 317.42 210.588 317.355 210.2 317.355C209.816 317.355 209.468 317.42 209.157 317.549C208.846 317.679 208.581 317.864 208.36 318.105C208.14 318.346 207.971 318.64 207.852 318.986C207.733 319.332 207.674 319.721 207.674 320.155C207.674 320.591 207.733 320.983 207.852 321.329C207.971 321.675 208.14 321.968 208.36 322.209C208.581 322.447 208.846 322.63 209.157 322.76C209.468 322.886 209.816 322.948 210.2 322.948C210.588 322.948 210.938 322.886 211.249 322.76C211.56 322.63 211.824 322.447 212.04 322.209C212.26 321.968 212.428 321.675 212.543 321.329C212.662 320.983 212.722 320.591 212.722 320.155ZM221.142 323.929H219.91V317.34H217.645C217.596 318.294 217.528 319.122 217.441 319.824C217.353 320.527 217.249 321.124 217.126 321.617C217.007 322.11 216.871 322.512 216.717 322.823C216.567 323.134 216.399 323.377 216.214 323.551C216.032 323.726 215.837 323.845 215.627 323.908C215.417 323.971 215.195 324.002 214.961 324.002C214.521 324.002 214.301 323.923 214.301 323.766V322.99H214.689C214.818 322.99 214.947 322.968 215.077 322.922C215.209 322.873 215.337 322.772 215.459 322.618C215.582 322.464 215.699 322.243 215.811 321.953C215.922 321.659 216.024 321.268 216.115 320.778C216.205 320.289 216.282 319.686 216.345 318.97C216.412 318.25 216.461 317.387 216.492 316.38H221.142V323.929ZM230.135 320.155C230.135 320.714 230.044 321.229 229.863 321.701C229.681 322.173 229.424 322.58 229.092 322.922C228.763 323.261 228.367 323.527 227.902 323.719C227.441 323.911 226.927 324.007 226.361 324.007C225.798 324.007 225.285 323.911 224.82 323.719C224.359 323.527 223.962 323.261 223.63 322.922C223.298 322.58 223.041 322.173 222.859 321.701C222.678 321.229 222.587 320.714 222.587 320.155C222.587 319.595 222.678 319.08 222.859 318.608C223.041 318.136 223.298 317.729 223.63 317.387C223.962 317.044 224.359 316.777 224.82 316.585C225.285 316.393 225.798 316.296 226.361 316.296C226.927 316.296 227.441 316.393 227.902 316.585C228.367 316.777 228.763 317.044 229.092 317.387C229.424 317.729 229.681 318.136 229.863 318.608C230.044 319.08 230.135 319.595 230.135 320.155ZM228.882 320.155C228.882 319.721 228.823 319.332 228.704 318.986C228.589 318.64 228.421 318.346 228.201 318.105C227.984 317.864 227.72 317.679 227.409 317.549C227.098 317.42 226.749 317.355 226.361 317.355C225.977 317.355 225.629 317.42 225.318 317.549C225.007 317.679 224.741 317.864 224.521 318.105C224.301 318.346 224.131 318.64 224.013 318.986C223.894 319.332 223.834 319.721 223.834 320.155C223.834 320.591 223.894 320.983 224.013 321.329C224.131 321.675 224.301 321.968 224.521 322.209C224.741 322.447 225.007 322.63 225.318 322.76C225.629 322.886 225.977 322.948 226.361 322.948C226.749 322.948 227.098 322.886 227.409 322.76C227.72 322.63 227.984 322.447 228.201 322.209C228.421 321.968 228.589 321.675 228.704 321.329C228.823 320.983 228.882 320.591 228.882 320.155ZM236.186 317.34H232.816V323.929H231.584V316.38H236.186V317.34ZM243.588 316.38V323.929H242.362V318.917C242.362 318.75 242.365 318.575 242.372 318.393C242.383 318.212 242.402 318.016 242.43 317.806C242.364 317.988 242.292 318.157 242.215 318.315C242.142 318.468 242.068 318.605 241.995 318.723L238.797 323.546C238.769 323.591 238.736 323.637 238.698 323.682C238.663 323.728 238.621 323.77 238.572 323.808C238.527 323.843 238.478 323.873 238.425 323.897C238.373 323.918 238.317 323.929 238.257 323.929H237.34V316.38H238.572V321.386C238.572 321.554 238.567 321.731 238.556 321.916C238.549 322.098 238.532 322.29 238.504 322.492C238.57 322.314 238.64 322.148 238.713 321.994C238.79 321.837 238.864 321.701 238.934 321.586L242.131 316.763C242.159 316.718 242.191 316.672 242.226 316.627C242.264 316.581 242.306 316.541 242.351 316.506C242.4 316.468 242.451 316.438 242.503 316.417C242.556 316.393 242.612 316.38 242.671 316.38H243.588ZM251.74 316.38V323.929H250.514V318.917C250.514 318.75 250.517 318.575 250.524 318.393C250.535 318.212 250.554 318.016 250.582 317.806C250.516 317.988 250.444 318.157 250.367 318.315C250.294 318.468 250.22 318.605 250.147 318.723L246.949 323.546C246.921 323.591 246.888 323.637 246.85 323.682C246.815 323.728 246.773 323.77 246.724 323.808C246.679 323.843 246.63 323.873 246.577 323.897C246.525 323.918 246.469 323.929 246.409 323.929H245.492V316.38H246.724V321.386C246.724 321.554 246.719 321.731 246.708 321.916C246.701 322.098 246.684 322.29 246.656 322.492C246.722 322.314 246.792 322.148 246.865 321.994C246.942 321.837 247.016 321.701 247.086 321.586L250.283 316.763C250.311 316.718 250.343 316.672 250.378 316.627C250.416 316.581 250.458 316.541 250.503 316.506C250.552 316.468 250.603 316.438 250.655 316.417C250.708 316.393 250.764 316.38 250.823 316.38H251.74ZM254.205 315.877C254.362 316.143 254.469 316.421 254.525 316.711C254.581 316.997 254.586 317.282 254.54 317.565C254.495 317.845 254.399 318.114 254.252 318.372C254.109 318.631 253.917 318.862 253.676 319.064L253.324 318.849C253.265 318.811 253.237 318.762 253.24 318.703C253.247 318.64 253.268 318.591 253.303 318.556C253.384 318.458 253.457 318.334 253.524 318.184C253.59 318.033 253.634 317.869 253.655 317.691C253.679 317.509 253.674 317.319 253.639 317.119C253.607 316.92 253.532 316.723 253.413 316.527C253.358 316.436 253.342 316.358 253.366 316.291C253.391 316.225 253.441 316.178 253.518 316.15L254.205 315.877ZM255.877 315.877C256.034 316.143 256.141 316.421 256.197 316.711C256.253 316.997 256.258 317.282 256.213 317.565C256.167 317.845 256.071 318.114 255.924 318.372C255.781 318.631 255.589 318.862 255.348 319.064L254.996 318.849C254.937 318.811 254.909 318.762 254.913 318.703C254.92 318.64 254.941 318.591 254.976 318.556C255.056 318.458 255.129 318.334 255.196 318.184C255.262 318.033 255.306 317.869 255.327 317.691C255.351 317.509 255.346 317.319 255.311 317.119C255.28 316.92 255.204 316.723 255.086 316.527C255.03 316.436 255.014 316.358 255.038 316.291C255.063 316.225 255.114 316.178 255.19 316.15L255.877 315.877Z" fill="black"/>
<circle cx="285.19" cy="319.19" r="8.19048" fill="#B7B7B7"/>
<path d="M307.078 315.142V322.69H305.851V317.679C305.851 317.511 305.855 317.337 305.862 317.155C305.872 316.973 305.892 316.778 305.92 316.568C305.853 316.75 305.782 316.919 305.705 317.076C305.631 317.23 305.558 317.366 305.485 317.485L302.287 322.308C302.259 322.353 302.226 322.399 302.187 322.444C302.152 322.489 302.11 322.531 302.062 322.57C302.016 322.605 301.967 322.635 301.915 322.659C301.862 322.68 301.806 322.69 301.747 322.69H300.83V315.142H302.062V320.148C302.062 320.316 302.056 320.492 302.046 320.678C302.039 320.859 302.021 321.051 301.993 321.254C302.06 321.076 302.13 320.91 302.203 320.756C302.28 320.599 302.353 320.463 302.423 320.347L305.621 315.525C305.649 315.479 305.68 315.434 305.715 315.388C305.754 315.343 305.796 315.303 305.841 315.268C305.89 315.229 305.941 315.2 305.993 315.179C306.045 315.154 306.101 315.142 306.161 315.142H307.078ZM315.23 315.142V322.69H314.003V319.33H310.214V322.69H308.982V315.142H310.214V318.444H314.003V315.142H315.23ZM321.92 321.731V316.101H319.655C319.613 316.895 319.555 317.595 319.482 318.203C319.409 318.808 319.321 319.337 319.22 319.792C319.122 320.242 319.012 320.627 318.89 320.945C318.771 321.259 318.642 321.521 318.502 321.731H321.92ZM324.352 321.731V324.148C324.352 324.253 324.315 324.338 324.242 324.405C324.172 324.471 324.079 324.504 323.964 324.504H323.23V322.69H317.432V324.148C317.432 324.253 317.396 324.338 317.322 324.405C317.252 324.471 317.16 324.504 317.045 324.504H316.311V321.731H317.107C317.209 321.679 317.31 321.595 317.412 321.48C317.516 321.364 317.616 321.2 317.71 320.987C317.805 320.774 317.894 320.505 317.978 320.18C318.065 319.855 318.144 319.458 318.214 318.99C318.283 318.518 318.343 317.966 318.392 317.333C318.441 316.701 318.477 315.97 318.502 315.142H323.151V321.731H324.352ZM330.316 321.7L330.31 322.69H325.603V315.142H330.31V316.133H326.835V318.408H329.613V319.367H326.835V321.7H330.316ZM337.976 322.69H336.87C336.751 322.69 336.651 322.659 336.571 322.596C336.491 322.533 336.415 322.441 336.346 322.318L334.558 319.682C334.513 319.612 334.467 319.554 334.422 319.509C334.376 319.46 334.326 319.421 334.27 319.393C334.214 319.362 334.151 319.341 334.081 319.33C334.011 319.316 333.932 319.309 333.845 319.309H332.975V322.69H331.748V315.142H332.975V318.371H333.714C333.868 318.371 333.997 318.347 334.102 318.298C334.207 318.249 334.31 318.154 334.411 318.015L336.22 315.478C336.279 315.38 336.351 315.299 336.435 315.236C336.522 315.174 336.625 315.142 336.744 315.142H337.782L335.622 318.203C335.535 318.333 335.435 318.439 335.323 318.523C335.212 318.607 335.087 318.673 334.951 318.722C335.147 318.775 335.313 318.86 335.449 318.979C335.589 319.098 335.72 319.262 335.842 319.472L337.976 322.69ZM343.934 321.008C344.001 321.008 344.058 321.034 344.107 321.086L344.595 321.616C344.287 321.986 343.91 322.273 343.462 322.476C343.015 322.675 342.48 322.774 341.858 322.774C341.306 322.774 340.806 322.68 340.359 322.491C339.915 322.299 339.536 322.033 339.222 321.694C338.907 321.352 338.664 320.945 338.493 320.473C338.325 320.001 338.241 319.482 338.241 318.916C338.241 318.35 338.331 317.831 338.509 317.359C338.691 316.884 338.944 316.477 339.269 316.138C339.597 315.796 339.989 315.53 340.443 315.341C340.901 315.153 341.404 315.058 341.953 315.058C342.498 315.058 342.978 315.147 343.394 315.326C343.814 315.5 344.177 315.734 344.485 316.028L344.081 316.599C344.053 316.638 344.02 316.671 343.981 316.699C343.943 316.727 343.89 316.741 343.824 316.741C343.754 316.741 343.674 316.709 343.583 316.647C343.496 316.58 343.382 316.508 343.242 316.432C343.106 316.351 342.933 316.28 342.723 316.217C342.517 316.15 342.258 316.117 341.947 316.117C341.588 316.117 341.257 316.18 340.957 316.306C340.656 316.432 340.398 316.615 340.181 316.856C339.964 317.097 339.795 317.391 339.672 317.737C339.554 318.083 339.494 318.476 339.494 318.916C339.494 319.36 339.557 319.757 339.683 320.106C339.809 320.452 339.982 320.746 340.202 320.987C340.422 321.224 340.681 321.406 340.978 321.532C341.275 321.658 341.595 321.721 341.937 321.721C342.147 321.721 342.334 321.71 342.498 321.689C342.666 321.665 342.819 321.628 342.959 321.579C343.099 321.527 343.23 321.462 343.352 321.385C343.478 321.308 343.602 321.214 343.724 321.102C343.794 321.039 343.864 321.008 343.934 321.008ZM352.422 316.432C352.383 316.494 352.343 316.542 352.301 316.573C352.259 316.601 352.207 316.615 352.144 316.615C352.077 316.615 352.002 316.587 351.918 316.531C351.838 316.475 351.737 316.414 351.614 316.348C351.496 316.278 351.354 316.215 351.19 316.159C351.026 316.1 350.83 316.07 350.603 316.07C350.393 316.07 350.208 316.096 350.047 316.149C349.89 316.201 349.757 316.274 349.649 316.369C349.54 316.463 349.458 316.575 349.402 316.704C349.35 316.83 349.324 316.968 349.324 317.118C349.324 317.31 349.374 317.471 349.476 317.601C349.577 317.726 349.71 317.835 349.874 317.926C350.042 318.016 350.232 318.097 350.446 318.167C350.659 318.233 350.875 318.305 351.096 318.382C351.319 318.458 351.538 318.546 351.751 318.644C351.964 318.742 352.153 318.866 352.317 319.016C352.485 319.166 352.619 319.35 352.72 319.566C352.822 319.783 352.873 320.047 352.873 320.358C352.873 320.693 352.815 321.008 352.7 321.301C352.584 321.595 352.416 321.852 352.196 322.072C351.98 322.289 351.711 322.46 351.389 322.586C351.071 322.711 350.708 322.774 350.299 322.774C350.058 322.774 349.822 322.75 349.591 322.701C349.364 322.655 349.146 322.591 348.936 322.507C348.73 322.42 348.536 322.315 348.354 322.192C348.172 322.07 348.01 321.934 347.866 321.784L348.223 321.196C348.254 321.148 348.295 321.109 348.344 321.081C348.392 321.053 348.447 321.039 348.506 321.039C348.586 321.039 348.675 321.078 348.773 321.155C348.871 321.228 348.988 321.31 349.125 321.401C349.264 321.488 349.432 321.57 349.628 321.647C349.823 321.721 350.058 321.757 350.33 321.757C350.774 321.757 351.116 321.649 351.358 321.432C351.602 321.216 351.725 320.917 351.725 320.536C351.725 320.323 351.674 320.15 351.573 320.017C351.471 319.881 351.337 319.767 351.169 319.676C351.005 319.585 350.816 319.509 350.603 319.446C350.39 319.383 350.173 319.316 349.953 319.246C349.733 319.173 349.516 319.089 349.303 318.995C349.09 318.897 348.899 318.771 348.731 318.617C348.567 318.46 348.434 318.268 348.333 318.041C348.232 317.81 348.181 317.524 348.181 317.181C348.181 316.909 348.233 316.645 348.338 316.39C348.447 316.135 348.602 315.909 348.805 315.713C349.011 315.514 349.264 315.355 349.565 315.236C349.865 315.118 350.208 315.058 350.592 315.058C351.026 315.058 351.422 315.126 351.782 315.263C352.146 315.399 352.458 315.593 352.72 315.844L352.422 316.432ZM360.619 321.957L359.696 321.076C360 320.604 360.221 320.038 360.357 319.399L359.298 319.053C359.204 319.524 359.067 319.944 358.889 320.29L357.306 318.78C358.365 318.182 358.805 317.637 358.805 316.882C358.805 315.886 358.029 315.268 356.845 315.268C355.555 315.268 354.717 315.97 354.717 316.998C354.717 317.532 354.937 318.015 355.534 318.612C354.339 319.283 353.836 319.923 353.836 320.835C353.836 321.988 354.958 322.795 356.509 322.795C357.474 322.795 358.313 322.481 358.973 321.915L359.896 322.806L360.619 321.957ZM356.845 316.201C357.39 316.201 357.694 316.484 357.694 316.903C357.694 317.302 357.421 317.606 356.572 318.067C356.048 317.543 355.912 317.302 355.912 316.977C355.912 316.526 356.258 316.201 356.845 316.201ZM356.604 321.726C355.702 321.726 355.115 321.307 355.115 320.699C355.115 320.174 355.409 319.786 356.258 319.315L358.197 321.17C357.746 321.537 357.212 321.726 356.604 321.726ZM364.158 318.99C364.43 318.99 364.67 318.955 364.876 318.885C365.086 318.815 365.259 318.717 365.395 318.591C365.535 318.462 365.64 318.306 365.709 318.125C365.779 317.943 365.814 317.74 365.814 317.517C365.814 317.297 365.779 317.099 365.709 316.924C365.643 316.75 365.542 316.601 365.405 316.479C365.269 316.356 365.096 316.264 364.886 316.201C364.68 316.135 364.437 316.101 364.158 316.101H363.036V318.99H364.158ZM364.158 315.142C364.651 315.142 365.077 315.2 365.437 315.315C365.8 315.43 366.099 315.593 366.333 315.803C366.571 316.009 366.747 316.259 366.863 316.552C366.978 316.842 367.036 317.164 367.036 317.517C367.036 317.877 366.974 318.207 366.852 318.507C366.73 318.804 366.548 319.061 366.307 319.278C366.066 319.491 365.765 319.659 365.405 319.781C365.049 319.9 364.633 319.959 364.158 319.959H363.036V322.69H361.809V315.142H364.158ZM371.864 317.931C372.045 317.892 372.218 317.864 372.383 317.847C372.55 317.829 372.711 317.821 372.865 317.821C373.26 317.821 373.608 317.88 373.908 317.999C374.212 318.114 374.466 318.275 374.668 318.481C374.874 318.687 375.028 318.93 375.129 319.21C375.234 319.486 375.287 319.786 375.287 320.111C375.287 320.513 375.217 320.878 375.077 321.207C374.937 321.535 374.743 321.817 374.495 322.051C374.247 322.282 373.954 322.46 373.615 322.586C373.279 322.711 372.916 322.774 372.524 322.774C372.294 322.774 372.073 322.752 371.864 322.706C371.658 322.661 371.464 322.6 371.282 322.523C371.1 322.442 370.932 322.351 370.779 322.25C370.625 322.145 370.487 322.037 370.365 321.925L370.711 321.443C370.784 321.338 370.882 321.286 371.004 321.286C371.081 321.286 371.165 321.314 371.256 321.369C371.347 321.425 371.451 321.487 371.57 321.553C371.693 321.616 371.836 321.675 372 321.731C372.164 321.787 372.36 321.815 372.587 321.815C372.835 321.815 373.057 321.775 373.253 321.694C373.449 321.614 373.613 321.502 373.746 321.359C373.882 321.212 373.985 321.037 374.055 320.835C374.125 320.632 374.16 320.41 374.16 320.169C374.16 319.949 374.127 319.751 374.06 319.577C373.997 319.402 373.901 319.253 373.772 319.131C373.646 319.009 373.487 318.916 373.295 318.853C373.103 318.787 372.881 318.754 372.629 318.754C372.444 318.754 372.253 318.769 372.058 318.801C371.866 318.832 371.67 318.881 371.471 318.948L370.768 318.749L371.387 315.142H375.04V315.63C375.04 315.79 374.99 315.921 374.888 316.023C374.787 316.124 374.618 316.175 374.38 316.175H372.168L371.864 317.931ZM381.824 318.916C381.824 319.577 381.753 320.148 381.609 320.63C381.47 321.113 381.276 321.513 381.027 321.831C380.779 322.149 380.488 322.385 380.152 322.538C379.817 322.692 379.455 322.769 379.067 322.769C378.679 322.769 378.317 322.692 377.982 322.538C377.646 322.385 377.355 322.149 377.106 321.831C376.862 321.513 376.67 321.113 376.53 320.63C376.39 320.148 376.32 319.577 376.32 318.916C376.32 318.256 376.39 317.684 376.53 317.202C376.67 316.716 376.862 316.316 377.106 316.002C377.355 315.684 377.646 315.448 377.982 315.294C378.317 315.137 378.679 315.058 379.067 315.058C379.455 315.058 379.817 315.137 380.152 315.294C380.488 315.448 380.779 315.684 381.027 316.002C381.276 316.316 381.47 316.716 381.609 317.202C381.753 317.684 381.824 318.256 381.824 318.916ZM380.661 318.916C380.661 318.357 380.615 317.892 380.524 317.522C380.437 317.148 380.32 316.849 380.173 316.626C380.026 316.402 379.857 316.243 379.665 316.149C379.472 316.054 379.273 316.007 379.067 316.007C378.857 316.007 378.656 316.054 378.464 316.149C378.275 316.243 378.108 316.402 377.961 316.626C377.814 316.849 377.697 317.148 377.61 317.522C377.522 317.892 377.479 318.357 377.479 318.916C377.479 319.475 377.522 319.942 377.61 320.316C377.697 320.686 377.814 320.983 377.961 321.207C378.108 321.431 378.275 321.59 378.464 321.684C378.656 321.778 378.857 321.826 379.067 321.826C379.273 321.826 379.472 321.778 379.665 321.684C379.857 321.59 380.026 321.431 380.173 321.207C380.32 320.983 380.437 320.686 380.524 320.316C380.615 319.942 380.661 319.475 380.661 318.916ZM388.01 318.916C388.01 319.577 387.939 320.148 387.796 320.63C387.656 321.113 387.462 321.513 387.214 321.831C386.966 322.149 386.674 322.385 386.338 322.538C386.003 322.692 385.641 322.769 385.253 322.769C384.865 322.769 384.504 322.692 384.168 322.538C383.833 322.385 383.541 322.149 383.293 321.831C383.048 321.513 382.856 321.113 382.716 320.63C382.576 320.148 382.506 319.577 382.506 318.916C382.506 318.256 382.576 317.684 382.716 317.202C382.856 316.716 383.048 316.316 383.293 316.002C383.541 315.684 383.833 315.448 384.168 315.294C384.504 315.137 384.865 315.058 385.253 315.058C385.641 315.058 386.003 315.137 386.338 315.294C386.674 315.448 386.966 315.684 387.214 316.002C387.462 316.316 387.656 316.716 387.796 317.202C387.939 317.684 388.01 318.256 388.01 318.916ZM386.847 318.916C386.847 318.357 386.801 317.892 386.71 317.522C386.623 317.148 386.506 316.849 386.359 316.626C386.213 316.402 386.043 316.243 385.851 316.149C385.659 316.054 385.459 316.007 385.253 316.007C385.044 316.007 384.843 316.054 384.65 316.149C384.462 316.243 384.294 316.402 384.147 316.626C384 316.849 383.883 317.148 383.796 317.522C383.709 317.892 383.665 318.357 383.665 318.916C383.665 319.475 383.709 319.942 383.796 320.316C383.883 320.686 384 320.983 384.147 321.207C384.294 321.431 384.462 321.59 384.65 321.684C384.843 321.778 385.044 321.826 385.253 321.826C385.459 321.826 385.659 321.778 385.851 321.684C386.043 321.59 386.213 321.431 386.359 321.207C386.506 320.983 386.623 320.686 386.71 320.316C386.801 319.942 386.847 319.475 386.847 318.916Z" fill="black"/>
<path d="M36.7663 276.661C35.2042 276.661 34.334 277.531 34.334 278.8C34.334 279.985 35.1413 280.928 36.5356 280.97L34.0824 284H35.2042L37.584 281.002H38.6114V284H39.555V276.661H36.7663ZM36.8082 280.121L36.7034 280.761H36.6929L36.8082 280.121C35.8542 280.121 35.3195 279.618 35.3195 278.831C35.3195 278.066 35.8542 277.521 36.8501 277.521H38.6114V280.121H36.8082ZM44.9453 278.737V280.823H42.4082V278.737H41.5066V284H42.4082V281.62H44.9453V284H45.8469V278.737H44.9453ZM51.9917 282.48C51.9917 281.851 51.6248 281.379 51.0272 281.169C51.4361 280.96 51.6457 280.614 51.6457 280.142C51.6457 279.314 50.9853 278.737 49.9683 278.737H47.6724V284H50.2095C51.2578 284 51.9917 283.392 51.9917 282.48ZM49.874 279.534C50.4506 279.534 50.7232 279.848 50.7232 280.215C50.7232 280.593 50.4506 280.897 49.874 280.897H48.574V279.534H49.874ZM51.0691 282.427C51.0691 282.878 50.7127 283.203 50.1151 283.203H48.574V281.652H50.1151C50.7127 281.652 51.0691 281.998 51.0691 282.427ZM56.8937 283.14L58.7703 280.792C59.3993 280.027 59.7558 279.398 59.7558 278.517C59.7558 277.227 58.9066 276.515 57.7219 276.515C56.9671 276.515 56.2647 276.819 55.8558 277.332V278.433H55.9921C56.359 277.856 56.9671 277.416 57.6695 277.416C58.33 277.416 58.7913 277.825 58.7913 278.59C58.7913 279.219 58.4977 279.744 58.0469 280.299L55.4679 283.497V284H59.955V283.14H56.8937ZM63.7896 276.515C62.2799 276.515 61.1896 277.888 61.1896 280.331C61.1896 282.773 62.2799 284.147 63.7896 284.147C65.2993 284.147 66.3896 282.773 66.3896 280.331C66.3896 277.888 65.2993 276.515 63.7896 276.515ZM63.7896 283.245C62.7832 283.245 62.1541 282.207 62.1541 280.331C62.1541 278.454 62.7832 277.416 63.7896 277.416C64.796 277.416 65.4251 278.454 65.4251 280.331C65.4251 282.207 64.796 283.245 63.7896 283.245ZM68.9079 283.14L70.7845 280.792C71.4135 280.027 71.77 279.398 71.77 278.517C71.77 277.227 70.9208 276.515 69.7361 276.515C68.9813 276.515 68.2789 276.819 67.87 277.332V278.433H68.0063C68.3732 277.856 68.9813 277.416 69.6837 277.416C70.3442 277.416 70.8055 277.825 70.8055 278.59C70.8055 279.219 70.5119 279.744 70.0611 280.299L67.4821 283.497V284H71.9692V283.14H68.9079ZM74.4185 283.14L76.2951 280.792C76.9241 280.027 77.2805 279.398 77.2805 278.517C77.2805 277.227 76.4314 276.515 75.2467 276.515C74.4919 276.515 73.7894 276.819 73.3806 277.332V278.433H73.5169C73.8838 277.856 74.4919 277.416 75.1943 277.416C75.8547 277.416 76.316 277.825 76.316 278.59C76.316 279.219 76.0225 279.744 75.5717 280.299L72.9927 283.497V284H77.4797V283.14H74.4185Z" fill="black"/>
<path d="M629.041 276.862C627.479 276.862 626.609 277.732 626.609 279C626.609 280.185 627.416 281.128 628.811 281.17L626.357 284.2H627.479L629.859 281.202H630.886V284.2H631.83V276.862H629.041ZM629.083 280.321L628.978 280.961H628.968L629.083 280.321C628.129 280.321 627.594 279.818 627.594 279.032C627.594 278.266 628.129 277.721 629.125 277.721H630.886V280.321H629.083ZM637.22 278.937V281.024H634.683V278.937H633.781V284.2H634.683V281.82H637.22V284.2H638.122V278.937H637.22ZM644.267 282.68C644.267 282.051 643.9 281.579 643.302 281.37C643.711 281.16 643.921 280.814 643.921 280.342C643.921 279.514 643.26 278.937 642.243 278.937H639.947V284.2H642.484C643.533 284.2 644.267 283.592 644.267 282.68ZM642.149 279.734C642.725 279.734 642.998 280.049 642.998 280.416C642.998 280.793 642.725 281.097 642.149 281.097H640.849V279.734H642.149ZM643.344 282.628C643.344 283.078 642.988 283.403 642.39 283.403H640.849V281.852H642.39C642.988 281.852 643.344 282.198 643.344 282.628ZM649.169 283.341L651.045 280.992C651.674 280.227 652.031 279.598 652.031 278.717C652.031 277.428 651.181 276.715 649.997 276.715C649.242 276.715 648.54 277.019 648.131 277.532V278.633H648.267C648.634 278.057 649.242 277.616 649.944 277.616C650.605 277.616 651.066 278.025 651.066 278.791C651.066 279.42 650.773 279.944 650.322 280.499L647.743 283.697V284.2H652.23V283.341H649.169ZM656.064 276.715C654.555 276.715 653.464 278.088 653.464 280.531C653.464 282.974 654.555 284.347 656.064 284.347C657.574 284.347 658.664 282.974 658.664 280.531C658.664 278.088 657.574 276.715 656.064 276.715ZM656.064 283.445C655.058 283.445 654.429 282.407 654.429 280.531C654.429 278.654 655.058 277.616 656.064 277.616C657.071 277.616 657.7 278.654 657.7 280.531C657.7 282.407 657.071 283.445 656.064 283.445ZM661.183 283.341L663.059 280.992C663.688 280.227 664.045 279.598 664.045 278.717C664.045 277.428 663.196 276.715 662.011 276.715C661.256 276.715 660.554 277.019 660.145 277.532V278.633H660.281C660.648 278.057 661.256 277.616 661.959 277.616C662.619 277.616 663.08 278.025 663.08 278.791C663.08 279.42 662.787 279.944 662.336 280.499L659.757 283.697V284.2H664.244V283.341H661.183ZM669.555 282.219C669.555 281.307 669.115 280.604 668.287 280.258C668.958 279.965 669.283 279.399 669.283 278.675C669.283 277.512 668.413 276.715 667.092 276.715C666.494 276.715 665.97 276.893 665.53 277.249V278.34H665.666C666.022 277.857 666.484 277.616 667.06 277.616C667.889 277.616 668.318 278.088 668.318 278.791C668.318 279.514 667.815 279.912 666.84 279.912H666.442V280.793H666.861C667.951 280.793 668.591 281.296 668.591 282.135C668.591 282.963 667.962 283.445 667.071 283.445C666.305 283.445 665.813 283.099 665.404 282.439H665.247V283.686C665.718 284.127 666.337 284.347 667.102 284.347C667.857 284.347 668.455 284.158 668.895 283.77C669.335 283.382 669.555 282.858 669.555 282.219Z" fill="black"/>
<path d="M183.44 284H184.467L181.417 276.661H180.767L177.716 284H178.722L179.498 282.05H182.675L183.44 284ZM179.823 281.232L181.081 278.035L182.35 281.232H179.823ZM185.688 278.737V284H186.589V279.534H189.063V284H189.965V278.737H185.688ZM197.034 281.369C197.065 279.534 195.765 278.569 194.528 278.59C193.773 278.59 193.05 278.936 192.589 279.597V278.737H191.792V286.034H192.694V283.277C193.155 283.853 193.826 284.147 194.539 284.147C195.797 284.147 197.034 283.224 197.034 281.369ZM196.111 281.369C196.111 282.7 195.252 283.308 194.371 283.308C193.49 283.308 192.631 282.7 192.631 281.369C192.631 280.037 193.49 279.429 194.371 279.429C195.252 279.429 196.111 280.037 196.111 281.369ZM201.894 283.14L203.77 280.792C204.399 280.027 204.756 279.398 204.756 278.517C204.756 277.227 203.907 276.515 202.722 276.515C201.967 276.515 201.265 276.819 200.856 277.332V278.433H200.992C201.359 277.856 201.967 277.416 202.67 277.416C203.33 277.416 203.791 277.825 203.791 278.59C203.791 279.219 203.498 279.744 203.047 280.299L200.468 283.497V284H204.955V283.14H201.894ZM208.79 276.515C207.28 276.515 206.19 277.888 206.19 280.331C206.19 282.773 207.28 284.147 208.79 284.147C210.299 284.147 211.39 282.773 211.39 280.331C211.39 277.888 210.299 276.515 208.79 276.515ZM208.79 283.245C207.783 283.245 207.154 282.207 207.154 280.331C207.154 278.454 207.783 277.416 208.79 277.416C209.796 277.416 210.425 278.454 210.425 280.331C210.425 282.207 209.796 283.245 208.79 283.245ZM213.908 283.14L215.785 280.792C216.414 280.027 216.77 279.398 216.77 278.517C216.77 277.227 215.921 276.515 214.736 276.515C213.981 276.515 213.279 276.819 212.87 277.332V278.433H213.006C213.373 277.856 213.981 277.416 214.684 277.416C215.344 277.416 215.805 277.825 215.805 278.59C215.805 279.219 215.512 279.744 215.061 280.299L212.482 283.497V284H216.969V283.14H213.908ZM219.418 283.14L221.295 280.792C221.924 280.027 222.281 279.398 222.281 278.517C222.281 277.227 221.431 276.515 220.247 276.515C219.492 276.515 218.789 276.819 218.381 277.332V278.433H218.517C218.884 277.856 219.492 277.416 220.194 277.416C220.855 277.416 221.316 277.825 221.316 278.59C221.316 279.219 221.022 279.744 220.572 280.299L217.993 283.497V284H222.48V283.14H219.418Z" fill="black"/>
<path d="M331.795 276.661L327.538 282.365V276.661H326.595V284H327.328L331.585 278.297V284H332.528V276.661H331.795ZM341.701 281.369C341.701 279.639 340.537 278.59 339.059 278.59C337.717 278.59 336.627 279.45 336.438 280.886H335.379V278.737H334.477V284H335.379V281.683H336.417C336.543 283.224 337.675 284.147 339.059 284.147C340.537 284.147 341.701 283.098 341.701 281.369ZM340.778 281.369C340.778 282.627 340.013 283.308 339.048 283.308C338.094 283.308 337.308 282.627 337.308 281.369C337.308 280.111 338.094 279.429 339.048 279.429C340.013 279.429 340.778 280.111 340.778 281.369ZM343.803 278.737L343.771 279.859C343.708 282.312 343.383 283.151 342.681 283.151H342.524V284H342.828C343.918 283.979 344.432 283.36 344.578 280.058L344.599 279.534H346.424V284H347.325V278.737H343.803ZM353.326 282.312C353.326 281.232 352.603 280.635 351.429 280.635H350.055V278.737H349.154V284H351.429C352.592 284 353.326 283.392 353.326 282.312ZM352.404 282.312C352.404 282.868 352.047 283.203 351.345 283.203H350.055V281.421H351.345C352.047 281.421 352.404 281.756 352.404 282.312ZM357.894 283.14L359.77 280.792C360.399 280.027 360.756 279.398 360.756 278.517C360.756 277.227 359.907 276.515 358.722 276.515C357.967 276.515 357.265 276.819 356.856 277.332V278.433H356.992C357.359 277.856 357.967 277.416 358.67 277.416C359.33 277.416 359.791 277.825 359.791 278.59C359.791 279.219 359.498 279.744 359.047 280.299L356.468 283.497V284H360.955V283.14H357.894ZM364.79 276.515C363.28 276.515 362.19 277.888 362.19 280.331C362.19 282.773 363.28 284.147 364.79 284.147C366.299 284.147 367.39 282.773 367.39 280.331C367.39 277.888 366.299 276.515 364.79 276.515ZM364.79 283.245C363.783 283.245 363.154 282.207 363.154 280.331C363.154 278.454 363.783 277.416 364.79 277.416C365.796 277.416 366.425 278.454 366.425 280.331C366.425 282.207 365.796 283.245 364.79 283.245ZM369.908 283.14L371.785 280.792C372.414 280.027 372.77 279.398 372.77 278.517C372.77 277.227 371.921 276.515 370.736 276.515C369.981 276.515 369.279 276.819 368.87 277.332V278.433H369.006C369.373 277.856 369.981 277.416 370.684 277.416C371.344 277.416 371.805 277.825 371.805 278.59C371.805 279.219 371.512 279.744 371.061 280.299L368.482 283.497V284H372.969V283.14H369.908ZM375.418 283.14L377.295 280.792C377.924 280.027 378.281 279.398 378.281 278.517C378.281 277.227 377.431 276.515 376.247 276.515C375.492 276.515 374.789 276.819 374.381 277.332V278.433H374.517C374.884 277.856 375.492 277.416 376.194 277.416C376.855 277.416 377.316 277.825 377.316 278.59C377.316 279.219 377.022 279.744 376.572 280.299L373.993 283.497V284H378.48V283.14H375.418Z" fill="black"/>
<path d="M488.056 276.715C485.886 276.715 484.261 278.235 484.261 280.531C484.261 282.827 485.886 284.347 488.056 284.347C490.227 284.347 491.852 282.827 491.852 280.531C491.852 278.235 490.227 276.715 488.056 276.715ZM488.056 283.445C486.431 283.445 485.247 282.282 485.247 280.531C485.247 278.78 486.431 277.616 488.056 277.616C489.681 277.616 490.866 278.78 490.866 280.531C490.866 282.282 489.681 283.445 488.056 283.445ZM497.897 284.2L495.36 281.317L497.635 278.937H496.471L494.364 281.202V278.937H493.463V284.2H494.364V281.516L496.671 284.2H497.897ZM502.683 278.937H498.426V279.734H500.104V284.2H501.005V279.734H502.683V278.937ZM507.038 283.341L508.914 280.992C509.543 280.227 509.9 279.598 509.9 278.717C509.9 277.428 509.05 276.715 507.866 276.715C507.111 276.715 506.408 277.019 506 277.532V278.633H506.136C506.503 278.057 507.111 277.616 507.813 277.616C508.474 277.616 508.935 278.025 508.935 278.791C508.935 279.42 508.642 279.944 508.191 280.499L505.612 283.697V284.2H510.099V283.341H507.038ZM513.933 276.715C512.424 276.715 511.333 278.088 511.333 280.531C511.333 282.974 512.424 284.347 513.933 284.347C515.443 284.347 516.533 282.974 516.533 280.531C516.533 278.088 515.443 276.715 513.933 276.715ZM513.933 283.445C512.927 283.445 512.298 282.407 512.298 280.531C512.298 278.654 512.927 277.616 513.933 277.616C514.94 277.616 515.569 278.654 515.569 280.531C515.569 282.407 514.94 283.445 513.933 283.445ZM519.052 283.341L520.928 280.992C521.557 280.227 521.914 279.598 521.914 278.717C521.914 277.428 521.065 276.715 519.88 276.715C519.125 276.715 518.423 277.019 518.014 277.532V278.633H518.15C518.517 278.057 519.125 277.616 519.828 277.616C520.488 277.616 520.949 278.025 520.949 278.791C520.949 279.42 520.656 279.944 520.205 280.499L517.626 283.697V284.2H522.113V283.341H519.052ZM524.562 283.341L526.439 280.992C527.068 280.227 527.424 279.598 527.424 278.717C527.424 277.428 526.575 276.715 525.39 276.715C524.636 276.715 523.933 277.019 523.524 277.532V278.633H523.661C524.028 278.057 524.636 277.616 525.338 277.616C525.999 277.616 526.46 278.025 526.46 278.791C526.46 279.42 526.166 279.944 525.715 280.499L523.136 283.697V284.2H527.624V283.341H524.562Z" fill="black"/>
<path d="M45.1994 356.619H43.3194V346.563H37.9674V356.619H36.0874V345.099H45.1994V356.619ZM58.9151 350.859C58.9151 351.712 58.7764 352.499 58.4991 353.219C58.2218 353.939 57.8298 354.56 57.3231 355.083C56.8218 355.6 56.2164 356.006 55.5071 356.299C54.8031 356.592 54.0191 356.739 53.1551 356.739C52.2964 356.739 51.5124 356.592 50.8031 356.299C50.0991 356.006 49.4938 355.6 48.9871 355.083C48.4804 354.56 48.0884 353.939 47.8111 353.219C47.5338 352.499 47.3951 351.712 47.3951 350.859C47.3951 350.006 47.5338 349.219 47.8111 348.499C48.0884 347.779 48.4804 347.158 48.9871 346.635C49.4938 346.112 50.0991 345.704 50.8031 345.411C51.5124 345.118 52.2964 344.971 53.1551 344.971C54.0191 344.971 54.8031 345.118 55.5071 345.411C56.2164 345.704 56.8218 346.112 57.3231 346.635C57.8298 347.158 58.2218 347.779 58.4991 348.499C58.7764 349.219 58.9151 350.006 58.9151 350.859ZM57.0031 350.859C57.0031 350.198 56.9124 349.603 56.7311 349.075C56.5551 348.547 56.2991 348.099 55.9631 347.731C55.6324 347.363 55.2298 347.08 54.7551 346.883C54.2804 346.686 53.7471 346.587 53.1551 346.587C52.5684 346.587 52.0378 346.686 51.5631 346.883C51.0884 347.08 50.6831 347.363 50.3471 347.731C50.0111 348.099 49.7524 348.547 49.5711 349.075C49.3898 349.603 49.2991 350.198 49.2991 350.859C49.2991 351.526 49.3898 352.123 49.5711 352.651C49.7524 353.179 50.0111 353.627 50.3471 353.995C50.6831 354.358 51.0884 354.638 51.5631 354.835C52.0378 355.027 52.5684 355.123 53.1551 355.123C53.7471 355.123 54.2804 355.027 54.7551 354.835C55.2298 354.638 55.6324 354.358 55.9631 353.995C56.2991 353.627 56.5551 353.179 56.7311 352.651C56.9124 352.123 57.0031 351.526 57.0031 350.859ZM64.7101 350.971C65.1261 350.971 65.4914 350.918 65.8061 350.811C66.1261 350.704 66.3901 350.555 66.5981 350.363C66.8114 350.166 66.9714 349.928 67.0781 349.651C67.1848 349.374 67.2381 349.064 67.2381 348.723C67.2381 348.387 67.1848 348.086 67.0781 347.819C66.9768 347.552 66.8221 347.326 66.6141 347.139C66.4061 346.952 66.1421 346.811 65.8221 346.715C65.5074 346.614 65.1368 346.563 64.7101 346.563H62.9981V350.971H64.7101ZM64.7101 345.099C65.4621 345.099 66.1128 345.187 66.6621 345.363C67.2168 345.539 67.6728 345.787 68.0301 346.107C68.3928 346.422 68.6621 346.803 68.8381 347.251C69.0141 347.694 69.1021 348.184 69.1021 348.723C69.1021 349.272 69.0088 349.776 68.8221 350.235C68.6354 350.688 68.3581 351.08 67.9901 351.411C67.6221 351.736 67.1634 351.992 66.6141 352.179C66.0701 352.36 65.4354 352.451 64.7101 352.451H62.9981V356.619H61.1261V345.099H64.7101ZM78.9797 346.659H75.3877V356.619H73.5237V346.659H69.9237V345.099H78.9797V346.659ZM86.115 353.771C86.5683 353.766 86.9817 353.678 87.355 353.507C87.7337 353.336 88.0563 353.107 88.323 352.819C88.595 352.531 88.803 352.198 88.947 351.819C89.0963 351.435 89.171 351.024 89.171 350.587C89.171 350.155 89.0963 349.747 88.947 349.363C88.803 348.979 88.595 348.643 88.323 348.355C88.0563 348.067 87.7337 347.84 87.355 347.675C86.9817 347.504 86.5683 347.414 86.115 347.403V353.771ZM84.347 347.403C83.8883 347.414 83.4697 347.504 83.091 347.675C82.7177 347.84 82.3977 348.067 82.131 348.355C81.8643 348.643 81.6563 348.979 81.507 349.363C81.363 349.747 81.291 350.155 81.291 350.587C81.291 351.024 81.363 351.435 81.507 351.819C81.6563 352.198 81.8643 352.531 82.131 352.819C82.3977 353.107 82.7177 353.336 83.091 353.507C83.4697 353.678 83.8883 353.766 84.347 353.771V347.403ZM86.115 345.947C86.595 345.963 87.051 346.03 87.483 346.147C87.915 346.264 88.3123 346.424 88.675 346.627C89.0377 346.83 89.363 347.072 89.651 347.355C89.9443 347.638 90.1923 347.95 90.395 348.291C90.5977 348.627 90.7523 348.99 90.859 349.379C90.971 349.768 91.027 350.171 91.027 350.587C91.027 351.216 90.907 351.808 90.667 352.363C90.427 352.918 90.091 353.406 89.659 353.827C89.227 354.243 88.7097 354.576 88.107 354.827C87.5043 355.078 86.8403 355.214 86.115 355.235V356.619H84.347V355.235C83.6217 355.214 82.955 355.078 82.347 354.827C81.7443 354.576 81.2243 354.243 80.787 353.827C80.355 353.406 80.019 352.918 79.779 352.363C79.539 351.808 79.419 351.216 79.419 350.587C79.419 349.958 79.539 349.366 79.779 348.811C80.0243 348.256 80.3657 347.771 80.803 347.355C81.2403 346.939 81.7603 346.606 82.363 346.355C82.9657 346.104 83.627 345.968 84.347 345.947V344.595H86.115V345.947ZM100.298 355.107L100.29 356.619H93.1061V345.099H100.29V346.611H94.9861V350.083H99.2261V351.547H94.9861V355.107H100.298ZM111.509 356.619H109.629V346.563H106.173C106.098 348.019 105.994 349.283 105.861 350.355C105.728 351.427 105.568 352.339 105.381 353.091C105.2 353.843 104.992 354.456 104.757 354.931C104.528 355.406 104.272 355.776 103.989 356.043C103.712 356.31 103.413 356.491 103.093 356.587C102.773 356.683 102.434 356.731 102.077 356.731C101.405 356.731 101.069 356.611 101.069 356.371V355.187H101.661C101.858 355.187 102.056 355.152 102.253 355.083C102.456 355.008 102.65 354.854 102.837 354.619C103.024 354.384 103.202 354.046 103.373 353.603C103.544 353.155 103.698 352.558 103.837 351.811C103.976 351.064 104.093 350.144 104.189 349.051C104.29 347.952 104.365 346.635 104.413 345.099H111.509V356.619ZM118.322 355.139C118.744 355.139 119.098 355.094 119.386 355.003C119.68 354.907 119.917 354.776 120.098 354.611C120.28 354.44 120.41 354.243 120.49 354.019C120.576 353.79 120.618 353.542 120.618 353.275C120.618 352.987 120.578 352.728 120.498 352.499C120.418 352.27 120.288 352.078 120.106 351.923C119.925 351.763 119.688 351.64 119.394 351.555C119.106 351.47 118.752 351.427 118.33 351.427H116.282V355.139H118.322ZM118.33 349.947C119.056 349.947 119.677 350.027 120.194 350.187C120.717 350.347 121.146 350.568 121.482 350.851C121.818 351.128 122.064 351.459 122.218 351.843C122.378 352.227 122.458 352.64 122.458 353.083C122.458 353.622 122.365 354.11 122.178 354.547C121.997 354.979 121.73 355.35 121.378 355.659C121.026 355.968 120.592 356.206 120.074 356.371C119.562 356.536 118.978 356.619 118.322 356.619H114.41V345.099H116.282V349.947H118.33ZM128.471 349.115C128.231 348.71 128.066 348.288 127.975 347.851C127.89 347.408 127.882 346.974 127.951 346.547C128.021 346.115 128.165 345.704 128.383 345.315C128.607 344.92 128.903 344.566 129.271 344.251L129.807 344.579C129.903 344.638 129.946 344.712 129.935 344.803C129.925 344.894 129.893 344.968 129.839 345.027C129.717 345.176 129.605 345.366 129.503 345.595C129.402 345.824 129.333 346.078 129.295 346.355C129.263 346.632 129.274 346.923 129.327 347.227C129.381 347.531 129.495 347.83 129.671 348.123C129.757 348.256 129.781 348.376 129.743 348.483C129.711 348.584 129.634 348.656 129.511 348.699L128.471 349.115ZM131.023 349.115C130.783 348.71 130.618 348.288 130.527 347.851C130.442 347.408 130.434 346.974 130.503 346.547C130.573 346.115 130.717 345.704 130.935 345.315C131.159 344.92 131.455 344.566 131.823 344.251L132.359 344.579C132.455 344.638 132.498 344.712 132.487 344.803C132.477 344.894 132.445 344.968 132.391 345.027C132.269 345.176 132.157 345.366 132.055 345.595C131.954 345.824 131.885 346.078 131.847 346.355C131.815 346.632 131.826 346.923 131.879 347.227C131.933 347.531 132.047 347.83 132.223 348.123C132.309 348.256 132.333 348.376 132.295 348.483C132.263 348.584 132.186 348.656 132.063 348.699L131.023 349.115ZM138.911 355.139C139.332 355.139 139.687 355.091 139.975 354.995C140.268 354.894 140.505 354.758 140.687 354.587C140.873 354.416 141.007 354.216 141.087 353.987C141.172 353.752 141.215 353.502 141.215 353.235C141.215 352.691 141.028 352.264 140.655 351.955C140.287 351.64 139.703 351.483 138.903 351.483H136.591V355.139H138.911ZM136.591 346.563V350.163H138.463C139.263 350.163 139.86 350.008 140.255 349.699C140.649 349.39 140.847 348.944 140.847 348.363C140.847 347.728 140.66 347.27 140.287 346.987C139.919 346.704 139.34 346.563 138.551 346.563H136.591ZM138.551 345.099C139.287 345.099 139.916 345.171 140.439 345.315C140.961 345.454 141.391 345.654 141.727 345.915C142.063 346.176 142.308 346.496 142.463 346.875C142.623 347.248 142.703 347.67 142.703 348.139C142.703 348.411 142.66 348.675 142.575 348.931C142.495 349.182 142.367 349.419 142.191 349.643C142.02 349.862 141.804 350.059 141.543 350.235C141.281 350.411 140.972 350.558 140.615 350.675C142.247 351.022 143.063 351.888 143.063 353.275C143.063 353.766 142.969 354.216 142.783 354.627C142.601 355.032 142.335 355.384 141.983 355.683C141.636 355.976 141.207 356.206 140.695 356.371C140.183 356.536 139.599 356.619 138.943 356.619H134.719V345.099H138.551ZM149.244 355.139C149.665 355.139 150.02 355.094 150.308 355.003C150.601 354.907 150.838 354.776 151.02 354.611C151.201 354.44 151.332 354.243 151.412 354.019C151.497 353.79 151.54 353.542 151.54 353.275C151.54 352.987 151.5 352.728 151.42 352.499C151.34 352.27 151.209 352.078 151.028 351.923C150.846 351.763 150.609 351.64 150.316 351.555C150.028 351.47 149.673 351.427 149.252 351.427H147.204V355.139H149.244ZM149.252 349.947C149.977 349.947 150.598 350.027 151.116 350.187C151.638 350.347 152.068 350.568 152.404 350.851C152.74 351.128 152.985 351.459 153.14 351.843C153.3 352.227 153.38 352.64 153.38 353.083C153.38 353.622 153.286 354.11 153.1 354.547C152.918 354.979 152.652 355.35 152.3 355.659C151.948 355.968 151.513 356.206 150.996 356.371C150.484 356.536 149.9 356.619 149.244 356.619H145.332V345.099H147.204V349.947H149.252ZM157.148 356.619H155.268V345.099H157.148V356.619ZM168.039 354.051C168.14 354.051 168.228 354.091 168.303 354.171L169.047 354.979C168.577 355.544 168.001 355.982 167.319 356.291C166.636 356.595 165.82 356.747 164.871 356.747C164.028 356.747 163.265 356.603 162.583 356.315C161.905 356.022 161.327 355.616 160.847 355.099C160.367 354.576 159.996 353.955 159.735 353.235C159.479 352.515 159.351 351.723 159.351 350.859C159.351 349.995 159.487 349.203 159.759 348.483C160.036 347.758 160.423 347.136 160.919 346.619C161.42 346.096 162.017 345.691 162.711 345.403C163.409 345.115 164.177 344.971 165.015 344.971C165.847 344.971 166.58 345.107 167.215 345.379C167.855 345.646 168.409 346.003 168.879 346.451L168.263 347.323C168.22 347.382 168.169 347.432 168.111 347.475C168.052 347.518 167.972 347.539 167.871 347.539C167.764 347.539 167.641 347.491 167.503 347.395C167.369 347.294 167.196 347.184 166.983 347.067C166.775 346.944 166.511 346.835 166.191 346.739C165.876 346.638 165.481 346.587 165.007 346.587C164.457 346.587 163.953 346.683 163.495 346.875C163.036 347.067 162.641 347.347 162.311 347.715C161.98 348.083 161.721 348.531 161.535 349.059C161.353 349.587 161.263 350.187 161.263 350.859C161.263 351.536 161.359 352.142 161.551 352.675C161.743 353.203 162.007 353.651 162.343 354.019C162.679 354.382 163.073 354.659 163.527 354.851C163.98 355.043 164.468 355.139 164.991 355.139C165.311 355.139 165.596 355.123 165.847 355.091C166.103 355.054 166.337 354.998 166.551 354.923C166.764 354.843 166.964 354.744 167.151 354.627C167.343 354.51 167.532 354.366 167.719 354.195C167.825 354.099 167.932 354.051 168.039 354.051ZM181.413 350.859C181.413 351.712 181.275 352.499 180.997 353.219C180.72 353.939 180.328 354.56 179.821 355.083C179.32 355.6 178.715 356.006 178.005 356.299C177.301 356.592 176.517 356.739 175.653 356.739C174.795 356.739 174.011 356.592 173.301 356.299C172.597 356.006 171.992 355.6 171.485 355.083C170.979 354.56 170.587 353.939 170.309 353.219C170.032 352.499 169.893 351.712 169.893 350.859C169.893 350.006 170.032 349.219 170.309 348.499C170.587 347.779 170.979 347.158 171.485 346.635C171.992 346.112 172.597 345.704 173.301 345.411C174.011 345.118 174.795 344.971 175.653 344.971C176.517 344.971 177.301 345.118 178.005 345.411C178.715 345.704 179.32 346.112 179.821 346.635C180.328 347.158 180.72 347.779 180.997 348.499C181.275 349.219 181.413 350.006 181.413 350.859ZM179.501 350.859C179.501 350.198 179.411 349.603 179.229 349.075C179.053 348.547 178.797 348.099 178.461 347.731C178.131 347.363 177.728 347.08 177.253 346.883C176.779 346.686 176.245 346.587 175.653 346.587C175.067 346.587 174.536 346.686 174.061 346.883C173.587 347.08 173.181 347.363 172.845 347.731C172.509 348.099 172.251 348.547 172.069 349.075C171.888 349.603 171.797 350.198 171.797 350.859C171.797 351.526 171.888 352.123 172.069 352.651C172.251 353.179 172.509 353.627 172.845 353.995C173.181 354.358 173.587 354.638 174.061 354.835C174.536 355.027 175.067 355.123 175.653 355.123C176.245 355.123 176.779 355.027 177.253 354.835C177.728 354.638 178.131 354.358 178.461 353.995C178.797 353.627 179.053 353.179 179.229 352.651C179.411 352.123 179.501 351.526 179.501 350.859ZM193.128 356.619H191.44C191.259 356.619 191.107 356.571 190.984 356.475C190.862 356.379 190.747 356.238 190.64 356.051L187.912 352.027C187.843 351.92 187.774 351.832 187.704 351.763C187.635 351.688 187.558 351.63 187.472 351.587C187.387 351.539 187.291 351.507 187.184 351.491C187.078 351.47 186.958 351.459 186.824 351.459H185.496V356.619H183.624V345.099H185.496V350.027H186.624C186.859 350.027 187.056 349.99 187.216 349.915C187.376 349.84 187.534 349.696 187.688 349.483L190.448 345.611C190.539 345.462 190.648 345.339 190.776 345.243C190.91 345.147 191.067 345.099 191.248 345.099H192.832L189.536 349.771C189.403 349.968 189.251 350.131 189.08 350.259C188.91 350.387 188.72 350.488 188.512 350.563C188.811 350.643 189.064 350.774 189.272 350.955C189.486 351.136 189.686 351.387 189.872 351.707L193.128 356.619ZM204.258 345.099V356.619H202.386V348.971C202.386 348.715 202.391 348.448 202.402 348.171C202.418 347.894 202.447 347.595 202.49 347.275C202.388 347.552 202.279 347.811 202.162 348.051C202.05 348.286 201.938 348.494 201.826 348.675L196.946 356.035C196.903 356.104 196.852 356.174 196.794 356.243C196.74 356.312 196.676 356.376 196.602 356.435C196.532 356.488 196.458 356.534 196.378 356.571C196.298 356.603 196.212 356.619 196.122 356.619H194.722V345.099H196.602V352.739C196.602 352.995 196.594 353.264 196.578 353.547C196.567 353.824 196.54 354.118 196.498 354.427C196.599 354.155 196.706 353.902 196.818 353.667C196.935 353.427 197.047 353.219 197.154 353.043L202.034 345.683C202.076 345.614 202.124 345.544 202.178 345.475C202.236 345.406 202.3 345.344 202.37 345.291C202.444 345.232 202.522 345.187 202.602 345.155C202.682 345.118 202.767 345.099 202.858 345.099H204.258ZM214.355 355.107L214.347 356.619H207.163V345.099H214.347V346.611H209.043V350.083H213.283V351.547H209.043V355.107H214.355ZM228.614 346.659H225.022V356.619H223.158V346.659H219.558V345.099H228.614V346.659ZM237.569 355.107L237.561 356.619H230.377V345.099H237.561V346.611H232.257V350.083H236.497V351.547H232.257V355.107H237.569ZM248.852 356.619H246.988C246.86 356.619 246.756 356.584 246.676 356.515C246.596 356.446 246.532 356.368 246.484 356.283L243.62 351.667C243.599 351.731 243.575 351.792 243.548 351.851C243.527 351.91 243.5 351.966 243.468 352.019L240.7 356.283C240.641 356.368 240.575 356.446 240.5 356.515C240.431 356.584 240.337 356.619 240.22 356.619H238.476L242.364 350.699L238.636 345.099H240.492C240.625 345.099 240.721 345.12 240.78 345.163C240.844 345.2 240.9 345.259 240.948 345.339L243.748 349.739C243.775 349.675 243.801 349.611 243.828 349.547C243.855 349.483 243.889 349.416 243.932 349.347L246.54 345.371C246.593 345.28 246.652 345.214 246.716 345.171C246.78 345.123 246.857 345.099 246.948 345.099H248.732L244.972 350.619L248.852 356.619ZM260.015 345.099V356.619H258.143V351.491H252.359V356.619H250.479V345.099H252.359V350.139H258.143V345.099H260.015ZM273.744 350.859C273.744 351.712 273.605 352.499 273.328 353.219C273.051 353.939 272.659 354.56 272.152 355.083C271.651 355.6 271.045 356.006 270.336 356.299C269.632 356.592 268.848 356.739 267.984 356.739C267.125 356.739 266.341 356.592 265.632 356.299C264.928 356.006 264.323 355.6 263.816 355.083C263.309 354.56 262.917 353.939 262.64 353.219C262.363 352.499 262.224 351.712 262.224 350.859C262.224 350.006 262.363 349.219 262.64 348.499C262.917 347.779 263.309 347.158 263.816 346.635C264.323 346.112 264.928 345.704 265.632 345.411C266.341 345.118 267.125 344.971 267.984 344.971C268.848 344.971 269.632 345.118 270.336 345.411C271.045 345.704 271.651 346.112 272.152 346.635C272.659 347.158 273.051 347.779 273.328 348.499C273.605 349.219 273.744 350.006 273.744 350.859ZM271.832 350.859C271.832 350.198 271.741 349.603 271.56 349.075C271.384 348.547 271.128 348.099 270.792 347.731C270.461 347.363 270.059 347.08 269.584 346.883C269.109 346.686 268.576 346.587 267.984 346.587C267.397 346.587 266.867 346.686 266.392 346.883C265.917 347.08 265.512 347.363 265.176 347.731C264.84 348.099 264.581 348.547 264.4 349.075C264.219 349.603 264.128 350.198 264.128 350.859C264.128 351.526 264.219 352.123 264.4 352.651C264.581 353.179 264.84 353.627 265.176 353.995C265.512 354.358 265.917 354.638 266.392 354.835C266.867 355.027 267.397 355.123 267.984 355.123C268.576 355.123 269.109 355.027 269.584 354.835C270.059 354.638 270.461 354.358 270.792 353.995C271.128 353.627 271.384 353.179 271.56 352.651C271.741 352.123 271.832 351.526 271.832 350.859ZM284.682 356.619H282.802V346.563H279.346C279.271 348.019 279.167 349.283 279.034 350.355C278.901 351.427 278.741 352.339 278.554 353.091C278.373 353.843 278.165 354.456 277.93 354.931C277.701 355.406 277.445 355.776 277.162 356.043C276.885 356.31 276.586 356.491 276.266 356.587C275.946 356.683 275.607 356.731 275.25 356.731C274.578 356.731 274.242 356.611 274.242 356.371V355.187H274.834C275.031 355.187 275.229 355.152 275.426 355.083C275.629 355.008 275.823 354.854 276.01 354.619C276.197 354.384 276.375 354.046 276.546 353.603C276.717 353.155 276.871 352.558 277.01 351.811C277.149 351.064 277.266 350.144 277.362 349.051C277.463 347.952 277.538 346.635 277.586 345.099H284.682V356.619ZM298.408 350.859C298.408 351.712 298.269 352.499 297.992 353.219C297.714 353.939 297.322 354.56 296.816 355.083C296.314 355.6 295.709 356.006 295 356.299C294.296 356.592 293.512 356.739 292.648 356.739C291.789 356.739 291.005 356.592 290.296 356.299C289.592 356.006 288.986 355.6 288.48 355.083C287.973 354.56 287.581 353.939 287.304 353.219C287.026 352.499 286.888 351.712 286.888 350.859C286.888 350.006 287.026 349.219 287.304 348.499C287.581 347.779 287.973 347.158 288.48 346.635C288.986 346.112 289.592 345.704 290.296 345.411C291.005 345.118 291.789 344.971 292.648 344.971C293.512 344.971 294.296 345.118 295 345.411C295.709 345.704 296.314 346.112 296.816 346.635C297.322 347.158 297.714 347.779 297.992 348.499C298.269 349.219 298.408 350.006 298.408 350.859ZM296.496 350.859C296.496 350.198 296.405 349.603 296.224 349.075C296.048 348.547 295.792 348.099 295.456 347.731C295.125 347.363 294.722 347.08 294.248 346.883C293.773 346.686 293.24 346.587 292.648 346.587C292.061 346.587 291.53 346.686 291.056 346.883C290.581 347.08 290.176 347.363 289.84 347.731C289.504 348.099 289.245 348.547 289.064 349.075C288.882 349.603 288.792 350.198 288.792 350.859C288.792 351.526 288.882 352.123 289.064 352.651C289.245 353.179 289.504 353.627 289.84 353.995C290.176 354.358 290.581 354.638 291.056 354.835C291.53 355.027 292.061 355.123 292.648 355.123C293.24 355.123 293.773 355.027 294.248 354.835C294.722 354.638 295.125 354.358 295.456 353.995C295.792 353.627 296.048 353.179 296.224 352.651C296.405 352.123 296.496 351.526 296.496 350.859ZM307.643 346.563H302.499V356.619H300.619V345.099H307.643V346.563ZM318.94 345.099V356.619H317.068V348.971C317.068 348.715 317.073 348.448 317.084 348.171C317.1 347.894 317.129 347.595 317.172 347.275C317.07 347.552 316.961 347.811 316.844 348.051C316.732 348.286 316.62 348.494 316.508 348.675L311.628 356.035C311.585 356.104 311.534 356.174 311.476 356.243C311.422 356.312 311.358 356.376 311.284 356.435C311.214 356.488 311.14 356.534 311.06 356.571C310.98 356.603 310.894 356.619 310.804 356.619H309.404V345.099H311.284V352.739C311.284 352.995 311.276 353.264 311.26 353.547C311.249 353.824 311.222 354.118 311.18 354.427C311.281 354.155 311.388 353.902 311.5 353.667C311.617 353.427 311.729 353.219 311.836 353.043L316.716 345.683C316.758 345.614 316.806 345.544 316.86 345.475C316.918 345.406 316.982 345.344 317.052 345.291C317.126 345.232 317.204 345.187 317.284 345.155C317.364 345.118 317.449 345.099 317.54 345.099H318.94ZM331.381 345.099V356.619H329.509V348.971C329.509 348.715 329.514 348.448 329.525 348.171C329.541 347.894 329.57 347.595 329.613 347.275C329.512 347.552 329.402 347.811 329.285 348.051C329.173 348.286 329.061 348.494 328.949 348.675L324.069 356.035C324.026 356.104 323.976 356.174 323.917 356.243C323.864 356.312 323.8 356.376 323.725 356.435C323.656 356.488 323.581 356.534 323.501 356.571C323.421 356.603 323.336 356.619 323.245 356.619H321.845V345.099H323.725V352.739C323.725 352.995 323.717 353.264 323.701 353.547C323.69 353.824 323.664 354.118 323.621 354.427C323.722 354.155 323.829 353.902 323.941 353.667C324.058 353.427 324.17 353.219 324.277 353.043L329.157 345.683C329.2 345.614 329.248 345.544 329.301 345.475C329.36 345.406 329.424 345.344 329.493 345.291C329.568 345.232 329.645 345.187 329.725 345.155C329.805 345.118 329.89 345.099 329.981 345.099H331.381ZM335.142 344.331C335.382 344.736 335.545 345.16 335.63 345.603C335.715 346.04 335.723 346.475 335.654 346.907C335.585 347.334 335.438 347.744 335.214 348.139C334.995 348.534 334.702 348.886 334.334 349.195L333.798 348.867C333.707 348.808 333.665 348.734 333.67 348.643C333.681 348.547 333.713 348.472 333.766 348.419C333.889 348.27 334.001 348.08 334.102 347.851C334.203 347.622 334.27 347.371 334.302 347.099C334.339 346.822 334.331 346.531 334.278 346.227C334.23 345.923 334.115 345.622 333.934 345.323C333.849 345.184 333.825 345.064 333.862 344.963C333.899 344.862 333.977 344.79 334.094 344.747L335.142 344.331ZM337.694 344.331C337.934 344.736 338.097 345.16 338.182 345.603C338.267 346.04 338.275 346.475 338.206 346.907C338.137 347.334 337.99 347.744 337.766 348.139C337.547 348.534 337.254 348.886 336.886 349.195L336.35 348.867C336.259 348.808 336.217 348.734 336.222 348.643C336.233 348.547 336.265 348.472 336.318 348.419C336.441 348.27 336.553 348.08 336.654 347.851C336.755 347.622 336.822 347.371 336.854 347.099C336.891 346.822 336.883 346.531 336.83 346.227C336.782 345.923 336.667 345.622 336.486 345.323C336.401 345.184 336.377 345.064 336.414 344.963C336.451 344.862 336.529 344.79 336.646 344.747L337.694 344.331Z" fill="black"/>
</svg>
