<svg width="330" height="307" viewBox="0 0 330 307" fill="none" xmlns="http://www.w3.org/2000/svg">
<path d="M43 158.636L46.4669 136.639L49.3242 126.48L50.5007 127.327L51.5092 131.318L53.0219 126.48L55.543 130.713L57.0557 139.058L58.0641 140.63L59.5768 132.89L60.9214 135.43L63.1064 140.025L65.4594 128.778L67.8125 122.005L69.4932 121.643L70.6697 118.74L72.0143 122.005L73.3589 117.894L77.5608 111L78.9054 113.056L79.9139 117.41L82.0988 114.144L84.9561 120.191L86.3007 119.345L87.4772 120.191L88.6538 125.15L90.3345 125.875L91.0068 123.094L93.0237 126.48H93.696L95.5448 121.643L96.8894 122.489L98.066 126.48L98.7383 133.736L100.251 132.648L101.596 140.025L102.772 139.421L103.949 132.89L105.461 143.17L107.982 140.025L109.327 132.285L110.335 141.597L111.848 143.532L112.857 151.877L114.033 151.514L115.882 155.868H117.395L118.571 149.821L119.243 150.547L120.756 146.193L121.933 156.231L123.277 157.803H124.454L125.798 153.329L127.143 154.901L128.824 151.877L131.009 141.356L133.362 144.137L134.874 140.025L136.051 144.137L137.564 143.532L138.74 140.872L140.421 144.137L141.429 150.547L142.606 157.803L143.614 167.478L144.959 168.083L146.472 165.543L147.648 172.558L149.161 171.953L150.337 166.269L151.682 166.511L152.858 164.213L154.203 156.957L155.716 157.803L157.06 162.641L158.237 163.245L159.413 165.181L160.758 162.399L163.447 161.19L164.287 157.44L165.968 157.803L167.649 162.399L170.674 164.818L172.187 160.343L173.364 162.157L174.372 155.264L175.717 153.933L177.061 151.394L178.238 153.933H180.087L181.431 156.231L182.44 149.579L184.961 142.928L186.473 143.532L187.65 145.588L188.994 141.477L192.86 142.444L193.701 143.532L195.045 137.848H196.39L197.566 133.132L200.424 131.439L201.768 133.736L202.945 133.132L204.289 136.76L205.466 142.444L206.642 143.291L208.155 142.081L209.163 138.574L210.508 148.128L211.685 148.854L214.206 153.933L215.886 153.57L216.559 155.868L217.735 156.715L219.416 152.724L220.088 151.394L223.282 144.258L224.626 155.868L226.139 154.659L228.324 159.255L230.005 158.287L232.19 164.697L234.039 167.478L234.711 170.986L236.055 173.283L237.4 173.888L238.745 169.655L241.098 178L243.619 164.697L245.132 165.422L246.812 168.083L247.821 174.493L250.174 177.516L251.686 178L252.695 173.042L254.208 178L255.384 171.953L256.561 169.655L259.25 172.558L260.09 167.478L263.284 160.222L265.805 163.729L266.645 157.924L269.502 160.585L270.511 167.116L271.855 169.171L275.553 162.157L277.234 167.478L278.242 154.054L279.419 152.119L281.1 154.054L282.444 152.119L283.621 154.054L284.965 154.78L285.974 153.329L287.486 154.417L288.663 150.91L290.176 149.217H291.184L292.697 153.57L294.041 154.417L295.05 146.677L297.739 147.04L300.26 154.78L301.437 155.505L302.949 153.329L304.63 155.505V151.756L307.319 150.063L309 151.756" stroke="black" stroke-opacity="0.25" stroke-width="1.96571"/>
<path d="M43 158.309L44.848 154.611L47.1581 151.112L48.1976 149.167L49.4521 146.868L50.9696 145.023L52.5866 144.285L53.2796 140.417L54.1673 138.38L55.5145 145.023H56.6933L58.0405 133.213L60.7349 134.135L63.0925 146.868L64.7765 147.422L65.7869 144.654L67.1341 146.868L68.4813 141.701L69.3233 139.302L71.0073 141.701L72.1861 151.112L74.7121 159.047L76.2277 158.309L77.2381 153.327L78.7537 158.309L80.2693 156.649L81.4481 157.756L82.2901 162L83.4689 156.649L86.837 158.309L87.679 155.357L88.8578 159.047L94.0782 151.112L95.5938 140.04L96.7726 137.272L98.2882 135.981L100.814 155.357L101.993 151.112L103.172 143.178L104.687 149.821L105.866 149.267L107.55 144.838L108.561 138.933L109.908 135.243L111.929 125.093L114.286 128.046L115.465 124.17L116.139 120.111L117.991 122.141L119.17 104.979L120.349 109.592L121.191 115.128L123.043 117.527L123.885 124.17L125.064 122.141L125.737 119.004H127.927L130.453 111.253L131.968 109.039L132.642 96.4903L134.157 101.288L135.673 102.949L136.852 101.288L138.031 92.9842L139.378 87.6327L140.893 88.3708L141.904 86.1564L144.43 87.6327L145.609 94.645H147.124L147.966 103.318L149.313 101.288L153.523 99.8119L154.702 104.979L156.386 103.318L157.733 102.949L159.754 112.545L160.581 107.193L161.591 101.288H162.938L164.791 98.1511L165.633 102.395L167.148 104.425L167.99 115.128L169.506 111.807L170.685 118.634L173.379 116.605L175.905 107.931H177.084L178.094 113.652L180.789 115.128L182.136 119.926L184.157 116.051H184.999L186.683 107.193H188.03L188.703 118.081L189.714 121.218L191.061 121.587H192.56H194.076L195.271 119.188L195.809 123.063H197.31L197.797 113.652L199.313 116.605L200.491 114.206L201.67 120.849H202.849L204.028 118.634L205.712 102.764L206.722 109.223H207.901L209.08 117.712L210.259 116.605L211.606 110.884L213.29 111.438L214.469 100.181V96.6749L216.153 90.0316L217.5 86.1564L218.173 90.0316L220.715 107.562L221.22 101.657L223.073 107.562L226.104 103.134L227.283 104.056L228.798 109.961L230.819 107.562L231.493 113.652H233.008L234.861 111.438L235.871 95.7522L237.05 102.949H238.229L239.744 111.069H240.923L242.102 104.61L244.291 105.533V106.271L245.47 104.61L247.322 89.109L249.006 101.657L251.701 104.61L252.038 90.7698L253.722 100.919L255.742 101.657L256.416 89.8471L257.595 91.6924L258.942 78.9596L260.121 73.239H261.3L262.984 80.0668H263.994L265.51 75.0844L266.857 79.5132L268.204 78.0369L268.878 70.471L270.562 70.1019L271.909 71.3937L273.93 62.7206L275.782 65.6731L276.792 66.4112L278.14 60.1371L279.318 57L282.686 66.4112L284.202 73.239L285.886 68.4411L286.896 70.471L289.422 89.2935L290.938 85.7873L292.622 80.0668H293.296L294.474 86.8946V89.2935L295.316 86.8946L296.664 78.5905L297.169 72.1318L299.863 69.3638L300.874 76.007L302.052 70.471L303.568 68.4411L304.41 77.6678C305.084 80.1898 306.431 85.0861 306.431 84.4956C306.431 83.9051 307.553 77.4833 308.115 74.3462L309 66.4112" stroke="#28CE83" stroke-width="1.96571"/>
<path d="M14.9377 45.0186C14.9377 44.1065 14.4974 43.4041 13.6691 43.0581C14.3401 42.7646 14.6651 42.1985 14.6651 41.4751C14.6651 40.3114 13.7949 39.5146 12.474 39.5146C11.8764 39.5146 11.3522 39.6928 10.9119 40.0493V41.1396H11.0482C11.4046 40.6574 11.8659 40.4162 12.4425 40.4162C13.2708 40.4162 13.7006 40.888 13.7006 41.5904C13.7006 42.3138 13.1974 42.7122 12.2224 42.7122H11.824V43.5928H12.2433C13.3337 43.5928 13.9732 44.096 13.9732 44.9347C13.9732 45.763 13.3441 46.2452 12.453 46.2452C11.6877 46.2452 11.195 45.8993 10.7861 45.2388H10.6288V46.4864C11.1006 46.9267 11.7191 47.1468 12.4845 47.1468C13.2393 47.1468 13.8369 46.9581 14.2772 46.5702C14.7175 46.1823 14.9377 45.6581 14.9377 45.0186ZM18.7565 39.5146C17.2468 39.5146 16.1565 40.888 16.1565 43.3307C16.1565 45.7735 17.2468 47.1468 18.7565 47.1468C20.2662 47.1468 21.3565 45.7735 21.3565 43.3307C21.3565 40.888 20.2662 39.5146 18.7565 39.5146ZM18.7565 46.2452C17.75 46.2452 17.121 45.2073 17.121 43.3307C17.121 41.4541 17.75 40.4162 18.7565 40.4162C19.7629 40.4162 20.392 41.4541 20.392 43.3307C20.392 45.2073 19.7629 46.2452 18.7565 46.2452ZM22.5519 41.3703C22.5519 42.4815 23.3801 43.2259 24.4285 43.2259C25.4769 43.2259 26.3051 42.4815 26.3051 41.3703C26.3051 40.259 25.4769 39.5146 24.4285 39.5146C23.3801 39.5146 22.5519 40.259 22.5519 41.3703ZM28.5591 39.6614L24.2607 47.0001H25.0785L29.3768 39.6614H28.5591ZM25.5083 41.3703C25.5083 42.0412 25.0156 42.4711 24.4285 42.4711C23.8414 42.4711 23.3486 42.0412 23.3486 41.3703C23.3486 40.6993 23.8414 40.2695 24.4285 40.2695C25.0156 40.2695 25.5083 40.6993 25.5083 41.3703ZM27.3325 45.2912C27.3325 46.4025 28.1607 47.1468 29.2091 47.1468C30.2575 47.1468 31.0857 46.4025 31.0857 45.2912C31.0857 44.1799 30.2575 43.4356 29.2091 43.4356C28.1607 43.4356 27.3325 44.1799 27.3325 45.2912ZM30.2889 45.2912C30.2889 45.9622 29.7962 46.392 29.2091 46.392C28.622 46.392 28.1293 45.9622 28.1293 45.2912C28.1293 44.6202 28.622 44.1904 29.2091 44.1904C29.7962 44.1904 30.2889 44.6202 30.2889 45.2912Z" fill="black"/>
<path d="M11.8606 84.1404L13.7372 81.792C14.3662 81.0267 14.7227 80.3977 14.7227 79.517C14.7227 78.2275 13.8735 77.5146 12.6888 77.5146C11.934 77.5146 11.2316 77.8186 10.8227 78.3324V79.4332H10.959C11.3259 78.8565 11.934 78.4162 12.6364 78.4162C13.2969 78.4162 13.7582 78.8251 13.7582 79.5904C13.7582 80.2194 13.4646 80.7436 13.0138 81.2993L10.4348 84.4968V85.0001H14.9219V84.1404H11.8606ZM18.7565 77.5146C17.2468 77.5146 16.1565 78.888 16.1565 81.3307C16.1565 83.7735 17.2468 85.1468 18.7565 85.1468C20.2662 85.1468 21.3565 83.7735 21.3565 81.3307C21.3565 78.888 20.2662 77.5146 18.7565 77.5146ZM18.7565 84.2452C17.75 84.2452 17.121 83.2073 17.121 81.3307C17.121 79.4541 17.75 78.4162 18.7565 78.4162C19.7629 78.4162 20.392 79.4541 20.392 81.3307C20.392 83.2073 19.7629 84.2452 18.7565 84.2452ZM22.5519 79.3703C22.5519 80.4815 23.3801 81.2259 24.4285 81.2259C25.4769 81.2259 26.3051 80.4815 26.3051 79.3703C26.3051 78.259 25.4769 77.5146 24.4285 77.5146C23.3801 77.5146 22.5519 78.259 22.5519 79.3703ZM28.5591 77.6614L24.2607 85.0001H25.0785L29.3768 77.6614H28.5591ZM25.5083 79.3703C25.5083 80.0412 25.0156 80.4711 24.4285 80.4711C23.8414 80.4711 23.3486 80.0412 23.3486 79.3703C23.3486 78.6993 23.8414 78.2695 24.4285 78.2695C25.0156 78.2695 25.5083 78.6993 25.5083 79.3703ZM27.3325 83.2912C27.3325 84.4025 28.1607 85.1468 29.2091 85.1468C30.2575 85.1468 31.0857 84.4025 31.0857 83.2912C31.0857 82.1799 30.2575 81.4356 29.2091 81.4356C28.1607 81.4356 27.3325 82.1799 27.3325 83.2912ZM30.2889 83.2912C30.2889 83.9622 29.7962 84.392 29.2091 84.392C28.622 84.392 28.1293 83.9622 28.1293 83.2912C28.1293 82.6202 28.622 82.1904 29.2091 82.1904C29.7962 82.1904 30.2889 82.6202 30.2889 83.2912Z" fill="black"/>
<path d="M13.5248 115.661C13.4514 116.364 12.8119 116.804 11.9627 116.804V117.685C12.5603 117.685 13.0216 117.538 13.3676 117.234V123H14.2901V115.661H13.5248ZM18.7565 115.515C17.2468 115.515 16.1565 116.888 16.1565 119.331C16.1565 121.773 17.2468 123.147 18.7565 123.147C20.2662 123.147 21.3565 121.773 21.3565 119.331C21.3565 116.888 20.2662 115.515 18.7565 115.515ZM18.7565 122.245C17.75 122.245 17.121 121.207 17.121 119.331C17.121 117.454 17.75 116.416 18.7565 116.416C19.7629 116.416 20.392 117.454 20.392 119.331C20.392 121.207 19.7629 122.245 18.7565 122.245ZM22.5519 117.37C22.5519 118.482 23.3801 119.226 24.4285 119.226C25.4769 119.226 26.3051 118.482 26.3051 117.37C26.3051 116.259 25.4769 115.515 24.4285 115.515C23.3801 115.515 22.5519 116.259 22.5519 117.37ZM28.5591 115.661L24.2607 123H25.0785L29.3768 115.661H28.5591ZM25.5083 117.37C25.5083 118.041 25.0156 118.471 24.4285 118.471C23.8414 118.471 23.3486 118.041 23.3486 117.37C23.3486 116.699 23.8414 116.269 24.4285 116.269C25.0156 116.269 25.5083 116.699 25.5083 117.37ZM27.3325 121.291C27.3325 122.402 28.1607 123.147 29.2091 123.147C30.2575 123.147 31.0857 122.402 31.0857 121.291C31.0857 120.18 30.2575 119.436 29.2091 119.436C28.1607 119.436 27.3325 120.18 27.3325 121.291ZM30.2889 121.291C30.2889 121.962 29.7962 122.392 29.2091 122.392C28.622 122.392 28.1293 121.962 28.1293 121.291C28.1293 120.62 28.622 120.19 29.2091 120.19C29.7962 120.19 30.2889 120.62 30.2889 121.291Z" fill="black"/>
<path d="M28.2293 153.515C26.7197 153.515 25.6293 154.888 25.6293 157.331C25.6293 159.773 26.7197 161.147 28.2293 161.147C29.739 161.147 30.8293 159.773 30.8293 157.331C30.8293 154.888 29.739 153.515 28.2293 153.515ZM28.2293 160.245C27.2229 160.245 26.5939 159.207 26.5939 157.331C26.5939 155.454 27.2229 154.416 28.2293 154.416C29.2358 154.416 29.8648 155.454 29.8648 157.331C29.8648 159.207 29.2358 160.245 28.2293 160.245Z" fill="black"/>
<path d="M7.70035 199.149V199.988H10.6148V199.149H7.70035ZM13.5248 195.249C13.4515 195.952 12.8119 196.392 11.9628 196.392V197.273C12.5603 197.273 13.0216 197.126 13.3676 196.822V202.588H14.2902V195.249H13.5248ZM18.7565 195.103C17.2468 195.103 16.1565 196.476 16.1565 198.919C16.1565 201.361 17.2468 202.735 18.7565 202.735C20.2662 202.735 21.3565 201.361 21.3565 198.919C21.3565 196.476 20.2662 195.103 18.7565 195.103ZM18.7565 201.833C17.7501 201.833 17.121 200.795 17.121 198.919C17.121 197.042 17.7501 196.004 18.7565 196.004C19.763 196.004 20.392 197.042 20.392 198.919C20.392 200.795 19.763 201.833 18.7565 201.833ZM22.5519 196.958C22.5519 198.069 23.3801 198.814 24.4285 198.814C25.4769 198.814 26.3051 198.069 26.3051 196.958C26.3051 195.847 25.4769 195.103 24.4285 195.103C23.3801 195.103 22.5519 195.847 22.5519 196.958ZM28.5591 195.249L24.2608 202.588H25.0785L29.3769 195.249H28.5591ZM25.5083 196.958C25.5083 197.629 25.0156 198.059 24.4285 198.059C23.8414 198.059 23.3487 197.629 23.3487 196.958C23.3487 196.287 23.8414 195.857 24.4285 195.857C25.0156 195.857 25.5083 196.287 25.5083 196.958ZM27.3325 200.879C27.3325 201.99 28.1607 202.735 29.2091 202.735C30.2575 202.735 31.0857 201.99 31.0857 200.879C31.0857 199.768 30.2575 199.024 29.2091 199.024C28.1607 199.024 27.3325 199.768 27.3325 200.879ZM30.2889 200.879C30.2889 201.55 29.7962 201.98 29.2091 201.98C28.622 201.98 28.1293 201.55 28.1293 200.879C28.1293 200.208 28.622 199.778 29.2091 199.778C29.7962 199.778 30.2889 200.208 30.2889 200.879Z" fill="black"/>
<path d="M42.5881 33.0001L42.7035 203" stroke="black" stroke-opacity="0.37" stroke-width="0.655238"/>
<path d="M106.704 33.0001L106.833 203" stroke="black" stroke-opacity="0.15" stroke-width="1.31048" stroke-dasharray="3.28 6.55"/>
<path d="M170.833 33.0001L170.997 203" stroke="black" stroke-opacity="0.15" stroke-width="1.31048" stroke-dasharray="3.28 6.55"/>
<path d="M234.997 33.0001L235.162 203" stroke="black" stroke-opacity="0.15" stroke-width="1.31048" stroke-dasharray="3.28 6.55"/>
<path d="M299.162 33.0001L299.326 203" stroke="black" stroke-opacity="0.15" stroke-width="1.31048" stroke-dasharray="3.28 6.55"/>
<path d="M41.8352 203.324L299 203.324" stroke="black" stroke-opacity="0.37" stroke-width="0.655238"/>
<path d="M43 158H309" stroke="black" stroke-opacity="0.2" stroke-width="0.655238" stroke-dasharray="3.28 6.55"/>
<path d="M43 120L309 120" stroke="black" stroke-opacity="0.2" stroke-width="0.655238" stroke-dasharray="3.28 6.55"/>
<path d="M43 82L309 82" stroke="black" stroke-opacity="0.2" stroke-width="0.655238" stroke-dasharray="3.28 6.55"/>
<path d="M43 44L309 44" stroke="black" stroke-opacity="0.2" stroke-width="0.655238" stroke-dasharray="3.28 6.55"/>
<circle cx="18.7786" cy="267.19" r="8.19048" fill="#1EAC6C"/>
<path d="M40.8961 271.19H39.7211V264.905H36.3761V271.19H35.2011V263.99H40.8961V271.19ZM49.4684 267.59C49.4684 268.124 49.3818 268.615 49.2084 269.065C49.0351 269.515 48.7901 269.904 48.4734 270.23C48.1601 270.554 47.7818 270.807 47.3384 270.99C46.8984 271.174 46.4084 271.265 45.8684 271.265C45.3318 271.265 44.8418 271.174 44.3984 270.99C43.9584 270.807 43.5801 270.554 43.2634 270.23C42.9468 269.904 42.7018 269.515 42.5284 269.065C42.3551 268.615 42.2684 268.124 42.2684 267.59C42.2684 267.057 42.3551 266.565 42.5284 266.115C42.7018 265.665 42.9468 265.277 43.2634 264.95C43.5801 264.624 43.9584 264.369 44.3984 264.185C44.8418 264.002 45.3318 263.91 45.8684 263.91C46.4084 263.91 46.8984 264.002 47.3384 264.185C47.7818 264.369 48.1601 264.624 48.4734 264.95C48.7901 265.277 49.0351 265.665 49.2084 266.115C49.3818 266.565 49.4684 267.057 49.4684 267.59ZM48.2734 267.59C48.2734 267.177 48.2168 266.805 48.1034 266.475C47.9934 266.145 47.8334 265.865 47.6234 265.635C47.4168 265.405 47.1651 265.229 46.8684 265.105C46.5718 264.982 46.2384 264.92 45.8684 264.92C45.5018 264.92 45.1701 264.982 44.8734 265.105C44.5768 265.229 44.3234 265.405 44.1134 265.635C43.9034 265.865 43.7418 266.145 43.6284 266.475C43.5151 266.805 43.4584 267.177 43.4584 267.59C43.4584 268.007 43.5151 268.38 43.6284 268.71C43.7418 269.04 43.9034 269.32 44.1134 269.55C44.3234 269.777 44.5768 269.952 44.8734 270.075C45.1701 270.195 45.5018 270.255 45.8684 270.255C46.2384 270.255 46.5718 270.195 46.8684 270.075C47.1651 269.952 47.4168 269.777 47.6234 269.55C47.8334 269.32 47.9934 269.04 48.1034 268.71C48.2168 268.38 48.2734 268.007 48.2734 267.59ZM53.0903 267.66C53.3503 267.66 53.5787 267.627 53.7753 267.56C53.9753 267.494 54.1403 267.4 54.2703 267.28C54.4037 267.157 54.5037 267.009 54.5703 266.835C54.637 266.662 54.6703 266.469 54.6703 266.255C54.6703 266.045 54.637 265.857 54.5703 265.69C54.507 265.524 54.4103 265.382 54.2803 265.265C54.1503 265.149 53.9853 265.06 53.7853 265C53.5887 264.937 53.357 264.905 53.0903 264.905H52.0203V267.66H53.0903ZM53.0903 263.99C53.5603 263.99 53.967 264.045 54.3103 264.155C54.657 264.265 54.942 264.42 55.1653 264.62C55.392 264.817 55.5603 265.055 55.6703 265.335C55.7803 265.612 55.8353 265.919 55.8353 266.255C55.8353 266.599 55.777 266.914 55.6603 267.2C55.5437 267.484 55.3703 267.729 55.1403 267.935C54.9103 268.139 54.6237 268.299 54.2803 268.415C53.9403 268.529 53.5437 268.585 53.0903 268.585H52.0203V271.19H50.8503V263.99H53.0903ZM62.0088 264.965H59.7638V271.19H58.5988V264.965H56.3488V263.99H62.0088V264.965ZM66.4684 269.41C66.7517 269.407 67.01 269.352 67.2434 269.245C67.48 269.139 67.6817 268.995 67.8484 268.815C68.0184 268.635 68.1484 268.427 68.2384 268.19C68.3317 267.95 68.3784 267.694 68.3784 267.42C68.3784 267.15 68.3317 266.895 68.2384 266.655C68.1484 266.415 68.0184 266.205 67.8484 266.025C67.6817 265.845 67.48 265.704 67.2434 265.6C67.01 265.494 66.7517 265.437 66.4684 265.43V269.41ZM65.3634 265.43C65.0767 265.437 64.815 265.494 64.5784 265.6C64.345 265.704 64.145 265.845 63.9784 266.025C63.8117 266.205 63.6817 266.415 63.5884 266.655C63.4984 266.895 63.4534 267.15 63.4534 267.42C63.4534 267.694 63.4984 267.95 63.5884 268.19C63.6817 268.427 63.8117 268.635 63.9784 268.815C64.145 268.995 64.345 269.139 64.5784 269.245C64.815 269.352 65.0767 269.407 65.3634 269.41V265.43ZM66.4684 264.52C66.7684 264.53 67.0534 264.572 67.3234 264.645C67.5934 264.719 67.8417 264.819 68.0684 264.945C68.295 265.072 68.4984 265.224 68.6784 265.4C68.8617 265.577 69.0167 265.772 69.1434 265.985C69.27 266.195 69.3667 266.422 69.4334 266.665C69.5034 266.909 69.5384 267.16 69.5384 267.42C69.5384 267.814 69.4634 268.184 69.3134 268.53C69.1634 268.877 68.9534 269.182 68.6834 269.445C68.4134 269.705 68.09 269.914 67.7134 270.07C67.3367 270.227 66.9217 270.312 66.4684 270.325V271.19H65.3634V270.325C64.91 270.312 64.4934 270.227 64.1134 270.07C63.7367 269.914 63.4117 269.705 63.1384 269.445C62.8684 269.182 62.6584 268.877 62.5084 268.53C62.3584 268.184 62.2834 267.814 62.2834 267.42C62.2834 267.027 62.3584 266.657 62.5084 266.31C62.6617 265.964 62.875 265.66 63.1484 265.4C63.4217 265.14 63.7467 264.932 64.1234 264.775C64.5 264.619 64.9134 264.534 65.3634 264.52V263.675H66.4684V264.52ZM75.3328 270.245L75.3278 271.19H70.8378V263.99H75.3278V264.935H72.0128V267.105H74.6628V268.02H72.0128V270.245H75.3328ZM82.3395 271.19H81.1645V264.905H79.0045C78.9579 265.815 78.8929 266.605 78.8095 267.275C78.7262 267.945 78.6262 268.515 78.5095 268.985C78.3962 269.455 78.2662 269.839 78.1195 270.135C77.9762 270.432 77.8162 270.664 77.6395 270.83C77.4662 270.997 77.2795 271.11 77.0795 271.17C76.8795 271.23 76.6679 271.26 76.4445 271.26C76.0245 271.26 75.8145 271.185 75.8145 271.035V270.295H76.1845C76.3079 270.295 76.4312 270.274 76.5545 270.23C76.6812 270.184 76.8029 270.087 76.9195 269.94C77.0362 269.794 77.1479 269.582 77.2545 269.305C77.3612 269.025 77.4579 268.652 77.5445 268.185C77.6312 267.719 77.7045 267.144 77.7645 266.46C77.8279 265.774 77.8745 264.95 77.9045 263.99H82.3395V271.19ZM86.5981 270.265C86.8614 270.265 87.0831 270.237 87.2631 270.18C87.4464 270.12 87.5947 270.039 87.7081 269.935C87.8214 269.829 87.9031 269.705 87.9531 269.565C88.0064 269.422 88.0331 269.267 88.0331 269.1C88.0331 268.92 88.0081 268.759 87.9581 268.615C87.9081 268.472 87.8264 268.352 87.7131 268.255C87.5997 268.155 87.4514 268.079 87.2681 268.025C87.0881 267.972 86.8664 267.945 86.6031 267.945H85.3231V270.265H86.5981ZM86.6031 267.02C87.0564 267.02 87.4447 267.07 87.7681 267.17C88.0947 267.27 88.3631 267.409 88.5731 267.585C88.7831 267.759 88.9364 267.965 89.0331 268.205C89.1331 268.445 89.1831 268.704 89.1831 268.98C89.1831 269.317 89.1247 269.622 89.0081 269.895C88.8947 270.165 88.7281 270.397 88.5081 270.59C88.2881 270.784 88.0164 270.932 87.6931 271.035C87.3731 271.139 87.0081 271.19 86.5981 271.19H84.1531V263.99H85.3231V267.02H86.6031ZM92.9411 266.5C92.7911 266.247 92.6878 265.984 92.6311 265.71C92.5778 265.434 92.5728 265.162 92.6161 264.895C92.6594 264.625 92.7494 264.369 92.8861 264.125C93.0261 263.879 93.2111 263.657 93.4411 263.46L93.7761 263.665C93.8361 263.702 93.8628 263.749 93.8561 263.805C93.8494 263.862 93.8294 263.909 93.7961 263.945C93.7194 264.039 93.6494 264.157 93.5861 264.3C93.5228 264.444 93.4794 264.602 93.4561 264.775C93.4361 264.949 93.4428 265.13 93.4761 265.32C93.5094 265.51 93.5811 265.697 93.6911 265.88C93.7444 265.964 93.7594 266.039 93.7361 266.105C93.7161 266.169 93.6678 266.214 93.5911 266.24L92.9411 266.5ZM94.5361 266.5C94.3861 266.247 94.2828 265.984 94.2261 265.71C94.1728 265.434 94.1678 265.162 94.2111 264.895C94.2544 264.625 94.3444 264.369 94.4811 264.125C94.6211 263.879 94.8061 263.657 95.0361 263.46L95.3711 263.665C95.4311 263.702 95.4578 263.749 95.4511 263.805C95.4444 263.862 95.4244 263.909 95.3911 263.945C95.3144 264.039 95.2444 264.157 95.1811 264.3C95.1178 264.444 95.0744 264.602 95.0511 264.775C95.0311 264.949 95.0378 265.13 95.0711 265.32C95.1044 265.51 95.1761 265.697 95.2861 265.88C95.3394 265.964 95.3544 266.039 95.3311 266.105C95.3111 266.169 95.2628 266.214 95.1861 266.24L94.5361 266.5ZM99.4656 270.265C99.729 270.265 99.9506 270.235 100.131 270.175C100.314 270.112 100.462 270.027 100.576 269.92C100.692 269.814 100.776 269.689 100.826 269.545C100.879 269.399 100.906 269.242 100.906 269.075C100.906 268.735 100.789 268.469 100.556 268.275C100.326 268.079 99.9606 267.98 99.4606 267.98H98.0156V270.265H99.4656ZM98.0156 264.905V267.155H99.1856C99.6856 267.155 100.059 267.059 100.306 266.865C100.552 266.672 100.676 266.394 100.676 266.03C100.676 265.634 100.559 265.347 100.326 265.17C100.096 264.994 99.734 264.905 99.2406 264.905H98.0156ZM99.2406 263.99C99.7006 263.99 100.094 264.035 100.421 264.125C100.747 264.212 101.016 264.337 101.226 264.5C101.436 264.664 101.589 264.864 101.686 265.1C101.786 265.334 101.836 265.597 101.836 265.89C101.836 266.06 101.809 266.225 101.756 266.385C101.706 266.542 101.626 266.69 101.516 266.83C101.409 266.967 101.274 267.09 101.111 267.2C100.947 267.31 100.754 267.402 100.531 267.475C101.551 267.692 102.061 268.234 102.061 269.1C102.061 269.407 102.002 269.689 101.886 269.945C101.772 270.199 101.606 270.419 101.386 270.605C101.169 270.789 100.901 270.932 100.581 271.035C100.261 271.139 99.8956 271.19 99.4856 271.19H96.8456V263.99H99.2406ZM105.924 270.265C106.187 270.265 106.409 270.237 106.589 270.18C106.772 270.12 106.92 270.039 107.034 269.935C107.147 269.829 107.229 269.705 107.279 269.565C107.332 269.422 107.359 269.267 107.359 269.1C107.359 268.92 107.334 268.759 107.284 268.615C107.234 268.472 107.152 268.352 107.039 268.255C106.925 268.155 106.777 268.079 106.594 268.025C106.414 267.972 106.192 267.945 105.929 267.945H104.649V270.265H105.924ZM105.929 267.02C106.382 267.02 106.77 267.07 107.094 267.17C107.42 267.27 107.689 267.409 107.899 267.585C108.109 267.759 108.262 267.965 108.359 268.205C108.459 268.445 108.509 268.704 108.509 268.98C108.509 269.317 108.45 269.622 108.334 269.895C108.22 270.165 108.054 270.397 107.834 270.59C107.614 270.784 107.342 270.932 107.019 271.035C106.699 271.139 106.334 271.19 105.924 271.19H103.479V263.99H104.649V267.02H105.929ZM110.864 271.19H109.689V263.99H110.864V271.19ZM117.671 269.585C117.734 269.585 117.789 269.61 117.836 269.66L118.301 270.165C118.007 270.519 117.647 270.792 117.221 270.985C116.794 271.175 116.284 271.27 115.691 271.27C115.164 271.27 114.687 271.18 114.261 271C113.837 270.817 113.476 270.564 113.176 270.24C112.876 269.914 112.644 269.525 112.481 269.075C112.321 268.625 112.241 268.13 112.241 267.59C112.241 267.05 112.326 266.555 112.496 266.105C112.669 265.652 112.911 265.264 113.221 264.94C113.534 264.614 113.907 264.36 114.341 264.18C114.777 264 115.257 263.91 115.781 263.91C116.301 263.91 116.759 263.995 117.156 264.165C117.556 264.332 117.902 264.555 118.196 264.835L117.811 265.38C117.784 265.417 117.752 265.449 117.716 265.475C117.679 265.502 117.629 265.515 117.566 265.515C117.499 265.515 117.422 265.485 117.336 265.425C117.252 265.362 117.144 265.294 117.011 265.22C116.881 265.144 116.716 265.075 116.516 265.015C116.319 264.952 116.072 264.92 115.776 264.92C115.432 264.92 115.117 264.98 114.831 265.1C114.544 265.22 114.297 265.395 114.091 265.625C113.884 265.855 113.722 266.135 113.606 266.465C113.492 266.795 113.436 267.17 113.436 267.59C113.436 268.014 113.496 268.392 113.616 268.725C113.736 269.055 113.901 269.335 114.111 269.565C114.321 269.792 114.567 269.965 114.851 270.085C115.134 270.205 115.439 270.265 115.766 270.265C115.966 270.265 116.144 270.255 116.301 270.235C116.461 270.212 116.607 270.177 116.741 270.13C116.874 270.08 116.999 270.019 117.116 269.945C117.236 269.872 117.354 269.782 117.471 269.675C117.537 269.615 117.604 269.585 117.671 269.585ZM126.03 267.59C126.03 268.124 125.943 268.615 125.77 269.065C125.596 269.515 125.351 269.904 125.035 270.23C124.721 270.554 124.343 270.807 123.9 270.99C123.46 271.174 122.97 271.265 122.43 271.265C121.893 271.265 121.403 271.174 120.96 270.99C120.52 270.807 120.141 270.554 119.825 270.23C119.508 269.904 119.263 269.515 119.09 269.065C118.916 268.615 118.83 268.124 118.83 267.59C118.83 267.057 118.916 266.565 119.09 266.115C119.263 265.665 119.508 265.277 119.825 264.95C120.141 264.624 120.52 264.369 120.96 264.185C121.403 264.002 121.893 263.91 122.43 263.91C122.97 263.91 123.46 264.002 123.9 264.185C124.343 264.369 124.721 264.624 125.035 264.95C125.351 265.277 125.596 265.665 125.77 266.115C125.943 266.565 126.03 267.057 126.03 267.59ZM124.835 267.59C124.835 267.177 124.778 266.805 124.665 266.475C124.555 266.145 124.395 265.865 124.185 265.635C123.978 265.405 123.726 265.229 123.43 265.105C123.133 264.982 122.8 264.92 122.43 264.92C122.063 264.92 121.731 264.982 121.435 265.105C121.138 265.229 120.885 265.405 120.675 265.635C120.465 265.865 120.303 266.145 120.19 266.475C120.076 266.805 120.02 267.177 120.02 267.59C120.02 268.007 120.076 268.38 120.19 268.71C120.303 269.04 120.465 269.32 120.675 269.55C120.885 269.777 121.138 269.952 121.435 270.075C121.731 270.195 122.063 270.255 122.43 270.255C122.8 270.255 123.133 270.195 123.43 270.075C123.726 269.952 123.978 269.777 124.185 269.55C124.395 269.32 124.555 269.04 124.665 268.71C124.778 268.38 124.835 268.007 124.835 267.59ZM133.352 271.19H132.297C132.183 271.19 132.088 271.16 132.012 271.1C131.935 271.04 131.863 270.952 131.797 270.835L130.092 268.32C130.048 268.254 130.005 268.199 129.962 268.155C129.918 268.109 129.87 268.072 129.817 268.045C129.763 268.015 129.703 267.995 129.637 267.985C129.57 267.972 129.495 267.965 129.412 267.965H128.582V271.19H127.412V263.99H128.582V267.07H129.287C129.433 267.07 129.557 267.047 129.657 267C129.757 266.954 129.855 266.864 129.952 266.73L131.677 264.31C131.733 264.217 131.802 264.14 131.882 264.08C131.965 264.02 132.063 263.99 132.177 263.99H133.167L131.107 266.91C131.023 267.034 130.928 267.135 130.822 267.215C130.715 267.295 130.597 267.359 130.467 267.405C130.653 267.455 130.812 267.537 130.942 267.65C131.075 267.764 131.2 267.92 131.317 268.12L133.352 271.19ZM140.308 263.99V271.19H139.138V266.41C139.138 266.25 139.141 266.084 139.148 265.91C139.158 265.737 139.176 265.55 139.203 265.35C139.139 265.524 139.071 265.685 138.998 265.835C138.928 265.982 138.858 266.112 138.788 266.225L135.738 270.825C135.711 270.869 135.679 270.912 135.643 270.955C135.609 270.999 135.569 271.039 135.523 271.075C135.479 271.109 135.433 271.137 135.383 271.16C135.333 271.18 135.279 271.19 135.223 271.19H134.348V263.99H135.523V268.765C135.523 268.925 135.518 269.094 135.508 269.27C135.501 269.444 135.484 269.627 135.458 269.82C135.521 269.65 135.588 269.492 135.658 269.345C135.731 269.195 135.801 269.065 135.868 268.955L138.918 264.355C138.944 264.312 138.974 264.269 139.008 264.225C139.044 264.182 139.084 264.144 139.128 264.11C139.174 264.074 139.223 264.045 139.273 264.025C139.323 264.002 139.376 263.99 139.433 263.99H140.308ZM146.618 270.245L146.613 271.19H142.123V263.99H146.613V264.935H143.298V267.105H145.948V268.02H143.298V270.245H146.618ZM155.53 264.965H153.285V271.19H152.12V264.965H149.87V263.99H155.53V264.965ZM161.127 270.245L161.122 271.19H156.632V263.99H161.122V264.935H157.807V267.105H160.457V268.02H157.807V270.245H161.127ZM168.179 271.19H167.014C166.934 271.19 166.869 271.169 166.819 271.125C166.769 271.082 166.729 271.034 166.699 270.98L164.909 268.095C164.896 268.135 164.881 268.174 164.864 268.21C164.851 268.247 164.834 268.282 164.814 268.315L163.084 270.98C163.047 271.034 163.006 271.082 162.959 271.125C162.916 271.169 162.857 271.19 162.784 271.19H161.694L164.124 267.49L161.794 263.99H162.954C163.037 263.99 163.097 264.004 163.134 264.03C163.174 264.054 163.209 264.09 163.239 264.14L164.989 266.89C165.006 266.85 165.022 266.81 165.039 266.77C165.056 266.73 165.077 266.689 165.104 266.645L166.734 264.16C166.767 264.104 166.804 264.062 166.844 264.035C166.884 264.005 166.932 263.99 166.989 263.99H168.104L165.754 267.44L168.179 271.19ZM175.156 263.99V271.19H173.986V267.985H170.371V271.19H169.196V263.99H170.371V267.14H173.986V263.99H175.156ZM183.736 267.59C183.736 268.124 183.65 268.615 183.476 269.065C183.303 269.515 183.058 269.904 182.741 270.23C182.428 270.554 182.05 270.807 181.606 270.99C181.166 271.174 180.676 271.265 180.136 271.265C179.6 271.265 179.11 271.174 178.666 270.99C178.226 270.807 177.848 270.554 177.531 270.23C177.215 269.904 176.97 269.515 176.796 269.065C176.623 268.615 176.536 268.124 176.536 267.59C176.536 267.057 176.623 266.565 176.796 266.115C176.97 265.665 177.215 265.277 177.531 264.95C177.848 264.624 178.226 264.369 178.666 264.185C179.11 264.002 179.6 263.91 180.136 263.91C180.676 263.91 181.166 264.002 181.606 264.185C182.05 264.369 182.428 264.624 182.741 264.95C183.058 265.277 183.303 265.665 183.476 266.115C183.65 266.565 183.736 267.057 183.736 267.59ZM182.541 267.59C182.541 267.177 182.485 266.805 182.371 266.475C182.261 266.145 182.101 265.865 181.891 265.635C181.685 265.405 181.433 265.229 181.136 265.105C180.84 264.982 180.506 264.92 180.136 264.92C179.77 264.92 179.438 264.982 179.141 265.105C178.845 265.229 178.591 265.405 178.381 265.635C178.171 265.865 178.01 266.145 177.896 266.475C177.783 266.805 177.726 267.177 177.726 267.59C177.726 268.007 177.783 268.38 177.896 268.71C178.01 269.04 178.171 269.32 178.381 269.55C178.591 269.777 178.845 269.952 179.141 270.075C179.438 270.195 179.77 270.255 180.136 270.255C180.506 270.255 180.84 270.195 181.136 270.075C181.433 269.952 181.685 269.777 181.891 269.55C182.101 269.32 182.261 269.04 182.371 268.71C182.485 268.38 182.541 268.007 182.541 267.59ZM190.573 271.19H189.398V264.905H187.238C187.191 265.815 187.126 266.605 187.043 267.275C186.959 267.945 186.859 268.515 186.743 268.985C186.629 269.455 186.499 269.839 186.353 270.135C186.209 270.432 186.049 270.664 185.873 270.83C185.699 270.997 185.513 271.11 185.313 271.17C185.113 271.23 184.901 271.26 184.678 271.26C184.258 271.26 184.048 271.185 184.048 271.035V270.295H184.418C184.541 270.295 184.664 270.274 184.788 270.23C184.914 270.184 185.036 270.087 185.153 269.94C185.269 269.794 185.381 269.582 185.488 269.305C185.594 269.025 185.691 268.652 185.778 268.185C185.864 267.719 185.938 267.144 185.998 266.46C186.061 265.774 186.108 264.95 186.138 263.99H190.573V271.19ZM199.151 267.59C199.151 268.124 199.065 268.615 198.891 269.065C198.718 269.515 198.473 269.904 198.156 270.23C197.843 270.554 197.465 270.807 197.021 270.99C196.581 271.174 196.091 271.265 195.551 271.265C195.015 271.265 194.525 271.174 194.081 270.99C193.641 270.807 193.263 270.554 192.946 270.23C192.63 269.904 192.385 269.515 192.211 269.065C192.038 268.615 191.951 268.124 191.951 267.59C191.951 267.057 192.038 266.565 192.211 266.115C192.385 265.665 192.63 265.277 192.946 264.95C193.263 264.624 193.641 264.369 194.081 264.185C194.525 264.002 195.015 263.91 195.551 263.91C196.091 263.91 196.581 264.002 197.021 264.185C197.465 264.369 197.843 264.624 198.156 264.95C198.473 265.277 198.718 265.665 198.891 266.115C199.065 266.565 199.151 267.057 199.151 267.59ZM197.956 267.59C197.956 267.177 197.9 266.805 197.786 266.475C197.676 266.145 197.516 265.865 197.306 265.635C197.1 265.405 196.848 265.229 196.551 265.105C196.255 264.982 195.921 264.92 195.551 264.92C195.185 264.92 194.853 264.982 194.556 265.105C194.26 265.229 194.006 265.405 193.796 265.635C193.586 265.865 193.425 266.145 193.311 266.475C193.198 266.805 193.141 267.177 193.141 267.59C193.141 268.007 193.198 268.38 193.311 268.71C193.425 269.04 193.586 269.32 193.796 269.55C194.006 269.777 194.26 269.952 194.556 270.075C194.853 270.195 195.185 270.255 195.551 270.255C195.921 270.255 196.255 270.195 196.551 270.075C196.848 269.952 197.1 269.777 197.306 269.55C197.516 269.32 197.676 269.04 197.786 268.71C197.9 268.38 197.956 268.007 197.956 267.59ZM204.923 264.905H201.708V271.19H200.533V263.99H204.923V264.905ZM211.984 263.99V271.19H210.814V266.41C210.814 266.25 210.817 266.084 210.824 265.91C210.834 265.737 210.852 265.55 210.879 265.35C210.815 265.524 210.747 265.685 210.674 265.835C210.604 265.982 210.534 266.112 210.464 266.225L207.414 270.825C207.387 270.869 207.355 270.912 207.319 270.955C207.285 270.999 207.245 271.039 207.199 271.075C207.155 271.109 207.109 271.137 207.059 271.16C207.009 271.18 206.955 271.19 206.899 271.19H206.024V263.99H207.199V268.765C207.199 268.925 207.194 269.094 207.184 269.27C207.177 269.444 207.16 269.627 207.134 269.82C207.197 269.65 207.264 269.492 207.334 269.345C207.407 269.195 207.477 269.065 207.544 268.955L210.594 264.355C210.62 264.312 210.65 264.269 210.684 264.225C210.72 264.182 210.76 264.144 210.804 264.11C210.85 264.074 210.899 264.045 210.949 264.025C210.999 264.002 211.052 263.99 211.109 263.99H211.984ZM219.76 263.99V271.19H218.59V266.41C218.59 266.25 218.593 266.084 218.6 265.91C218.61 265.737 218.628 265.55 218.655 265.35C218.591 265.524 218.523 265.685 218.45 265.835C218.38 265.982 218.31 266.112 218.24 266.225L215.19 270.825C215.163 270.869 215.131 270.912 215.095 270.955C215.061 270.999 215.021 271.039 214.975 271.075C214.931 271.109 214.885 271.137 214.835 271.16C214.785 271.18 214.731 271.19 214.675 271.19H213.8V263.99H214.975V268.765C214.975 268.925 214.97 269.094 214.96 269.27C214.953 269.444 214.936 269.627 214.91 269.82C214.973 269.65 215.04 269.492 215.11 269.345C215.183 269.195 215.253 269.065 215.32 268.955L218.37 264.355C218.396 264.312 218.426 264.269 218.46 264.225C218.496 264.182 218.536 264.144 218.58 264.11C218.626 264.074 218.675 264.045 218.725 264.025C218.775 264.002 218.828 263.99 218.885 263.99H219.76ZM222.11 263.51C222.26 263.764 222.362 264.029 222.415 264.305C222.469 264.579 222.474 264.85 222.43 265.12C222.387 265.387 222.295 265.644 222.155 265.89C222.019 266.137 221.835 266.357 221.605 266.55L221.27 266.345C221.214 266.309 221.187 266.262 221.19 266.205C221.197 266.145 221.217 266.099 221.25 266.065C221.327 265.972 221.397 265.854 221.46 265.71C221.524 265.567 221.565 265.41 221.585 265.24C221.609 265.067 221.604 264.885 221.57 264.695C221.54 264.505 221.469 264.317 221.355 264.13C221.302 264.044 221.287 263.969 221.31 263.905C221.334 263.842 221.382 263.797 221.455 263.77L222.11 263.51ZM223.705 263.51C223.855 263.764 223.957 264.029 224.01 264.305C224.064 264.579 224.069 264.85 224.025 265.12C223.982 265.387 223.89 265.644 223.75 265.89C223.614 266.137 223.43 266.357 223.2 266.55L222.865 266.345C222.809 266.309 222.782 266.262 222.785 266.205C222.792 266.145 222.812 266.099 222.845 266.065C222.922 265.972 222.992 265.854 223.055 265.71C223.119 265.567 223.16 265.41 223.18 265.24C223.204 265.067 223.199 264.885 223.165 264.695C223.135 264.505 223.064 264.317 222.95 264.13C222.897 264.044 222.882 263.969 222.905 263.905C222.929 263.842 222.977 263.797 223.05 263.77L223.705 263.51Z" fill="black"/>
<circle cx="18.7786" cy="298.571" r="8.19048" fill="#B7B7B7"/>
<path d="M40.3365 295.371V302.571H39.1665V297.791C39.1665 297.631 39.1698 297.465 39.1765 297.291C39.1865 297.118 39.2048 296.931 39.2315 296.731C39.1682 296.905 39.0998 297.066 39.0265 297.216C38.9565 297.363 38.8865 297.493 38.8165 297.606L35.7665 302.206C35.7398 302.25 35.7082 302.293 35.6715 302.336C35.6382 302.38 35.5982 302.42 35.5515 302.456C35.5082 302.49 35.4615 302.518 35.4115 302.541C35.3615 302.561 35.3082 302.571 35.2515 302.571H34.3765V295.371H35.5515V300.146C35.5515 300.306 35.5465 300.475 35.5365 300.651C35.5298 300.825 35.5132 301.008 35.4865 301.201C35.5498 301.031 35.6165 300.873 35.6865 300.726C35.7598 300.576 35.8298 300.446 35.8965 300.336L38.9465 295.736C38.9732 295.693 39.0032 295.65 39.0365 295.606C39.0732 295.563 39.1132 295.525 39.1565 295.491C39.2032 295.455 39.2515 295.426 39.3015 295.406C39.3515 295.383 39.4048 295.371 39.4615 295.371H40.3365ZM48.1123 295.371V302.571H46.9423V299.366H43.3273V302.571H42.1523V295.371H43.3273V298.521H46.9423V295.371H48.1123ZM54.493 301.656V296.286H52.333C52.293 297.043 52.238 297.711 52.168 298.291C52.098 298.868 52.0147 299.373 51.918 299.806C51.8247 300.236 51.7197 300.603 51.603 300.906C51.4897 301.206 51.3664 301.456 51.233 301.656H54.493ZM56.813 301.656V303.961C56.813 304.061 56.778 304.143 56.708 304.206C56.6414 304.27 56.553 304.301 56.443 304.301H55.743V302.571H50.213V303.961C50.213 304.061 50.178 304.143 50.108 304.206C50.0414 304.27 49.953 304.301 49.843 304.301H49.143V301.656H49.903C49.9997 301.606 50.0964 301.526 50.193 301.416C50.293 301.306 50.388 301.15 50.478 300.946C50.568 300.743 50.653 300.486 50.733 300.176C50.8164 299.866 50.8914 299.488 50.958 299.041C51.0247 298.591 51.0814 298.065 51.128 297.461C51.1747 296.858 51.2097 296.161 51.233 295.371H55.668V301.656H56.813ZM62.5016 301.626L62.4966 302.571H58.0066V295.371H62.4966V296.316H59.1816V298.486H61.8316V299.401H59.1816V301.626H62.5016ZM69.8083 302.571H68.7533C68.6399 302.571 68.5449 302.541 68.4683 302.481C68.3916 302.421 68.3199 302.333 68.2533 302.216L66.5483 299.701C66.5049 299.635 66.4616 299.58 66.4183 299.536C66.3749 299.49 66.3266 299.453 66.2733 299.426C66.2199 299.396 66.1599 299.376 66.0933 299.366C66.0266 299.353 65.9516 299.346 65.8683 299.346H65.0383V302.571H63.8683V295.371H65.0383V298.451H65.7433C65.8899 298.451 66.0133 298.428 66.1133 298.381C66.2133 298.335 66.3116 298.245 66.4083 298.111L68.1333 295.691C68.1899 295.598 68.2583 295.521 68.3383 295.461C68.4216 295.401 68.5199 295.371 68.6333 295.371H69.6233L67.5633 298.291C67.4799 298.415 67.3849 298.516 67.2783 298.596C67.1716 298.676 67.0533 298.74 66.9233 298.786C67.1099 298.836 67.2683 298.918 67.3983 299.031C67.5316 299.145 67.6566 299.301 67.7733 299.501L69.8083 302.571ZM75.4917 300.966C75.5551 300.966 75.6101 300.991 75.6567 301.041L76.1217 301.546C75.8284 301.9 75.4684 302.173 75.0417 302.366C74.6151 302.556 74.1051 302.651 73.5117 302.651C72.9851 302.651 72.5084 302.561 72.0817 302.381C71.6584 302.198 71.2967 301.945 70.9967 301.621C70.6967 301.295 70.4651 300.906 70.3017 300.456C70.1417 300.006 70.0617 299.511 70.0617 298.971C70.0617 298.431 70.1467 297.936 70.3167 297.486C70.4901 297.033 70.7317 296.645 71.0417 296.321C71.3551 295.995 71.7284 295.741 72.1617 295.561C72.5984 295.381 73.0784 295.291 73.6017 295.291C74.1217 295.291 74.5801 295.376 74.9767 295.546C75.3767 295.713 75.7234 295.936 76.0167 296.216L75.6317 296.761C75.6051 296.798 75.5734 296.83 75.5367 296.856C75.5001 296.883 75.4501 296.896 75.3867 296.896C75.3201 296.896 75.2434 296.866 75.1567 296.806C75.0734 296.743 74.9651 296.675 74.8317 296.601C74.7017 296.525 74.5367 296.456 74.3367 296.396C74.1401 296.333 73.8934 296.301 73.5967 296.301C73.2534 296.301 72.9384 296.361 72.6517 296.481C72.3651 296.601 72.1184 296.776 71.9117 297.006C71.7051 297.236 71.5434 297.516 71.4267 297.846C71.3134 298.176 71.2567 298.551 71.2567 298.971C71.2567 299.395 71.3167 299.773 71.4367 300.106C71.5567 300.436 71.7217 300.716 71.9317 300.946C72.1417 301.173 72.3884 301.346 72.6717 301.466C72.9551 301.586 73.2601 301.646 73.5867 301.646C73.7867 301.646 73.9651 301.636 74.1217 301.616C74.2817 301.593 74.4284 301.558 74.5617 301.511C74.6951 301.461 74.8201 301.4 74.9367 301.326C75.0567 301.253 75.1751 301.163 75.2917 301.056C75.3584 300.996 75.4251 300.966 75.4917 300.966ZM83.5876 296.601C83.5509 296.661 83.5126 296.706 83.4726 296.736C83.4326 296.763 83.3826 296.776 83.3226 296.776C83.2592 296.776 83.1876 296.75 83.1076 296.696C83.0309 296.643 82.9342 296.585 82.8176 296.521C82.7042 296.455 82.5692 296.395 82.4126 296.341C82.2559 296.285 82.0692 296.256 81.8526 296.256C81.6526 296.256 81.4759 296.281 81.3226 296.331C81.1726 296.381 81.0459 296.451 80.9426 296.541C80.8392 296.631 80.7609 296.738 80.7076 296.861C80.6576 296.981 80.6326 297.113 80.6326 297.256C80.6326 297.44 80.6809 297.593 80.7776 297.716C80.8742 297.836 81.0009 297.94 81.1576 298.026C81.3176 298.113 81.4992 298.19 81.7026 298.256C81.9059 298.32 82.1126 298.388 82.3226 298.461C82.5359 298.535 82.7442 298.618 82.9476 298.711C83.1509 298.805 83.3309 298.923 83.4876 299.066C83.6476 299.21 83.7759 299.385 83.8726 299.591C83.9692 299.798 84.0176 300.05 84.0176 300.346C84.0176 300.666 83.9626 300.966 83.8526 301.246C83.7426 301.526 83.5826 301.771 83.3726 301.981C83.1659 302.188 82.9092 302.351 82.6026 302.471C82.2992 302.591 81.9526 302.651 81.5626 302.651C81.3326 302.651 81.1076 302.628 80.8876 302.581C80.6709 302.538 80.4626 302.476 80.2626 302.396C80.0659 302.313 79.8809 302.213 79.7076 302.096C79.5342 301.98 79.3792 301.85 79.2426 301.706L79.5826 301.146C79.6126 301.1 79.6509 301.063 79.6976 301.036C79.7442 301.01 79.7959 300.996 79.8526 300.996C79.9292 300.996 80.0142 301.033 80.1076 301.106C80.2009 301.176 80.3126 301.255 80.4426 301.341C80.5759 301.425 80.7359 301.503 80.9226 301.576C81.1092 301.646 81.3326 301.681 81.5926 301.681C82.0159 301.681 82.3426 301.578 82.5726 301.371C82.8059 301.165 82.9226 300.88 82.9226 300.516C82.9226 300.313 82.8742 300.148 82.7776 300.021C82.6809 299.891 82.5526 299.783 82.3926 299.696C82.2359 299.61 82.0559 299.536 81.8526 299.476C81.6492 299.416 81.4426 299.353 81.2326 299.286C81.0226 299.216 80.8159 299.136 80.6126 299.046C80.4092 298.953 80.2276 298.833 80.0676 298.686C79.9109 298.536 79.7842 298.353 79.6876 298.136C79.5909 297.916 79.5426 297.643 79.5426 297.316C79.5426 297.056 79.5926 296.805 79.6926 296.561C79.7959 296.318 79.9442 296.103 80.1376 295.916C80.3342 295.726 80.5759 295.575 80.8626 295.461C81.1492 295.348 81.4759 295.291 81.8426 295.291C82.2559 295.291 82.6342 295.356 82.9776 295.486C83.3242 295.616 83.6226 295.801 83.8726 296.041L83.5876 296.601ZM91.4066 301.871L90.5266 301.031C90.8166 300.581 91.0266 300.041 91.1566 299.431L90.1466 299.101C90.0566 299.551 89.9266 299.951 89.7566 300.281L88.2466 298.841C89.2566 298.271 89.6766 297.751 89.6766 297.031C89.6766 296.081 88.9366 295.491 87.8066 295.491C86.5766 295.491 85.7766 296.161 85.7766 297.141C85.7766 297.651 85.9866 298.111 86.5566 298.681C85.4166 299.321 84.9366 299.931 84.9366 300.801C84.9366 301.901 86.0066 302.671 87.4866 302.671C88.4066 302.671 89.2066 302.371 89.8366 301.831L90.7166 302.681L91.4066 301.871ZM87.8066 296.381C88.3266 296.381 88.6166 296.651 88.6166 297.051C88.6166 297.431 88.3566 297.721 87.5466 298.161C87.0466 297.661 86.9166 297.431 86.9166 297.121C86.9166 296.691 87.2466 296.381 87.8066 296.381ZM87.5766 301.651C86.7166 301.651 86.1566 301.251 86.1566 300.671C86.1566 300.171 86.4366 299.801 87.2466 299.351L89.0966 301.121C88.6666 301.471 88.1566 301.651 87.5766 301.651ZM94.7821 299.041C95.0421 299.041 95.2704 299.008 95.4671 298.941C95.6671 298.875 95.8321 298.781 95.9621 298.661C96.0954 298.538 96.1954 298.39 96.2621 298.216C96.3288 298.043 96.3621 297.85 96.3621 297.636C96.3621 297.426 96.3288 297.238 96.2621 297.071C96.1988 296.905 96.1021 296.763 95.9721 296.646C95.8421 296.53 95.6771 296.441 95.4771 296.381C95.2804 296.318 95.0488 296.286 94.7821 296.286H93.7121V299.041H94.7821ZM94.7821 295.371C95.2521 295.371 95.6588 295.426 96.0021 295.536C96.3488 295.646 96.6338 295.801 96.8571 296.001C97.0838 296.198 97.2521 296.436 97.3621 296.716C97.4721 296.993 97.5271 297.3 97.5271 297.636C97.5271 297.98 97.4688 298.295 97.3521 298.581C97.2354 298.865 97.0621 299.11 96.8321 299.316C96.6021 299.52 96.3154 299.68 95.9721 299.796C95.6321 299.91 95.2354 299.966 94.7821 299.966H93.7121V302.571H92.5421V295.371H94.7821ZM102.132 298.031C102.306 297.995 102.471 297.968 102.627 297.951C102.787 297.935 102.941 297.926 103.087 297.926C103.464 297.926 103.796 297.983 104.082 298.096C104.372 298.206 104.614 298.36 104.807 298.556C105.004 298.753 105.151 298.985 105.247 299.251C105.347 299.515 105.397 299.801 105.397 300.111C105.397 300.495 105.331 300.843 105.197 301.156C105.064 301.47 104.879 301.738 104.642 301.961C104.406 302.181 104.126 302.351 103.802 302.471C103.482 302.591 103.136 302.651 102.762 302.651C102.542 302.651 102.332 302.63 102.132 302.586C101.936 302.543 101.751 302.485 101.577 302.411C101.404 302.335 101.244 302.248 101.097 302.151C100.951 302.051 100.819 301.948 100.702 301.841L101.032 301.381C101.102 301.281 101.196 301.231 101.312 301.231C101.386 301.231 101.466 301.258 101.552 301.311C101.639 301.365 101.739 301.423 101.852 301.486C101.969 301.546 102.106 301.603 102.262 301.656C102.419 301.71 102.606 301.736 102.822 301.736C103.059 301.736 103.271 301.698 103.457 301.621C103.644 301.545 103.801 301.438 103.927 301.301C104.057 301.161 104.156 300.995 104.222 300.801C104.289 300.608 104.322 300.396 104.322 300.166C104.322 299.956 104.291 299.768 104.227 299.601C104.167 299.435 104.076 299.293 103.952 299.176C103.832 299.06 103.681 298.971 103.497 298.911C103.314 298.848 103.102 298.816 102.862 298.816C102.686 298.816 102.504 298.831 102.317 298.861C102.134 298.891 101.947 298.938 101.757 299.001L101.087 298.811L101.677 295.371H105.162V295.836C105.162 295.99 105.114 296.115 105.017 296.211C104.921 296.308 104.759 296.356 104.532 296.356H102.422L102.132 298.031ZM111.633 298.971C111.633 299.601 111.565 300.146 111.428 300.606C111.295 301.066 111.11 301.448 110.873 301.751C110.637 302.055 110.358 302.28 110.038 302.426C109.718 302.573 109.373 302.646 109.003 302.646C108.633 302.646 108.288 302.573 107.968 302.426C107.648 302.28 107.37 302.055 107.133 301.751C106.9 301.448 106.717 301.066 106.583 300.606C106.45 300.146 106.383 299.601 106.383 298.971C106.383 298.341 106.45 297.796 106.583 297.336C106.717 296.873 106.9 296.491 107.133 296.191C107.37 295.888 107.648 295.663 107.968 295.516C108.288 295.366 108.633 295.291 109.003 295.291C109.373 295.291 109.718 295.366 110.038 295.516C110.358 295.663 110.637 295.888 110.873 296.191C111.11 296.491 111.295 296.873 111.428 297.336C111.565 297.796 111.633 298.341 111.633 298.971ZM110.523 298.971C110.523 298.438 110.48 297.995 110.393 297.641C110.31 297.285 110.198 297 110.058 296.786C109.918 296.573 109.757 296.421 109.573 296.331C109.39 296.241 109.2 296.196 109.003 296.196C108.803 296.196 108.612 296.241 108.428 296.331C108.248 296.421 108.088 296.573 107.948 296.786C107.808 297 107.697 297.285 107.613 297.641C107.53 297.995 107.488 298.438 107.488 298.971C107.488 299.505 107.53 299.95 107.613 300.306C107.697 300.66 107.808 300.943 107.948 301.156C108.088 301.37 108.248 301.521 108.428 301.611C108.612 301.701 108.803 301.746 109.003 301.746C109.2 301.746 109.39 301.701 109.573 301.611C109.757 301.521 109.918 301.37 110.058 301.156C110.198 300.943 110.31 300.66 110.393 300.306C110.48 299.95 110.523 299.505 110.523 298.971ZM117.534 298.971C117.534 299.601 117.466 300.146 117.329 300.606C117.196 301.066 117.011 301.448 116.774 301.751C116.537 302.055 116.259 302.28 115.939 302.426C115.619 302.573 115.274 302.646 114.904 302.646C114.534 302.646 114.189 302.573 113.869 302.426C113.549 302.28 113.271 302.055 113.034 301.751C112.801 301.448 112.617 301.066 112.484 300.606C112.351 300.146 112.284 299.601 112.284 298.971C112.284 298.341 112.351 297.796 112.484 297.336C112.617 296.873 112.801 296.491 113.034 296.191C113.271 295.888 113.549 295.663 113.869 295.516C114.189 295.366 114.534 295.291 114.904 295.291C115.274 295.291 115.619 295.366 115.939 295.516C116.259 295.663 116.537 295.888 116.774 296.191C117.011 296.491 117.196 296.873 117.329 297.336C117.466 297.796 117.534 298.341 117.534 298.971ZM116.424 298.971C116.424 298.438 116.381 297.995 116.294 297.641C116.211 297.285 116.099 297 115.959 296.786C115.819 296.573 115.657 296.421 115.474 296.331C115.291 296.241 115.101 296.196 114.904 296.196C114.704 296.196 114.512 296.241 114.329 296.331C114.149 296.421 113.989 296.573 113.849 296.786C113.709 297 113.597 297.285 113.514 297.641C113.431 297.995 113.389 298.438 113.389 298.971C113.389 299.505 113.431 299.95 113.514 300.306C113.597 300.66 113.709 300.943 113.849 301.156C113.989 301.37 114.149 301.521 114.329 301.611C114.512 301.701 114.704 301.746 114.904 301.746C115.101 301.746 115.291 301.701 115.474 301.611C115.657 301.521 115.819 301.37 115.959 301.156C116.099 300.943 116.211 300.66 116.294 300.306C116.381 299.95 116.424 299.505 116.424 298.971Z" fill="black"/>
<path d="M44.5803 213C43.0903 213 42.2603 213.83 42.2603 215.04C42.2603 216.17 43.0303 217.07 44.3603 217.11L42.0203 220H43.0903L45.3603 217.14H46.3403V220H47.2403V213H44.5803ZM44.6203 216.3L44.5203 216.91H44.5103L44.6203 216.3C43.7103 216.3 43.2003 215.82 43.2003 215.07C43.2003 214.34 43.7103 213.82 44.6603 213.82H46.3403V216.3H44.6203ZM52.3819 214.98V216.97H49.9619V214.98H49.1019V220H49.9619V217.73H52.3819V220H53.2419V214.98H52.3819ZM59.1031 218.55C59.1031 217.95 58.7531 217.5 58.1831 217.3C58.5731 217.1 58.7731 216.77 58.7731 216.32C58.7731 215.53 58.1431 214.98 57.1731 214.98H54.9831V220H57.4031C58.4031 220 59.1031 219.42 59.1031 218.55ZM57.0831 215.74C57.6331 215.74 57.8931 216.04 57.8931 216.39C57.8931 216.75 57.6331 217.04 57.0831 217.04H55.8431V215.74H57.0831ZM58.2231 218.5C58.2231 218.93 57.8831 219.24 57.3131 219.24H55.8431V217.76H57.3131C57.8831 217.76 58.2231 218.09 58.2231 218.5ZM43.3203 231.18L45.1103 228.94C45.7103 228.21 46.0503 227.61 46.0503 226.77C46.0503 225.54 45.2403 224.86 44.1103 224.86C43.3903 224.86 42.7203 225.15 42.3303 225.64V226.69H42.4603C42.8103 226.14 43.3903 225.72 44.0603 225.72C44.6903 225.72 45.1303 226.11 45.1303 226.84C45.1303 227.44 44.8503 227.94 44.4203 228.47L41.9603 231.52V232H46.2403V231.18H43.3203ZM49.898 224.86C48.458 224.86 47.418 226.17 47.418 228.5C47.418 230.83 48.458 232.14 49.898 232.14C51.338 232.14 52.378 230.83 52.378 228.5C52.378 226.17 51.338 224.86 49.898 224.86ZM49.898 231.28C48.938 231.28 48.338 230.29 48.338 228.5C48.338 226.71 48.938 225.72 49.898 225.72C50.858 225.72 51.458 226.71 51.458 228.5C51.458 230.29 50.858 231.28 49.898 231.28ZM54.7801 231.18L56.5701 228.94C57.1701 228.21 57.5101 227.61 57.5101 226.77C57.5101 225.54 56.7001 224.86 55.5701 224.86C54.8501 224.86 54.1801 225.15 53.7901 225.64V226.69H53.9201C54.2701 226.14 54.8501 225.72 55.5201 225.72C56.1501 225.72 56.5901 226.11 56.5901 226.84C56.5901 227.44 56.3101 227.94 55.8801 228.47L53.4201 231.52V232H57.7001V231.18H54.7801ZM60.0363 231.18L61.8263 228.94C62.4263 228.21 62.7663 227.61 62.7663 226.77C62.7663 225.54 61.9563 224.86 60.8263 224.86C60.1063 224.86 59.4363 225.15 59.0463 225.64V226.69H59.1763C59.5263 226.14 60.1063 225.72 60.7763 225.72C61.4063 225.72 61.8463 226.11 61.8463 226.84C61.8463 227.44 61.5663 227.94 61.1363 228.47L58.6763 231.52V232H62.9563V231.18H60.0363Z" fill="black"/>
<path d="M292.929 213C291.439 213 290.609 213.83 290.609 215.04C290.609 216.17 291.379 217.07 292.709 217.11L290.369 220H291.439L293.709 217.14H294.689V220H295.589V213H292.929ZM292.969 216.3L292.869 216.91H292.859L292.969 216.3C292.059 216.3 291.549 215.82 291.549 215.07C291.549 214.34 292.059 213.82 293.009 213.82H294.689V216.3H292.969ZM300.731 214.98V216.97H298.311V214.98H297.451V220H298.311V217.73H300.731V220H301.591V214.98H300.731ZM307.452 218.55C307.452 217.95 307.102 217.5 306.532 217.3C306.922 217.1 307.122 216.77 307.122 216.32C307.122 215.53 306.492 214.98 305.522 214.98H303.332V220H305.752C306.752 220 307.452 219.42 307.452 218.55ZM305.432 215.74C305.982 215.74 306.242 216.04 306.242 216.39C306.242 216.75 305.982 217.04 305.432 217.04H304.192V215.74H305.432ZM306.572 218.5C306.572 218.93 306.232 219.24 305.662 219.24H304.192V217.76H305.662C306.232 217.76 306.572 218.09 306.572 218.5ZM289.887 231.18L291.677 228.94C292.277 228.21 292.617 227.61 292.617 226.77C292.617 225.54 291.807 224.86 290.677 224.86C289.957 224.86 289.287 225.15 288.897 225.64V226.69H289.027C289.377 226.14 289.957 225.72 290.627 225.72C291.257 225.72 291.697 226.11 291.697 226.84C291.697 227.44 291.417 227.94 290.987 228.47L288.527 231.52V232H292.807V231.18H289.887ZM296.465 224.86C295.025 224.86 293.985 226.17 293.985 228.5C293.985 230.83 295.025 232.14 296.465 232.14C297.905 232.14 298.945 230.83 298.945 228.5C298.945 226.17 297.905 224.86 296.465 224.86ZM296.465 231.28C295.505 231.28 294.905 230.29 294.905 228.5C294.905 226.71 295.505 225.72 296.465 225.72C297.425 225.72 298.025 226.71 298.025 228.5C298.025 230.29 297.425 231.28 296.465 231.28ZM301.347 231.18L303.137 228.94C303.737 228.21 304.077 227.61 304.077 226.77C304.077 225.54 303.267 224.86 302.137 224.86C301.417 224.86 300.747 225.15 300.357 225.64V226.69H300.487C300.837 226.14 301.417 225.72 302.087 225.72C302.717 225.72 303.157 226.11 303.157 226.84C303.157 227.44 302.877 227.94 302.447 228.47L299.987 231.52V232H304.267V231.18H301.347ZM309.333 230.11C309.333 229.24 308.913 228.57 308.123 228.24C308.763 227.96 309.073 227.42 309.073 226.73C309.073 225.62 308.243 224.86 306.983 224.86C306.413 224.86 305.913 225.03 305.493 225.37V226.41H305.623C305.963 225.95 306.403 225.72 306.953 225.72C307.743 225.72 308.153 226.17 308.153 226.84C308.153 227.53 307.673 227.91 306.743 227.91H306.363V228.75H306.763C307.803 228.75 308.413 229.23 308.413 230.03C308.413 230.82 307.813 231.28 306.963 231.28C306.233 231.28 305.763 230.95 305.373 230.32H305.223V231.51C305.673 231.93 306.263 232.14 306.993 232.14C307.713 232.14 308.283 231.96 308.703 231.59C309.123 231.22 309.333 230.72 309.333 230.11Z" fill="black"/>
<path d="M103.077 220H104.057L101.147 213H100.527L97.6173 220H98.5773L99.3173 218.14H102.347L103.077 220ZM99.6273 217.36L100.827 214.31L102.037 217.36H99.6273ZM105.221 214.98V220H106.081V215.74H108.441V220H109.301V214.98H105.221ZM116.044 217.49C116.074 215.74 114.834 214.82 113.654 214.84C112.934 214.84 112.244 215.17 111.804 215.8V214.98H111.044V221.94H111.904V219.31C112.344 219.86 112.984 220.14 113.664 220.14C114.864 220.14 116.044 219.26 116.044 217.49ZM115.164 217.49C115.164 218.76 114.344 219.34 113.504 219.34C112.664 219.34 111.844 218.76 111.844 217.49C111.844 216.22 112.664 215.64 113.504 215.64C114.344 215.64 115.164 216.22 115.164 217.49ZM97.8039 231.18L99.5939 228.94C100.194 228.21 100.534 227.61 100.534 226.77C100.534 225.54 99.7239 224.86 98.5939 224.86C97.8739 224.86 97.2039 225.15 96.8139 225.64V226.69H96.9439C97.2939 226.14 97.8739 225.72 98.5439 225.72C99.1739 225.72 99.6139 226.11 99.6139 226.84C99.6139 227.44 99.3339 227.94 98.9039 228.47L96.4439 231.52V232H100.724V231.18H97.8039ZM104.382 224.86C102.942 224.86 101.902 226.17 101.902 228.5C101.902 230.83 102.942 232.14 104.382 232.14C105.822 232.14 106.862 230.83 106.862 228.5C106.862 226.17 105.822 224.86 104.382 224.86ZM104.382 231.28C103.422 231.28 102.822 230.29 102.822 228.5C102.822 226.71 103.422 225.72 104.382 225.72C105.342 225.72 105.942 226.71 105.942 228.5C105.942 230.29 105.342 231.28 104.382 231.28ZM109.264 231.18L111.054 228.94C111.654 228.21 111.994 227.61 111.994 226.77C111.994 225.54 111.184 224.86 110.054 224.86C109.334 224.86 108.664 225.15 108.274 225.64V226.69H108.404C108.754 226.14 109.334 225.72 110.004 225.72C110.634 225.72 111.074 226.11 111.074 226.84C111.074 227.44 110.794 227.94 110.364 228.47L107.904 231.52V232H112.184V231.18H109.264ZM114.52 231.18L116.31 228.94C116.91 228.21 117.25 227.61 117.25 226.77C117.25 225.54 116.44 224.86 115.31 224.86C114.59 224.86 113.92 225.15 113.53 225.64V226.69H113.66C114.01 226.14 114.59 225.72 115.26 225.72C115.89 225.72 116.33 226.11 116.33 226.84C116.33 227.44 116.05 227.94 115.62 228.47L113.16 231.52V232H117.44V231.18H114.52Z" fill="black"/>
<path d="M163.031 213L158.971 218.44V213H158.071V220H158.771L162.831 214.56V220H163.731V213H163.031ZM172.48 217.49C172.48 215.84 171.37 214.84 169.96 214.84C168.68 214.84 167.64 215.66 167.46 217.03H166.45V214.98H165.59V220H166.45V217.79H167.44C167.56 219.26 168.64 220.14 169.96 220.14C171.37 220.14 172.48 219.14 172.48 217.49ZM171.6 217.49C171.6 218.69 170.87 219.34 169.95 219.34C169.04 219.34 168.29 218.69 168.29 217.49C168.29 216.29 169.04 215.64 169.95 215.64C170.87 215.64 171.6 216.29 171.6 217.49ZM174.485 214.98L174.455 216.05C174.395 218.39 174.085 219.19 173.415 219.19H173.265V220H173.555C174.595 219.98 175.085 219.39 175.225 216.24L175.245 215.74H176.985V220H177.845V214.98H174.485ZM183.569 218.39C183.569 217.36 182.879 216.79 181.759 216.79H180.449V214.98H179.589V220H181.759C182.869 220 183.569 219.42 183.569 218.39ZM182.689 218.39C182.689 218.92 182.349 219.24 181.679 219.24H180.449V217.54H181.679C182.349 217.54 182.689 217.86 182.689 218.39ZM161.304 231.18L163.094 228.94C163.694 228.21 164.034 227.61 164.034 226.77C164.034 225.54 163.224 224.86 162.094 224.86C161.374 224.86 160.704 225.15 160.314 225.64V226.69H160.444C160.794 226.14 161.374 225.72 162.044 225.72C162.674 225.72 163.114 226.11 163.114 226.84C163.114 227.44 162.834 227.94 162.404 228.47L159.944 231.52V232H164.224V231.18H161.304ZM167.882 224.86C166.442 224.86 165.402 226.17 165.402 228.5C165.402 230.83 166.442 232.14 167.882 232.14C169.322 232.14 170.362 230.83 170.362 228.5C170.362 226.17 169.322 224.86 167.882 224.86ZM167.882 231.28C166.922 231.28 166.322 230.29 166.322 228.5C166.322 226.71 166.922 225.72 167.882 225.72C168.842 225.72 169.442 226.71 169.442 228.5C169.442 230.29 168.842 231.28 167.882 231.28ZM172.764 231.18L174.554 228.94C175.154 228.21 175.494 227.61 175.494 226.77C175.494 225.54 174.684 224.86 173.554 224.86C172.834 224.86 172.164 225.15 171.774 225.64V226.69H171.904C172.254 226.14 172.834 225.72 173.504 225.72C174.134 225.72 174.574 226.11 174.574 226.84C174.574 227.44 174.294 227.94 173.864 228.47L171.404 231.52V232H175.684V231.18H172.764ZM178.02 231.18L179.81 228.94C180.41 228.21 180.75 227.61 180.75 226.77C180.75 225.54 179.94 224.86 178.81 224.86C178.09 224.86 177.42 225.15 177.03 225.64V226.69H177.16C177.51 226.14 178.09 225.72 178.76 225.72C179.39 225.72 179.83 226.11 179.83 226.84C179.83 227.44 179.55 227.94 179.12 228.47L176.66 231.52V232H180.94V231.18H178.02Z" fill="black"/>
<path d="M229.596 212.86C227.526 212.86 225.976 214.31 225.976 216.5C225.976 218.69 227.526 220.14 229.596 220.14C231.666 220.14 233.216 218.69 233.216 216.5C233.216 214.31 231.666 212.86 229.596 212.86ZM229.596 219.28C228.046 219.28 226.916 218.17 226.916 216.5C226.916 214.83 228.046 213.72 229.596 213.72C231.146 213.72 232.276 214.83 232.276 216.5C232.276 218.17 231.146 219.28 229.596 219.28ZM238.982 220L236.562 217.25L238.732 214.98H237.622L235.612 217.14V214.98H234.752V220H235.612V217.44L237.812 220H238.982ZM243.547 214.98H239.487V215.74H241.087V220H241.947V215.74H243.547V214.98ZM225.304 231.18L227.094 228.94C227.694 228.21 228.034 227.61 228.034 226.77C228.034 225.54 227.224 224.86 226.094 224.86C225.374 224.86 224.704 225.15 224.314 225.64V226.69H224.444C224.794 226.14 225.374 225.72 226.044 225.72C226.674 225.72 227.114 226.11 227.114 226.84C227.114 227.44 226.834 227.94 226.404 228.47L223.944 231.52V232H228.224V231.18H225.304ZM231.882 224.86C230.442 224.86 229.402 226.17 229.402 228.5C229.402 230.83 230.442 232.14 231.882 232.14C233.322 232.14 234.362 230.83 234.362 228.5C234.362 226.17 233.322 224.86 231.882 224.86ZM231.882 231.28C230.922 231.28 230.322 230.29 230.322 228.5C230.322 226.71 230.922 225.72 231.882 225.72C232.842 225.72 233.442 226.71 233.442 228.5C233.442 230.29 232.842 231.28 231.882 231.28ZM236.764 231.18L238.554 228.94C239.154 228.21 239.494 227.61 239.494 226.77C239.494 225.54 238.684 224.86 237.554 224.86C236.834 224.86 236.164 225.15 235.774 225.64V226.69H235.904C236.254 226.14 236.834 225.72 237.504 225.72C238.134 225.72 238.574 226.11 238.574 226.84C238.574 227.44 238.294 227.94 237.864 228.47L235.404 231.52V232H239.684V231.18H236.764ZM242.02 231.18L243.81 228.94C244.41 228.21 244.75 227.61 244.75 226.77C244.75 225.54 243.94 224.86 242.81 224.86C242.09 224.86 241.42 225.15 241.03 225.64V226.69H241.16C241.51 226.14 242.09 225.72 242.76 225.72C243.39 225.72 243.83 226.11 243.83 226.84C243.83 227.44 243.55 227.94 243.12 228.47L240.66 231.52V232H244.94V231.18H242.02Z" fill="black"/>
<path d="M18.7006 12H17.2906V4.458H13.2766V12H11.8666V3.36H18.7006V12ZM28.9874 7.68C28.9874 8.32 28.8834 8.91 28.6754 9.45C28.4674 9.99 28.1734 10.456 27.7934 10.848C27.4174 11.236 26.9634 11.54 26.4314 11.76C25.9034 11.98 25.3154 12.09 24.6674 12.09C24.0234 12.09 23.4354 11.98 22.9034 11.76C22.3754 11.54 21.9214 11.236 21.5414 10.848C21.1614 10.456 20.8674 9.99 20.6594 9.45C20.4514 8.91 20.3474 8.32 20.3474 7.68C20.3474 7.04 20.4514 6.45 20.6594 5.91C20.8674 5.37 21.1614 4.904 21.5414 4.512C21.9214 4.12 22.3754 3.814 22.9034 3.594C23.4354 3.374 24.0234 3.264 24.6674 3.264C25.3154 3.264 25.9034 3.374 26.4314 3.594C26.9634 3.814 27.4174 4.12 27.7934 4.512C28.1734 4.904 28.4674 5.37 28.6754 5.91C28.8834 6.45 28.9874 7.04 28.9874 7.68ZM27.5534 7.68C27.5534 7.184 27.4854 6.738 27.3494 6.342C27.2174 5.946 27.0254 5.61 26.7734 5.334C26.5254 5.058 26.2234 4.846 25.8674 4.698C25.5114 4.55 25.1114 4.476 24.6674 4.476C24.2274 4.476 23.8294 4.55 23.4734 4.698C23.1174 4.846 22.8134 5.058 22.5614 5.334C22.3094 5.61 22.1154 5.946 21.9794 6.342C21.8434 6.738 21.7754 7.184 21.7754 7.68C21.7754 8.18 21.8434 8.628 21.9794 9.024C22.1154 9.42 22.3094 9.756 22.5614 10.032C22.8134 10.304 23.1174 10.514 23.4734 10.662C23.8294 10.806 24.2274 10.878 24.6674 10.878C25.1114 10.878 25.5114 10.806 25.8674 10.662C26.2234 10.514 26.5254 10.304 26.7734 10.032C27.0254 9.756 27.2174 9.42 27.3494 9.024C27.4854 8.628 27.5534 8.18 27.5534 7.68ZM33.3336 7.764C33.6456 7.764 33.9196 7.724 34.1556 7.644C34.3956 7.564 34.5936 7.452 34.7496 7.308C34.9096 7.16 35.0296 6.982 35.1096 6.774C35.1896 6.566 35.2296 6.334 35.2296 6.078C35.2296 5.826 35.1896 5.6 35.1096 5.4C35.0336 5.2 34.9176 5.03 34.7616 4.89C34.6056 4.75 34.4076 4.644 34.1676 4.572C33.9316 4.496 33.6536 4.458 33.3336 4.458H32.0496V7.764H33.3336ZM33.3336 3.36C33.8976 3.36 34.3856 3.426 34.7976 3.558C35.2136 3.69 35.5556 3.876 35.8236 4.116C36.0956 4.352 36.2976 4.638 36.4296 4.974C36.5616 5.306 36.6276 5.674 36.6276 6.078C36.6276 6.49 36.5576 6.868 36.4176 7.212C36.2776 7.552 36.0696 7.846 35.7936 8.094C35.5176 8.338 35.1736 8.53 34.7616 8.67C34.3536 8.806 33.8776 8.874 33.3336 8.874H32.0496V12H30.6456V3.36H33.3336ZM44.0359 4.53H41.3419V12H39.9439V4.53H37.2439V3.36H44.0359V4.53ZM49.3873 9.864C49.7273 9.86 50.0373 9.794 50.3173 9.666C50.6013 9.538 50.8433 9.366 51.0433 9.15C51.2473 8.934 51.4033 8.684 51.5113 8.4C51.6233 8.112 51.6793 7.804 51.6793 7.476C51.6793 7.152 51.6233 6.846 51.5113 6.558C51.4033 6.27 51.2473 6.018 51.0433 5.802C50.8433 5.586 50.6013 5.416 50.3173 5.292C50.0373 5.164 49.7273 5.096 49.3873 5.088V9.864ZM48.0613 5.088C47.7173 5.096 47.4033 5.164 47.1193 5.292C46.8393 5.416 46.5993 5.586 46.3993 5.802C46.1993 6.018 46.0433 6.27 45.9313 6.558C45.8233 6.846 45.7693 7.152 45.7693 7.476C45.7693 7.804 45.8233 8.112 45.9313 8.4C46.0433 8.684 46.1993 8.934 46.3993 9.15C46.5993 9.366 46.8393 9.538 47.1193 9.666C47.4033 9.794 47.7173 9.86 48.0613 9.864V5.088ZM49.3873 3.996C49.7473 4.008 50.0893 4.058 50.4133 4.146C50.7373 4.234 51.0353 4.354 51.3073 4.506C51.5793 4.658 51.8233 4.84 52.0393 5.052C52.2593 5.264 52.4453 5.498 52.5973 5.754C52.7493 6.006 52.8653 6.278 52.9453 6.57C53.0293 6.862 53.0713 7.164 53.0713 7.476C53.0713 7.948 52.9813 8.392 52.8013 8.808C52.6213 9.224 52.3693 9.59 52.0453 9.906C51.7213 10.218 51.3333 10.468 50.8813 10.656C50.4293 10.844 49.9313 10.946 49.3873 10.962V12H48.0613V10.962C47.5173 10.946 47.0173 10.844 46.5613 10.656C46.1093 10.468 45.7193 10.218 45.3913 9.906C45.0673 9.59 44.8153 9.224 44.6353 8.808C44.4553 8.392 44.3653 7.948 44.3653 7.476C44.3653 7.004 44.4553 6.56 44.6353 6.144C44.8193 5.728 45.0753 5.364 45.4033 5.052C45.7313 4.74 46.1213 4.49 46.5733 4.302C47.0253 4.114 47.5213 4.012 48.0613 3.996V2.982H49.3873V3.996ZM60.0246 10.866L60.0186 12H54.6306V3.36H60.0186V4.494H56.0406V7.098H59.2206V8.196H56.0406V10.866H60.0246ZM68.4327 12H67.0227V4.458H64.4307C64.3747 5.55 64.2967 6.498 64.1967 7.302C64.0967 8.106 63.9767 8.79 63.8367 9.354C63.7007 9.918 63.5447 10.378 63.3687 10.734C63.1967 11.09 63.0047 11.368 62.7927 11.568C62.5847 11.768 62.3607 11.904 62.1207 11.976C61.8807 12.048 61.6267 12.084 61.3587 12.084C60.8547 12.084 60.6027 11.994 60.6027 11.814V10.926H61.0467C61.1947 10.926 61.3427 10.9 61.4907 10.848C61.6427 10.792 61.7887 10.676 61.9287 10.5C62.0687 10.324 62.2027 10.07 62.3307 9.738C62.4587 9.402 62.5747 8.954 62.6787 8.394C62.7827 7.834 62.8707 7.144 62.9427 6.324C63.0187 5.5 63.0747 4.512 63.1107 3.36H68.4327V12ZM73.5429 10.89C73.8589 10.89 74.1249 10.856 74.3409 10.788C74.5609 10.716 74.7389 10.618 74.8749 10.494C75.0109 10.366 75.1089 10.218 75.1689 10.05C75.2329 9.878 75.2649 9.692 75.2649 9.492C75.2649 9.276 75.2349 9.082 75.1749 8.91C75.1149 8.738 75.0169 8.594 74.8809 8.478C74.7449 8.358 74.5669 8.266 74.3469 8.202C74.1309 8.138 73.8649 8.106 73.5489 8.106H72.0129V10.89H73.5429ZM73.5489 6.996C74.0929 6.996 74.5589 7.056 74.9469 7.176C75.3389 7.296 75.6609 7.462 75.9129 7.674C76.1649 7.882 76.3489 8.13 76.4649 8.418C76.5849 8.706 76.6449 9.016 76.6449 9.348C76.6449 9.752 76.5749 10.118 76.4349 10.446C76.2989 10.77 76.0989 11.048 75.8349 11.28C75.5709 11.512 75.2449 11.69 74.8569 11.814C74.4729 11.938 74.0349 12 73.5429 12H70.6089V3.36H72.0129V6.996H73.5489ZM81.1546 6.372C80.9746 6.068 80.8506 5.752 80.7826 5.424C80.7186 5.092 80.7126 4.766 80.7646 4.446C80.8166 4.122 80.9246 3.814 81.0886 3.522C81.2566 3.226 81.4786 2.96 81.7546 2.724L82.1566 2.97C82.2286 3.014 82.2606 3.07 82.2526 3.138C82.2446 3.206 82.2206 3.262 82.1806 3.306C82.0886 3.418 82.0046 3.56 81.9286 3.732C81.8526 3.904 81.8006 4.094 81.7726 4.302C81.7486 4.51 81.7566 4.728 81.7966 4.956C81.8366 5.184 81.9226 5.408 82.0546 5.628C82.1186 5.728 82.1366 5.818 82.1086 5.898C82.0846 5.974 82.0266 6.028 81.9346 6.06L81.1546 6.372ZM83.0686 6.372C82.8886 6.068 82.7646 5.752 82.6966 5.424C82.6326 5.092 82.6266 4.766 82.6786 4.446C82.7306 4.122 82.8386 3.814 83.0026 3.522C83.1706 3.226 83.3926 2.96 83.6686 2.724L84.0706 2.97C84.1426 3.014 84.1746 3.07 84.1666 3.138C84.1586 3.206 84.1346 3.262 84.0946 3.306C84.0026 3.418 83.9186 3.56 83.8426 3.732C83.7666 3.904 83.7146 4.094 83.6866 4.302C83.6626 4.51 83.6706 4.728 83.7106 4.956C83.7506 5.184 83.8366 5.408 83.9686 5.628C84.0326 5.728 84.0506 5.818 84.0226 5.898C83.9986 5.974 83.9406 6.028 83.8486 6.06L83.0686 6.372ZM88.984 10.89C89.3 10.89 89.566 10.854 89.782 10.782C90.002 10.706 90.18 10.604 90.316 10.476C90.456 10.348 90.556 10.198 90.616 10.026C90.68 9.85 90.712 9.662 90.712 9.462C90.712 9.054 90.572 8.734 90.292 8.502C90.016 8.266 89.578 8.148 88.978 8.148H87.244V10.89H88.984ZM87.244 4.458V7.158H88.648C89.248 7.158 89.696 7.042 89.992 6.81C90.288 6.578 90.436 6.244 90.436 5.808C90.436 5.332 90.296 4.988 90.016 4.776C89.74 4.564 89.306 4.458 88.714 4.458H87.244ZM88.714 3.36C89.266 3.36 89.738 3.414 90.13 3.522C90.522 3.626 90.844 3.776 91.096 3.972C91.348 4.168 91.532 4.408 91.648 4.692C91.768 4.972 91.828 5.288 91.828 5.64C91.828 5.844 91.796 6.042 91.732 6.234C91.672 6.422 91.576 6.6 91.444 6.768C91.316 6.932 91.154 7.08 90.958 7.212C90.762 7.344 90.53 7.454 90.262 7.542C91.486 7.802 92.098 8.452 92.098 9.492C92.098 9.86 92.028 10.198 91.888 10.506C91.752 10.81 91.552 11.074 91.288 11.298C91.028 11.518 90.706 11.69 90.322 11.814C89.938 11.938 89.5 12 89.008 12H85.84V3.36H88.714ZM96.7339 10.89C97.0499 10.89 97.3159 10.856 97.5319 10.788C97.7519 10.716 97.9299 10.618 98.0659 10.494C98.2019 10.366 98.2999 10.218 98.3599 10.05C98.4239 9.878 98.4559 9.692 98.4559 9.492C98.4559 9.276 98.4259 9.082 98.3659 8.91C98.3059 8.738 98.2079 8.594 98.0719 8.478C97.9359 8.358 97.7579 8.266 97.5379 8.202C97.3219 8.138 97.0559 8.106 96.7399 8.106H95.2039V10.89H96.7339ZM96.7399 6.996C97.2839 6.996 97.7499 7.056 98.1379 7.176C98.5299 7.296 98.8519 7.462 99.1039 7.674C99.3559 7.882 99.5399 8.13 99.6559 8.418C99.7759 8.706 99.8359 9.016 99.8359 9.348C99.8359 9.752 99.7659 10.118 99.6259 10.446C99.4899 10.77 99.2899 11.048 99.0259 11.28C98.7619 11.512 98.4359 11.69 98.0479 11.814C97.6639 11.938 97.2259 12 96.7339 12H93.7999V3.36H95.2039V6.996H96.7399ZM102.662 12H101.252V3.36H102.662V12ZM110.83 10.074C110.906 10.074 110.972 10.104 111.028 10.164L111.586 10.77C111.234 11.194 110.802 11.522 110.29 11.754C109.778 11.982 109.166 12.096 108.454 12.096C107.822 12.096 107.25 11.988 106.738 11.772C106.23 11.552 105.796 11.248 105.436 10.86C105.076 10.468 104.798 10.002 104.602 9.462C104.41 8.922 104.314 8.328 104.314 7.68C104.314 7.032 104.416 6.438 104.62 5.898C104.828 5.354 105.118 4.888 105.49 4.5C105.866 4.108 106.314 3.804 106.834 3.588C107.358 3.372 107.934 3.264 108.562 3.264C109.186 3.264 109.736 3.366 110.212 3.57C110.692 3.77 111.108 4.038 111.46 4.374L110.998 5.028C110.966 5.072 110.928 5.11 110.884 5.142C110.84 5.174 110.78 5.19 110.704 5.19C110.624 5.19 110.532 5.154 110.428 5.082C110.328 5.006 110.198 4.924 110.038 4.836C109.882 4.744 109.684 4.662 109.444 4.59C109.208 4.514 108.912 4.476 108.556 4.476C108.144 4.476 107.766 4.548 107.422 4.692C107.078 4.836 106.782 5.046 106.534 5.322C106.286 5.598 106.092 5.934 105.952 6.33C105.816 6.726 105.748 7.176 105.748 7.68C105.748 8.188 105.82 8.642 105.964 9.042C106.108 9.438 106.306 9.774 106.558 10.05C106.81 10.322 107.106 10.53 107.446 10.674C107.786 10.818 108.152 10.89 108.544 10.89C108.784 10.89 108.998 10.878 109.186 10.854C109.378 10.826 109.554 10.784 109.714 10.728C109.874 10.668 110.024 10.594 110.164 10.506C110.308 10.418 110.45 10.31 110.59 10.182C110.67 10.11 110.75 10.074 110.83 10.074ZM120.861 7.68C120.861 8.32 120.757 8.91 120.549 9.45C120.341 9.99 120.047 10.456 119.667 10.848C119.291 11.236 118.837 11.54 118.305 11.76C117.777 11.98 117.189 12.09 116.541 12.09C115.897 12.09 115.309 11.98 114.777 11.76C114.249 11.54 113.795 11.236 113.415 10.848C113.035 10.456 112.741 9.99 112.533 9.45C112.325 8.91 112.221 8.32 112.221 7.68C112.221 7.04 112.325 6.45 112.533 5.91C112.741 5.37 113.035 4.904 113.415 4.512C113.795 4.12 114.249 3.814 114.777 3.594C115.309 3.374 115.897 3.264 116.541 3.264C117.189 3.264 117.777 3.374 118.305 3.594C118.837 3.814 119.291 4.12 119.667 4.512C120.047 4.904 120.341 5.37 120.549 5.91C120.757 6.45 120.861 7.04 120.861 7.68ZM119.427 7.68C119.427 7.184 119.359 6.738 119.223 6.342C119.091 5.946 118.899 5.61 118.647 5.334C118.399 5.058 118.097 4.846 117.741 4.698C117.385 4.55 116.985 4.476 116.541 4.476C116.101 4.476 115.703 4.55 115.347 4.698C114.991 4.846 114.687 5.058 114.435 5.334C114.183 5.61 113.989 5.946 113.853 6.342C113.717 6.738 113.649 7.184 113.649 7.68C113.649 8.18 113.717 8.628 113.853 9.024C113.989 9.42 114.183 9.756 114.435 10.032C114.687 10.304 114.991 10.514 115.347 10.662C115.703 10.806 116.101 10.878 116.541 10.878C116.985 10.878 117.385 10.806 117.741 10.662C118.097 10.514 118.399 10.304 118.647 10.032C118.899 9.756 119.091 9.42 119.223 9.024C119.359 8.628 119.427 8.18 119.427 7.68ZM129.647 12H128.381C128.245 12 128.131 11.964 128.039 11.892C127.947 11.82 127.861 11.714 127.781 11.574L125.735 8.556C125.683 8.476 125.631 8.41 125.579 8.358C125.527 8.302 125.469 8.258 125.405 8.226C125.341 8.19 125.269 8.166 125.189 8.154C125.109 8.138 125.019 8.13 124.919 8.13H123.923V12H122.519V3.36H123.923V7.056H124.769C124.945 7.056 125.093 7.028 125.213 6.972C125.333 6.916 125.451 6.808 125.567 6.648L127.637 3.744C127.705 3.632 127.787 3.54 127.883 3.468C127.983 3.396 128.101 3.36 128.237 3.36H129.425L126.953 6.864C126.853 7.012 126.739 7.134 126.611 7.23C126.483 7.326 126.341 7.402 126.185 7.458C126.409 7.518 126.599 7.616 126.755 7.752C126.915 7.888 127.065 8.076 127.205 8.316L129.647 12ZM137.994 3.36V12H136.59V6.264C136.59 6.072 136.594 5.872 136.602 5.664C136.614 5.456 136.636 5.232 136.668 4.992C136.592 5.2 136.51 5.394 136.422 5.574C136.338 5.75 136.254 5.906 136.17 6.042L132.51 11.562C132.478 11.614 132.44 11.666 132.396 11.718C132.356 11.77 132.308 11.818 132.252 11.862C132.2 11.902 132.144 11.936 132.084 11.964C132.024 11.988 131.96 12 131.892 12H130.842V3.36H132.252V9.09C132.252 9.282 132.246 9.484 132.234 9.696C132.226 9.904 132.206 10.124 132.174 10.356C132.25 10.152 132.33 9.962 132.414 9.786C132.502 9.606 132.586 9.45 132.666 9.318L136.326 3.798C136.358 3.746 136.394 3.694 136.434 3.642C136.478 3.59 136.526 3.544 136.578 3.504C136.634 3.46 136.692 3.426 136.752 3.402C136.812 3.374 136.876 3.36 136.944 3.36H137.994ZM145.567 10.866L145.561 12H140.173V3.36H145.561V4.494H141.583V7.098H144.763V8.196H141.583V10.866H145.567ZM156.262 4.53H153.568V12H152.17V4.53H149.47V3.36H156.262V4.53ZM162.978 10.866L162.972 12H157.584V3.36H162.972V4.494H158.994V7.098H162.174V8.196H158.994V10.866H162.978ZM171.44 12H170.042C169.946 12 169.868 11.974 169.808 11.922C169.748 11.87 169.7 11.812 169.664 11.748L167.516 8.286C167.5 8.334 167.482 8.38 167.462 8.424C167.446 8.468 167.426 8.51 167.402 8.55L165.326 11.748C165.282 11.812 165.232 11.87 165.176 11.922C165.124 11.974 165.054 12 164.966 12H163.658L166.574 7.56L163.778 3.36H165.17C165.27 3.36 165.342 3.376 165.386 3.408C165.434 3.436 165.476 3.48 165.512 3.54L167.612 6.84C167.632 6.792 167.652 6.744 167.672 6.696C167.692 6.648 167.718 6.598 167.75 6.546L169.706 3.564C169.746 3.496 169.79 3.446 169.838 3.414C169.886 3.378 169.944 3.36 170.012 3.36H171.35L168.53 7.5L171.44 12ZM179.812 3.36V12H178.408V8.154H174.07V12H172.66V3.36H174.07V7.14H178.408V3.36H179.812ZM190.109 7.68C190.109 8.32 190.005 8.91 189.797 9.45C189.589 9.99 189.295 10.456 188.915 10.848C188.539 11.236 188.085 11.54 187.553 11.76C187.025 11.98 186.437 12.09 185.789 12.09C185.145 12.09 184.557 11.98 184.025 11.76C183.497 11.54 183.043 11.236 182.663 10.848C182.283 10.456 181.989 9.99 181.781 9.45C181.573 8.91 181.469 8.32 181.469 7.68C181.469 7.04 181.573 6.45 181.781 5.91C181.989 5.37 182.283 4.904 182.663 4.512C183.043 4.12 183.497 3.814 184.025 3.594C184.557 3.374 185.145 3.264 185.789 3.264C186.437 3.264 187.025 3.374 187.553 3.594C188.085 3.814 188.539 4.12 188.915 4.512C189.295 4.904 189.589 5.37 189.797 5.91C190.005 6.45 190.109 7.04 190.109 7.68ZM188.675 7.68C188.675 7.184 188.607 6.738 188.471 6.342C188.339 5.946 188.147 5.61 187.895 5.334C187.647 5.058 187.345 4.846 186.989 4.698C186.633 4.55 186.233 4.476 185.789 4.476C185.349 4.476 184.951 4.55 184.595 4.698C184.239 4.846 183.935 5.058 183.683 5.334C183.431 5.61 183.237 5.946 183.101 6.342C182.965 6.738 182.897 7.184 182.897 7.68C182.897 8.18 182.965 8.628 183.101 9.024C183.237 9.42 183.431 9.756 183.683 10.032C183.935 10.304 184.239 10.514 184.595 10.662C184.951 10.806 185.349 10.878 185.789 10.878C186.233 10.878 186.633 10.806 186.989 10.662C187.345 10.514 187.647 10.304 187.895 10.032C188.147 9.756 188.339 9.42 188.471 9.024C188.607 8.628 188.675 8.18 188.675 7.68ZM198.313 12H196.903V4.458H194.311C194.255 5.55 194.177 6.498 194.077 7.302C193.977 8.106 193.857 8.79 193.717 9.354C193.581 9.918 193.425 10.378 193.249 10.734C193.077 11.09 192.885 11.368 192.673 11.568C192.465 11.768 192.241 11.904 192.001 11.976C191.761 12.048 191.507 12.084 191.239 12.084C190.735 12.084 190.483 11.994 190.483 11.814V10.926H190.927C191.075 10.926 191.223 10.9 191.371 10.848C191.523 10.792 191.669 10.676 191.809 10.5C191.949 10.324 192.083 10.07 192.211 9.738C192.339 9.402 192.455 8.954 192.559 8.394C192.663 7.834 192.751 7.144 192.823 6.324C192.899 5.5 192.955 4.512 192.991 3.36H198.313V12ZM208.607 7.68C208.607 8.32 208.503 8.91 208.295 9.45C208.087 9.99 207.793 10.456 207.413 10.848C207.037 11.236 206.583 11.54 206.051 11.76C205.523 11.98 204.935 12.09 204.287 12.09C203.643 12.09 203.055 11.98 202.523 11.76C201.995 11.54 201.541 11.236 201.161 10.848C200.781 10.456 200.487 9.99 200.279 9.45C200.071 8.91 199.967 8.32 199.967 7.68C199.967 7.04 200.071 6.45 200.279 5.91C200.487 5.37 200.781 4.904 201.161 4.512C201.541 4.12 201.995 3.814 202.523 3.594C203.055 3.374 203.643 3.264 204.287 3.264C204.935 3.264 205.523 3.374 206.051 3.594C206.583 3.814 207.037 4.12 207.413 4.512C207.793 4.904 208.087 5.37 208.295 5.91C208.503 6.45 208.607 7.04 208.607 7.68ZM207.173 7.68C207.173 7.184 207.105 6.738 206.969 6.342C206.837 5.946 206.645 5.61 206.393 5.334C206.145 5.058 205.843 4.846 205.487 4.698C205.131 4.55 204.731 4.476 204.287 4.476C203.847 4.476 203.449 4.55 203.093 4.698C202.737 4.846 202.433 5.058 202.181 5.334C201.929 5.61 201.735 5.946 201.599 6.342C201.463 6.738 201.395 7.184 201.395 7.68C201.395 8.18 201.463 8.628 201.599 9.024C201.735 9.42 201.929 9.756 202.181 10.032C202.433 10.304 202.737 10.514 203.093 10.662C203.449 10.806 203.847 10.878 204.287 10.878C204.731 10.878 205.131 10.806 205.487 10.662C205.843 10.514 206.145 10.304 206.393 10.032C206.645 9.756 206.837 9.42 206.969 9.024C207.105 8.628 207.173 8.18 207.173 7.68ZM215.533 4.458H211.675V12H210.265V3.36H215.533V4.458ZM224.006 3.36V12H222.602V6.264C222.602 6.072 222.606 5.872 222.614 5.664C222.626 5.456 222.648 5.232 222.68 4.992C222.604 5.2 222.522 5.394 222.434 5.574C222.35 5.75 222.266 5.906 222.182 6.042L218.522 11.562C218.49 11.614 218.452 11.666 218.408 11.718C218.368 11.77 218.32 11.818 218.264 11.862C218.212 11.902 218.156 11.936 218.096 11.964C218.036 11.988 217.972 12 217.904 12H216.854V3.36H218.264V9.09C218.264 9.282 218.258 9.484 218.246 9.696C218.238 9.904 218.218 10.124 218.186 10.356C218.262 10.152 218.342 9.962 218.426 9.786C218.514 9.606 218.598 9.45 218.678 9.318L222.338 3.798C222.37 3.746 222.406 3.694 222.446 3.642C222.49 3.59 222.538 3.544 222.59 3.504C222.646 3.46 222.704 3.426 222.764 3.402C222.824 3.374 222.888 3.36 222.956 3.36H224.006ZM233.337 3.36V12H231.933V6.264C231.933 6.072 231.937 5.872 231.945 5.664C231.957 5.456 231.979 5.232 232.011 4.992C231.935 5.2 231.853 5.394 231.765 5.574C231.681 5.75 231.597 5.906 231.513 6.042L227.853 11.562C227.821 11.614 227.783 11.666 227.739 11.718C227.699 11.77 227.651 11.818 227.595 11.862C227.543 11.902 227.487 11.936 227.427 11.964C227.367 11.988 227.303 12 227.235 12H226.185V3.36H227.595V9.09C227.595 9.282 227.589 9.484 227.577 9.696C227.569 9.904 227.549 10.124 227.517 10.356C227.593 10.152 227.673 9.962 227.757 9.786C227.845 9.606 227.929 9.45 228.009 9.318L231.669 3.798C231.701 3.746 231.737 3.694 231.777 3.642C231.821 3.59 231.869 3.544 231.921 3.504C231.977 3.46 232.035 3.426 232.095 3.402C232.155 3.374 232.219 3.36 232.287 3.36H233.337ZM236.158 2.784C236.338 3.088 236.46 3.406 236.524 3.738C236.588 4.066 236.594 4.392 236.542 4.716C236.49 5.036 236.38 5.344 236.212 5.64C236.048 5.936 235.828 6.2 235.552 6.432L235.15 6.186C235.082 6.142 235.05 6.086 235.054 6.018C235.062 5.946 235.086 5.89 235.126 5.85C235.218 5.738 235.302 5.596 235.378 5.424C235.454 5.252 235.504 5.064 235.528 4.86C235.556 4.652 235.55 4.434 235.51 4.206C235.474 3.978 235.388 3.752 235.252 3.528C235.188 3.424 235.17 3.334 235.198 3.258C235.226 3.182 235.284 3.128 235.372 3.096L236.158 2.784ZM238.072 2.784C238.252 3.088 238.374 3.406 238.438 3.738C238.502 4.066 238.508 4.392 238.456 4.716C238.404 5.036 238.294 5.344 238.126 5.64C237.962 5.936 237.742 6.2 237.466 6.432L237.064 6.186C236.996 6.142 236.964 6.086 236.968 6.018C236.976 5.946 237 5.89 237.04 5.85C237.132 5.738 237.216 5.596 237.292 5.424C237.368 5.252 237.418 5.064 237.442 4.86C237.47 4.652 237.464 4.434 237.424 4.206C237.388 3.978 237.302 3.752 237.166 3.528C237.102 3.424 237.084 3.334 237.112 3.258C237.14 3.182 237.198 3.128 237.286 3.096L238.072 2.784Z" fill="black"/>
</svg>
