<svg width="881" height="360" viewBox="0 0 881 360" fill="none" xmlns="http://www.w3.org/2000/svg">
<path d="M78.4426 235.124L88.8919 197.908L97.5037 180.72L101.05 182.152L104.089 188.905L108.648 180.72L116.247 187.882L120.806 202L123.845 204.66L128.405 191.565L132.457 195.862L139.043 203.637L146.135 184.608L153.227 173.149L158.292 172.536L161.838 167.625L165.891 173.149L169.944 166.193L182.608 154.53L186.661 158.008L189.7 165.374L196.285 159.85L204.897 170.08L208.95 168.648L212.496 170.08L216.042 178.469L221.108 179.697L223.134 174.991L229.213 180.72H231.239L236.811 172.536L240.864 173.968L244.41 180.72L246.436 192.997L250.995 191.155L255.048 203.637L258.594 202.614L262.14 191.565L266.699 208.957L274.298 203.637L278.35 190.542L281.39 206.297L285.949 209.571L288.988 223.689L292.534 223.075L298.107 230.441H302.666L306.212 220.211L308.238 221.438L312.797 214.072L316.343 231.055L320.396 233.715H323.942L327.995 226.144L332.047 228.804L337.113 223.689L343.698 205.888L350.79 210.594L355.349 203.637L358.895 210.594L363.455 209.571L367.001 205.069L372.066 210.594L375.106 221.438L378.652 233.715L381.691 250.084L385.744 251.107L390.303 246.811L393.849 258.678L398.408 257.655L401.954 248.038L406.007 248.447L409.553 244.56L413.605 232.283L418.165 233.715L422.217 241.9L425.763 242.923L429.309 246.197L433.362 241.491L441.467 239.444L444 233.101L449.066 233.715L454.131 241.491L463.25 245.583L467.809 238.012L471.355 241.081L474.394 229.418L478.447 227.168L482.499 222.871L486.045 227.168H491.618L495.67 231.055L498.71 219.801L506.308 208.548L510.867 209.571L514.414 213.049L518.466 206.092L530.117 207.729L532.65 209.571L536.703 199.954H540.755L544.301 191.974L552.913 189.109L556.966 192.997L560.512 191.974L564.564 198.112L568.11 207.729L571.656 209.162L576.215 207.115L579.255 201.182L583.307 217.346L586.853 218.574L594.452 227.168L599.518 226.554L601.544 230.441L605.09 231.874L610.156 225.121L612.182 222.871L621.807 210.798L625.86 230.441L630.419 228.395L637.004 236.171L642.07 234.534L648.655 245.378L654.228 250.084L656.254 256.018L660.307 259.906L664.359 260.929L668.412 253.767L675.504 267.886L683.102 245.378L687.662 246.606L692.727 251.107L695.767 261.952L702.859 267.067L707.418 267.886L710.457 259.497L715.017 267.886L718.563 257.655L722.109 253.767L730.214 258.678L732.747 250.084L742.372 237.807L749.97 243.741L752.503 233.92L761.115 238.421L764.154 249.471L768.207 252.949L779.351 241.081L784.417 250.084L787.457 227.372L791.003 224.098L796.068 227.372L800.121 224.098L803.667 227.372L807.719 228.6L810.759 226.144L815.318 227.986L818.864 222.052L823.423 219.188H826.463L831.022 226.554L835.074 227.986L838.114 214.891L846.219 215.505L853.818 228.6L857.364 229.828L861.923 226.144L866.989 229.828V223.485L875.094 220.62L880.159 223.485" stroke="black" stroke-opacity="0.25" stroke-width="1.96571"/>
<path d="M78.0947 234.803L83.6574 228.572L90.6107 222.677L93.7397 219.398L97.5159 215.525L102.084 212.416L106.951 211.173L109.037 204.655L111.709 201.223L115.764 212.416H119.312L123.367 192.517L131.478 194.072L138.574 215.525L143.643 216.458L146.685 211.794L150.74 215.525L154.795 206.82L157.329 202.778L162.398 206.82L165.946 222.677L173.55 236.046L178.112 234.803L181.153 226.408L185.715 234.803L190.277 232.004L193.826 233.87L196.36 241.021L199.908 232.004L210.046 234.803L212.581 229.828L216.129 236.046L231.843 222.677L236.405 204.021L239.953 199.358L244.515 197.181L252.118 229.828L255.667 222.677L259.215 209.307L263.777 220.5L267.325 219.567L272.394 212.105L275.435 202.156L279.491 195.937L285.573 178.837L292.67 183.811L296.218 177.282L298.246 170.442L303.821 173.862L307.37 144.946L310.918 152.719L313.452 162.047L319.028 166.089L321.563 177.282L325.111 173.862L327.139 168.576H333.728L341.332 155.518L345.894 151.787L347.921 130.644L352.483 138.728L357.045 141.526L360.593 138.728L364.142 124.736L368.197 115.72L372.759 116.963L375.8 113.232L383.404 115.72L386.952 127.535H391.514L394.048 142.148L398.104 138.728L410.776 136.24L414.324 144.946L419.393 142.148L423.448 141.526L429.531 157.694L432.018 148.677L435.06 138.728H439.115L444.691 133.442L447.225 140.593L451.787 144.014L454.321 162.047L458.884 156.45L462.432 167.954L470.542 164.534L478.145 149.921H481.694L484.735 159.56L492.845 162.047L496.901 170.131L502.983 163.602H505.518L510.587 148.677H514.642L516.669 167.022L519.711 172.307L523.766 172.929H528.279H532.841L536.438 168.887L538.056 175.417H542.576L544.042 159.56L548.604 164.534L552.152 160.492L555.7 171.686H559.248L562.797 167.954L567.866 141.215L570.907 152.097H574.455L578.003 166.4L581.552 164.534L585.607 154.896L590.676 155.829L594.224 136.862V130.955L599.293 119.762L603.348 113.232L605.376 119.762L613.026 149.299L614.547 139.35L620.123 149.299L629.247 141.837L632.795 143.392L637.357 153.341L643.44 149.299L645.467 159.56H650.029L655.605 155.829L658.647 129.4L662.195 141.526H665.743L670.305 155.207H673.853L677.402 144.324L683.991 145.879V147.123L687.54 144.324L693.115 118.207L698.184 139.35L706.295 144.324L707.308 121.005L712.377 138.106L718.46 139.35L720.488 119.451L724.036 122.56L728.091 101.106L731.639 91.4678H735.188L740.256 102.972H743.298L747.86 94.577L751.915 102.039L755.97 99.5517L757.998 86.804L763.067 86.1821L767.122 88.3586L773.205 73.7453L778.78 78.72L781.822 79.9637L785.877 69.3924L789.425 64.1067L799.563 79.9637L804.125 91.4678L809.194 83.3838L812.235 86.804L819.839 118.518L824.401 112.61L829.47 102.972H831.497L835.046 114.476V118.518L837.58 114.476L841.635 100.485L843.156 89.6023L851.266 84.9384L854.307 96.1316L857.856 86.804L862.418 83.3838L864.952 98.9299C866.98 103.179 871.035 111.429 871.035 110.434C871.035 109.439 874.414 98.619 876.104 93.3333L878.768 79.9637" stroke="#28CE83" stroke-width="1.96571"/>
<path d="M42.8598 299.657V300.495H45.7743V299.657H42.8598ZM48.6843 295.757C48.6109 296.459 47.9714 296.899 47.1222 296.899V297.78C47.7198 297.78 48.181 297.633 48.527 297.329V303.095H49.4496V295.757H48.6843ZM53.9159 295.61C52.4063 295.61 51.3159 296.983 51.3159 299.426C51.3159 301.869 52.4063 303.242 53.9159 303.242C55.4256 303.242 56.5159 301.869 56.5159 299.426C56.5159 296.983 55.4256 295.61 53.9159 295.61ZM53.9159 302.34C52.9095 302.34 52.2805 301.302 52.2805 299.426C52.2805 297.549 52.9095 296.511 53.9159 296.511C54.9224 296.511 55.5514 297.549 55.5514 299.426C55.5514 301.302 54.9224 302.34 53.9159 302.34ZM57.7113 297.465C57.7113 298.577 58.5395 299.321 59.5879 299.321C60.6363 299.321 61.4645 298.577 61.4645 297.465C61.4645 296.354 60.6363 295.61 59.5879 295.61C58.5395 295.61 57.7113 296.354 57.7113 297.465ZM63.7185 295.757L59.4202 303.095H60.2379L64.5363 295.757H63.7185ZM60.6678 297.465C60.6678 298.136 60.175 298.566 59.5879 298.566C59.0008 298.566 58.5081 298.136 58.5081 297.465C58.5081 296.794 59.0008 296.365 59.5879 296.365C60.175 296.365 60.6678 296.794 60.6678 297.465ZM62.4919 301.386C62.4919 302.498 63.3202 303.242 64.3685 303.242C65.4169 303.242 66.2451 302.498 66.2451 301.386C66.2451 300.275 65.4169 299.531 64.3685 299.531C63.3202 299.531 62.4919 300.275 62.4919 301.386ZM65.4484 301.386C65.4484 302.057 64.9556 302.487 64.3685 302.487C63.7814 302.487 63.2887 302.057 63.2887 301.386C63.2887 300.715 63.7814 300.286 64.3685 300.286C64.9556 300.286 65.4484 300.715 65.4484 301.386Z" fill="black"/>
<path d="M63.3697 230.741C61.86 230.741 60.7697 232.115 60.7697 234.557C60.7697 237 61.86 238.374 63.3697 238.374C64.8794 238.374 65.9697 237 65.9697 234.557C65.9697 232.115 64.8794 230.741 63.3697 230.741ZM63.3697 237.472C62.3633 237.472 61.7342 236.434 61.7342 234.557C61.7342 232.681 62.3633 231.643 63.3697 231.643C64.3762 231.643 65.0052 232.681 65.0052 234.557C65.0052 236.434 64.3762 237.472 63.3697 237.472Z" fill="black"/>
<path d="M48.5111 164.709C48.4378 165.411 47.7982 165.852 46.9491 165.852V166.732C47.5466 166.732 48.0079 166.586 48.3539 166.282V172.048H49.2765V164.709H48.5111ZM53.7428 164.562C52.2331 164.562 51.1428 165.936 51.1428 168.378C51.1428 170.821 52.2331 172.194 53.7428 172.194C55.2525 172.194 56.3428 170.821 56.3428 168.378C56.3428 165.936 55.2525 164.562 53.7428 164.562ZM53.7428 171.293C52.7364 171.293 52.1073 170.255 52.1073 168.378C52.1073 166.502 52.7364 165.464 53.7428 165.464C54.7493 165.464 55.3783 166.502 55.3783 168.378C55.3783 170.255 54.7493 171.293 53.7428 171.293ZM57.5382 166.418C57.5382 167.529 58.3664 168.273 59.4148 168.273C60.4632 168.273 61.2914 167.529 61.2914 166.418C61.2914 165.307 60.4632 164.562 59.4148 164.562C58.3664 164.562 57.5382 165.307 57.5382 166.418ZM63.5454 164.709L59.2471 172.048H60.0648L64.3632 164.709H63.5454ZM60.4946 166.418C60.4946 167.089 60.0019 167.519 59.4148 167.519C58.8277 167.519 58.335 167.089 58.335 166.418C58.335 165.747 58.8277 165.317 59.4148 165.317C60.0019 165.317 60.4946 165.747 60.4946 166.418ZM62.3188 170.339C62.3188 171.45 63.147 172.194 64.1954 172.194C65.2438 172.194 66.072 171.45 66.072 170.339C66.072 169.227 65.2438 168.483 64.1954 168.483C63.147 168.483 62.3188 169.227 62.3188 170.339ZM65.2753 170.339C65.2753 171.01 64.7825 171.44 64.1954 171.44C63.6083 171.44 63.1156 171.01 63.1156 170.339C63.1156 169.668 63.6083 169.238 64.1954 169.238C64.7825 169.238 65.2753 169.668 65.2753 170.339Z" fill="black"/>
<path d="M46.7168 105.664L48.5934 103.316C49.2224 102.551 49.5789 101.922 49.5789 101.041C49.5789 99.7514 48.7297 99.0385 47.545 99.0385C46.7902 99.0385 46.0878 99.3425 45.6789 99.8562V100.957H45.8152C46.1821 100.38 46.7902 99.9401 47.4926 99.9401C48.1531 99.9401 48.6144 100.349 48.6144 101.114C48.6144 101.743 48.3208 102.267 47.87 102.823L45.291 106.021V106.524H49.7781V105.664H46.7168ZM53.6127 99.0385C52.103 99.0385 51.0127 100.412 51.0127 102.855C51.0127 105.297 52.103 106.671 53.6127 106.671C55.1224 106.671 56.2127 105.297 56.2127 102.855C56.2127 100.412 55.1224 99.0385 53.6127 99.0385ZM53.6127 105.769C52.6062 105.769 51.9772 104.731 51.9772 102.855C51.9772 100.978 52.6062 99.9401 53.6127 99.9401C54.6191 99.9401 55.2482 100.978 55.2482 102.855C55.2482 104.731 54.6191 105.769 53.6127 105.769ZM57.4081 100.894C57.4081 102.005 58.2363 102.75 59.2847 102.75C60.3331 102.75 61.1613 102.005 61.1613 100.894C61.1613 99.7828 60.3331 99.0385 59.2847 99.0385C58.2363 99.0385 57.4081 99.7828 57.4081 100.894ZM63.4153 99.1853L59.1169 106.524H59.9347L64.233 99.1853H63.4153ZM60.3645 100.894C60.3645 101.565 59.8718 101.995 59.2847 101.995C58.6976 101.995 58.2048 101.565 58.2048 100.894C58.2048 100.223 58.6976 99.7933 59.2847 99.7933C59.8718 99.7933 60.3645 100.223 60.3645 100.894ZM62.1887 104.815C62.1887 105.926 63.0169 106.671 64.0653 106.671C65.1137 106.671 65.9419 105.926 65.9419 104.815C65.9419 103.704 65.1137 102.959 64.0653 102.959C63.0169 102.959 62.1887 103.704 62.1887 104.815ZM65.1451 104.815C65.1451 105.486 64.6524 105.916 64.0653 105.916C63.4782 105.916 62.9855 105.486 62.9855 104.815C62.9855 104.144 63.4782 103.714 64.0653 103.714C64.6524 103.714 65.1451 104.144 65.1451 104.815Z" fill="black"/>
<path d="M49.7939 39.0186C49.7939 38.1065 49.3536 37.4041 48.5253 37.0581C49.1963 36.7645 49.5213 36.1984 49.5213 35.475C49.5213 34.3113 48.6511 33.5146 47.3302 33.5146C46.7326 33.5146 46.2084 33.6928 45.7681 34.0492V35.1395H45.9044C46.2608 34.6573 46.7221 34.4162 47.2987 34.4162C48.127 34.4162 48.5568 34.8879 48.5568 35.5904C48.5568 36.3137 48.0536 36.7121 47.0786 36.7121H46.6802V37.5928H47.0995C48.1899 37.5928 48.8294 38.096 48.8294 38.9347C48.8294 39.7629 48.2003 40.2452 47.3092 40.2452C46.5439 40.2452 46.0512 39.8992 45.6423 39.2387H45.485V40.4863C45.9568 40.9266 46.5754 41.1468 47.3407 41.1468C48.0955 41.1468 48.6931 40.9581 49.1334 40.5702C49.5737 40.1823 49.7939 39.6581 49.7939 39.0186ZM53.6127 33.5146C52.103 33.5146 51.0127 34.8879 51.0127 37.3307C51.0127 39.7734 52.103 41.1468 53.6127 41.1468C55.1224 41.1468 56.2127 39.7734 56.2127 37.3307C56.2127 34.8879 55.1224 33.5146 53.6127 33.5146ZM53.6127 40.2452C52.6062 40.2452 51.9772 39.2073 51.9772 37.3307C51.9772 35.4541 52.6062 34.4162 53.6127 34.4162C54.6191 34.4162 55.2482 35.4541 55.2482 37.3307C55.2482 39.2073 54.6191 40.2452 53.6127 40.2452ZM57.4081 35.3702C57.4081 36.4815 58.2363 37.2258 59.2847 37.2258C60.3331 37.2258 61.1613 36.4815 61.1613 35.3702C61.1613 34.2589 60.3331 33.5146 59.2847 33.5146C58.2363 33.5146 57.4081 34.2589 57.4081 35.3702ZM63.4153 33.6613L59.1169 41H59.9347L64.233 33.6613H63.4153ZM60.3645 35.3702C60.3645 36.0412 59.8718 36.471 59.2847 36.471C58.6976 36.471 58.2048 36.0412 58.2048 35.3702C58.2048 34.6992 58.6976 34.2694 59.2847 34.2694C59.8718 34.2694 60.3645 34.6992 60.3645 35.3702ZM62.1887 39.2911C62.1887 40.4024 63.0169 41.1468 64.0653 41.1468C65.1137 41.1468 65.9419 40.4024 65.9419 39.2911C65.9419 38.1799 65.1137 37.4355 64.0653 37.4355C63.0169 37.4355 62.1887 38.1799 62.1887 39.2911ZM65.1451 39.2911C65.1451 39.9621 64.6524 40.3919 64.0653 40.3919C63.4782 40.3919 62.9855 39.9621 62.9855 39.2911C62.9855 38.6202 63.4782 38.1903 64.0653 38.1903C64.6524 38.1903 65.1451 38.6202 65.1451 39.2911Z" fill="black"/>
<path d="M77.7476 32L77.8643 300.648" stroke="black" stroke-opacity="0.37" stroke-width="0.655238"/>
<path d="M277.864 32L277.994 300.648" stroke="black" stroke-opacity="0.15" stroke-width="1.31048" stroke-dasharray="3.28 6.55"/>
<path d="M477.994 32L478.158 300.648" stroke="black" stroke-opacity="0.15" stroke-width="1.31048" stroke-dasharray="3.28 6.55"/>
<path d="M678.158 32L678.323 300.648" stroke="black" stroke-opacity="0.15" stroke-width="1.31048" stroke-dasharray="3.28 6.55"/>
<path d="M878.323 32L878.487 300.648" stroke="black" stroke-opacity="0.15" stroke-width="1.31048" stroke-dasharray="3.28 6.55"/>
<path d="M77.9951 300.648H880.159" stroke="black" stroke-opacity="0.37" stroke-width="0.655238"/>
<path d="M77.9951 235.124L880.159 235.124" stroke="black" stroke-opacity="0.2" stroke-width="0.655238" stroke-dasharray="3.28 6.55"/>
<path d="M77.9951 169.6L880.159 169.6" stroke="black" stroke-opacity="0.2" stroke-width="0.655238" stroke-dasharray="3.28 6.55"/>
<path d="M77.9951 104.076L880.16 104.076" stroke="black" stroke-opacity="0.2" stroke-width="0.655238" stroke-dasharray="3.28 6.55"/>
<circle cx="85.938" cy="351.429" r="8.19048" fill="#1EAC6C"/>
<path d="M108.171 355.929H106.94V349.34H103.433V355.929H102.201V348.38H108.171V355.929ZM117.159 352.155C117.159 352.714 117.068 353.229 116.886 353.701C116.704 354.173 116.447 354.58 116.115 354.922C115.787 355.261 115.39 355.527 114.926 355.719C114.464 355.911 113.951 356.007 113.384 356.007C112.822 356.007 112.308 355.911 111.843 355.719C111.382 355.527 110.985 355.261 110.653 354.922C110.321 354.58 110.065 354.173 109.883 353.701C109.701 353.229 109.61 352.714 109.61 352.155C109.61 351.595 109.701 351.08 109.883 350.608C110.065 350.136 110.321 349.729 110.653 349.387C110.985 349.044 111.382 348.777 111.843 348.585C112.308 348.393 112.822 348.296 113.384 348.296C113.951 348.296 114.464 348.393 114.926 348.585C115.39 348.777 115.787 349.044 116.115 349.387C116.447 349.729 116.704 350.136 116.886 350.608C117.068 351.08 117.159 351.595 117.159 352.155ZM115.906 352.155C115.906 351.721 115.846 351.332 115.728 350.986C115.612 350.64 115.444 350.346 115.224 350.105C115.008 349.864 114.744 349.679 114.433 349.549C114.122 349.42 113.772 349.355 113.384 349.355C113 349.355 112.652 349.42 112.341 349.549C112.03 349.679 111.765 349.864 111.544 350.105C111.324 350.346 111.155 350.64 111.036 350.986C110.917 351.332 110.858 351.721 110.858 352.155C110.858 352.591 110.917 352.983 111.036 353.329C111.155 353.675 111.324 353.968 111.544 354.209C111.765 354.447 112.03 354.63 112.341 354.76C112.652 354.886 113 354.948 113.384 354.948C113.772 354.948 114.122 354.886 114.433 354.76C114.744 354.63 115.008 354.447 115.224 354.209C115.444 353.968 115.612 353.675 115.728 353.329C115.846 352.983 115.906 352.591 115.906 352.155ZM120.956 352.228C121.228 352.228 121.468 352.193 121.674 352.123C121.884 352.053 122.056 351.955 122.193 351.83C122.333 351.7 122.437 351.545 122.507 351.363C122.577 351.181 122.612 350.979 122.612 350.755C122.612 350.535 122.577 350.337 122.507 350.163C122.441 349.988 122.34 349.839 122.203 349.717C122.067 349.595 121.894 349.502 121.684 349.439C121.478 349.373 121.235 349.34 120.956 349.34H119.834V352.228H120.956ZM120.956 348.38C121.448 348.38 121.875 348.438 122.235 348.553C122.598 348.669 122.897 348.831 123.131 349.041C123.369 349.247 123.545 349.497 123.661 349.79C123.776 350.08 123.833 350.402 123.833 350.755C123.833 351.115 123.772 351.445 123.65 351.746C123.528 352.043 123.346 352.3 123.105 352.516C122.864 352.729 122.563 352.897 122.203 353.019C121.847 353.138 121.431 353.198 120.956 353.198H119.834V355.929H118.607V348.38H120.956ZM130.306 349.403H127.952V355.929H126.731V349.403H124.372V348.38H130.306V349.403ZM134.981 354.063C135.278 354.059 135.549 354.001 135.793 353.89C136.042 353.778 136.253 353.628 136.428 353.439C136.606 353.25 136.742 353.032 136.837 352.784C136.934 352.532 136.983 352.263 136.983 351.976C136.983 351.693 136.934 351.426 136.837 351.174C136.742 350.923 136.606 350.703 136.428 350.514C136.253 350.325 136.042 350.177 135.793 350.068C135.549 349.956 135.278 349.897 134.981 349.89V354.063ZM133.823 349.89C133.522 349.897 133.248 349.956 133 350.068C132.755 350.177 132.545 350.325 132.371 350.514C132.196 350.703 132.059 350.923 131.962 351.174C131.867 351.426 131.82 351.693 131.82 351.976C131.82 352.263 131.867 352.532 131.962 352.784C132.059 353.032 132.196 353.25 132.371 353.439C132.545 353.628 132.755 353.778 133 353.89C133.248 354.001 133.522 354.059 133.823 354.063V349.89ZM134.981 348.936C135.295 348.946 135.594 348.99 135.877 349.067C136.16 349.144 136.421 349.249 136.658 349.382C136.896 349.514 137.109 349.673 137.298 349.859C137.49 350.044 137.653 350.248 137.785 350.472C137.918 350.692 138.02 350.93 138.089 351.185C138.163 351.44 138.2 351.704 138.2 351.976C138.2 352.389 138.121 352.777 137.964 353.14C137.806 353.503 137.586 353.823 137.303 354.099C137.02 354.372 136.681 354.59 136.286 354.755C135.891 354.919 135.456 355.008 134.981 355.022V355.929H133.823V355.022C133.347 355.008 132.91 354.919 132.512 354.755C132.117 354.59 131.776 354.372 131.49 354.099C131.207 353.823 130.987 353.503 130.829 353.14C130.672 352.777 130.594 352.389 130.594 351.976C130.594 351.564 130.672 351.176 130.829 350.813C130.99 350.449 131.214 350.131 131.5 349.859C131.787 349.586 132.128 349.368 132.523 349.203C132.917 349.039 133.351 348.95 133.823 348.936V348.05H134.981V348.936ZM144.274 354.938L144.269 355.929H139.562V348.38H144.269V349.371H140.794V351.646H143.572V352.605H140.794V354.938H144.274ZM151.62 355.929H150.388V349.34H148.124C148.075 350.294 148.007 351.122 147.919 351.824C147.832 352.527 147.727 353.124 147.605 353.617C147.486 354.11 147.35 354.512 147.196 354.823C147.046 355.134 146.878 355.377 146.693 355.551C146.511 355.726 146.315 355.845 146.106 355.908C145.896 355.971 145.674 356.002 145.44 356.002C144.999 356.002 144.779 355.923 144.779 355.766V354.99H145.167C145.297 354.99 145.426 354.968 145.555 354.922C145.688 354.873 145.815 354.772 145.938 354.618C146.06 354.464 146.177 354.243 146.289 353.953C146.401 353.659 146.502 353.268 146.593 352.778C146.684 352.289 146.761 351.686 146.824 350.97C146.89 350.25 146.939 349.387 146.97 348.38H151.62V355.929ZM156.085 354.959C156.361 354.959 156.593 354.929 156.782 354.87C156.974 354.807 157.129 354.721 157.248 354.613C157.367 354.501 157.453 354.372 157.505 354.225C157.561 354.075 157.589 353.912 157.589 353.738C157.589 353.549 157.563 353.379 157.51 353.229C157.458 353.079 157.372 352.953 157.254 352.852C157.135 352.747 156.979 352.666 156.787 352.611C156.598 352.555 156.366 352.527 156.09 352.527H154.748V354.959H156.085ZM156.09 351.557C156.565 351.557 156.972 351.609 157.311 351.714C157.654 351.819 157.935 351.964 158.155 352.149C158.375 352.331 158.536 352.548 158.637 352.799C158.742 353.051 158.795 353.322 158.795 353.612C158.795 353.965 158.733 354.284 158.611 354.571C158.492 354.854 158.318 355.097 158.087 355.3C157.856 355.502 157.572 355.658 157.233 355.766C156.897 355.875 156.514 355.929 156.085 355.929H153.521V348.38H154.748V351.557H156.09ZM162.734 351.012C162.577 350.746 162.469 350.47 162.409 350.184C162.354 349.894 162.348 349.609 162.394 349.329C162.439 349.046 162.534 348.777 162.677 348.522C162.824 348.263 163.018 348.031 163.259 347.825L163.61 348.04C163.673 348.078 163.701 348.127 163.694 348.186C163.687 348.246 163.666 348.295 163.631 348.333C163.55 348.431 163.477 348.555 163.411 348.705C163.344 348.856 163.299 349.022 163.274 349.203C163.253 349.385 163.26 349.576 163.295 349.775C163.33 349.974 163.405 350.17 163.521 350.362C163.577 350.449 163.592 350.528 163.568 350.598C163.547 350.664 163.496 350.711 163.416 350.739L162.734 351.012ZM164.407 351.012C164.249 350.746 164.141 350.47 164.082 350.184C164.026 349.894 164.021 349.609 164.066 349.329C164.111 349.046 164.206 348.777 164.349 348.522C164.496 348.263 164.69 348.031 164.931 347.825L165.282 348.04C165.345 348.078 165.373 348.127 165.366 348.186C165.359 348.246 165.338 348.295 165.303 348.333C165.223 348.431 165.149 348.555 165.083 348.705C165.016 348.856 164.971 349.022 164.947 349.203C164.926 349.385 164.933 349.576 164.968 349.775C165.002 349.974 165.078 350.17 165.193 350.362C165.249 350.449 165.265 350.528 165.24 350.598C165.219 350.664 165.168 350.711 165.088 350.739L164.407 351.012ZM169.575 354.959C169.851 354.959 170.083 354.928 170.272 354.865C170.464 354.798 170.62 354.709 170.738 354.597C170.861 354.485 170.948 354.354 171 354.204C171.056 354.05 171.084 353.886 171.084 353.711C171.084 353.355 170.962 353.075 170.717 352.873C170.476 352.666 170.094 352.563 169.569 352.563H168.055V354.959H169.575ZM168.055 349.34V351.698H169.281C169.805 351.698 170.197 351.597 170.455 351.394C170.714 351.192 170.843 350.9 170.843 350.519C170.843 350.103 170.721 349.803 170.476 349.617C170.235 349.432 169.856 349.34 169.339 349.34H168.055ZM169.339 348.38C169.821 348.38 170.233 348.428 170.576 348.522C170.918 348.613 171.2 348.744 171.42 348.915C171.64 349.086 171.801 349.296 171.902 349.544C172.007 349.789 172.059 350.065 172.059 350.372C172.059 350.551 172.031 350.723 171.975 350.891C171.923 351.055 171.839 351.211 171.724 351.358C171.612 351.501 171.471 351.63 171.299 351.746C171.128 351.861 170.925 351.957 170.691 352.034C171.761 352.261 172.295 352.829 172.295 353.738C172.295 354.059 172.234 354.354 172.112 354.623C171.993 354.889 171.818 355.12 171.588 355.315C171.36 355.508 171.079 355.658 170.744 355.766C170.408 355.875 170.025 355.929 169.596 355.929H166.828V348.38H169.339ZM176.345 354.959C176.621 354.959 176.854 354.929 177.043 354.87C177.235 354.807 177.39 354.721 177.509 354.613C177.628 354.501 177.713 354.372 177.766 354.225C177.822 354.075 177.85 353.912 177.85 353.738C177.85 353.549 177.824 353.379 177.771 353.229C177.719 353.079 177.633 352.953 177.514 352.852C177.395 352.747 177.24 352.666 177.048 352.611C176.859 352.555 176.627 352.527 176.351 352.527H175.009V354.959H176.345ZM176.351 351.557C176.826 351.557 177.233 351.609 177.572 351.714C177.914 351.819 178.196 351.964 178.416 352.149C178.636 352.331 178.797 352.548 178.898 352.799C179.003 353.051 179.055 353.322 179.055 353.612C179.055 353.965 178.994 354.284 178.872 354.571C178.753 354.854 178.578 355.097 178.348 355.3C178.117 355.502 177.832 355.658 177.493 355.766C177.158 355.875 176.775 355.929 176.345 355.929H173.782V348.38H175.009V351.557H176.351ZM181.524 355.929H180.293V348.38H181.524V355.929ZM188.66 354.246C188.727 354.246 188.785 354.272 188.833 354.325L189.321 354.854C189.013 355.225 188.636 355.511 188.189 355.714C187.741 355.913 187.207 356.013 186.585 356.013C186.033 356.013 185.533 355.918 185.085 355.73C184.642 355.537 184.263 355.272 183.948 354.933C183.633 354.59 183.391 354.183 183.219 353.711C183.052 353.24 182.968 352.721 182.968 352.155C182.968 351.588 183.057 351.069 183.235 350.598C183.417 350.122 183.67 349.715 183.995 349.376C184.324 349.034 184.715 348.768 185.169 348.58C185.627 348.391 186.13 348.296 186.679 348.296C187.224 348.296 187.705 348.386 188.121 348.564C188.54 348.739 188.903 348.973 189.211 349.266L188.807 349.838C188.779 349.876 188.746 349.909 188.708 349.937C188.669 349.965 188.617 349.979 188.55 349.979C188.481 349.979 188.4 349.948 188.309 349.885C188.222 349.818 188.108 349.747 187.969 349.67C187.832 349.589 187.659 349.518 187.45 349.455C187.243 349.389 186.985 349.355 186.674 349.355C186.314 349.355 185.984 349.418 185.683 349.544C185.383 349.67 185.124 349.853 184.907 350.094C184.691 350.336 184.521 350.629 184.399 350.975C184.28 351.321 184.221 351.714 184.221 352.155C184.221 352.598 184.283 352.995 184.409 353.344C184.535 353.69 184.708 353.984 184.928 354.225C185.148 354.463 185.407 354.644 185.704 354.77C186.001 354.896 186.321 354.959 186.663 354.959C186.873 354.959 187.06 354.948 187.224 354.928C187.392 354.903 187.546 354.866 187.685 354.817C187.825 354.765 187.956 354.7 188.079 354.623C188.204 354.547 188.328 354.452 188.451 354.34C188.521 354.278 188.591 354.246 188.66 354.246ZM197.424 352.155C197.424 352.714 197.333 353.229 197.151 353.701C196.97 354.173 196.713 354.58 196.381 354.922C196.052 355.261 195.656 355.527 195.191 355.719C194.73 355.911 194.216 356.007 193.65 356.007C193.087 356.007 192.574 355.911 192.109 355.719C191.647 355.527 191.251 355.261 190.919 354.922C190.587 354.58 190.33 354.173 190.148 353.701C189.967 353.229 189.876 352.714 189.876 352.155C189.876 351.595 189.967 351.08 190.148 350.608C190.33 350.136 190.587 349.729 190.919 349.387C191.251 349.044 191.647 348.777 192.109 348.585C192.574 348.393 193.087 348.296 193.65 348.296C194.216 348.296 194.73 348.393 195.191 348.585C195.656 348.777 196.052 349.044 196.381 349.387C196.713 349.729 196.97 350.136 197.151 350.608C197.333 351.08 197.424 351.595 197.424 352.155ZM196.171 352.155C196.171 351.721 196.112 351.332 195.993 350.986C195.878 350.64 195.71 350.346 195.49 350.105C195.273 349.864 195.009 349.679 194.698 349.549C194.387 349.42 194.038 349.355 193.65 349.355C193.265 349.355 192.918 349.42 192.607 349.549C192.296 349.679 192.03 349.864 191.81 350.105C191.59 350.346 191.42 350.64 191.301 350.986C191.183 351.332 191.123 351.721 191.123 352.155C191.123 352.591 191.183 352.983 191.301 353.329C191.42 353.675 191.59 353.968 191.81 354.209C192.03 354.447 192.296 354.63 192.607 354.76C192.918 354.886 193.265 354.948 193.65 354.948C194.038 354.948 194.387 354.886 194.698 354.76C195.009 354.63 195.273 354.447 195.49 354.209C195.71 353.968 195.878 353.675 195.993 353.329C196.112 352.983 196.171 352.591 196.171 352.155ZM205.1 355.929H203.994C203.875 355.929 203.776 355.897 203.695 355.834C203.615 355.771 203.54 355.679 203.47 355.557L201.682 352.92C201.637 352.85 201.592 352.792 201.546 352.747C201.501 352.698 201.45 352.66 201.394 352.632C201.338 352.6 201.275 352.579 201.205 352.569C201.136 352.555 201.057 352.548 200.97 352.548H200.099V355.929H198.873V348.38H200.099V351.609H200.838C200.992 351.609 201.122 351.585 201.226 351.536C201.331 351.487 201.434 351.393 201.536 351.253L203.344 348.716C203.404 348.618 203.475 348.538 203.559 348.475C203.646 348.412 203.749 348.38 203.868 348.38H204.906L202.747 351.442C202.659 351.571 202.56 351.678 202.448 351.761C202.336 351.845 202.212 351.912 202.076 351.961C202.271 352.013 202.437 352.099 202.574 352.217C202.713 352.336 202.844 352.501 202.967 352.71L205.1 355.929ZM212.393 348.38V355.929H211.166V350.917C211.166 350.75 211.17 350.575 211.177 350.393C211.187 350.212 211.206 350.016 211.234 349.806C211.168 349.988 211.096 350.157 211.019 350.315C210.946 350.468 210.872 350.605 210.799 350.723L207.602 355.546C207.574 355.591 207.54 355.637 207.502 355.682C207.467 355.728 207.425 355.77 207.376 355.808C207.331 355.843 207.282 355.873 207.229 355.897C207.177 355.918 207.121 355.929 207.062 355.929H206.144V348.38H207.376V353.386C207.376 353.554 207.371 353.731 207.36 353.916C207.353 354.098 207.336 354.29 207.308 354.492C207.374 354.314 207.444 354.148 207.518 353.994C207.595 353.837 207.668 353.701 207.738 353.586L210.935 348.763C210.963 348.718 210.995 348.672 211.03 348.627C211.068 348.581 211.11 348.541 211.156 348.506C211.204 348.468 211.255 348.438 211.308 348.417C211.36 348.393 211.416 348.38 211.475 348.38H212.393ZM219.009 354.938L219.003 355.929H214.296V348.38H219.003V349.371H215.528V351.646H218.306V352.605H215.528V354.938H219.009ZM228.352 349.403H225.998V355.929H224.777V349.403H222.418V348.38H228.352V349.403ZM234.22 354.938L234.214 355.929H229.507V348.38H234.214V349.371H230.739V351.646H233.517V352.605H230.739V354.938H234.22ZM241.613 355.929H240.391C240.307 355.929 240.239 355.906 240.187 355.861C240.134 355.815 240.092 355.764 240.061 355.709L238.184 352.684C238.17 352.726 238.155 352.766 238.137 352.805C238.123 352.843 238.106 352.88 238.085 352.915L236.271 355.709C236.233 355.764 236.189 355.815 236.14 355.861C236.095 355.906 236.033 355.929 235.957 355.929H234.814L237.361 352.05L234.919 348.38H236.135C236.222 348.38 236.285 348.394 236.323 348.422C236.365 348.447 236.402 348.485 236.434 348.538L238.268 351.421C238.286 351.379 238.303 351.337 238.321 351.295C238.338 351.253 238.361 351.209 238.389 351.164L240.098 348.559C240.133 348.499 240.171 348.455 240.213 348.428C240.255 348.396 240.306 348.38 240.365 348.38H241.534L239.07 351.997L241.613 355.929ZM248.927 348.38V355.929H247.7V352.569H243.91V355.929H242.678V348.38H243.91V351.683H247.7V348.38H248.927ZM257.923 352.155C257.923 352.714 257.832 353.229 257.65 353.701C257.468 354.173 257.211 354.58 256.879 354.922C256.551 355.261 256.154 355.527 255.69 355.719C255.228 355.911 254.715 356.007 254.148 356.007C253.586 356.007 253.072 355.911 252.607 355.719C252.146 355.527 251.749 355.261 251.417 354.922C251.085 354.58 250.829 354.173 250.647 353.701C250.465 353.229 250.374 352.714 250.374 352.155C250.374 351.595 250.465 351.08 250.647 350.608C250.829 350.136 251.085 349.729 251.417 349.387C251.749 349.044 252.146 348.777 252.607 348.585C253.072 348.393 253.586 348.296 254.148 348.296C254.715 348.296 255.228 348.393 255.69 348.585C256.154 348.777 256.551 349.044 256.879 349.387C257.211 349.729 257.468 350.136 257.65 350.608C257.832 351.08 257.923 351.595 257.923 352.155ZM256.67 352.155C256.67 351.721 256.61 351.332 256.492 350.986C256.376 350.64 256.208 350.346 255.988 350.105C255.772 349.864 255.508 349.679 255.197 349.549C254.886 349.42 254.536 349.355 254.148 349.355C253.764 349.355 253.416 349.42 253.105 349.549C252.794 349.679 252.529 349.864 252.309 350.105C252.088 350.346 251.919 350.64 251.8 350.986C251.681 351.332 251.622 351.721 251.622 352.155C251.622 352.591 251.681 352.983 251.8 353.329C251.919 353.675 252.088 353.968 252.309 354.209C252.529 354.447 252.794 354.63 253.105 354.76C253.416 354.886 253.764 354.948 254.148 354.948C254.536 354.948 254.886 354.886 255.197 354.76C255.508 354.63 255.772 354.447 255.988 354.209C256.208 353.968 256.376 353.675 256.492 353.329C256.61 352.983 256.67 352.591 256.67 352.155ZM265.09 355.929H263.858V349.34H261.593C261.544 350.294 261.476 351.122 261.389 351.824C261.302 352.527 261.197 353.124 261.074 353.617C260.956 354.11 260.819 354.512 260.666 354.823C260.515 355.134 260.347 355.377 260.162 355.551C259.981 355.726 259.785 355.845 259.575 355.908C259.366 355.971 259.144 356.002 258.909 356.002C258.469 356.002 258.249 355.923 258.249 355.766V354.99H258.637C258.766 354.99 258.895 354.968 259.025 354.922C259.158 354.873 259.285 354.772 259.407 354.618C259.53 354.464 259.647 354.243 259.759 353.953C259.87 353.659 259.972 353.268 260.063 352.778C260.154 352.289 260.23 351.686 260.293 350.97C260.36 350.25 260.409 349.387 260.44 348.38H265.09V355.929ZM274.083 352.155C274.083 352.714 273.992 353.229 273.811 353.701C273.629 354.173 273.372 354.58 273.04 354.922C272.712 355.261 272.315 355.527 271.85 355.719C271.389 355.911 270.875 356.007 270.309 356.007C269.746 356.007 269.233 355.911 268.768 355.719C268.307 355.527 267.91 355.261 267.578 354.922C267.246 354.58 266.989 354.173 266.807 353.701C266.626 353.229 266.535 352.714 266.535 352.155C266.535 351.595 266.626 351.08 266.807 350.608C266.989 350.136 267.246 349.729 267.578 349.387C267.91 349.044 268.307 348.777 268.768 348.585C269.233 348.393 269.746 348.296 270.309 348.296C270.875 348.296 271.389 348.393 271.85 348.585C272.315 348.777 272.712 349.044 273.04 349.387C273.372 349.729 273.629 350.136 273.811 350.608C273.992 351.08 274.083 351.595 274.083 352.155ZM272.83 352.155C272.83 351.721 272.771 351.332 272.652 350.986C272.537 350.64 272.369 350.346 272.149 350.105C271.932 349.864 271.668 349.679 271.357 349.549C271.046 349.42 270.697 349.355 270.309 349.355C269.925 349.355 269.577 349.42 269.266 349.549C268.955 349.679 268.689 349.864 268.469 350.105C268.249 350.346 268.079 350.64 267.961 350.986C267.842 351.332 267.782 351.721 267.782 352.155C267.782 352.591 267.842 352.983 267.961 353.329C268.079 353.675 268.249 353.968 268.469 354.209C268.689 354.447 268.955 354.63 269.266 354.76C269.577 354.886 269.925 354.948 270.309 354.948C270.697 354.948 271.046 354.886 271.357 354.76C271.668 354.63 271.932 354.447 272.149 354.209C272.369 353.968 272.537 353.675 272.652 353.329C272.771 352.983 272.83 352.591 272.83 352.155ZM280.134 349.34H276.764V355.929H275.532V348.38H280.134V349.34ZM287.537 348.38V355.929H286.31V350.917C286.31 350.75 286.313 350.575 286.32 350.393C286.331 350.212 286.35 350.016 286.378 349.806C286.312 349.988 286.24 350.157 286.163 350.315C286.09 350.468 286.016 350.605 285.943 350.723L282.745 355.546C282.718 355.591 282.684 355.637 282.646 355.682C282.611 355.728 282.569 355.77 282.52 355.808C282.475 355.843 282.426 355.873 282.373 355.897C282.321 355.918 282.265 355.929 282.206 355.929H281.288V348.38H282.52V353.386C282.52 353.554 282.515 353.731 282.504 353.916C282.497 354.098 282.48 354.29 282.452 354.492C282.518 354.314 282.588 354.148 282.662 353.994C282.738 353.837 282.812 353.701 282.882 353.586L286.079 348.763C286.107 348.718 286.139 348.672 286.174 348.627C286.212 348.581 286.254 348.541 286.299 348.506C286.348 348.468 286.399 348.438 286.452 348.417C286.504 348.393 286.56 348.38 286.619 348.38H287.537ZM295.689 348.38V355.929H294.462V350.917C294.462 350.75 294.465 350.575 294.472 350.393C294.483 350.212 294.502 350.016 294.53 349.806C294.464 349.988 294.392 350.157 294.315 350.315C294.242 350.468 294.168 350.605 294.095 350.723L290.897 355.546C290.869 355.591 290.836 355.637 290.798 355.682C290.763 355.728 290.721 355.77 290.672 355.808C290.627 355.843 290.578 355.873 290.525 355.897C290.473 355.918 290.417 355.929 290.358 355.929H289.44V348.38H290.672V353.386C290.672 353.554 290.667 353.731 290.656 353.916C290.649 354.098 290.632 354.29 290.604 354.492C290.67 354.314 290.74 354.148 290.814 353.994C290.89 353.837 290.964 353.701 291.034 353.586L294.231 348.763C294.259 348.718 294.291 348.672 294.326 348.627C294.364 348.581 294.406 348.541 294.451 348.506C294.5 348.468 294.551 348.438 294.603 348.417C294.656 348.393 294.712 348.38 294.771 348.38H295.689ZM298.153 347.877C298.31 348.143 298.417 348.421 298.473 348.711C298.529 348.997 298.534 349.282 298.489 349.565C298.443 349.845 298.347 350.114 298.2 350.372C298.057 350.631 297.865 350.862 297.624 351.064L297.272 350.849C297.213 350.811 297.185 350.762 297.189 350.703C297.196 350.64 297.217 350.591 297.251 350.556C297.332 350.458 297.405 350.334 297.472 350.184C297.538 350.033 297.582 349.869 297.603 349.691C297.627 349.509 297.622 349.319 297.587 349.119C297.556 348.92 297.48 348.723 297.362 348.527C297.306 348.436 297.29 348.358 297.314 348.291C297.339 348.225 297.39 348.178 297.466 348.15L298.153 347.877ZM299.825 347.877C299.983 348.143 300.089 348.421 300.145 348.711C300.201 348.997 300.206 349.282 300.161 349.565C300.115 349.845 300.019 350.114 299.872 350.372C299.729 350.631 299.537 350.862 299.296 351.064L298.945 350.849C298.885 350.811 298.857 350.762 298.861 350.703C298.868 350.64 298.889 350.591 298.924 350.556C299.004 350.458 299.077 350.334 299.144 350.184C299.21 350.033 299.254 349.869 299.275 349.691C299.299 349.509 299.294 349.319 299.259 349.119C299.228 348.92 299.153 348.723 299.034 348.527C298.978 348.436 298.962 348.358 298.987 348.291C299.011 348.225 299.062 348.178 299.139 348.15L299.825 347.877Z" fill="black"/>
<circle cx="322.374" cy="351.19" r="8.19048" fill="#B7B7B7"/>
<path d="M344.262 347.142V354.69H343.035V349.679C343.035 349.511 343.039 349.337 343.046 349.155C343.056 348.973 343.075 348.778 343.103 348.568C343.037 348.75 342.965 348.919 342.889 349.076C342.815 349.23 342.742 349.366 342.668 349.485L339.471 354.308C339.443 354.353 339.41 354.399 339.371 354.444C339.336 354.489 339.294 354.531 339.245 354.57C339.2 354.605 339.151 354.635 339.099 354.659C339.046 354.68 338.99 354.69 338.931 354.69H338.014V347.142H339.245V352.148C339.245 352.316 339.24 352.492 339.23 352.678C339.223 352.859 339.205 353.051 339.177 353.254C339.244 353.076 339.314 352.91 339.387 352.756C339.464 352.599 339.537 352.463 339.607 352.347L342.805 347.525C342.833 347.479 342.864 347.434 342.899 347.388C342.937 347.343 342.979 347.303 343.025 347.268C343.074 347.229 343.124 347.2 343.177 347.179C343.229 347.154 343.285 347.142 343.345 347.142H344.262ZM352.414 347.142V354.69H351.187V351.33H347.397V354.69H346.166V347.142H347.397V350.444H351.187V347.142H352.414ZM359.103 353.731V348.101H356.839C356.797 348.895 356.739 349.595 356.666 350.203C356.593 350.808 356.505 351.337 356.404 351.792C356.306 352.242 356.196 352.627 356.074 352.945C355.955 353.259 355.825 353.521 355.686 353.731H359.103ZM361.536 353.731V356.148C361.536 356.253 361.499 356.338 361.426 356.405C361.356 356.471 361.263 356.504 361.148 356.504H360.414V354.69H354.616V356.148C354.616 356.253 354.58 356.338 354.506 356.405C354.436 356.471 354.344 356.504 354.228 356.504H353.495V353.731H354.291C354.393 353.679 354.494 353.595 354.595 353.48C354.7 353.364 354.8 353.2 354.894 352.987C354.988 352.774 355.078 352.505 355.161 352.18C355.249 351.855 355.327 351.458 355.397 350.99C355.467 350.518 355.527 349.966 355.576 349.333C355.625 348.701 355.661 347.97 355.686 347.142H360.335V353.731H361.536ZM367.499 353.7L367.494 354.69H362.787V347.142H367.494V348.133H364.019V350.408H366.797V351.367H364.019V353.7H367.499ZM375.16 354.69H374.054C373.935 354.69 373.835 354.659 373.755 354.596C373.674 354.533 373.599 354.441 373.529 354.318L371.742 351.682C371.696 351.612 371.651 351.554 371.606 351.509C371.56 351.46 371.509 351.421 371.454 351.393C371.398 351.362 371.335 351.341 371.265 351.33C371.195 351.316 371.116 351.309 371.029 351.309H370.159V354.69H368.932V347.142H370.159V350.371H370.898C371.052 350.371 371.181 350.347 371.286 350.298C371.391 350.249 371.494 350.154 371.595 350.015L373.404 347.478C373.463 347.38 373.535 347.299 373.618 347.236C373.706 347.174 373.809 347.142 373.928 347.142H374.966L372.806 350.203C372.719 350.333 372.619 350.439 372.507 350.523C372.395 350.607 372.271 350.673 372.135 350.722C372.331 350.775 372.497 350.86 372.633 350.979C372.773 351.098 372.904 351.262 373.026 351.472L375.16 354.69ZM381.118 353.008C381.184 353.008 381.242 353.034 381.291 353.086L381.778 353.616C381.471 353.986 381.094 354.273 380.646 354.476C380.199 354.675 379.664 354.774 379.042 354.774C378.49 354.774 377.99 354.68 377.543 354.491C377.099 354.299 376.72 354.033 376.406 353.694C376.091 353.352 375.848 352.945 375.677 352.473C375.509 352.001 375.425 351.482 375.425 350.916C375.425 350.35 375.514 349.831 375.693 349.359C375.874 348.884 376.128 348.477 376.453 348.138C376.781 347.796 377.173 347.53 377.627 347.341C378.085 347.153 378.588 347.058 379.137 347.058C379.682 347.058 380.162 347.147 380.578 347.326C380.997 347.5 381.361 347.734 381.668 348.028L381.265 348.599C381.237 348.638 381.204 348.671 381.165 348.699C381.127 348.727 381.074 348.741 381.008 348.741C380.938 348.741 380.858 348.709 380.767 348.647C380.679 348.58 380.566 348.508 380.426 348.432C380.29 348.351 380.117 348.28 379.907 348.217C379.701 348.15 379.442 348.117 379.131 348.117C378.771 348.117 378.441 348.18 378.141 348.306C377.84 348.432 377.581 348.615 377.365 348.856C377.148 349.097 376.979 349.391 376.856 349.737C376.738 350.083 376.678 350.476 376.678 350.916C376.678 351.36 376.741 351.757 376.867 352.106C376.993 352.452 377.166 352.746 377.386 352.987C377.606 353.224 377.865 353.406 378.162 353.532C378.459 353.658 378.778 353.721 379.121 353.721C379.331 353.721 379.517 353.71 379.682 353.689C379.849 353.665 380.003 353.628 380.143 353.579C380.283 353.527 380.414 353.462 380.536 353.385C380.662 353.308 380.786 353.214 380.908 353.102C380.978 353.039 381.048 353.008 381.118 353.008ZM389.606 348.432C389.567 348.494 389.527 348.542 389.485 348.573C389.443 348.601 389.391 348.615 389.328 348.615C389.261 348.615 389.186 348.587 389.102 348.531C389.022 348.475 388.921 348.414 388.798 348.348C388.679 348.278 388.538 348.215 388.374 348.159C388.209 348.1 388.014 348.07 387.787 348.07C387.577 348.07 387.392 348.096 387.231 348.149C387.074 348.201 386.941 348.274 386.833 348.369C386.724 348.463 386.642 348.575 386.586 348.704C386.534 348.83 386.508 348.968 386.508 349.118C386.508 349.31 386.558 349.471 386.66 349.601C386.761 349.726 386.894 349.835 387.058 349.926C387.226 350.016 387.416 350.097 387.629 350.167C387.843 350.233 388.059 350.305 388.279 350.382C388.503 350.458 388.721 350.546 388.935 350.644C389.148 350.742 389.336 350.866 389.501 351.016C389.668 351.166 389.803 351.35 389.904 351.566C390.006 351.783 390.056 352.047 390.056 352.358C390.056 352.693 389.999 353.008 389.883 353.301C389.768 353.595 389.6 353.852 389.38 354.072C389.163 354.289 388.894 354.46 388.573 354.586C388.255 354.711 387.891 354.774 387.483 354.774C387.241 354.774 387.006 354.75 386.775 354.701C386.548 354.655 386.329 354.591 386.12 354.507C385.913 354.42 385.72 354.315 385.538 354.192C385.356 354.07 385.194 353.934 385.05 353.784L385.407 353.196C385.438 353.148 385.478 353.109 385.527 353.081C385.576 353.053 385.63 353.039 385.69 353.039C385.77 353.039 385.859 353.078 385.957 353.155C386.055 353.228 386.172 353.31 386.308 353.401C386.448 353.488 386.616 353.57 386.812 353.647C387.007 353.721 387.241 353.757 387.514 353.757C387.958 353.757 388.3 353.649 388.541 353.432C388.786 353.216 388.908 352.917 388.908 352.536C388.908 352.323 388.858 352.15 388.756 352.017C388.655 351.881 388.52 351.767 388.353 351.676C388.188 351.585 388 351.509 387.787 351.446C387.573 351.383 387.357 351.316 387.137 351.246C386.916 351.173 386.7 351.089 386.487 350.995C386.273 350.897 386.083 350.771 385.915 350.617C385.751 350.46 385.618 350.268 385.517 350.041C385.416 349.81 385.365 349.524 385.365 349.181C385.365 348.909 385.417 348.645 385.522 348.39C385.63 348.135 385.786 347.909 385.989 347.713C386.195 347.514 386.448 347.355 386.749 347.236C387.049 347.118 387.392 347.058 387.776 347.058C388.209 347.058 388.606 347.126 388.966 347.263C389.329 347.399 389.642 347.593 389.904 347.844L389.606 348.432ZM397.803 353.957L396.88 353.076C397.184 352.604 397.404 352.038 397.541 351.399L396.482 351.053C396.388 351.524 396.251 351.944 396.073 352.29L394.49 350.78C395.549 350.182 395.989 349.637 395.989 348.882C395.989 347.886 395.213 347.268 394.029 347.268C392.739 347.268 391.9 347.97 391.9 348.998C391.9 349.532 392.121 350.015 392.718 350.612C391.523 351.283 391.02 351.923 391.02 352.835C391.02 353.988 392.142 354.795 393.693 354.795C394.658 354.795 395.496 354.481 396.157 353.915L397.079 354.806L397.803 353.957ZM394.029 348.201C394.574 348.201 394.878 348.484 394.878 348.903C394.878 349.302 394.605 349.606 393.756 350.067C393.232 349.543 393.096 349.302 393.096 348.977C393.096 348.526 393.442 348.201 394.029 348.201ZM393.788 353.726C392.886 353.726 392.299 353.307 392.299 352.699C392.299 352.174 392.592 351.786 393.442 351.315L395.381 353.17C394.93 353.537 394.396 353.726 393.788 353.726ZM401.342 350.99C401.614 350.99 401.854 350.955 402.06 350.885C402.269 350.815 402.442 350.717 402.579 350.591C402.719 350.462 402.823 350.306 402.893 350.125C402.963 349.943 402.998 349.74 402.998 349.517C402.998 349.297 402.963 349.099 402.893 348.924C402.827 348.75 402.726 348.601 402.589 348.479C402.453 348.356 402.28 348.264 402.07 348.201C401.864 348.135 401.621 348.101 401.342 348.101H400.22V350.99H401.342ZM401.342 347.142C401.834 347.142 402.261 347.2 402.621 347.315C402.984 347.43 403.283 347.593 403.517 347.803C403.755 348.009 403.931 348.259 404.046 348.552C404.162 348.842 404.219 349.164 404.219 349.517C404.219 349.877 404.158 350.207 404.036 350.507C403.914 350.804 403.732 351.061 403.491 351.278C403.25 351.491 402.949 351.659 402.589 351.781C402.233 351.9 401.817 351.959 401.342 351.959H400.22V354.69H398.993V347.142H401.342ZM409.048 349.931C409.229 349.892 409.402 349.864 409.567 349.847C409.734 349.829 409.895 349.821 410.049 349.821C410.444 349.821 410.791 349.88 411.092 349.999C411.396 350.114 411.649 350.275 411.852 350.481C412.058 350.687 412.212 350.93 412.313 351.21C412.418 351.486 412.471 351.786 412.471 352.111C412.471 352.513 412.401 352.878 412.261 353.207C412.121 353.535 411.927 353.817 411.679 354.051C411.431 354.282 411.137 354.46 410.798 354.586C410.463 354.711 410.099 354.774 409.708 354.774C409.477 354.774 409.257 354.752 409.048 354.706C408.841 354.661 408.647 354.6 408.466 354.523C408.284 354.442 408.116 354.351 407.963 354.25C407.809 354.145 407.671 354.037 407.548 353.925L407.894 353.443C407.968 353.338 408.066 353.286 408.188 353.286C408.265 353.286 408.349 353.314 408.44 353.369C408.53 353.425 408.635 353.487 408.754 353.553C408.876 353.616 409.02 353.675 409.184 353.731C409.348 353.787 409.544 353.815 409.771 353.815C410.019 353.815 410.241 353.775 410.437 353.694C410.632 353.614 410.797 353.502 410.929 353.359C411.066 353.212 411.169 353.037 411.239 352.835C411.309 352.632 411.344 352.41 411.344 352.169C411.344 351.949 411.31 351.751 411.244 351.577C411.181 351.402 411.085 351.253 410.956 351.131C410.83 351.009 410.671 350.916 410.479 350.853C410.286 350.787 410.065 350.754 409.813 350.754C409.628 350.754 409.437 350.769 409.242 350.801C409.049 350.832 408.854 350.881 408.654 350.948L407.952 350.749L408.571 347.142H412.224V347.63C412.224 347.79 412.174 347.921 412.072 348.023C411.971 348.124 411.801 348.175 411.564 348.175H409.352L409.048 349.931ZM419.008 350.916C419.008 351.577 418.936 352.148 418.793 352.63C418.653 353.113 418.459 353.513 418.211 353.831C417.963 354.149 417.671 354.385 417.336 354.538C417 354.692 416.639 354.769 416.251 354.769C415.863 354.769 415.501 354.692 415.166 354.538C414.83 354.385 414.538 354.149 414.29 353.831C414.046 353.513 413.854 353.113 413.714 352.63C413.574 352.148 413.504 351.577 413.504 350.916C413.504 350.256 413.574 349.684 413.714 349.202C413.854 348.716 414.046 348.316 414.29 348.002C414.538 347.684 414.83 347.448 415.166 347.294C415.501 347.137 415.863 347.058 416.251 347.058C416.639 347.058 417 347.137 417.336 347.294C417.671 347.448 417.963 347.684 418.211 348.002C418.459 348.316 418.653 348.716 418.793 349.202C418.936 349.684 419.008 350.256 419.008 350.916ZM417.844 350.916C417.844 350.357 417.799 349.892 417.708 349.522C417.621 349.148 417.504 348.849 417.357 348.626C417.21 348.402 417.041 348.243 416.848 348.149C416.656 348.054 416.457 348.007 416.251 348.007C416.041 348.007 415.84 348.054 415.648 348.149C415.459 348.243 415.292 348.402 415.145 348.626C414.998 348.849 414.881 349.148 414.794 349.522C414.706 349.892 414.663 350.357 414.663 350.916C414.663 351.475 414.706 351.942 414.794 352.316C414.881 352.686 414.998 352.983 415.145 353.207C415.292 353.431 415.459 353.59 415.648 353.684C415.84 353.778 416.041 353.826 416.251 353.826C416.457 353.826 416.656 353.778 416.848 353.684C417.041 353.59 417.21 353.431 417.357 353.207C417.504 352.983 417.621 352.686 417.708 352.316C417.799 351.942 417.844 351.475 417.844 350.916ZM425.194 350.916C425.194 351.577 425.123 352.148 424.979 352.63C424.84 353.113 424.646 353.513 424.398 353.831C424.149 354.149 423.858 354.385 423.522 354.538C423.187 354.692 422.825 354.769 422.437 354.769C422.049 354.769 421.687 354.692 421.352 354.538C421.017 354.385 420.725 354.149 420.477 353.831C420.232 353.513 420.04 353.113 419.9 352.63C419.76 352.148 419.69 351.577 419.69 350.916C419.69 350.256 419.76 349.684 419.9 349.202C420.04 348.716 420.232 348.316 420.477 348.002C420.725 347.684 421.017 347.448 421.352 347.294C421.687 347.137 422.049 347.058 422.437 347.058C422.825 347.058 423.187 347.137 423.522 347.294C423.858 347.448 424.149 347.684 424.398 348.002C424.646 348.316 424.84 348.716 424.979 349.202C425.123 349.684 425.194 350.256 425.194 350.916ZM424.031 350.916C424.031 350.357 423.985 349.892 423.894 349.522C423.807 349.148 423.69 348.849 423.543 348.626C423.396 348.402 423.227 348.243 423.035 348.149C422.842 348.054 422.643 348.007 422.437 348.007C422.227 348.007 422.026 348.054 421.834 348.149C421.646 348.243 421.478 348.402 421.331 348.626C421.184 348.849 421.067 349.148 420.98 349.522C420.892 349.892 420.849 350.357 420.849 350.916C420.849 351.475 420.892 351.942 420.98 352.316C421.067 352.686 421.184 352.983 421.331 353.207C421.478 353.431 421.646 353.59 421.834 353.684C422.026 353.778 422.227 353.826 422.437 353.826C422.643 353.826 422.842 353.778 423.035 353.684C423.227 353.59 423.396 353.431 423.543 353.207C423.69 352.983 423.807 352.686 423.894 352.316C423.985 351.942 424.031 351.475 424.031 350.916Z" fill="black"/>
<path d="M92.2067 308.661C90.6446 308.661 89.7745 309.531 89.7745 310.8C89.7745 311.985 90.5817 312.928 91.9761 312.97L89.5229 316H90.6446L93.0245 313.002H94.0519V316H94.9954V308.661H92.2067ZM92.2487 312.121L92.1438 312.761H92.1333L92.2487 312.121C91.2946 312.121 90.76 311.618 90.76 310.831C90.76 310.066 91.2946 309.521 92.2906 309.521H94.0519V312.121H92.2487ZM100.386 310.737V312.823H97.8487V310.737H96.9471V316H97.8487V313.62H100.386V316H101.287V310.737H100.386ZM107.432 314.48C107.432 313.851 107.065 313.379 106.468 313.169C106.877 312.96 107.086 312.614 107.086 312.142C107.086 311.314 106.426 310.737 105.409 310.737H103.113V316H105.65C106.698 316 107.432 315.392 107.432 314.48ZM105.314 311.534C105.891 311.534 106.164 311.848 106.164 312.215C106.164 312.593 105.891 312.897 105.314 312.897H104.014V311.534H105.314ZM106.51 314.427C106.51 314.878 106.153 315.203 105.556 315.203H104.014V313.652H105.556C106.153 313.652 106.51 313.998 106.51 314.427ZM112.334 315.14L114.211 312.792C114.84 312.027 115.196 311.398 115.196 310.517C115.196 309.227 114.347 308.515 113.162 308.515C112.408 308.515 111.705 308.819 111.296 309.332V310.433H111.433C111.8 309.856 112.408 309.416 113.11 309.416C113.77 309.416 114.232 309.825 114.232 310.59C114.232 311.219 113.938 311.744 113.487 312.299L110.908 315.497V316H115.395V315.14H112.334ZM119.23 308.515C117.72 308.515 116.63 309.888 116.63 312.331C116.63 314.773 117.72 316.147 119.23 316.147C120.74 316.147 121.83 314.773 121.83 312.331C121.83 309.888 120.74 308.515 119.23 308.515ZM119.23 315.245C118.224 315.245 117.595 314.207 117.595 312.331C117.595 310.454 118.224 309.416 119.23 309.416C120.237 309.416 120.866 310.454 120.866 312.331C120.866 314.207 120.237 315.245 119.23 315.245ZM124.348 315.14L126.225 312.792C126.854 312.027 127.21 311.398 127.21 310.517C127.21 309.227 126.361 308.515 125.177 308.515C124.422 308.515 123.719 308.819 123.31 309.332V310.433H123.447C123.814 309.856 124.422 309.416 125.124 309.416C125.785 309.416 126.246 309.825 126.246 310.59C126.246 311.219 125.952 311.744 125.502 312.299L122.923 315.497V316H127.41V315.14H124.348ZM129.859 315.14L131.736 312.792C132.365 312.027 132.721 311.398 132.721 310.517C132.721 309.227 131.872 308.515 130.687 308.515C129.932 308.515 129.23 308.819 128.821 309.332V310.433H128.957C129.324 309.856 129.932 309.416 130.635 309.416C131.295 309.416 131.757 309.825 131.757 310.59C131.757 311.219 131.463 311.744 131.012 312.299L128.433 315.497V316H132.92V315.14H129.859Z" fill="black"/>
<path d="M838.438 308.862C836.876 308.862 836.005 309.732 836.005 311C836.005 312.185 836.813 313.128 838.207 313.17L835.754 316.2H836.876L839.255 313.202H840.283V316.2H841.226V308.862H838.438ZM838.48 312.321L838.375 312.961H838.364L838.48 312.321C837.526 312.321 836.991 311.818 836.991 311.032C836.991 310.266 837.526 309.721 838.522 309.721H840.283V312.321H838.48ZM846.617 310.937V313.024H844.08V310.937H843.178V316.2H844.08V313.82H846.617V316.2H847.518V310.937H846.617ZM853.663 314.68C853.663 314.051 853.296 313.579 852.699 313.37C853.107 313.16 853.317 312.814 853.317 312.342C853.317 311.514 852.657 310.937 851.64 310.937H849.344V316.2H851.881C852.929 316.2 853.663 315.592 853.663 314.68ZM851.545 311.734C852.122 311.734 852.395 312.049 852.395 312.416C852.395 312.793 852.122 313.097 851.545 313.097H850.245V311.734H851.545ZM852.741 314.628C852.741 315.078 852.384 315.403 851.787 315.403H850.245V313.852H851.787C852.384 313.852 852.741 314.198 852.741 314.628ZM858.565 315.341L860.442 312.992C861.071 312.227 861.427 311.598 861.427 310.717C861.427 309.428 860.578 308.715 859.393 308.715C858.639 308.715 857.936 309.019 857.527 309.532V310.633H857.664C858.03 310.057 858.639 309.616 859.341 309.616C860.001 309.616 860.463 310.025 860.463 310.791C860.463 311.42 860.169 311.944 859.718 312.499L857.139 315.697V316.2H861.626V315.341H858.565ZM865.461 308.715C863.951 308.715 862.861 310.088 862.861 312.531C862.861 314.974 863.951 316.347 865.461 316.347C866.971 316.347 868.061 314.974 868.061 312.531C868.061 310.088 866.971 308.715 865.461 308.715ZM865.461 315.445C864.455 315.445 863.826 314.407 863.826 312.531C863.826 310.654 864.455 309.616 865.461 309.616C866.467 309.616 867.096 310.654 867.096 312.531C867.096 314.407 866.467 315.445 865.461 315.445ZM870.579 315.341L872.456 312.992C873.085 312.227 873.441 311.598 873.441 310.717C873.441 309.428 872.592 308.715 871.408 308.715C870.653 308.715 869.95 309.019 869.541 309.532V310.633H869.678C870.045 310.057 870.653 309.616 871.355 309.616C872.016 309.616 872.477 310.025 872.477 310.791C872.477 311.42 872.183 311.944 871.733 312.499L869.154 315.697V316.2H873.641V315.341H870.579ZM878.952 314.219C878.952 313.307 878.512 312.604 877.683 312.258C878.354 311.965 878.679 311.399 878.679 310.675C878.679 309.512 877.809 308.715 876.488 308.715C875.891 308.715 875.366 308.893 874.926 309.249V310.34H875.062C875.419 309.857 875.88 309.616 876.457 309.616C877.285 309.616 877.715 310.088 877.715 310.791C877.715 311.514 877.212 311.912 876.237 311.912H875.838V312.793H876.258C877.348 312.793 877.987 313.296 877.987 314.135C877.987 314.963 877.358 315.445 876.467 315.445C875.702 315.445 875.209 315.099 874.8 314.439H874.643V315.686C875.115 316.127 875.733 316.347 876.499 316.347C877.254 316.347 877.851 316.158 878.291 315.77C878.732 315.382 878.952 314.858 878.952 314.219Z" fill="black"/>
<path d="M276.583 316H277.61L274.559 308.661H273.909L270.859 316H271.865L272.641 314.05H275.818L276.583 316ZM272.966 313.232L274.224 310.035L275.493 313.232H272.966ZM278.83 310.737V316H279.732V311.534H282.206V316H283.108V310.737H278.83ZM290.177 313.369C290.208 311.534 288.908 310.569 287.671 310.59C286.916 310.59 286.193 310.936 285.732 311.597V310.737H284.935V318.034H285.836V315.277C286.298 315.853 286.969 316.147 287.682 316.147C288.94 316.147 290.177 315.224 290.177 313.369ZM289.254 313.369C289.254 314.7 288.394 315.308 287.514 315.308C286.633 315.308 285.773 314.7 285.773 313.369C285.773 312.037 286.633 311.429 287.514 311.429C288.394 311.429 289.254 312.037 289.254 313.369ZM295.037 315.14L296.913 312.792C297.542 312.027 297.899 311.398 297.899 310.517C297.899 309.227 297.049 308.515 295.865 308.515C295.11 308.515 294.408 308.819 293.999 309.332V310.433H294.135C294.502 309.856 295.11 309.416 295.812 309.416C296.473 309.416 296.934 309.825 296.934 310.59C296.934 311.219 296.641 311.744 296.19 312.299L293.611 315.497V316H298.098V315.14H295.037ZM301.932 308.515C300.423 308.515 299.332 309.888 299.332 312.331C299.332 314.773 300.423 316.147 301.932 316.147C303.442 316.147 304.532 314.773 304.532 312.331C304.532 309.888 303.442 308.515 301.932 308.515ZM301.932 315.245C300.926 315.245 300.297 314.207 300.297 312.331C300.297 310.454 300.926 309.416 301.932 309.416C302.939 309.416 303.568 310.454 303.568 312.331C303.568 314.207 302.939 315.245 301.932 315.245ZM307.051 315.14L308.927 312.792C309.556 312.027 309.913 311.398 309.913 310.517C309.913 309.227 309.064 308.515 307.879 308.515C307.124 308.515 306.422 308.819 306.013 309.332V310.433H306.149C306.516 309.856 307.124 309.416 307.827 309.416C308.487 309.416 308.948 309.825 308.948 310.59C308.948 311.219 308.655 311.744 308.204 312.299L305.625 315.497V316H310.112V315.14H307.051ZM312.561 315.14L314.438 312.792C315.067 312.027 315.423 311.398 315.423 310.517C315.423 309.227 314.574 308.515 313.39 308.515C312.635 308.515 311.932 308.819 311.523 309.332V310.433H311.66C312.027 309.856 312.635 309.416 313.337 309.416C313.998 309.416 314.459 309.825 314.459 310.59C314.459 311.219 314.165 311.744 313.715 312.299L311.136 315.497V316H315.623V315.14H312.561Z" fill="black"/>
<path d="M465.5 308.661L461.244 314.365V308.661H460.3V316H461.034L465.29 310.297V316H466.234V308.661H465.5ZM475.406 313.369C475.406 311.639 474.243 310.59 472.764 310.59C471.422 310.59 470.332 311.45 470.143 312.886H469.084V310.737H468.183V316H469.084V313.683H470.122C470.248 315.224 471.38 316.147 472.764 316.147C474.243 316.147 475.406 315.098 475.406 313.369ZM474.484 313.369C474.484 314.627 473.718 315.308 472.754 315.308C471.8 315.308 471.014 314.627 471.014 313.369C471.014 312.111 471.8 311.429 472.754 311.429C473.718 311.429 474.484 312.111 474.484 313.369ZM477.508 310.737L477.477 311.859C477.414 314.312 477.089 315.151 476.386 315.151H476.229V316H476.533C477.623 315.979 478.137 315.36 478.284 312.058L478.305 311.534H480.129V316H481.031V310.737H477.508ZM487.032 314.312C487.032 313.232 486.308 312.635 485.134 312.635H483.761V310.737H482.859V316H485.134C486.298 316 487.032 315.392 487.032 314.312ZM486.109 314.312C486.109 314.868 485.753 315.203 485.05 315.203H483.761V313.421H485.05C485.753 313.421 486.109 313.756 486.109 314.312ZM491.599 315.14L493.476 312.792C494.105 312.027 494.461 311.398 494.461 310.517C494.461 309.227 493.612 308.515 492.427 308.515C491.673 308.515 490.97 308.819 490.561 309.332V310.433H490.698C491.064 309.856 491.673 309.416 492.375 309.416C493.035 309.416 493.497 309.825 493.497 310.59C493.497 311.219 493.203 311.744 492.752 312.299L490.173 315.497V316H494.66V315.14H491.599ZM498.495 308.515C496.985 308.515 495.895 309.888 495.895 312.331C495.895 314.773 496.985 316.147 498.495 316.147C500.005 316.147 501.095 314.773 501.095 312.331C501.095 309.888 500.005 308.515 498.495 308.515ZM498.495 315.245C497.489 315.245 496.86 314.207 496.86 312.331C496.86 310.454 497.489 309.416 498.495 309.416C499.501 309.416 500.13 310.454 500.13 312.331C500.13 314.207 499.501 315.245 498.495 315.245ZM503.613 315.14L505.49 312.792C506.119 312.027 506.475 311.398 506.475 310.517C506.475 309.227 505.626 308.515 504.442 308.515C503.687 308.515 502.984 308.819 502.575 309.332V310.433H502.712C503.079 309.856 503.687 309.416 504.389 309.416C505.05 309.416 505.511 309.825 505.511 310.59C505.511 311.219 505.217 311.744 504.767 312.299L502.188 315.497V316H506.675V315.14H503.613ZM509.124 315.14L511 312.792C511.63 312.027 511.986 311.398 511.986 310.517C511.986 309.227 511.137 308.515 509.952 308.515C509.197 308.515 508.495 308.819 508.086 309.332V310.433H508.222C508.589 309.856 509.197 309.416 509.9 309.416C510.56 309.416 511.021 309.825 511.021 310.59C511.021 311.219 510.728 311.744 510.277 312.299L507.698 315.497V316H512.185V315.14H509.124Z" fill="black"/>
<path d="M660.542 308.715C658.372 308.715 656.747 310.235 656.747 312.531C656.747 314.827 658.372 316.347 660.542 316.347C662.712 316.347 664.337 314.827 664.337 312.531C664.337 310.235 662.712 308.715 660.542 308.715ZM660.542 315.445C658.917 315.445 657.732 314.282 657.732 312.531C657.732 310.78 658.917 309.616 660.542 309.616C662.167 309.616 663.352 310.78 663.352 312.531C663.352 314.282 662.167 315.445 660.542 315.445ZM670.383 316.2L667.845 313.317L670.12 310.937H668.957L666.85 313.202V310.937H665.948V316.2H666.85V313.516L669.156 316.2H670.383ZM675.168 310.937H670.912V311.734H672.589V316.2H673.491V311.734H675.168V310.937ZM679.523 315.341L681.4 312.992C682.029 312.227 682.385 311.598 682.385 310.717C682.385 309.428 681.536 308.715 680.351 308.715C679.596 308.715 678.894 309.019 678.485 309.532V310.633H678.621C678.988 310.057 679.596 309.616 680.299 309.616C680.959 309.616 681.42 310.025 681.42 310.791C681.42 311.42 681.127 311.944 680.676 312.499L678.097 315.697V316.2H682.584V315.341H679.523ZM686.419 308.715C684.909 308.715 683.819 310.088 683.819 312.531C683.819 314.974 684.909 316.347 686.419 316.347C687.928 316.347 689.019 314.974 689.019 312.531C689.019 310.088 687.928 308.715 686.419 308.715ZM686.419 315.445C685.412 315.445 684.783 314.407 684.783 312.531C684.783 310.654 685.412 309.616 686.419 309.616C687.425 309.616 688.054 310.654 688.054 312.531C688.054 314.407 687.425 315.445 686.419 315.445ZM691.537 315.341L693.414 312.992C694.043 312.227 694.399 311.598 694.399 310.717C694.399 309.428 693.55 308.715 692.365 308.715C691.61 308.715 690.908 309.019 690.499 309.532V310.633H690.635C691.002 310.057 691.61 309.616 692.313 309.616C692.973 309.616 693.435 310.025 693.435 310.791C693.435 311.42 693.141 311.944 692.69 312.499L690.111 315.697V316.2H694.598V315.341H691.537ZM697.048 315.341L698.924 312.992C699.553 312.227 699.91 311.598 699.91 310.717C699.91 309.428 699.061 308.715 697.876 308.715C697.121 308.715 696.419 309.019 696.01 309.532V310.633H696.146C696.513 310.057 697.121 309.616 697.823 309.616C698.484 309.616 698.945 310.025 698.945 310.791C698.945 311.42 698.652 311.944 698.201 312.499L695.622 315.697V316.2H700.109V315.341H697.048Z" fill="black"/>
<path d="M90.5043 16H88.6243V5.944H83.2723V16H81.3923V4.48H90.5043V16ZM104.22 10.24C104.22 11.0933 104.081 11.88 103.804 12.6C103.527 13.32 103.135 13.9413 102.628 14.464C102.127 14.9813 101.521 15.3867 100.812 15.68C100.108 15.9733 99.324 16.12 98.46 16.12C97.6014 16.12 96.8174 15.9733 96.108 15.68C95.404 15.3867 94.7987 14.9813 94.292 14.464C93.7854 13.9413 93.3934 13.32 93.116 12.6C92.8387 11.88 92.7 11.0933 92.7 10.24C92.7 9.38667 92.8387 8.6 93.116 7.88C93.3934 7.16 93.7854 6.53867 94.292 6.016C94.7987 5.49333 95.404 5.08533 96.108 4.792C96.8174 4.49867 97.6014 4.352 98.46 4.352C99.324 4.352 100.108 4.49867 100.812 4.792C101.521 5.08533 102.127 5.49333 102.628 6.016C103.135 6.53867 103.527 7.16 103.804 7.88C104.081 8.6 104.22 9.38667 104.22 10.24ZM102.308 10.24C102.308 9.57867 102.217 8.984 102.036 8.456C101.86 7.928 101.604 7.48 101.268 7.112C100.937 6.744 100.535 6.46133 100.06 6.264C99.5854 6.06667 99.052 5.968 98.46 5.968C97.8734 5.968 97.3427 6.06667 96.868 6.264C96.3934 6.46133 95.988 6.744 95.652 7.112C95.316 7.48 95.0574 7.928 94.876 8.456C94.6947 8.984 94.604 9.57867 94.604 10.24C94.604 10.9067 94.6947 11.504 94.876 12.032C95.0574 12.56 95.316 13.008 95.652 13.376C95.988 13.7387 96.3934 14.0187 96.868 14.216C97.3427 14.408 97.8734 14.504 98.46 14.504C99.052 14.504 99.5854 14.408 100.06 14.216C100.535 14.0187 100.937 13.7387 101.268 13.376C101.604 13.008 101.86 12.56 102.036 12.032C102.217 11.504 102.308 10.9067 102.308 10.24ZM110.015 10.352C110.431 10.352 110.796 10.2987 111.111 10.192C111.431 10.0853 111.695 9.936 111.903 9.744C112.116 9.54667 112.276 9.30933 112.383 9.032C112.49 8.75467 112.543 8.44533 112.543 8.104C112.543 7.768 112.49 7.46667 112.383 7.2C112.282 6.93333 112.127 6.70667 111.919 6.52C111.711 6.33333 111.447 6.192 111.127 6.096C110.812 5.99467 110.442 5.944 110.015 5.944H108.303V10.352H110.015ZM110.015 4.48C110.767 4.48 111.418 4.568 111.967 4.744C112.522 4.92 112.978 5.168 113.335 5.488C113.698 5.80267 113.967 6.184 114.143 6.632C114.319 7.07467 114.407 7.56533 114.407 8.104C114.407 8.65333 114.314 9.15733 114.127 9.616C113.94 10.0693 113.663 10.4613 113.295 10.792C112.927 11.1173 112.468 11.3733 111.919 11.56C111.375 11.7413 110.74 11.832 110.015 11.832H108.303V16H106.431V4.48H110.015ZM124.285 6.04H120.693V16H118.829V6.04H115.229V4.48H124.285V6.04ZM131.42 13.152C131.873 13.1467 132.287 13.0587 132.66 12.888C133.039 12.7173 133.361 12.488 133.628 12.2C133.9 11.912 134.108 11.5787 134.252 11.2C134.401 10.816 134.476 10.4053 134.476 9.968C134.476 9.536 134.401 9.128 134.252 8.744C134.108 8.36 133.9 8.024 133.628 7.736C133.361 7.448 133.039 7.22133 132.66 7.056C132.287 6.88533 131.873 6.79467 131.42 6.784V13.152ZM129.652 6.784C129.193 6.79467 128.775 6.88533 128.396 7.056C128.023 7.22133 127.703 7.448 127.436 7.736C127.169 8.024 126.961 8.36 126.812 8.744C126.668 9.128 126.596 9.536 126.596 9.968C126.596 10.4053 126.668 10.816 126.812 11.2C126.961 11.5787 127.169 11.912 127.436 12.2C127.703 12.488 128.023 12.7173 128.396 12.888C128.775 13.0587 129.193 13.1467 129.652 13.152V6.784ZM131.42 5.328C131.9 5.344 132.356 5.41067 132.788 5.528C133.22 5.64533 133.617 5.80533 133.98 6.008C134.343 6.21067 134.668 6.45333 134.956 6.736C135.249 7.01867 135.497 7.33067 135.7 7.672C135.903 8.008 136.057 8.37067 136.164 8.76C136.276 9.14933 136.332 9.552 136.332 9.968C136.332 10.5973 136.212 11.1893 135.972 11.744C135.732 12.2987 135.396 12.7867 134.964 13.208C134.532 13.624 134.015 13.9573 133.412 14.208C132.809 14.4587 132.145 14.5947 131.42 14.616V16H129.652V14.616C128.927 14.5947 128.26 14.4587 127.652 14.208C127.049 13.9573 126.529 13.624 126.092 13.208C125.66 12.7867 125.324 12.2987 125.084 11.744C124.844 11.1893 124.724 10.5973 124.724 9.968C124.724 9.33867 124.844 8.74667 125.084 8.192C125.329 7.63733 125.671 7.152 126.108 6.736C126.545 6.32 127.065 5.98667 127.668 5.736C128.271 5.48533 128.932 5.34933 129.652 5.328V3.976H131.42V5.328ZM145.603 14.488L145.595 16H138.411V4.48H145.595V5.992H140.291V9.464H144.531V10.928H140.291V14.488H145.603ZM156.814 16H154.934V5.944H151.478C151.403 7.4 151.299 8.664 151.166 9.736C151.032 10.808 150.872 11.72 150.686 12.472C150.504 13.224 150.296 13.8373 150.062 14.312C149.832 14.7867 149.576 15.1573 149.294 15.424C149.016 15.6907 148.718 15.872 148.398 15.968C148.078 16.064 147.739 16.112 147.382 16.112C146.71 16.112 146.374 15.992 146.374 15.752V14.568H146.966C147.163 14.568 147.36 14.5333 147.558 14.464C147.76 14.3893 147.955 14.2347 148.142 14C148.328 13.7653 148.507 13.4267 148.678 12.984C148.848 12.536 149.003 11.9387 149.142 11.192C149.28 10.4453 149.398 9.52533 149.494 8.432C149.595 7.33333 149.67 6.016 149.718 4.48H156.814V16ZM163.627 14.52C164.049 14.52 164.403 14.4747 164.691 14.384C164.985 14.288 165.222 14.1573 165.403 13.992C165.585 13.8213 165.715 13.624 165.795 13.4C165.881 13.1707 165.923 12.9227 165.923 12.656C165.923 12.368 165.883 12.1093 165.803 11.88C165.723 11.6507 165.593 11.4587 165.411 11.304C165.23 11.144 164.993 11.0213 164.699 10.936C164.411 10.8507 164.057 10.808 163.635 10.808H161.587V14.52H163.627ZM163.635 9.328C164.361 9.328 164.982 9.408 165.499 9.568C166.022 9.728 166.451 9.94933 166.787 10.232C167.123 10.5093 167.369 10.84 167.523 11.224C167.683 11.608 167.763 12.0213 167.763 12.464C167.763 13.0027 167.67 13.4907 167.483 13.928C167.302 14.36 167.035 14.7307 166.683 15.04C166.331 15.3493 165.897 15.5867 165.379 15.752C164.867 15.9173 164.283 16 163.627 16H159.715V4.48H161.587V9.328H163.635ZM173.776 8.496C173.536 8.09067 173.371 7.66933 173.28 7.232C173.195 6.78933 173.187 6.35467 173.256 5.928C173.326 5.496 173.47 5.08533 173.688 4.696C173.912 4.30133 174.208 3.94667 174.576 3.632L175.112 3.96C175.208 4.01867 175.251 4.09333 175.24 4.184C175.23 4.27467 175.198 4.34933 175.144 4.408C175.022 4.55733 174.91 4.74667 174.808 4.976C174.707 5.20533 174.638 5.45867 174.6 5.736C174.568 6.01333 174.579 6.304 174.632 6.608C174.686 6.912 174.8 7.21067 174.976 7.504C175.062 7.63733 175.086 7.75733 175.048 7.864C175.016 7.96533 174.939 8.03733 174.816 8.08L173.776 8.496ZM176.328 8.496C176.088 8.09067 175.923 7.66933 175.832 7.232C175.747 6.78933 175.739 6.35467 175.808 5.928C175.878 5.496 176.022 5.08533 176.24 4.696C176.464 4.30133 176.76 3.94667 177.128 3.632L177.664 3.96C177.76 4.01867 177.803 4.09333 177.792 4.184C177.782 4.27467 177.75 4.34933 177.696 4.408C177.574 4.55733 177.462 4.74667 177.36 4.976C177.259 5.20533 177.19 5.45867 177.152 5.736C177.12 6.01333 177.131 6.304 177.184 6.608C177.238 6.912 177.352 7.21067 177.528 7.504C177.614 7.63733 177.638 7.75733 177.6 7.864C177.568 7.96533 177.491 8.03733 177.368 8.08L176.328 8.496ZM184.216 14.52C184.637 14.52 184.992 14.472 185.28 14.376C185.573 14.2747 185.81 14.1387 185.992 13.968C186.178 13.7973 186.312 13.5973 186.392 13.368C186.477 13.1333 186.52 12.8827 186.52 12.616C186.52 12.072 186.333 11.6453 185.96 11.336C185.592 11.0213 185.008 10.864 184.208 10.864H181.896V14.52H184.216ZM181.896 5.944V9.544H183.768C184.568 9.544 185.165 9.38933 185.56 9.08C185.954 8.77067 186.152 8.32533 186.152 7.744C186.152 7.10933 185.965 6.65067 185.592 6.368C185.224 6.08533 184.645 5.944 183.856 5.944H181.896ZM183.856 4.48C184.592 4.48 185.221 4.552 185.744 4.696C186.266 4.83467 186.696 5.03467 187.032 5.296C187.368 5.55733 187.613 5.87733 187.768 6.256C187.928 6.62933 188.008 7.05067 188.008 7.52C188.008 7.792 187.965 8.056 187.88 8.312C187.8 8.56267 187.672 8.8 187.496 9.024C187.325 9.24267 187.109 9.44 186.848 9.616C186.586 9.792 186.277 9.93867 185.92 10.056C187.552 10.4027 188.368 11.2693 188.368 12.656C188.368 13.1467 188.274 13.5973 188.088 14.008C187.906 14.4133 187.64 14.7653 187.288 15.064C186.941 15.3573 186.512 15.5867 186 15.752C185.488 15.9173 184.904 16 184.248 16H180.024V4.48H183.856ZM194.549 14.52C194.97 14.52 195.325 14.4747 195.613 14.384C195.906 14.288 196.143 14.1573 196.325 13.992C196.506 13.8213 196.637 13.624 196.717 13.4C196.802 13.1707 196.845 12.9227 196.845 12.656C196.845 12.368 196.805 12.1093 196.725 11.88C196.645 11.6507 196.514 11.4587 196.333 11.304C196.151 11.144 195.914 11.0213 195.621 10.936C195.333 10.8507 194.978 10.808 194.557 10.808H192.509V14.52H194.549ZM194.557 9.328C195.282 9.328 195.903 9.408 196.421 9.568C196.943 9.728 197.373 9.94933 197.709 10.232C198.045 10.5093 198.29 10.84 198.445 11.224C198.605 11.608 198.685 12.0213 198.685 12.464C198.685 13.0027 198.591 13.4907 198.405 13.928C198.223 14.36 197.957 14.7307 197.605 15.04C197.253 15.3493 196.818 15.5867 196.301 15.752C195.789 15.9173 195.205 16 194.549 16H190.637V4.48H192.509V9.328H194.557ZM202.453 16H200.573V4.48H202.453V16ZM213.344 13.432C213.445 13.432 213.533 13.472 213.608 13.552L214.352 14.36C213.882 14.9253 213.306 15.3627 212.624 15.672C211.941 15.976 211.125 16.128 210.176 16.128C209.333 16.128 208.57 15.984 207.888 15.696C207.21 15.4027 206.632 14.9973 206.152 14.48C205.672 13.9573 205.301 13.336 205.04 12.616C204.784 11.896 204.656 11.104 204.656 10.24C204.656 9.376 204.792 8.584 205.064 7.864C205.341 7.13867 205.728 6.51733 206.224 6C206.725 5.47733 207.322 5.072 208.016 4.784C208.714 4.496 209.482 4.352 210.32 4.352C211.152 4.352 211.885 4.488 212.52 4.76C213.16 5.02667 213.714 5.384 214.184 5.832L213.568 6.704C213.525 6.76267 213.474 6.81333 213.416 6.856C213.357 6.89867 213.277 6.92 213.176 6.92C213.069 6.92 212.946 6.872 212.808 6.776C212.674 6.67467 212.501 6.56533 212.288 6.448C212.08 6.32533 211.816 6.216 211.496 6.12C211.181 6.01867 210.786 5.968 210.312 5.968C209.762 5.968 209.258 6.064 208.8 6.256C208.341 6.448 207.946 6.728 207.616 7.096C207.285 7.464 207.026 7.912 206.84 8.44C206.658 8.968 206.568 9.568 206.568 10.24C206.568 10.9173 206.664 11.5227 206.856 12.056C207.048 12.584 207.312 13.032 207.648 13.4C207.984 13.7627 208.378 14.04 208.832 14.232C209.285 14.424 209.773 14.52 210.296 14.52C210.616 14.52 210.901 14.504 211.152 14.472C211.408 14.4347 211.642 14.3787 211.856 14.304C212.069 14.224 212.269 14.1253 212.456 14.008C212.648 13.8907 212.837 13.7467 213.024 13.576C213.13 13.48 213.237 13.432 213.344 13.432ZM226.718 10.24C226.718 11.0933 226.58 11.88 226.302 12.6C226.025 13.32 225.633 13.9413 225.126 14.464C224.625 14.9813 224.02 15.3867 223.31 15.68C222.606 15.9733 221.822 16.12 220.958 16.12C220.1 16.12 219.316 15.9733 218.606 15.68C217.902 15.3867 217.297 14.9813 216.79 14.464C216.284 13.9413 215.892 13.32 215.614 12.6C215.337 11.88 215.198 11.0933 215.198 10.24C215.198 9.38667 215.337 8.6 215.614 7.88C215.892 7.16 216.284 6.53867 216.79 6.016C217.297 5.49333 217.902 5.08533 218.606 4.792C219.316 4.49867 220.1 4.352 220.958 4.352C221.822 4.352 222.606 4.49867 223.31 4.792C224.02 5.08533 224.625 5.49333 225.126 6.016C225.633 6.53867 226.025 7.16 226.302 7.88C226.58 8.6 226.718 9.38667 226.718 10.24ZM224.806 10.24C224.806 9.57867 224.716 8.984 224.534 8.456C224.358 7.928 224.102 7.48 223.766 7.112C223.436 6.744 223.033 6.46133 222.558 6.264C222.084 6.06667 221.55 5.968 220.958 5.968C220.372 5.968 219.841 6.06667 219.366 6.264C218.892 6.46133 218.486 6.744 218.15 7.112C217.814 7.48 217.556 7.928 217.374 8.456C217.193 8.984 217.102 9.57867 217.102 10.24C217.102 10.9067 217.193 11.504 217.374 12.032C217.556 12.56 217.814 13.008 218.15 13.376C218.486 13.7387 218.892 14.0187 219.366 14.216C219.841 14.408 220.372 14.504 220.958 14.504C221.55 14.504 222.084 14.408 222.558 14.216C223.033 14.0187 223.436 13.7387 223.766 13.376C224.102 13.008 224.358 12.56 224.534 12.032C224.716 11.504 224.806 10.9067 224.806 10.24ZM238.433 16H236.745C236.564 16 236.412 15.952 236.289 15.856C236.167 15.76 236.052 15.6187 235.945 15.432L233.217 11.408C233.148 11.3013 233.079 11.2133 233.009 11.144C232.94 11.0693 232.863 11.0107 232.777 10.968C232.692 10.92 232.596 10.888 232.489 10.872C232.383 10.8507 232.263 10.84 232.129 10.84H230.801V16H228.929V4.48H230.801V9.408H231.929C232.164 9.408 232.361 9.37067 232.521 9.296C232.681 9.22133 232.839 9.07733 232.993 8.864L235.753 4.992C235.844 4.84267 235.953 4.72 236.081 4.624C236.215 4.528 236.372 4.48 236.553 4.48H238.137L234.841 9.152C234.708 9.34933 234.556 9.512 234.385 9.64C234.215 9.768 234.025 9.86933 233.817 9.944C234.116 10.024 234.369 10.1547 234.577 10.336C234.791 10.5173 234.991 10.768 235.177 11.088L238.433 16ZM249.563 4.48V16H247.691V8.352C247.691 8.096 247.696 7.82933 247.707 7.552C247.723 7.27467 247.752 6.976 247.795 6.656C247.693 6.93333 247.584 7.192 247.467 7.432C247.355 7.66667 247.243 7.87467 247.131 8.056L242.251 15.416C242.208 15.4853 242.157 15.5547 242.099 15.624C242.045 15.6933 241.981 15.7573 241.907 15.816C241.837 15.8693 241.763 15.9147 241.683 15.952C241.603 15.984 241.517 16 241.427 16H240.027V4.48H241.907V12.12C241.907 12.376 241.899 12.6453 241.883 12.928C241.872 13.2053 241.845 13.4987 241.803 13.808C241.904 13.536 242.011 13.2827 242.123 13.048C242.24 12.808 242.352 12.6 242.459 12.424L247.339 5.064C247.381 4.99467 247.429 4.92533 247.483 4.856C247.541 4.78667 247.605 4.72533 247.675 4.672C247.749 4.61333 247.827 4.568 247.907 4.536C247.987 4.49867 248.072 4.48 248.163 4.48H249.563ZM259.66 14.488L259.652 16H252.468V4.48H259.652V5.992H254.348V9.464H258.588V10.928H254.348V14.488H259.66ZM273.919 6.04H270.327V16H268.463V6.04H264.863V4.48H273.919V6.04ZM282.874 14.488L282.866 16H275.682V4.48H282.866V5.992H277.562V9.464H281.802V10.928H277.562V14.488H282.874ZM294.157 16H292.293C292.165 16 292.061 15.9653 291.981 15.896C291.901 15.8267 291.837 15.7493 291.789 15.664L288.925 11.048C288.904 11.112 288.88 11.1733 288.853 11.232C288.832 11.2907 288.805 11.3467 288.773 11.4L286.005 15.664C285.946 15.7493 285.88 15.8267 285.805 15.896C285.736 15.9653 285.642 16 285.525 16H283.781L287.669 10.08L283.941 4.48H285.797C285.93 4.48 286.026 4.50133 286.085 4.544C286.149 4.58133 286.205 4.64 286.253 4.72L289.053 9.12C289.08 9.056 289.106 8.992 289.133 8.928C289.16 8.864 289.194 8.79733 289.237 8.728L291.845 4.752C291.898 4.66133 291.957 4.59467 292.021 4.552C292.085 4.504 292.162 4.48 292.253 4.48H294.037L290.277 10L294.157 16ZM305.32 4.48V16H303.448V10.872H297.664V16H295.784V4.48H297.664V9.52H303.448V4.48H305.32ZM319.049 10.24C319.049 11.0933 318.91 11.88 318.633 12.6C318.355 13.32 317.963 13.9413 317.457 14.464C316.955 14.9813 316.35 15.3867 315.641 15.68C314.937 15.9733 314.153 16.12 313.289 16.12C312.43 16.12 311.646 15.9733 310.937 15.68C310.233 15.3867 309.627 14.9813 309.121 14.464C308.614 13.9413 308.222 13.32 307.945 12.6C307.667 11.88 307.529 11.0933 307.529 10.24C307.529 9.38667 307.667 8.6 307.945 7.88C308.222 7.16 308.614 6.53867 309.121 6.016C309.627 5.49333 310.233 5.08533 310.937 4.792C311.646 4.49867 312.43 4.352 313.289 4.352C314.153 4.352 314.937 4.49867 315.641 4.792C316.35 5.08533 316.955 5.49333 317.457 6.016C317.963 6.53867 318.355 7.16 318.633 7.88C318.91 8.6 319.049 9.38667 319.049 10.24ZM317.137 10.24C317.137 9.57867 317.046 8.984 316.865 8.456C316.689 7.928 316.433 7.48 316.097 7.112C315.766 6.744 315.363 6.46133 314.889 6.264C314.414 6.06667 313.881 5.968 313.289 5.968C312.702 5.968 312.171 6.06667 311.697 6.264C311.222 6.46133 310.817 6.744 310.481 7.112C310.145 7.48 309.886 7.928 309.705 8.456C309.523 8.984 309.433 9.57867 309.433 10.24C309.433 10.9067 309.523 11.504 309.705 12.032C309.886 12.56 310.145 13.008 310.481 13.376C310.817 13.7387 311.222 14.0187 311.697 14.216C312.171 14.408 312.702 14.504 313.289 14.504C313.881 14.504 314.414 14.408 314.889 14.216C315.363 14.0187 315.766 13.7387 316.097 13.376C316.433 13.008 316.689 12.56 316.865 12.032C317.046 11.504 317.137 10.9067 317.137 10.24ZM329.987 16H328.107V5.944H324.651C324.576 7.4 324.472 8.664 324.339 9.736C324.206 10.808 324.046 11.72 323.859 12.472C323.678 13.224 323.47 13.8373 323.235 14.312C323.006 14.7867 322.75 15.1573 322.467 15.424C322.19 15.6907 321.891 15.872 321.571 15.968C321.251 16.064 320.912 16.112 320.555 16.112C319.883 16.112 319.547 15.992 319.547 15.752V14.568H320.139C320.336 14.568 320.534 14.5333 320.731 14.464C320.934 14.3893 321.128 14.2347 321.315 14C321.502 13.7653 321.68 13.4267 321.851 12.984C322.022 12.536 322.176 11.9387 322.315 11.192C322.454 10.4453 322.571 9.52533 322.667 8.432C322.768 7.33333 322.843 6.016 322.891 4.48H329.987V16ZM343.713 10.24C343.713 11.0933 343.574 11.88 343.297 12.6C343.019 13.32 342.627 13.9413 342.121 14.464C341.619 14.9813 341.014 15.3867 340.305 15.68C339.601 15.9733 338.817 16.12 337.953 16.12C337.094 16.12 336.31 15.9733 335.601 15.68C334.897 15.3867 334.291 14.9813 333.785 14.464C333.278 13.9413 332.886 13.32 332.609 12.6C332.331 11.88 332.193 11.0933 332.193 10.24C332.193 9.38667 332.331 8.6 332.609 7.88C332.886 7.16 333.278 6.53867 333.785 6.016C334.291 5.49333 334.897 5.08533 335.601 4.792C336.31 4.49867 337.094 4.352 337.953 4.352C338.817 4.352 339.601 4.49867 340.305 4.792C341.014 5.08533 341.619 5.49333 342.121 6.016C342.627 6.53867 343.019 7.16 343.297 7.88C343.574 8.6 343.713 9.38667 343.713 10.24ZM341.801 10.24C341.801 9.57867 341.71 8.984 341.529 8.456C341.353 7.928 341.097 7.48 340.761 7.112C340.43 6.744 340.027 6.46133 339.553 6.264C339.078 6.06667 338.545 5.968 337.953 5.968C337.366 5.968 336.835 6.06667 336.361 6.264C335.886 6.46133 335.481 6.744 335.145 7.112C334.809 7.48 334.55 7.928 334.369 8.456C334.187 8.984 334.097 9.57867 334.097 10.24C334.097 10.9067 334.187 11.504 334.369 12.032C334.55 12.56 334.809 13.008 335.145 13.376C335.481 13.7387 335.886 14.0187 336.361 14.216C336.835 14.408 337.366 14.504 337.953 14.504C338.545 14.504 339.078 14.408 339.553 14.216C340.027 14.0187 340.43 13.7387 340.761 13.376C341.097 13.008 341.353 12.56 341.529 12.032C341.71 11.504 341.801 10.9067 341.801 10.24ZM352.948 5.944H347.804V16H345.924V4.48H352.948V5.944ZM364.245 4.48V16H362.373V8.352C362.373 8.096 362.378 7.82933 362.389 7.552C362.405 7.27467 362.434 6.976 362.477 6.656C362.375 6.93333 362.266 7.192 362.149 7.432C362.037 7.66667 361.925 7.87467 361.813 8.056L356.933 15.416C356.89 15.4853 356.839 15.5547 356.781 15.624C356.727 15.6933 356.663 15.7573 356.589 15.816C356.519 15.8693 356.445 15.9147 356.365 15.952C356.285 15.984 356.199 16 356.109 16H354.709V4.48H356.589V12.12C356.589 12.376 356.581 12.6453 356.565 12.928C356.554 13.2053 356.527 13.4987 356.485 13.808C356.586 13.536 356.693 13.2827 356.805 13.048C356.922 12.808 357.034 12.6 357.141 12.424L362.021 5.064C362.063 4.99467 362.111 4.92533 362.165 4.856C362.223 4.78667 362.287 4.72533 362.357 4.672C362.431 4.61333 362.509 4.568 362.589 4.536C362.669 4.49867 362.754 4.48 362.845 4.48H364.245ZM376.686 4.48V16H374.814V8.352C374.814 8.096 374.819 7.82933 374.83 7.552C374.846 7.27467 374.875 6.976 374.918 6.656C374.816 6.93333 374.707 7.192 374.59 7.432C374.478 7.66667 374.366 7.87467 374.254 8.056L369.374 15.416C369.331 15.4853 369.28 15.5547 369.222 15.624C369.168 15.6933 369.104 15.7573 369.03 15.816C368.96 15.8693 368.886 15.9147 368.806 15.952C368.726 15.984 368.64 16 368.55 16H367.15V4.48H369.03V12.12C369.03 12.376 369.022 12.6453 369.006 12.928C368.995 13.2053 368.968 13.4987 368.926 13.808C369.027 13.536 369.134 13.2827 369.246 13.048C369.363 12.808 369.475 12.6 369.582 12.424L374.462 5.064C374.504 4.99467 374.552 4.92533 374.606 4.856C374.664 4.78667 374.728 4.72533 374.798 4.672C374.872 4.61333 374.95 4.568 375.03 4.536C375.11 4.49867 375.195 4.48 375.286 4.48H376.686ZM380.447 3.712C380.687 4.11733 380.85 4.54133 380.935 4.984C381.02 5.42133 381.028 5.856 380.959 6.288C380.89 6.71467 380.743 7.12533 380.519 7.52C380.3 7.91467 380.007 8.26667 379.639 8.576L379.103 8.248C379.012 8.18933 378.97 8.11467 378.975 8.024C378.986 7.928 379.018 7.85333 379.071 7.8C379.194 7.65067 379.306 7.46133 379.407 7.232C379.508 7.00267 379.575 6.752 379.607 6.48C379.644 6.20267 379.636 5.912 379.583 5.608C379.535 5.304 379.42 5.00267 379.239 4.704C379.154 4.56533 379.13 4.44533 379.167 4.344C379.204 4.24267 379.282 4.17067 379.399 4.128L380.447 3.712ZM382.999 3.712C383.239 4.11733 383.402 4.54133 383.487 4.984C383.572 5.42133 383.58 5.856 383.511 6.288C383.442 6.71467 383.295 7.12533 383.071 7.52C382.852 7.91467 382.559 8.26667 382.191 8.576L381.655 8.248C381.564 8.18933 381.522 8.11467 381.527 8.024C381.538 7.928 381.57 7.85333 381.623 7.8C381.746 7.65067 381.858 7.46133 381.959 7.232C382.06 7.00267 382.127 6.752 382.159 6.48C382.196 6.20267 382.188 5.912 382.135 5.608C382.087 5.304 381.972 5.00267 381.791 4.704C381.706 4.56533 381.682 4.44533 381.719 4.344C381.756 4.24267 381.834 4.17067 381.951 4.128L382.999 3.712Z" fill="black"/>
</svg>
