<svg width="793" height="360" viewBox="0 0 793 360" fill="none" xmlns="http://www.w3.org/2000/svg">
<path d="M36.0381 235.124L45.8849 197.908L54.0001 180.72L57.3416 182.152L60.2058 188.905L64.5021 180.72L71.6625 187.882L75.9588 202L78.823 204.66L83.1193 191.565L86.9382 195.862L93.1439 203.637L99.827 184.608L106.51 173.149L111.284 172.536L114.625 167.625L118.444 173.149L122.263 166.193L134.197 154.53L138.016 158.008L140.88 165.374L147.086 159.85L155.201 170.08L159.02 168.648L162.362 170.08L165.703 178.469L170.477 179.697L172.386 174.991L178.115 180.72H180.024L185.275 172.536L189.094 173.968L192.436 180.72L194.345 192.997L198.641 191.155L202.46 203.637L205.802 202.614L209.143 191.565L213.44 208.957L220.6 203.637L224.419 190.542L227.283 206.297L231.58 209.571L234.444 223.689L237.785 223.075L243.036 230.441H247.333L250.674 220.211L252.584 221.438L256.88 214.072L260.221 231.055L264.04 233.715H267.382L271.201 226.144L275.02 228.804L279.793 223.689L285.999 205.888L292.682 210.594L296.978 203.637L300.32 210.594L304.616 209.571L307.958 205.069L312.732 210.594L315.596 221.438L318.937 233.715L321.801 250.084L325.62 251.107L329.917 246.811L333.258 258.678L337.554 257.655L340.896 248.038L344.715 248.447L348.056 244.56L351.875 232.283L356.172 233.715L359.991 241.9L363.332 242.923L366.674 246.197L370.493 241.491L378.13 239.444L380.517 233.101L385.291 233.715L390.065 241.491L398.657 245.583L402.953 238.012L406.295 241.081L409.159 229.418L412.978 227.168L416.797 222.871L420.139 227.168H425.39L429.208 231.055L432.073 219.801L439.233 208.548L443.529 209.571L446.871 213.049L450.69 206.092L461.669 207.729L464.056 209.571L467.875 199.954H471.694L475.035 191.974L483.151 189.109L486.97 192.997L490.311 191.974L494.13 198.112L497.472 207.729L500.813 209.162L505.109 207.115L507.974 201.182L511.792 217.346L515.134 218.574L522.294 227.168L527.068 226.554L528.978 230.441L532.319 231.874L537.093 225.121L539.002 222.871L548.072 210.798L551.891 230.441L556.187 228.395L562.393 236.171L567.167 234.534L573.372 245.378L578.623 250.084L580.533 256.018L584.352 259.906L588.171 260.929L591.99 253.767L598.673 267.886L605.833 245.378L610.129 246.606L614.903 251.107L617.767 261.952L624.45 267.067L628.747 267.886L631.611 259.497L635.907 267.886L639.249 257.655L642.59 253.767L650.228 258.678L652.615 250.084L661.685 237.807L668.845 243.741L671.232 233.92L679.347 238.421L682.212 249.471L686.03 252.949L696.532 241.081L701.306 250.084L704.17 227.372L707.512 224.098L712.285 227.372L716.104 224.098L719.446 227.372L723.265 228.6L726.129 226.144L730.425 227.986L733.767 222.052L738.063 219.188H740.927L745.224 226.554L749.043 227.986L751.907 214.891L759.545 215.505L766.705 228.6L770.047 229.828L774.343 226.144L779.116 229.828V223.485L786.754 220.62L791.528 223.485" stroke="black" stroke-opacity="0.25" stroke-width="1.96571"/>
<path d="M35.7104 234.803L40.9524 228.572L47.5047 222.677L50.4533 219.398L54.0118 215.525L58.3162 212.416L62.9028 211.173L64.8686 204.655L67.3864 201.223L71.2078 212.416H74.5514L78.3728 192.517L86.0154 194.072L92.7027 215.525L97.4794 216.458L100.345 211.794L104.167 215.525L107.988 206.82L110.376 202.778L115.153 206.82L118.497 222.677L125.662 236.046L129.961 234.803L132.827 226.408L137.126 234.803L141.425 232.004L144.768 233.87L147.157 241.021L150.5 232.004L160.054 234.803L162.442 229.828L165.786 236.046L180.593 222.677L184.892 204.021L188.236 199.358L192.535 197.181L199.7 229.828L203.044 222.677L206.387 209.307L210.686 220.5L214.03 219.567L218.806 212.105L221.672 202.156L225.494 195.937L231.226 178.837L237.913 183.811L241.257 177.282L243.167 170.442L248.422 173.862L251.765 144.946L255.109 152.719L257.497 162.047L262.752 166.089L265.14 177.282L268.484 173.862L270.394 168.576H276.604L283.769 155.518L288.068 151.787L289.979 130.644L294.278 138.728L298.577 141.526L301.92 138.728L305.264 124.736L309.085 115.72L313.384 116.963L316.25 113.232L323.415 115.72L326.759 127.535H331.058L333.446 142.148L337.268 138.728L349.209 136.24L352.553 144.946L357.33 142.148L361.151 141.526L366.883 157.694L369.227 148.677L372.093 138.728H375.914L381.168 133.442L383.557 140.593L387.856 144.014L390.244 162.047L394.543 156.45L397.887 167.954L405.529 164.534L412.694 149.921H416.038L418.904 159.56L426.547 162.047L430.368 170.131L436.1 163.602H438.488L443.265 148.677H447.086L448.997 167.022L451.863 172.307L455.684 172.929H459.937H464.236L467.626 168.887L469.151 175.417H473.41L474.791 159.56L479.09 164.534L482.434 160.492L485.777 171.686H489.121L492.465 167.954L497.241 141.215L500.107 152.097H503.451L506.794 166.4L510.138 164.534L513.959 154.896L518.736 155.829L522.08 136.862V130.955L526.856 119.762L530.678 113.232L532.588 119.762L539.798 149.299L541.231 139.35L546.485 149.299L555.083 141.837L558.427 143.392L562.726 153.341L568.458 149.299L570.369 159.56H574.668L579.922 155.829L582.788 129.4L586.132 141.526H589.475L593.774 155.207H597.118L600.461 144.324L606.671 145.879V147.123L610.015 144.324L615.269 118.207L620.046 139.35L627.688 144.324L628.644 121.005L633.42 138.106L639.152 139.35L641.063 119.451L644.407 122.56L648.228 101.106L651.572 91.4678H654.915L659.692 102.972H662.558L666.857 94.577L670.678 102.039L674.5 99.5517L676.41 86.804L681.187 86.1821L685.008 88.3586L690.74 73.7453L695.995 78.72L698.861 79.9637L702.682 69.3924L706.026 64.1067L715.579 79.9637L719.878 91.4678L724.655 83.3838L727.521 86.804L734.686 118.518L738.985 112.61L743.761 102.972H745.672L749.016 114.476V118.518L751.404 114.476L755.225 100.485L756.658 89.6023L764.301 84.9384L767.167 96.1316L770.511 86.804L774.809 83.3838L777.198 98.9299C779.109 103.179 782.93 111.429 782.93 110.434C782.93 109.439 786.114 98.619 787.707 93.3333L790.217 79.9637" stroke="#28CE83" stroke-width="1.96571"/>
<path d="M1.19994 299.657V300.495H4.11444V299.657H1.19994ZM7.02444 295.757C6.95105 296.459 6.31154 296.9 5.46235 296.9V297.78C6.05993 297.78 6.52122 297.633 6.86718 297.329V303.095H7.78976V295.757H7.02444ZM12.2561 295.61C10.7464 295.61 9.65612 296.983 9.65612 299.426C9.65612 301.869 10.7464 303.242 12.2561 303.242C13.7658 303.242 14.8561 301.869 14.8561 299.426C14.8561 296.983 13.7658 295.61 12.2561 295.61ZM12.2561 302.341C11.2497 302.341 10.6206 301.303 10.6206 299.426C10.6206 297.55 11.2497 296.512 12.2561 296.512C13.2626 296.512 13.8916 297.55 13.8916 299.426C13.8916 301.303 13.2626 302.341 12.2561 302.341ZM16.0515 297.466C16.0515 298.577 16.8797 299.321 17.9281 299.321C18.9765 299.321 19.8047 298.577 19.8047 297.466C19.8047 296.354 18.9765 295.61 17.9281 295.61C16.8797 295.61 16.0515 296.354 16.0515 297.466ZM22.0587 295.757L17.7604 303.095H18.5781L22.8765 295.757H22.0587ZM19.0079 297.466C19.0079 298.137 18.5152 298.566 17.9281 298.566C17.341 298.566 16.8483 298.137 16.8483 297.466C16.8483 296.795 17.341 296.365 17.9281 296.365C18.5152 296.365 19.0079 296.795 19.0079 297.466ZM20.8321 301.387C20.8321 302.498 21.6603 303.242 22.7087 303.242C23.7571 303.242 24.5853 302.498 24.5853 301.387C24.5853 300.275 23.7571 299.531 22.7087 299.531C21.6603 299.531 20.8321 300.275 20.8321 301.387ZM23.7885 301.387C23.7885 302.058 23.2958 302.487 22.7087 302.487C22.1216 302.487 21.6289 302.058 21.6289 301.387C21.6289 300.716 22.1216 300.286 22.7087 300.286C23.2958 300.286 23.7885 300.716 23.7885 301.387Z" fill="black"/>
<path d="M21.6455 230.741C20.1358 230.741 19.0455 232.115 19.0455 234.557C19.0455 237 20.1358 238.374 21.6455 238.374C23.1551 238.374 24.2455 237 24.2455 234.557C24.2455 232.115 23.1551 230.741 21.6455 230.741ZM21.6455 237.472C20.639 237.472 20.01 236.434 20.01 234.557C20.01 232.681 20.639 231.643 21.6455 231.643C22.6519 231.643 23.2809 232.681 23.2809 234.557C23.2809 236.434 22.6519 237.472 21.6455 237.472Z" fill="black"/>
<path d="M7.61111 164.709C7.53772 165.411 6.89821 165.852 6.04902 165.852V166.732C6.6466 166.732 7.10789 166.586 7.45385 166.282V172.048H8.37643V164.709H7.61111ZM12.8428 164.562C11.3331 164.562 10.2428 165.936 10.2428 168.378C10.2428 170.821 11.3331 172.194 12.8428 172.194C14.3524 172.194 15.4428 170.821 15.4428 168.378C15.4428 165.936 14.3524 164.562 12.8428 164.562ZM12.8428 171.293C11.8363 171.293 11.2073 170.255 11.2073 168.378C11.2073 166.502 11.8363 165.464 12.8428 165.464C13.8492 165.464 14.4783 166.502 14.4783 168.378C14.4783 170.255 13.8492 171.293 12.8428 171.293ZM16.6382 166.418C16.6382 167.529 17.4664 168.273 18.5148 168.273C19.5631 168.273 20.3914 167.529 20.3914 166.418C20.3914 165.307 19.5631 164.562 18.5148 164.562C17.4664 164.562 16.6382 165.307 16.6382 166.418ZM22.6454 164.709L18.347 172.048H19.1648L23.4631 164.709H22.6454ZM19.5946 166.418C19.5946 167.089 19.1019 167.519 18.5148 167.519C17.9277 167.519 17.4349 167.089 17.4349 166.418C17.4349 165.747 17.9277 165.317 18.5148 165.317C19.1019 165.317 19.5946 165.747 19.5946 166.418ZM21.4188 170.339C21.4188 171.45 22.247 172.194 23.2954 172.194C24.3438 172.194 25.172 171.45 25.172 170.339C25.172 169.227 24.3438 168.483 23.2954 168.483C22.247 168.483 21.4188 169.227 21.4188 170.339ZM24.3752 170.339C24.3752 171.01 23.8825 171.44 23.2954 171.44C22.7083 171.44 22.2156 171.01 22.2156 170.339C22.2156 169.668 22.7083 169.238 23.2954 169.238C23.8825 169.238 24.3752 169.668 24.3752 170.339Z" fill="black"/>
<path d="M5.63634 105.664L7.51294 103.316C8.14197 102.551 8.49842 101.922 8.49842 101.041C8.49842 99.7514 7.64923 99.0385 6.46456 99.0385C5.70972 99.0385 5.00731 99.3425 4.59844 99.8562V100.957H4.73473C5.10166 100.38 5.70972 99.9401 6.41214 99.9401C7.07262 99.9401 7.53391 100.349 7.53391 101.114C7.53391 101.743 7.24036 102.267 6.78956 102.823L4.21054 106.021V106.524H8.69761V105.664H5.63634ZM12.5322 99.0385C11.0226 99.0385 9.93224 100.412 9.93224 102.855C9.93224 105.297 11.0226 106.671 12.5322 106.671C14.0419 106.671 15.1322 105.297 15.1322 102.855C15.1322 100.412 14.0419 99.0385 12.5322 99.0385ZM12.5322 105.769C11.5258 105.769 10.8968 104.731 10.8968 102.855C10.8968 100.978 11.5258 99.9401 12.5322 99.9401C13.5387 99.9401 14.1677 100.978 14.1677 102.855C14.1677 104.731 13.5387 105.769 12.5322 105.769ZM16.3276 100.894C16.3276 102.005 17.1558 102.75 18.2042 102.75C19.2526 102.75 20.0808 102.005 20.0808 100.894C20.0808 99.7828 19.2526 99.0385 18.2042 99.0385C17.1558 99.0385 16.3276 99.7828 16.3276 100.894ZM22.3348 99.1853L18.0365 106.524H18.8542L23.1526 99.1853H22.3348ZM19.2841 100.894C19.2841 101.565 18.7913 101.995 18.2042 101.995C17.6171 101.995 17.1244 101.565 17.1244 100.894C17.1244 100.223 17.6171 99.7933 18.2042 99.7933C18.7913 99.7933 19.2841 100.223 19.2841 100.894ZM21.1082 104.815C21.1082 105.926 21.9365 106.671 22.9848 106.671C24.0332 106.671 24.8614 105.926 24.8614 104.815C24.8614 103.704 24.0332 102.959 22.9848 102.959C21.9365 102.959 21.1082 103.704 21.1082 104.815ZM24.0647 104.815C24.0647 105.486 23.5719 105.916 22.9848 105.916C22.3977 105.916 21.905 105.486 21.905 104.815C21.905 104.144 22.3977 103.714 22.9848 103.714C23.5719 103.714 24.0647 104.144 24.0647 104.815Z" fill="black"/>
<path d="M8.71342 39.0186C8.71342 38.1065 8.2731 37.4041 7.44488 37.0581C8.11584 36.7645 8.44084 36.1984 8.44084 35.475C8.44084 34.3113 7.57068 33.5146 6.24972 33.5146C5.65215 33.5146 5.12796 33.6928 4.68764 34.0492V35.1395H4.82392C5.18037 34.6573 5.64166 34.4162 6.21827 34.4162C7.04649 34.4162 7.47633 34.8879 7.47633 35.5904C7.47633 36.3137 6.97311 36.7121 5.99811 36.7121H5.59973V37.5928H6.01908C7.1094 37.5928 7.74891 38.096 7.74891 38.9347C7.74891 39.7629 7.11988 40.2452 6.22876 40.2452C5.46344 40.2452 4.9707 39.8992 4.56183 39.2387H4.40457V40.4863C4.87634 40.9266 5.49489 41.1468 6.26021 41.1468C7.01504 41.1468 7.61262 40.9581 8.05294 40.5702C8.49326 40.1823 8.71342 39.6581 8.71342 39.0186ZM12.5322 33.5146C11.0226 33.5146 9.93224 34.8879 9.93224 37.3307C9.93224 39.7734 11.0226 41.1468 12.5322 41.1468C14.0419 41.1468 15.1322 39.7734 15.1322 37.3307C15.1322 34.8879 14.0419 33.5146 12.5322 33.5146ZM12.5322 40.2452C11.5258 40.2452 10.8968 39.2073 10.8968 37.3307C10.8968 35.4541 11.5258 34.4162 12.5322 34.4162C13.5387 34.4162 14.1677 35.4541 14.1677 37.3307C14.1677 39.2073 13.5387 40.2452 12.5322 40.2452ZM16.3276 35.3702C16.3276 36.4815 17.1558 37.2258 18.2042 37.2258C19.2526 37.2258 20.0808 36.4815 20.0808 35.3702C20.0808 34.2589 19.2526 33.5146 18.2042 33.5146C17.1558 33.5146 16.3276 34.2589 16.3276 35.3702ZM22.3348 33.6613L18.0365 41H18.8542L23.1526 33.6613H22.3348ZM19.2841 35.3702C19.2841 36.0412 18.7913 36.471 18.2042 36.471C17.6171 36.471 17.1244 36.0412 17.1244 35.3702C17.1244 34.6992 17.6171 34.2694 18.2042 34.2694C18.7913 34.2694 19.2841 34.6992 19.2841 35.3702ZM21.1082 39.2911C21.1082 40.4024 21.9365 41.1468 22.9848 41.1468C24.0332 41.1468 24.8614 40.4024 24.8614 39.2911C24.8614 38.1799 24.0332 37.4355 22.9848 37.4355C21.9365 37.4355 21.1082 38.1799 21.1082 39.2911ZM24.0647 39.2911C24.0647 39.9621 23.5719 40.3919 22.9848 40.3919C22.3977 40.3919 21.905 39.9621 21.905 39.2911C21.905 38.6202 22.3977 38.1903 22.9848 38.1903C23.5719 38.1903 24.0647 38.6202 24.0647 39.2911Z" fill="black"/>
<path d="M35.3828 32L35.4996 300.648" stroke="black" stroke-opacity="0.37" stroke-width="0.655238"/>
<path d="M224.208 32L224.338 300.648" stroke="black" stroke-opacity="0.15" stroke-width="1.31048" stroke-dasharray="3.28 6.55"/>
<path d="M413.046 32L413.211 300.648" stroke="black" stroke-opacity="0.15" stroke-width="1.31048" stroke-dasharray="3.28 6.55"/>
<path d="M601.919 32L602.084 300.648" stroke="black" stroke-opacity="0.15" stroke-width="1.31048" stroke-dasharray="3.28 6.55"/>
<path d="M790.792 32L790.957 300.648" stroke="black" stroke-opacity="0.15" stroke-width="1.31048" stroke-dasharray="3.28 6.55"/>
<path d="M35.6162 300.648H791.528" stroke="black" stroke-opacity="0.37" stroke-width="0.655238"/>
<path d="M35.6162 235.124L791.528 235.124" stroke="black" stroke-opacity="0.2" stroke-width="0.655238" stroke-dasharray="3.28 6.55"/>
<path d="M35.6162 169.6L791.528 169.6" stroke="black" stroke-opacity="0.2" stroke-width="0.655238" stroke-dasharray="3.28 6.55"/>
<path d="M35.6162 104.076L791.528 104.076" stroke="black" stroke-opacity="0.2" stroke-width="0.655238" stroke-dasharray="3.28 6.55"/>
<circle cx="43.5733" cy="351.429" r="8.19048" fill="#1EAC6C"/>
<path d="M65.8067 355.929H64.5749V349.34H61.0681V355.929H59.8362V348.38H65.8067V355.929ZM74.7938 352.155C74.7938 352.714 74.703 353.229 74.5213 353.701C74.3395 354.173 74.0827 354.58 73.7507 354.922C73.4222 355.261 73.0256 355.527 72.5608 355.719C72.0995 355.911 71.5858 356.007 71.0197 356.007C70.457 356.007 69.9433 355.911 69.4785 355.719C69.0173 355.527 68.6206 355.261 68.2886 354.922C67.9566 354.58 67.6998 354.173 67.5181 353.701C67.3363 353.229 67.2455 352.714 67.2455 352.155C67.2455 351.595 67.3363 351.08 67.5181 350.608C67.6998 350.136 67.9566 349.729 68.2886 349.387C68.6206 349.044 69.0173 348.777 69.4785 348.585C69.9433 348.393 70.457 348.296 71.0197 348.296C71.5858 348.296 72.0995 348.393 72.5608 348.585C73.0256 348.777 73.4222 349.044 73.7507 349.387C74.0827 349.729 74.3395 350.136 74.5213 350.608C74.703 351.08 74.7938 351.595 74.7938 352.155ZM73.541 352.155C73.541 351.721 73.4816 351.332 73.3628 350.986C73.2475 350.64 73.0797 350.346 72.8596 350.105C72.6429 349.864 72.3791 349.679 72.068 349.549C71.757 349.42 71.4076 349.355 71.0197 349.355C70.6353 349.355 70.2875 349.42 69.9765 349.549C69.6655 349.679 69.3999 349.864 69.1797 350.105C68.9596 350.346 68.7901 350.64 68.6713 350.986C68.5525 351.332 68.4931 351.721 68.4931 352.155C68.4931 352.591 68.5525 352.983 68.6713 353.329C68.7901 353.675 68.9596 353.968 69.1797 354.209C69.3999 354.447 69.6655 354.63 69.9765 354.76C70.2875 354.886 70.6353 354.948 71.0197 354.948C71.4076 354.948 71.757 354.886 72.068 354.76C72.3791 354.63 72.6429 354.447 72.8596 354.209C73.0797 353.968 73.2475 353.675 73.3628 353.329C73.4816 352.983 73.541 352.591 73.541 352.155ZM78.5909 352.228C78.8635 352.228 79.1029 352.193 79.3091 352.123C79.5188 352.053 79.6917 351.955 79.828 351.83C79.9678 351.7 80.0726 351.545 80.1425 351.363C80.2124 351.181 80.2474 350.979 80.2474 350.755C80.2474 350.535 80.2124 350.337 80.1425 350.163C80.0761 349.988 79.9748 349.839 79.8385 349.717C79.7022 349.595 79.5292 349.502 79.3196 349.439C79.1134 349.373 78.8705 349.34 78.5909 349.34H77.4692V352.228H78.5909ZM78.5909 348.38C79.0837 348.38 79.51 348.438 79.87 348.553C80.2334 348.669 80.5322 348.831 80.7663 349.041C81.004 349.247 81.1804 349.497 81.2958 349.79C81.4111 350.08 81.4687 350.402 81.4687 350.755C81.4687 351.115 81.4076 351.445 81.2853 351.746C81.163 352.043 80.9812 352.3 80.7401 352.516C80.499 352.729 80.1985 352.897 79.8385 353.019C79.4821 353.138 79.0662 353.198 78.5909 353.198H77.4692V355.929H76.2426V348.38H78.5909ZM87.9409 349.403H85.5873V355.929H84.366V349.403H82.0071V348.38H87.9409V349.403ZM92.6162 354.063C92.9133 354.059 93.1841 354.001 93.4287 353.89C93.6768 353.778 93.8883 353.628 94.063 353.439C94.2412 353.25 94.3775 353.032 94.4719 352.784C94.5697 352.532 94.6186 352.263 94.6186 351.976C94.6186 351.693 94.5697 351.426 94.4719 351.174C94.3775 350.923 94.2412 350.703 94.063 350.514C93.8883 350.325 93.6768 350.177 93.4287 350.068C93.1841 349.956 92.9133 349.897 92.6162 349.89V354.063ZM91.4578 349.89C91.1572 349.897 90.8829 349.956 90.6348 350.068C90.3902 350.177 90.1805 350.325 90.0058 350.514C89.831 350.703 89.6947 350.923 89.5969 351.174C89.5025 351.426 89.4554 351.693 89.4554 351.976C89.4554 352.263 89.5025 352.532 89.5969 352.784C89.6947 353.032 89.831 353.25 90.0058 353.439C90.1805 353.628 90.3902 353.778 90.6348 353.89C90.8829 354.001 91.1572 354.059 91.4578 354.063V349.89ZM92.6162 348.936C92.9307 348.946 93.2295 348.99 93.5126 349.067C93.7957 349.144 94.056 349.249 94.2936 349.382C94.5313 349.514 94.7444 349.673 94.9332 349.859C95.1254 350.044 95.2879 350.248 95.4207 350.472C95.5534 350.692 95.6548 350.93 95.7247 351.185C95.7981 351.44 95.8348 351.704 95.8348 351.976C95.8348 352.389 95.7561 352.777 95.5989 353.14C95.4416 353.503 95.2215 353.823 94.9384 354.099C94.6553 354.372 94.3164 354.59 93.9215 354.755C93.5266 354.919 93.0915 355.008 92.6162 355.022V355.929H91.4578V355.022C90.9825 355.008 90.5457 354.919 90.1473 354.755C89.7524 354.59 89.4117 354.372 89.1251 354.099C88.8421 353.823 88.6219 353.503 88.4646 353.14C88.3074 352.777 88.2288 352.389 88.2288 351.976C88.2288 351.564 88.3074 351.176 88.4646 350.813C88.6254 350.449 88.849 350.131 89.1356 349.859C89.4222 349.586 89.7629 349.368 90.1578 349.203C90.5527 349.039 90.986 348.95 91.4578 348.936V348.05H92.6162V348.936ZM101.91 354.938L101.904 355.929H97.1971V348.38H101.904V349.371H98.4289V351.646H101.207V352.605H98.4289V354.938H101.91ZM109.255 355.929H108.023V349.34H105.759C105.71 350.294 105.642 351.122 105.554 351.824C105.467 352.527 105.362 353.124 105.24 353.617C105.121 354.11 104.985 354.512 104.831 354.823C104.681 355.134 104.513 355.377 104.328 355.551C104.146 355.726 103.95 355.845 103.741 355.908C103.531 355.971 103.309 356.002 103.075 356.002C102.635 356.002 102.415 355.923 102.415 355.766V354.99H102.802C102.932 354.99 103.061 354.968 103.19 354.922C103.323 354.873 103.451 354.772 103.573 354.618C103.695 354.464 103.812 354.243 103.924 353.953C104.036 353.659 104.137 353.268 104.228 352.778C104.319 352.289 104.396 351.686 104.459 350.97C104.525 350.25 104.574 349.387 104.606 348.38H109.255V355.929ZM113.72 354.959C113.996 354.959 114.228 354.929 114.417 354.87C114.609 354.807 114.765 354.721 114.884 354.613C115.002 354.501 115.088 354.372 115.14 354.225C115.196 354.075 115.224 353.912 115.224 353.738C115.224 353.549 115.198 353.379 115.146 353.229C115.093 353.079 115.008 352.953 114.889 352.852C114.77 352.747 114.614 352.666 114.422 352.611C114.234 352.555 114.001 352.527 113.725 352.527H112.383V354.959H113.72ZM113.725 351.557C114.2 351.557 114.607 351.609 114.946 351.714C115.289 351.819 115.57 351.964 115.79 352.149C116.011 352.331 116.171 352.548 116.273 352.799C116.377 353.051 116.43 353.322 116.43 353.612C116.43 353.965 116.369 354.284 116.246 354.571C116.128 354.854 115.953 355.097 115.722 355.3C115.492 355.502 115.207 355.658 114.868 355.766C114.532 355.875 114.15 355.929 113.72 355.929H111.157V348.38H112.383V351.557H113.725ZM120.37 351.012C120.212 350.746 120.104 350.47 120.045 350.184C119.989 349.894 119.984 349.609 120.029 349.329C120.074 349.046 120.169 348.777 120.312 348.522C120.459 348.263 120.653 348.031 120.894 347.825L121.245 348.04C121.308 348.078 121.336 348.127 121.329 348.186C121.322 348.246 121.301 348.295 121.266 348.333C121.186 348.431 121.112 348.555 121.046 348.705C120.98 348.856 120.934 349.022 120.91 349.203C120.889 349.385 120.896 349.576 120.931 349.775C120.966 349.974 121.041 350.17 121.156 350.362C121.212 350.449 121.228 350.528 121.203 350.598C121.182 350.664 121.132 350.711 121.051 350.739L120.37 351.012ZM122.042 351.012C121.885 350.746 121.776 350.47 121.717 350.184C121.661 349.894 121.656 349.609 121.701 349.329C121.747 349.046 121.841 348.777 121.984 348.522C122.131 348.263 122.325 348.031 122.566 347.825L122.917 348.04C122.98 348.078 123.008 348.127 123.001 348.186C122.994 348.246 122.973 348.295 122.938 348.333C122.858 348.431 122.785 348.555 122.718 348.705C122.652 348.856 122.606 349.022 122.582 349.203C122.561 349.385 122.568 349.576 122.603 349.775C122.638 349.974 122.713 350.17 122.828 350.362C122.884 350.449 122.9 350.528 122.875 350.598C122.854 350.664 122.804 350.711 122.723 350.739L122.042 351.012ZM127.21 354.959C127.486 354.959 127.718 354.928 127.907 354.865C128.099 354.798 128.255 354.709 128.374 354.597C128.496 354.485 128.583 354.354 128.636 354.204C128.692 354.05 128.72 353.886 128.72 353.711C128.72 353.355 128.597 353.075 128.353 352.873C128.112 352.666 127.729 352.563 127.205 352.563H125.69V354.959H127.21ZM125.69 349.34V351.698H126.916C127.441 351.698 127.832 351.597 128.091 351.394C128.349 351.192 128.478 350.9 128.478 350.519C128.478 350.103 128.356 349.803 128.112 349.617C127.87 349.432 127.491 349.34 126.974 349.34H125.69ZM126.974 348.38C127.456 348.38 127.869 348.428 128.211 348.522C128.554 348.613 128.835 348.744 129.055 348.915C129.275 349.086 129.436 349.296 129.537 349.544C129.642 349.789 129.695 350.065 129.695 350.372C129.695 350.551 129.667 350.723 129.611 350.891C129.558 351.055 129.474 351.211 129.359 351.358C129.247 351.501 129.106 351.63 128.935 351.746C128.763 351.861 128.561 351.957 128.326 352.034C129.396 352.261 129.93 352.829 129.93 353.738C129.93 354.059 129.869 354.354 129.747 354.623C129.628 354.889 129.453 355.12 129.223 355.315C128.996 355.508 128.714 355.658 128.379 355.766C128.043 355.875 127.661 355.929 127.231 355.929H124.463V348.38H126.974ZM133.981 354.959C134.257 354.959 134.489 354.929 134.678 354.87C134.87 354.807 135.025 354.721 135.144 354.613C135.263 354.501 135.349 354.372 135.401 354.225C135.457 354.075 135.485 353.912 135.485 353.738C135.485 353.549 135.459 353.379 135.406 353.229C135.354 353.079 135.268 352.953 135.15 352.852C135.031 352.747 134.875 352.666 134.683 352.611C134.494 352.555 134.262 352.527 133.986 352.527H132.644V354.959H133.981ZM133.986 351.557C134.461 351.557 134.868 351.609 135.207 351.714C135.55 351.819 135.831 351.964 136.051 352.149C136.271 352.331 136.432 352.548 136.533 352.799C136.638 353.051 136.691 353.322 136.691 353.612C136.691 353.965 136.63 354.284 136.507 354.571C136.388 354.854 136.214 355.097 135.983 355.3C135.752 355.502 135.468 355.658 135.129 355.766C134.793 355.875 134.41 355.929 133.981 355.929H131.417V348.38H132.644V351.557H133.986ZM139.16 355.929H137.928V348.38H139.16V355.929ZM146.296 354.246C146.362 354.246 146.42 354.272 146.469 354.325L146.956 354.854C146.649 355.225 146.271 355.511 145.824 355.714C145.377 355.913 144.842 356.013 144.22 356.013C143.668 356.013 143.168 355.918 142.721 355.73C142.277 355.537 141.898 355.272 141.583 354.933C141.269 354.59 141.026 354.183 140.855 353.711C140.687 353.24 140.603 352.721 140.603 352.155C140.603 351.588 140.692 351.069 140.87 350.598C141.052 350.122 141.305 349.715 141.63 349.376C141.959 349.034 142.35 348.768 142.805 348.58C143.262 348.391 143.766 348.296 144.314 348.296C144.859 348.296 145.34 348.386 145.756 348.564C146.175 348.739 146.539 348.973 146.846 349.266L146.443 349.838C146.415 349.876 146.381 349.909 146.343 349.937C146.304 349.965 146.252 349.979 146.186 349.979C146.116 349.979 146.035 349.948 145.945 349.885C145.857 349.818 145.744 349.747 145.604 349.67C145.468 349.589 145.295 349.518 145.085 349.455C144.879 349.389 144.62 349.355 144.309 349.355C143.949 349.355 143.619 349.418 143.318 349.544C143.018 349.67 142.759 349.853 142.543 350.094C142.326 350.336 142.156 350.629 142.034 350.975C141.915 351.321 141.856 351.714 141.856 352.155C141.856 352.598 141.919 352.995 142.045 353.344C142.17 353.69 142.343 353.984 142.563 354.225C142.784 354.463 143.042 354.644 143.339 354.77C143.636 354.896 143.956 354.959 144.299 354.959C144.508 354.959 144.695 354.948 144.859 354.928C145.027 354.903 145.181 354.866 145.321 354.817C145.461 354.765 145.592 354.7 145.714 354.623C145.84 354.547 145.964 354.452 146.086 354.34C146.156 354.278 146.226 354.246 146.296 354.246ZM155.059 352.155C155.059 352.714 154.968 353.229 154.787 353.701C154.605 354.173 154.348 354.58 154.016 354.922C153.688 355.261 153.291 355.527 152.826 355.719C152.365 355.911 151.851 356.007 151.285 356.007C150.722 356.007 150.209 355.911 149.744 355.719C149.283 355.527 148.886 355.261 148.554 354.922C148.222 354.58 147.965 354.173 147.784 353.701C147.602 353.229 147.511 352.714 147.511 352.155C147.511 351.595 147.602 351.08 147.784 350.608C147.965 350.136 148.222 349.729 148.554 349.387C148.886 349.044 149.283 348.777 149.744 348.585C150.209 348.393 150.722 348.296 151.285 348.296C151.851 348.296 152.365 348.393 152.826 348.585C153.291 348.777 153.688 349.044 154.016 349.387C154.348 349.729 154.605 350.136 154.787 350.608C154.968 351.08 155.059 351.595 155.059 352.155ZM153.806 352.155C153.806 351.721 153.747 351.332 153.628 350.986C153.513 350.64 153.345 350.346 153.125 350.105C152.908 349.864 152.645 349.679 152.333 349.549C152.022 349.42 151.673 349.355 151.285 349.355C150.901 349.355 150.553 349.42 150.242 349.549C149.931 349.679 149.665 349.864 149.445 350.105C149.225 350.346 149.056 350.64 148.937 350.986C148.818 351.332 148.759 351.721 148.759 352.155C148.759 352.591 148.818 352.983 148.937 353.329C149.056 353.675 149.225 353.968 149.445 354.209C149.665 354.447 149.931 354.63 150.242 354.76C150.553 354.886 150.901 354.948 151.285 354.948C151.673 354.948 152.022 354.886 152.333 354.76C152.645 354.63 152.908 354.447 153.125 354.209C153.345 353.968 153.513 353.675 153.628 353.329C153.747 352.983 153.806 352.591 153.806 352.155ZM162.735 355.929H161.629C161.511 355.929 161.411 355.897 161.331 355.834C161.25 355.771 161.175 355.679 161.105 355.557L159.318 352.92C159.272 352.85 159.227 352.792 159.181 352.747C159.136 352.698 159.085 352.66 159.029 352.632C158.973 352.6 158.911 352.579 158.841 352.569C158.771 352.555 158.692 352.548 158.605 352.548H157.735V355.929H156.508V348.38H157.735V351.609H158.474C158.627 351.609 158.757 351.585 158.862 351.536C158.966 351.487 159.07 351.393 159.171 351.253L160.979 348.716C161.039 348.618 161.11 348.538 161.194 348.475C161.282 348.412 161.385 348.38 161.504 348.38H162.541L160.382 351.442C160.294 351.571 160.195 351.678 160.083 351.761C159.971 351.845 159.847 351.912 159.711 351.961C159.907 352.013 160.073 352.099 160.209 352.217C160.349 352.336 160.48 352.501 160.602 352.71L162.735 355.929ZM170.028 348.38V355.929H168.801V350.917C168.801 350.75 168.805 350.575 168.812 350.393C168.822 350.212 168.841 350.016 168.869 349.806C168.803 349.988 168.731 350.157 168.655 350.315C168.581 350.468 168.508 350.605 168.434 350.723L165.237 355.546C165.209 355.591 165.176 355.637 165.137 355.682C165.102 355.728 165.06 355.77 165.011 355.808C164.966 355.843 164.917 355.873 164.865 355.897C164.812 355.918 164.756 355.929 164.697 355.929H163.78V348.38H165.011V353.386C165.011 353.554 165.006 353.731 164.996 353.916C164.989 354.098 164.971 354.29 164.943 354.492C165.01 354.314 165.08 354.148 165.153 353.994C165.23 353.837 165.303 353.701 165.373 353.586L168.571 348.763C168.599 348.718 168.63 348.672 168.665 348.627C168.703 348.581 168.745 348.541 168.791 348.506C168.84 348.468 168.89 348.438 168.943 348.417C168.995 348.393 169.051 348.38 169.111 348.38H170.028ZM176.644 354.938L176.639 355.929H171.932V348.38H176.639V349.371H173.163V351.646H175.942V352.605H173.163V354.938H176.644ZM185.987 349.403H183.633V355.929H182.412V349.403H180.053V348.38H185.987V349.403ZM191.855 354.938L191.85 355.929H187.142V348.38H191.85V349.371H188.374V351.646H191.153V352.605H188.374V354.938H191.855ZM199.248 355.929H198.026C197.943 355.929 197.874 355.906 197.822 355.861C197.77 355.815 197.728 355.764 197.696 355.709L195.82 352.684C195.806 352.726 195.79 352.766 195.772 352.805C195.758 352.843 195.741 352.88 195.72 352.915L193.906 355.709C193.868 355.764 193.824 355.815 193.775 355.861C193.73 355.906 193.669 355.929 193.592 355.929H192.449L194.997 352.05L192.554 348.38H193.77C193.857 348.38 193.92 348.394 193.959 348.422C194.001 348.447 194.037 348.485 194.069 348.538L195.903 351.421C195.921 351.379 195.938 351.337 195.956 351.295C195.973 351.253 195.996 351.209 196.024 351.164L197.733 348.559C197.768 348.499 197.806 348.455 197.848 348.428C197.89 348.396 197.941 348.38 198 348.38H199.169L196.705 351.997L199.248 355.929ZM206.562 348.38V355.929H205.335V352.569H201.545V355.929H200.314V348.38H201.545V351.683H205.335V348.38H206.562ZM215.558 352.155C215.558 352.714 215.467 353.229 215.285 353.701C215.104 354.173 214.847 354.58 214.515 354.922C214.186 355.261 213.79 355.527 213.325 355.719C212.864 355.911 212.35 356.007 211.784 356.007C211.221 356.007 210.707 355.911 210.243 355.719C209.781 355.527 209.385 355.261 209.053 354.922C208.721 354.58 208.464 354.173 208.282 353.701C208.1 353.229 208.01 352.714 208.01 352.155C208.01 351.595 208.1 351.08 208.282 350.608C208.464 350.136 208.721 349.729 209.053 349.387C209.385 349.044 209.781 348.777 210.243 348.585C210.707 348.393 211.221 348.296 211.784 348.296C212.35 348.296 212.864 348.393 213.325 348.585C213.79 348.777 214.186 349.044 214.515 349.387C214.847 349.729 215.104 350.136 215.285 350.608C215.467 351.08 215.558 351.595 215.558 352.155ZM214.305 352.155C214.305 351.721 214.246 351.332 214.127 350.986C214.011 350.64 213.844 350.346 213.624 350.105C213.407 349.864 213.143 349.679 212.832 349.549C212.521 349.42 212.172 349.355 211.784 349.355C211.399 349.355 211.052 349.42 210.741 349.549C210.43 349.679 210.164 349.864 209.944 350.105C209.724 350.346 209.554 350.64 209.435 350.986C209.316 351.332 209.257 351.721 209.257 352.155C209.257 352.591 209.316 352.983 209.435 353.329C209.554 353.675 209.724 353.968 209.944 354.209C210.164 354.447 210.43 354.63 210.741 354.76C211.052 354.886 211.399 354.948 211.784 354.948C212.172 354.948 212.521 354.886 212.832 354.76C213.143 354.63 213.407 354.447 213.624 354.209C213.844 353.968 214.011 353.675 214.127 353.329C214.246 352.983 214.305 352.591 214.305 352.155ZM222.725 355.929H221.493V349.34H219.229C219.18 350.294 219.112 351.122 219.024 351.824C218.937 352.527 218.832 353.124 218.71 353.617C218.591 354.11 218.455 354.512 218.301 354.823C218.15 355.134 217.983 355.377 217.798 355.551C217.616 355.726 217.42 355.845 217.21 355.908C217.001 355.971 216.779 356.002 216.545 356.002C216.104 356.002 215.884 355.923 215.884 355.766V354.99H216.272C216.401 354.99 216.531 354.968 216.66 354.922C216.793 354.873 216.92 354.772 217.043 354.618C217.165 354.464 217.282 354.243 217.394 353.953C217.506 353.659 217.607 353.268 217.698 352.778C217.789 352.289 217.866 351.686 217.929 350.97C217.995 350.25 218.044 349.387 218.075 348.38H222.725V355.929ZM231.718 352.155C231.718 352.714 231.628 353.229 231.446 353.701C231.264 354.173 231.007 354.58 230.675 354.922C230.347 355.261 229.95 355.527 229.485 355.719C229.024 355.911 228.51 356.007 227.944 356.007C227.382 356.007 226.868 355.911 226.403 355.719C225.942 355.527 225.545 355.261 225.213 354.922C224.881 354.58 224.624 354.173 224.443 353.701C224.261 353.229 224.17 352.714 224.17 352.155C224.17 351.595 224.261 351.08 224.443 350.608C224.624 350.136 224.881 349.729 225.213 349.387C225.545 349.044 225.942 348.777 226.403 348.585C226.868 348.393 227.382 348.296 227.944 348.296C228.51 348.296 229.024 348.393 229.485 348.585C229.95 348.777 230.347 349.044 230.675 349.387C231.007 349.729 231.264 350.136 231.446 350.608C231.628 351.08 231.718 351.595 231.718 352.155ZM230.466 352.155C230.466 351.721 230.406 351.332 230.287 350.986C230.172 350.64 230.004 350.346 229.784 350.105C229.568 349.864 229.304 349.679 228.993 349.549C228.682 349.42 228.332 349.355 227.944 349.355C227.56 349.355 227.212 349.42 226.901 349.549C226.59 349.679 226.325 349.864 226.104 350.105C225.884 350.346 225.715 350.64 225.596 350.986C225.477 351.332 225.418 351.721 225.418 352.155C225.418 352.591 225.477 352.983 225.596 353.329C225.715 353.675 225.884 353.968 226.104 354.209C226.325 354.447 226.59 354.63 226.901 354.76C227.212 354.886 227.56 354.948 227.944 354.948C228.332 354.948 228.682 354.886 228.993 354.76C229.304 354.63 229.568 354.447 229.784 354.209C230.004 353.968 230.172 353.675 230.287 353.329C230.406 352.983 230.466 352.591 230.466 352.155ZM237.77 349.34H234.399V355.929H233.167V348.38H237.77V349.34ZM245.172 348.38V355.929H243.945V350.917C243.945 350.75 243.949 350.575 243.956 350.393C243.966 350.212 243.985 350.016 244.013 349.806C243.947 349.988 243.875 350.157 243.798 350.315C243.725 350.468 243.652 350.605 243.578 350.723L240.381 355.546C240.353 355.591 240.32 355.637 240.281 355.682C240.246 355.728 240.204 355.77 240.155 355.808C240.11 355.843 240.061 355.873 240.009 355.897C239.956 355.918 239.9 355.929 239.841 355.929H238.923V348.38H240.155V353.386C240.155 353.554 240.15 353.731 240.14 353.916C240.133 354.098 240.115 354.29 240.087 354.492C240.154 354.314 240.223 354.148 240.297 353.994C240.374 353.837 240.447 353.701 240.517 353.586L243.715 348.763C243.743 348.718 243.774 348.672 243.809 348.627C243.847 348.581 243.889 348.541 243.935 348.506C243.984 348.468 244.034 348.438 244.087 348.417C244.139 348.393 244.195 348.38 244.254 348.38H245.172ZM253.324 348.38V355.929H252.097V350.917C252.097 350.75 252.101 350.575 252.108 350.393C252.118 350.212 252.137 350.016 252.165 349.806C252.099 349.988 252.027 350.157 251.95 350.315C251.877 350.468 251.804 350.605 251.73 350.723L248.533 355.546C248.505 355.591 248.472 355.637 248.433 355.682C248.398 355.728 248.356 355.77 248.307 355.808C248.262 355.843 248.213 355.873 248.161 355.897C248.108 355.918 248.052 355.929 247.993 355.929H247.075V348.38H248.307V353.386C248.307 353.554 248.302 353.731 248.292 353.916C248.285 354.098 248.267 354.29 248.239 354.492C248.306 354.314 248.375 354.148 248.449 353.994C248.526 353.837 248.599 353.701 248.669 353.586L251.867 348.763C251.895 348.718 251.926 348.672 251.961 348.627C251.999 348.581 252.041 348.541 252.087 348.506C252.136 348.468 252.186 348.438 252.239 348.417C252.291 348.393 252.347 348.38 252.406 348.38H253.324ZM255.788 347.877C255.946 348.143 256.052 348.421 256.108 348.711C256.164 348.997 256.169 349.282 256.124 349.565C256.078 349.845 255.982 350.114 255.836 350.372C255.692 350.631 255.5 350.862 255.259 351.064L254.908 350.849C254.848 350.811 254.82 350.762 254.824 350.703C254.831 350.64 254.852 350.591 254.887 350.556C254.967 350.458 255.04 350.334 255.107 350.184C255.173 350.033 255.217 349.869 255.238 349.691C255.262 349.509 255.257 349.319 255.222 349.119C255.191 348.92 255.116 348.723 254.997 348.527C254.941 348.436 254.925 348.358 254.95 348.291C254.974 348.225 255.025 348.178 255.102 348.15L255.788 347.877ZM257.461 347.877C257.618 348.143 257.724 348.421 257.78 348.711C257.836 348.997 257.841 349.282 257.796 349.565C257.751 349.845 257.654 350.114 257.508 350.372C257.364 350.631 257.172 350.862 256.931 351.064L256.58 350.849C256.52 350.811 256.492 350.762 256.496 350.703C256.503 350.64 256.524 350.591 256.559 350.556C256.639 350.458 256.713 350.334 256.779 350.184C256.845 350.033 256.889 349.869 256.91 349.691C256.935 349.509 256.929 349.319 256.894 349.119C256.863 348.92 256.788 348.723 256.669 348.527C256.613 348.436 256.597 348.358 256.622 348.291C256.646 348.225 256.697 348.178 256.774 348.15L257.461 347.877Z" fill="black"/>
<circle cx="279.459" cy="351.429" r="8.19048" fill="#B7B7B7"/>
<path d="M301.347 347.38V354.929H300.12V349.917C300.12 349.75 300.124 349.575 300.131 349.393C300.141 349.212 300.16 349.016 300.188 348.806C300.122 348.988 300.05 349.157 299.973 349.315C299.9 349.468 299.826 349.605 299.753 349.723L296.556 354.546C296.528 354.591 296.494 354.637 296.456 354.682C296.421 354.728 296.379 354.77 296.33 354.808C296.285 354.843 296.236 354.873 296.183 354.897C296.131 354.918 296.075 354.929 296.016 354.929H295.098V347.38H296.33V352.386C296.33 352.554 296.325 352.731 296.314 352.916C296.307 353.098 296.29 353.29 296.262 353.492C296.328 353.314 296.398 353.148 296.472 352.994C296.549 352.837 296.622 352.701 296.692 352.586L299.889 347.763C299.917 347.718 299.949 347.672 299.984 347.627C300.022 347.581 300.064 347.541 300.11 347.506C300.158 347.468 300.209 347.438 300.262 347.417C300.314 347.393 300.37 347.38 300.429 347.38H301.347ZM309.499 347.38V354.929H308.272V351.569H304.482V354.929H303.25V347.38H304.482V350.683H308.272V347.38H309.499ZM316.188 353.969V348.34H313.924C313.882 349.133 313.824 349.834 313.751 350.442C313.677 351.046 313.59 351.576 313.489 352.03C313.391 352.481 313.281 352.865 313.158 353.183C313.039 353.498 312.91 353.76 312.77 353.969H316.188ZM318.62 353.969V356.386C318.62 356.491 318.584 356.576 318.51 356.643C318.44 356.709 318.348 356.742 318.232 356.742H317.499V354.929H311.701V356.386C311.701 356.491 311.664 356.576 311.591 356.643C311.521 356.709 311.428 356.742 311.313 356.742H310.579V353.969H311.376C311.477 353.917 311.579 353.833 311.68 353.718C311.785 353.603 311.884 353.438 311.979 353.225C312.073 353.012 312.162 352.743 312.246 352.418C312.334 352.093 312.412 351.696 312.482 351.228C312.552 350.756 312.611 350.204 312.66 349.571C312.709 348.939 312.746 348.209 312.77 347.38H317.42V353.969H318.62ZM324.584 353.938L324.579 354.929H319.872V347.38H324.579V348.371H321.103V350.646H323.882V351.605H321.103V353.938H324.584ZM332.244 354.929H331.138C331.019 354.929 330.92 354.897 330.839 354.834C330.759 354.771 330.684 354.679 330.614 354.557L328.827 351.92C328.781 351.85 328.736 351.792 328.69 351.747C328.645 351.698 328.594 351.66 328.538 351.632C328.482 351.6 328.419 351.579 328.35 351.569C328.28 351.555 328.201 351.548 328.114 351.548H327.244V354.929H326.017V347.38H327.244V350.609H327.983C328.136 350.609 328.266 350.585 328.371 350.536C328.475 350.487 328.578 350.393 328.68 350.253L330.488 347.716C330.548 347.618 330.619 347.538 330.703 347.475C330.791 347.412 330.894 347.38 331.012 347.38H332.05L329.891 350.442C329.803 350.571 329.704 350.678 329.592 350.761C329.48 350.845 329.356 350.912 329.22 350.961C329.415 351.013 329.581 351.099 329.718 351.217C329.857 351.336 329.989 351.501 330.111 351.71L332.244 354.929ZM338.203 353.246C338.269 353.246 338.327 353.272 338.376 353.325L338.863 353.854C338.556 354.225 338.178 354.511 337.731 354.714C337.284 354.913 336.749 355.013 336.127 355.013C335.575 355.013 335.075 354.918 334.628 354.73C334.184 354.537 333.805 354.272 333.49 353.933C333.176 353.59 332.933 353.183 332.762 352.711C332.594 352.24 332.51 351.721 332.51 351.155C332.51 350.588 332.599 350.069 332.777 349.598C332.959 349.122 333.212 348.715 333.537 348.376C333.866 348.034 334.257 347.768 334.712 347.58C335.169 347.391 335.673 347.296 336.221 347.296C336.766 347.296 337.247 347.386 337.663 347.564C338.082 347.739 338.446 347.973 338.753 348.266L338.349 348.838C338.322 348.876 338.288 348.909 338.25 348.937C338.211 348.965 338.159 348.979 338.093 348.979C338.023 348.979 337.942 348.948 337.852 348.885C337.764 348.818 337.651 348.747 337.511 348.67C337.374 348.589 337.202 348.518 336.992 348.455C336.786 348.389 336.527 348.355 336.216 348.355C335.856 348.355 335.526 348.418 335.225 348.544C334.925 348.67 334.666 348.853 334.45 349.094C334.233 349.336 334.063 349.629 333.941 349.975C333.822 350.321 333.763 350.714 333.763 351.155C333.763 351.598 333.826 351.995 333.952 352.344C334.077 352.69 334.25 352.984 334.47 353.225C334.691 353.463 334.949 353.644 335.246 353.77C335.543 353.896 335.863 353.959 336.206 353.959C336.415 353.959 336.602 353.948 336.766 353.928C336.934 353.903 337.088 353.866 337.228 353.817C337.368 353.765 337.499 353.7 337.621 353.623C337.747 353.547 337.871 353.452 337.993 353.34C338.063 353.278 338.133 353.246 338.203 353.246ZM346.69 348.67C346.652 348.733 346.612 348.78 346.57 348.811C346.528 348.839 346.475 348.853 346.412 348.853C346.346 348.853 346.271 348.825 346.187 348.769C346.107 348.714 346.005 348.652 345.883 348.586C345.764 348.516 345.623 348.453 345.458 348.397C345.294 348.338 345.098 348.308 344.871 348.308C344.662 348.308 344.476 348.334 344.316 348.387C344.158 348.439 344.026 348.513 343.917 348.607C343.809 348.701 343.727 348.813 343.671 348.942C343.619 349.068 343.592 349.206 343.592 349.357C343.592 349.549 343.643 349.71 343.744 349.839C343.846 349.965 343.978 350.073 344.143 350.164C344.31 350.255 344.501 350.335 344.714 350.405C344.927 350.471 345.144 350.543 345.364 350.62C345.588 350.697 345.806 350.784 346.019 350.882C346.232 350.98 346.421 351.104 346.585 351.254C346.753 351.404 346.888 351.588 346.989 351.805C347.09 352.021 347.141 352.285 347.141 352.596C347.141 352.932 347.083 353.246 346.968 353.54C346.853 353.833 346.685 354.09 346.465 354.31C346.248 354.527 345.979 354.698 345.658 354.824C345.34 354.95 344.976 355.013 344.567 355.013C344.326 355.013 344.09 354.988 343.86 354.939C343.632 354.894 343.414 354.829 343.204 354.745C342.998 354.658 342.804 354.553 342.623 354.431C342.441 354.308 342.278 354.172 342.135 354.022L342.491 353.435C342.523 353.386 342.563 353.347 342.612 353.319C342.661 353.291 342.715 353.278 342.775 353.278C342.855 353.278 342.944 353.316 343.042 353.393C343.14 353.466 343.257 353.548 343.393 353.639C343.533 353.727 343.701 353.809 343.896 353.886C344.092 353.959 344.326 353.996 344.599 353.996C345.043 353.996 345.385 353.887 345.626 353.671C345.871 353.454 345.993 353.155 345.993 352.774C345.993 352.561 345.942 352.388 345.841 352.255C345.74 352.119 345.605 352.005 345.437 351.915C345.273 351.824 345.084 351.747 344.871 351.684C344.658 351.621 344.441 351.555 344.221 351.485C344.001 351.411 343.784 351.328 343.571 351.233C343.358 351.135 343.168 351.01 343 350.856C342.836 350.698 342.703 350.506 342.602 350.279C342.5 350.048 342.45 349.762 342.45 349.419C342.45 349.147 342.502 348.883 342.607 348.628C342.715 348.373 342.871 348.147 343.073 347.952C343.28 347.753 343.533 347.594 343.833 347.475C344.134 347.356 344.476 347.296 344.861 347.296C345.294 347.296 345.691 347.365 346.051 347.501C346.414 347.637 346.727 347.831 346.989 348.083L346.69 348.67ZM354.888 354.195L353.965 353.314C354.269 352.842 354.489 352.276 354.625 351.637L353.567 351.291C353.472 351.763 353.336 352.182 353.158 352.528L351.575 351.018C352.634 350.421 353.074 349.876 353.074 349.121C353.074 348.125 352.298 347.506 351.113 347.506C349.824 347.506 348.985 348.209 348.985 349.236C348.985 349.771 349.205 350.253 349.803 350.851C348.608 351.521 348.105 352.161 348.105 353.073C348.105 354.226 349.226 355.034 350.778 355.034C351.742 355.034 352.581 354.719 353.242 354.153L354.164 355.044L354.888 354.195ZM351.113 348.439C351.659 348.439 351.963 348.722 351.963 349.142C351.963 349.54 351.69 349.844 350.841 350.305C350.317 349.781 350.18 349.54 350.18 349.215C350.18 348.764 350.526 348.439 351.113 348.439ZM350.872 353.964C349.971 353.964 349.384 353.545 349.384 352.937C349.384 352.413 349.677 352.025 350.526 351.553L352.466 353.409C352.015 353.775 351.48 353.964 350.872 353.964ZM358.426 351.228C358.699 351.228 358.938 351.193 359.145 351.123C359.354 351.053 359.527 350.955 359.663 350.83C359.803 350.7 359.908 350.545 359.978 350.363C360.048 350.181 360.083 349.979 360.083 349.755C360.083 349.535 360.048 349.337 359.978 349.163C359.912 348.988 359.81 348.839 359.674 348.717C359.538 348.595 359.365 348.502 359.155 348.439C358.949 348.373 358.706 348.34 358.426 348.34H357.305V351.228H358.426ZM358.426 347.38C358.919 347.38 359.345 347.438 359.705 347.553C360.069 347.669 360.368 347.831 360.602 348.041C360.839 348.247 361.016 348.497 361.131 348.79C361.247 349.08 361.304 349.402 361.304 349.755C361.304 350.115 361.243 350.445 361.121 350.746C360.998 351.043 360.817 351.3 360.576 351.516C360.334 351.729 360.034 351.897 359.674 352.019C359.318 352.138 358.902 352.198 358.426 352.198H357.305V354.929H356.078V347.38H358.426ZM366.132 350.169C366.314 350.131 366.487 350.103 366.651 350.085C366.819 350.068 366.98 350.059 367.134 350.059C367.528 350.059 367.876 350.118 368.177 350.237C368.481 350.353 368.734 350.513 368.937 350.719C369.143 350.926 369.297 351.169 369.398 351.448C369.503 351.724 369.555 352.025 369.555 352.35C369.555 352.752 369.485 353.117 369.346 353.445C369.206 353.774 369.012 354.055 368.764 354.289C368.516 354.52 368.222 354.698 367.883 354.824C367.548 354.95 367.184 355.013 366.793 355.013C366.562 355.013 366.342 354.99 366.132 354.944C365.926 354.899 365.732 354.838 365.55 354.761C365.369 354.681 365.201 354.59 365.047 354.488C364.893 354.384 364.755 354.275 364.633 354.163L364.979 353.681C365.052 353.576 365.15 353.524 365.273 353.524C365.35 353.524 365.433 353.552 365.524 353.608C365.615 353.664 365.72 353.725 365.839 353.791C365.961 353.854 366.104 353.914 366.269 353.969C366.433 354.025 366.629 354.053 366.856 354.053C367.104 354.053 367.326 354.013 367.521 353.933C367.717 353.852 367.881 353.741 368.014 353.597C368.15 353.45 368.254 353.276 368.323 353.073C368.393 352.87 368.428 352.648 368.428 352.407C368.428 352.187 368.395 351.99 368.329 351.815C368.266 351.64 368.17 351.492 368.04 351.369C367.915 351.247 367.756 351.155 367.563 351.092C367.371 351.025 367.149 350.992 366.898 350.992C366.712 350.992 366.522 351.008 366.326 351.039C366.134 351.071 365.938 351.12 365.739 351.186L365.037 350.987L365.655 347.38H369.309V347.868C369.309 348.029 369.258 348.16 369.157 348.261C369.056 348.362 368.886 348.413 368.648 348.413H366.436L366.132 350.169ZM376.093 351.155C376.093 351.815 376.021 352.386 375.878 352.869C375.738 353.351 375.544 353.751 375.296 354.069C375.048 354.387 374.756 354.623 374.421 354.777C374.085 354.93 373.723 355.007 373.336 355.007C372.948 355.007 372.586 354.93 372.25 354.777C371.915 354.623 371.623 354.387 371.375 354.069C371.13 353.751 370.938 353.351 370.798 352.869C370.659 352.386 370.589 351.815 370.589 351.155C370.589 350.494 370.659 349.923 370.798 349.44C370.938 348.955 371.13 348.555 371.375 348.24C371.623 347.922 371.915 347.686 372.25 347.532C372.586 347.375 372.948 347.296 373.336 347.296C373.723 347.296 374.085 347.375 374.421 347.532C374.756 347.686 375.048 347.922 375.296 348.24C375.544 348.555 375.738 348.955 375.878 349.44C376.021 349.923 376.093 350.494 376.093 351.155ZM374.929 351.155C374.929 350.595 374.884 350.131 374.793 349.76C374.705 349.386 374.588 349.087 374.442 348.864C374.295 348.64 374.125 348.481 373.933 348.387C373.741 348.292 373.542 348.245 373.336 348.245C373.126 348.245 372.925 348.292 372.733 348.387C372.544 348.481 372.376 348.64 372.229 348.864C372.083 349.087 371.966 349.386 371.878 349.76C371.791 350.131 371.747 350.595 371.747 351.155C371.747 351.714 371.791 352.18 371.878 352.554C371.966 352.925 372.083 353.222 372.229 353.445C372.376 353.669 372.544 353.828 372.733 353.922C372.925 354.017 373.126 354.064 373.336 354.064C373.542 354.064 373.741 354.017 373.933 353.922C374.125 353.828 374.295 353.669 374.442 353.445C374.588 353.222 374.705 352.925 374.793 352.554C374.884 352.18 374.929 351.714 374.929 351.155ZM382.279 351.155C382.279 351.815 382.207 352.386 382.064 352.869C381.924 353.351 381.73 353.751 381.482 354.069C381.234 354.387 380.942 354.623 380.607 354.777C380.271 354.93 379.91 355.007 379.522 355.007C379.134 355.007 378.772 354.93 378.437 354.777C378.101 354.623 377.809 354.387 377.561 354.069C377.317 353.751 377.124 353.351 376.985 352.869C376.845 352.386 376.775 351.815 376.775 351.155C376.775 350.494 376.845 349.923 376.985 349.44C377.124 348.955 377.317 348.555 377.561 348.24C377.809 347.922 378.101 347.686 378.437 347.532C378.772 347.375 379.134 347.296 379.522 347.296C379.91 347.296 380.271 347.375 380.607 347.532C380.942 347.686 381.234 347.922 381.482 348.24C381.73 348.555 381.924 348.955 382.064 349.44C382.207 349.923 382.279 350.494 382.279 351.155ZM381.115 351.155C381.115 350.595 381.07 350.131 380.979 349.76C380.892 349.386 380.775 349.087 380.628 348.864C380.481 348.64 380.312 348.481 380.119 348.387C379.927 348.292 379.728 348.245 379.522 348.245C379.312 348.245 379.111 348.292 378.919 348.387C378.73 348.481 378.563 348.64 378.416 348.864C378.269 349.087 378.152 349.386 378.065 349.76C377.977 350.131 377.933 350.595 377.933 351.155C377.933 351.714 377.977 352.18 378.065 352.554C378.152 352.925 378.269 353.222 378.416 353.445C378.563 353.669 378.73 353.828 378.919 353.922C379.111 354.017 379.312 354.064 379.522 354.064C379.728 354.064 379.927 354.017 380.119 353.922C380.312 353.828 380.481 353.669 380.628 353.445C380.775 353.222 380.892 352.925 380.979 352.554C381.07 352.18 381.115 351.714 381.115 351.155Z" fill="black"/>
<path d="M39.1491 308.862C37.587 308.862 36.7168 309.732 36.7168 311C36.7168 312.185 37.5241 313.128 38.9184 313.17L36.4652 316.2H37.587L39.9668 313.202H40.9942V316.2H41.9378V308.862H39.1491ZM39.191 312.321L39.0862 312.961H39.0757L39.191 312.321C38.237 312.321 37.7023 311.818 37.7023 311.032C37.7023 310.266 38.237 309.721 39.2329 309.721H40.9942V312.321H39.191ZM47.3281 310.937V313.024H44.791V310.937H43.8894V316.2H44.791V313.82H47.3281V316.2H48.2297V310.937H47.3281ZM54.3745 314.68C54.3745 314.051 54.0076 313.579 53.41 313.37C53.8189 313.16 54.0286 312.814 54.0286 312.342C54.0286 311.514 53.3681 310.937 52.3511 310.937H50.0552V316.2H52.5923C53.6407 316.2 54.3745 315.592 54.3745 314.68ZM52.2568 311.734C52.8334 311.734 53.106 312.049 53.106 312.416C53.106 312.793 52.8334 313.097 52.2568 313.097H50.9568V311.734H52.2568ZM53.4519 314.628C53.4519 315.078 53.0955 315.403 52.4979 315.403H50.9568V313.852H52.4979C53.0955 313.852 53.4519 314.198 53.4519 314.628ZM59.2765 315.341L61.1531 312.992C61.7822 312.227 62.1386 311.598 62.1386 310.717C62.1386 309.428 61.2894 308.715 60.1047 308.715C59.3499 308.715 58.6475 309.019 58.2386 309.532V310.633H58.3749C58.7418 310.057 59.3499 309.616 60.0523 309.616C60.7128 309.616 61.1741 310.025 61.1741 310.791C61.1741 311.42 60.8805 311.944 60.4297 312.499L57.8507 315.697V316.2H62.3378V315.341H59.2765ZM66.1724 308.715C64.6627 308.715 63.5724 310.088 63.5724 312.531C63.5724 314.974 64.6627 316.347 66.1724 316.347C67.6821 316.347 68.7724 314.974 68.7724 312.531C68.7724 310.088 67.6821 308.715 66.1724 308.715ZM66.1724 315.445C65.166 315.445 64.5369 314.407 64.5369 312.531C64.5369 310.654 65.166 309.616 66.1724 309.616C67.1789 309.616 67.8079 310.654 67.8079 312.531C67.8079 314.407 67.1789 315.445 66.1724 315.445ZM71.2907 315.341L73.1673 312.992C73.7964 312.227 74.1528 311.598 74.1528 310.717C74.1528 309.428 73.3036 308.715 72.1189 308.715C71.3641 308.715 70.6617 309.019 70.2528 309.532V310.633H70.3891C70.7561 310.057 71.3641 309.616 72.0665 309.616C72.727 309.616 73.1883 310.025 73.1883 310.791C73.1883 311.42 72.8947 311.944 72.4439 312.499L69.8649 315.697V316.2H74.352V315.341H71.2907ZM76.8013 315.341L78.6779 312.992C79.3069 312.227 79.6634 311.598 79.6634 310.717C79.6634 309.428 78.8142 308.715 77.6295 308.715C76.8747 308.715 76.1723 309.019 75.7634 309.532V310.633H75.8997C76.2666 310.057 76.8747 309.616 77.5771 309.616C78.2376 309.616 78.6989 310.025 78.6989 310.791C78.6989 311.42 78.4053 311.944 77.9545 312.499L75.3755 315.697V316.2H79.8626V315.341H76.8013Z" fill="black"/>
<path d="M750.912 308.862C749.35 308.862 748.48 309.732 748.48 311C748.48 312.185 749.287 313.128 750.681 313.17L748.228 316.2H749.35L751.73 313.202H752.757V316.2H753.701V308.862H750.912ZM750.954 312.321L750.849 312.961H750.839L750.954 312.321C750 312.321 749.465 311.818 749.465 311.032C749.465 310.266 750 309.721 750.996 309.721H752.757V312.321H750.954ZM759.091 310.937V313.024H756.554V310.937H755.652V316.2H756.554V313.82H759.091V316.2H759.993V310.937H759.091ZM766.137 314.68C766.137 314.051 765.771 313.579 765.173 313.37C765.582 313.16 765.791 312.814 765.791 312.342C765.791 311.514 765.131 310.937 764.114 310.937H761.818V316.2H764.355C765.404 316.2 766.137 315.592 766.137 314.68ZM764.02 311.734C764.596 311.734 764.869 312.049 764.869 312.416C764.869 312.793 764.596 313.097 764.02 313.097H762.72V311.734H764.02ZM765.215 314.628C765.215 315.078 764.858 315.403 764.261 315.403H762.72V313.852H764.261C764.858 313.852 765.215 314.198 765.215 314.628ZM771.039 315.341L772.916 312.992C773.545 312.227 773.902 311.598 773.902 310.717C773.902 309.428 773.052 308.715 771.868 308.715C771.113 308.715 770.41 309.019 770.002 309.532V310.633H770.138C770.505 310.057 771.113 309.616 771.815 309.616C772.476 309.616 772.937 310.025 772.937 310.791C772.937 311.42 772.643 311.944 772.193 312.499L769.614 315.697V316.2H774.101V315.341H771.039ZM777.935 308.715C776.426 308.715 775.335 310.088 775.335 312.531C775.335 314.974 776.426 316.347 777.935 316.347C779.445 316.347 780.535 314.974 780.535 312.531C780.535 310.088 779.445 308.715 777.935 308.715ZM777.935 315.445C776.929 315.445 776.3 314.407 776.3 312.531C776.3 310.654 776.929 309.616 777.935 309.616C778.942 309.616 779.571 310.654 779.571 312.531C779.571 314.407 778.942 315.445 777.935 315.445ZM783.054 315.341L784.93 312.992C785.559 312.227 785.916 311.598 785.916 310.717C785.916 309.428 785.067 308.715 783.882 308.715C783.127 308.715 782.425 309.019 782.016 309.532V310.633H782.152C782.519 310.057 783.127 309.616 783.829 309.616C784.49 309.616 784.951 310.025 784.951 310.791C784.951 311.42 784.658 311.944 784.207 312.499L781.628 315.697V316.2H786.115V315.341H783.054ZM791.426 314.219C791.426 313.307 790.986 312.604 790.158 312.258C790.829 311.965 791.154 311.399 791.154 310.675C791.154 309.512 790.284 308.715 788.963 308.715C788.365 308.715 787.841 308.893 787.4 309.249V310.34H787.537C787.893 309.857 788.355 309.616 788.931 309.616C789.759 309.616 790.189 310.088 790.189 310.791C790.189 311.514 789.686 311.912 788.711 311.912H788.313V312.793H788.732C789.822 312.793 790.462 313.296 790.462 314.135C790.462 314.963 789.833 315.445 788.942 315.445C788.176 315.445 787.684 315.099 787.275 314.439H787.117V315.686C787.589 316.127 788.208 316.347 788.973 316.347C789.728 316.347 790.325 316.158 790.766 315.77C791.206 315.382 791.426 314.858 791.426 314.219Z" fill="black"/>
<path d="M230.532 316.2H231.559L228.508 308.862H227.858L224.807 316.2H225.814L226.59 314.25H229.766L230.532 316.2ZM226.915 313.432L228.173 310.235L229.441 313.432H226.915ZM232.779 310.937V316.2H233.681V311.734H236.155V316.2H237.056V310.937H232.779ZM244.125 313.569C244.157 311.734 242.857 310.77 241.62 310.791C240.865 310.791 240.142 311.137 239.68 311.797V310.937H238.883V318.234H239.785V315.477C240.246 316.053 240.917 316.347 241.63 316.347C242.888 316.347 244.125 315.424 244.125 313.569ZM243.203 313.569C243.203 314.9 242.343 315.508 241.462 315.508C240.582 315.508 239.722 314.9 239.722 313.569C239.722 312.237 240.582 311.629 241.462 311.629C242.343 311.629 243.203 312.237 243.203 313.569ZM248.985 315.341L250.862 312.992C251.491 312.227 251.847 311.598 251.847 310.717C251.847 309.428 250.998 308.715 249.813 308.715C249.059 308.715 248.356 309.019 247.947 309.532V310.633H248.084C248.451 310.057 249.059 309.616 249.761 309.616C250.422 309.616 250.883 310.025 250.883 310.791C250.883 311.42 250.589 311.944 250.138 312.499L247.559 315.697V316.2H252.047V315.341H248.985ZM255.881 308.715C254.371 308.715 253.281 310.088 253.281 312.531C253.281 314.974 254.371 316.347 255.881 316.347C257.391 316.347 258.481 314.974 258.481 312.531C258.481 310.088 257.391 308.715 255.881 308.715ZM255.881 315.445C254.875 315.445 254.246 314.407 254.246 312.531C254.246 310.654 254.875 309.616 255.881 309.616C256.888 309.616 257.517 310.654 257.517 312.531C257.517 314.407 256.888 315.445 255.881 315.445ZM260.999 315.341L262.876 312.992C263.505 312.227 263.862 311.598 263.862 310.717C263.862 309.428 263.012 308.715 261.828 308.715C261.073 308.715 260.37 309.019 259.962 309.532V310.633H260.098C260.465 310.057 261.073 309.616 261.775 309.616C262.436 309.616 262.897 310.025 262.897 310.791C262.897 311.42 262.603 311.944 262.153 312.499L259.574 315.697V316.2H264.061V315.341H260.999ZM266.51 315.341L268.387 312.992C269.016 312.227 269.372 311.598 269.372 310.717C269.372 309.428 268.523 308.715 267.338 308.715C266.583 308.715 265.881 309.019 265.472 309.532V310.633H265.608C265.975 310.057 266.583 309.616 267.286 309.616C267.946 309.616 268.408 310.025 268.408 310.791C268.408 311.42 268.114 311.944 267.663 312.499L265.084 315.697V316.2H269.571V315.341H266.51Z" fill="black"/>
<path d="M420.25 308.862L415.993 314.565V308.862H415.05V316.2H415.784L420.04 310.497V316.2H420.984V308.862H420.25ZM430.156 313.569C430.156 311.839 428.992 310.791 427.514 310.791C426.172 310.791 425.082 311.65 424.893 313.087H423.834V310.937H422.933V316.2H423.834V313.883H424.872C424.998 315.424 426.13 316.347 427.514 316.347C428.992 316.347 430.156 315.299 430.156 313.569ZM429.234 313.569C429.234 314.827 428.468 315.508 427.504 315.508C426.55 315.508 425.763 314.827 425.763 313.569C425.763 312.311 426.55 311.629 427.504 311.629C428.468 311.629 429.234 312.311 429.234 313.569ZM432.258 310.937L432.226 312.059C432.164 314.512 431.839 315.351 431.136 315.351H430.979V316.2H431.283C432.373 316.179 432.887 315.561 433.034 312.258L433.055 311.734H434.879V316.2H435.78V310.937H432.258ZM441.781 314.512C441.781 313.432 441.058 312.835 439.884 312.835H438.511V310.937H437.609V316.2H439.884C441.048 316.2 441.781 315.592 441.781 314.512ZM440.859 314.512C440.859 315.068 440.502 315.403 439.8 315.403H438.511V313.621H439.8C440.502 313.621 440.859 313.957 440.859 314.512ZM446.349 315.341L448.226 312.992C448.855 312.227 449.211 311.598 449.211 310.717C449.211 309.428 448.362 308.715 447.177 308.715C446.422 308.715 445.72 309.019 445.311 309.532V310.633H445.447C445.814 310.057 446.422 309.616 447.125 309.616C447.785 309.616 448.247 310.025 448.247 310.791C448.247 311.42 447.953 311.944 447.502 312.499L444.923 315.697V316.2H449.41V315.341H446.349ZM453.245 308.715C451.735 308.715 450.645 310.088 450.645 312.531C450.645 314.974 451.735 316.347 453.245 316.347C454.755 316.347 455.845 314.974 455.845 312.531C455.845 310.088 454.755 308.715 453.245 308.715ZM453.245 315.445C452.238 315.445 451.609 314.407 451.609 312.531C451.609 310.654 452.238 309.616 453.245 309.616C454.251 309.616 454.88 310.654 454.88 312.531C454.88 314.407 454.251 315.445 453.245 315.445ZM458.363 315.341L460.24 312.992C460.869 312.227 461.225 311.598 461.225 310.717C461.225 309.428 460.376 308.715 459.191 308.715C458.437 308.715 457.734 309.019 457.325 309.532V310.633H457.462C457.829 310.057 458.437 309.616 459.139 309.616C459.8 309.616 460.261 310.025 460.261 310.791C460.261 311.42 459.967 311.944 459.516 312.499L456.937 315.697V316.2H461.425V315.341H458.363ZM463.874 315.341L465.75 312.992C466.379 312.227 466.736 311.598 466.736 310.717C466.736 309.428 465.887 308.715 464.702 308.715C463.947 308.715 463.245 309.019 462.836 309.532V310.633H462.972C463.339 310.057 463.947 309.616 464.65 309.616C465.31 309.616 465.771 310.025 465.771 310.791C465.771 311.42 465.478 311.944 465.027 312.499L462.448 315.697V316.2H466.935V315.341H463.874Z" fill="black"/>
<path d="M607.077 308.715C604.907 308.715 603.282 310.235 603.282 312.531C603.282 314.827 604.907 316.347 607.077 316.347C609.247 316.347 610.872 314.827 610.872 312.531C610.872 310.235 609.247 308.715 607.077 308.715ZM607.077 315.445C605.452 315.445 604.267 314.282 604.267 312.531C604.267 310.78 605.452 309.616 607.077 309.616C608.702 309.616 609.886 310.78 609.886 312.531C609.886 314.282 608.702 315.445 607.077 315.445ZM616.917 316.2L614.38 313.317L616.655 310.937H615.492L613.384 313.202V310.937H612.483V316.2H613.384V313.516L615.691 316.2H616.917ZM621.703 310.937H617.447V311.734H619.124V316.2H620.026V311.734H621.703V310.937ZM626.058 315.341L627.934 312.992C628.563 312.227 628.92 311.598 628.92 310.717C628.92 309.428 628.071 308.715 626.886 308.715C626.131 308.715 625.429 309.019 625.02 309.532V310.633H625.156C625.523 310.057 626.131 309.616 626.834 309.616C627.494 309.616 627.955 310.025 627.955 310.791C627.955 311.42 627.662 311.944 627.211 312.499L624.632 315.697V316.2H629.119V315.341H626.058ZM632.954 308.715C631.444 308.715 630.354 310.088 630.354 312.531C630.354 314.974 631.444 316.347 632.954 316.347C634.463 316.347 635.554 314.974 635.554 312.531C635.554 310.088 634.463 308.715 632.954 308.715ZM632.954 315.445C631.947 315.445 631.318 314.407 631.318 312.531C631.318 310.654 631.947 309.616 632.954 309.616C633.96 309.616 634.589 310.654 634.589 312.531C634.589 314.407 633.96 315.445 632.954 315.445ZM638.072 315.341L639.949 312.992C640.578 312.227 640.934 311.598 640.934 310.717C640.934 309.428 640.085 308.715 638.9 308.715C638.145 308.715 637.443 309.019 637.034 309.532V310.633H637.17C637.537 310.057 638.145 309.616 638.848 309.616C639.508 309.616 639.97 310.025 639.97 310.791C639.97 311.42 639.676 311.944 639.225 312.499L636.646 315.697V316.2H641.133V315.341H638.072ZM643.583 315.341L645.459 312.992C646.088 312.227 646.445 311.598 646.445 310.717C646.445 309.428 645.595 308.715 644.411 308.715C643.656 308.715 642.954 309.019 642.545 309.532V310.633H642.681C643.048 310.057 643.656 309.616 644.358 309.616C645.019 309.616 645.48 310.025 645.48 310.791C645.48 311.42 645.187 311.944 644.736 312.499L642.157 315.697V316.2H646.644V315.341H643.583Z" fill="black"/>
<path d="M47.1994 16H45.3194V5.944H39.9674V16H38.0874V4.48H47.1994V16ZM60.9151 10.24C60.9151 11.0933 60.7764 11.88 60.4991 12.6C60.2218 13.32 59.8298 13.9413 59.3231 14.464C58.8218 14.9813 58.2164 15.3867 57.5071 15.68C56.8031 15.9733 56.0191 16.12 55.1551 16.12C54.2964 16.12 53.5124 15.9733 52.8031 15.68C52.0991 15.3867 51.4938 14.9813 50.9871 14.464C50.4804 13.9413 50.0884 13.32 49.8111 12.6C49.5338 11.88 49.3951 11.0933 49.3951 10.24C49.3951 9.38667 49.5338 8.6 49.8111 7.88C50.0884 7.16 50.4804 6.53867 50.9871 6.016C51.4938 5.49333 52.0991 5.08533 52.8031 4.792C53.5124 4.49867 54.2964 4.352 55.1551 4.352C56.0191 4.352 56.8031 4.49867 57.5071 4.792C58.2164 5.08533 58.8218 5.49333 59.3231 6.016C59.8298 6.53867 60.2218 7.16 60.4991 7.88C60.7764 8.6 60.9151 9.38667 60.9151 10.24ZM59.0031 10.24C59.0031 9.57867 58.9124 8.984 58.7311 8.456C58.5551 7.928 58.2991 7.48 57.9631 7.112C57.6324 6.744 57.2298 6.46133 56.7551 6.264C56.2804 6.06667 55.7471 5.968 55.1551 5.968C54.5684 5.968 54.0378 6.06667 53.5631 6.264C53.0884 6.46133 52.6831 6.744 52.3471 7.112C52.0111 7.48 51.7524 7.928 51.5711 8.456C51.3898 8.984 51.2991 9.57867 51.2991 10.24C51.2991 10.9067 51.3898 11.504 51.5711 12.032C51.7524 12.56 52.0111 13.008 52.3471 13.376C52.6831 13.7387 53.0884 14.0187 53.5631 14.216C54.0378 14.408 54.5684 14.504 55.1551 14.504C55.7471 14.504 56.2804 14.408 56.7551 14.216C57.2298 14.0187 57.6324 13.7387 57.9631 13.376C58.2991 13.008 58.5551 12.56 58.7311 12.032C58.9124 11.504 59.0031 10.9067 59.0031 10.24ZM66.7101 10.352C67.1261 10.352 67.4914 10.2987 67.8061 10.192C68.1261 10.0853 68.3901 9.936 68.5981 9.744C68.8114 9.54667 68.9714 9.30933 69.0781 9.032C69.1848 8.75467 69.2381 8.44533 69.2381 8.104C69.2381 7.768 69.1848 7.46667 69.0781 7.2C68.9768 6.93333 68.8221 6.70667 68.6141 6.52C68.4061 6.33333 68.1421 6.192 67.8221 6.096C67.5074 5.99467 67.1368 5.944 66.7101 5.944H64.9981V10.352H66.7101ZM66.7101 4.48C67.4621 4.48 68.1128 4.568 68.6621 4.744C69.2168 4.92 69.6728 5.168 70.0301 5.488C70.3928 5.80267 70.6621 6.184 70.8381 6.632C71.0141 7.07467 71.1021 7.56533 71.1021 8.104C71.1021 8.65333 71.0088 9.15733 70.8221 9.616C70.6354 10.0693 70.3581 10.4613 69.9901 10.792C69.6221 11.1173 69.1634 11.3733 68.6141 11.56C68.0701 11.7413 67.4354 11.832 66.7101 11.832H64.9981V16H63.1261V4.48H66.7101ZM80.9797 6.04H77.3877V16H75.5237V6.04H71.9237V4.48H80.9797V6.04ZM88.115 13.152C88.5683 13.1467 88.9817 13.0587 89.355 12.888C89.7337 12.7173 90.0563 12.488 90.323 12.2C90.595 11.912 90.803 11.5787 90.947 11.2C91.0963 10.816 91.171 10.4053 91.171 9.968C91.171 9.536 91.0963 9.128 90.947 8.744C90.803 8.36 90.595 8.024 90.323 7.736C90.0563 7.448 89.7337 7.22133 89.355 7.056C88.9817 6.88533 88.5683 6.79467 88.115 6.784V13.152ZM86.347 6.784C85.8883 6.79467 85.4697 6.88533 85.091 7.056C84.7177 7.22133 84.3977 7.448 84.131 7.736C83.8643 8.024 83.6563 8.36 83.507 8.744C83.363 9.128 83.291 9.536 83.291 9.968C83.291 10.4053 83.363 10.816 83.507 11.2C83.6563 11.5787 83.8643 11.912 84.131 12.2C84.3977 12.488 84.7177 12.7173 85.091 12.888C85.4697 13.0587 85.8883 13.1467 86.347 13.152V6.784ZM88.115 5.328C88.595 5.344 89.051 5.41067 89.483 5.528C89.915 5.64533 90.3123 5.80533 90.675 6.008C91.0377 6.21067 91.363 6.45333 91.651 6.736C91.9443 7.01867 92.1923 7.33067 92.395 7.672C92.5977 8.008 92.7523 8.37067 92.859 8.76C92.971 9.14933 93.027 9.552 93.027 9.968C93.027 10.5973 92.907 11.1893 92.667 11.744C92.427 12.2987 92.091 12.7867 91.659 13.208C91.227 13.624 90.7097 13.9573 90.107 14.208C89.5043 14.4587 88.8403 14.5947 88.115 14.616V16H86.347V14.616C85.6217 14.5947 84.955 14.4587 84.347 14.208C83.7443 13.9573 83.2243 13.624 82.787 13.208C82.355 12.7867 82.019 12.2987 81.779 11.744C81.539 11.1893 81.419 10.5973 81.419 9.968C81.419 9.33867 81.539 8.74667 81.779 8.192C82.0243 7.63733 82.3657 7.152 82.803 6.736C83.2403 6.32 83.7603 5.98667 84.363 5.736C84.9657 5.48533 85.627 5.34933 86.347 5.328V3.976H88.115V5.328ZM102.298 14.488L102.29 16H95.1061V4.48H102.29V5.992H96.9861V9.464H101.226V10.928H96.9861V14.488H102.298ZM113.509 16H111.629V5.944H108.173C108.098 7.4 107.994 8.664 107.861 9.736C107.728 10.808 107.568 11.72 107.381 12.472C107.2 13.224 106.992 13.8373 106.757 14.312C106.528 14.7867 106.272 15.1573 105.989 15.424C105.712 15.6907 105.413 15.872 105.093 15.968C104.773 16.064 104.434 16.112 104.077 16.112C103.405 16.112 103.069 15.992 103.069 15.752V14.568H103.661C103.858 14.568 104.056 14.5333 104.253 14.464C104.456 14.3893 104.65 14.2347 104.837 14C105.024 13.7653 105.202 13.4267 105.373 12.984C105.544 12.536 105.698 11.9387 105.837 11.192C105.976 10.4453 106.093 9.52533 106.189 8.432C106.29 7.33333 106.365 6.016 106.413 4.48H113.509V16ZM120.322 14.52C120.744 14.52 121.098 14.4747 121.386 14.384C121.68 14.288 121.917 14.1573 122.098 13.992C122.28 13.8213 122.41 13.624 122.49 13.4C122.576 13.1707 122.618 12.9227 122.618 12.656C122.618 12.368 122.578 12.1093 122.498 11.88C122.418 11.6507 122.288 11.4587 122.106 11.304C121.925 11.144 121.688 11.0213 121.394 10.936C121.106 10.8507 120.752 10.808 120.33 10.808H118.282V14.52H120.322ZM120.33 9.328C121.056 9.328 121.677 9.408 122.194 9.568C122.717 9.728 123.146 9.94933 123.482 10.232C123.818 10.5093 124.064 10.84 124.218 11.224C124.378 11.608 124.458 12.0213 124.458 12.464C124.458 13.0027 124.365 13.4907 124.178 13.928C123.997 14.36 123.73 14.7307 123.378 15.04C123.026 15.3493 122.592 15.5867 122.074 15.752C121.562 15.9173 120.978 16 120.322 16H116.41V4.48H118.282V9.328H120.33ZM130.471 8.496C130.231 8.09067 130.066 7.66933 129.975 7.232C129.89 6.78933 129.882 6.35467 129.951 5.928C130.021 5.496 130.165 5.08533 130.383 4.696C130.607 4.30133 130.903 3.94667 131.271 3.632L131.807 3.96C131.903 4.01867 131.946 4.09333 131.935 4.184C131.925 4.27467 131.893 4.34933 131.839 4.408C131.717 4.55733 131.605 4.74667 131.503 4.976C131.402 5.20533 131.333 5.45867 131.295 5.736C131.263 6.01333 131.274 6.304 131.327 6.608C131.381 6.912 131.495 7.21067 131.671 7.504C131.757 7.63733 131.781 7.75733 131.743 7.864C131.711 7.96533 131.634 8.03733 131.511 8.08L130.471 8.496ZM133.023 8.496C132.783 8.09067 132.618 7.66933 132.527 7.232C132.442 6.78933 132.434 6.35467 132.503 5.928C132.573 5.496 132.717 5.08533 132.935 4.696C133.159 4.30133 133.455 3.94667 133.823 3.632L134.359 3.96C134.455 4.01867 134.498 4.09333 134.487 4.184C134.477 4.27467 134.445 4.34933 134.391 4.408C134.269 4.55733 134.157 4.74667 134.055 4.976C133.954 5.20533 133.885 5.45867 133.847 5.736C133.815 6.01333 133.826 6.304 133.879 6.608C133.933 6.912 134.047 7.21067 134.223 7.504C134.309 7.63733 134.333 7.75733 134.295 7.864C134.263 7.96533 134.186 8.03733 134.063 8.08L133.023 8.496ZM140.911 14.52C141.332 14.52 141.687 14.472 141.975 14.376C142.268 14.2747 142.505 14.1387 142.687 13.968C142.873 13.7973 143.007 13.5973 143.087 13.368C143.172 13.1333 143.215 12.8827 143.215 12.616C143.215 12.072 143.028 11.6453 142.655 11.336C142.287 11.0213 141.703 10.864 140.903 10.864H138.591V14.52H140.911ZM138.591 5.944V9.544H140.463C141.263 9.544 141.86 9.38933 142.255 9.08C142.649 8.77067 142.847 8.32533 142.847 7.744C142.847 7.10933 142.66 6.65067 142.287 6.368C141.919 6.08533 141.34 5.944 140.551 5.944H138.591ZM140.551 4.48C141.287 4.48 141.916 4.552 142.439 4.696C142.961 4.83467 143.391 5.03467 143.727 5.296C144.063 5.55733 144.308 5.87733 144.463 6.256C144.623 6.62933 144.703 7.05067 144.703 7.52C144.703 7.792 144.66 8.056 144.575 8.312C144.495 8.56267 144.367 8.8 144.191 9.024C144.02 9.24267 143.804 9.44 143.543 9.616C143.281 9.792 142.972 9.93867 142.615 10.056C144.247 10.4027 145.063 11.2693 145.063 12.656C145.063 13.1467 144.969 13.5973 144.783 14.008C144.601 14.4133 144.335 14.7653 143.983 15.064C143.636 15.3573 143.207 15.5867 142.695 15.752C142.183 15.9173 141.599 16 140.943 16H136.719V4.48H140.551ZM151.244 14.52C151.665 14.52 152.02 14.4747 152.308 14.384C152.601 14.288 152.838 14.1573 153.02 13.992C153.201 13.8213 153.332 13.624 153.412 13.4C153.497 13.1707 153.54 12.9227 153.54 12.656C153.54 12.368 153.5 12.1093 153.42 11.88C153.34 11.6507 153.209 11.4587 153.028 11.304C152.846 11.144 152.609 11.0213 152.316 10.936C152.028 10.8507 151.673 10.808 151.252 10.808H149.204V14.52H151.244ZM151.252 9.328C151.977 9.328 152.598 9.408 153.116 9.568C153.638 9.728 154.068 9.94933 154.404 10.232C154.74 10.5093 154.985 10.84 155.14 11.224C155.3 11.608 155.38 12.0213 155.38 12.464C155.38 13.0027 155.286 13.4907 155.1 13.928C154.918 14.36 154.652 14.7307 154.3 15.04C153.948 15.3493 153.513 15.5867 152.996 15.752C152.484 15.9173 151.9 16 151.244 16H147.332V4.48H149.204V9.328H151.252ZM159.148 16H157.268V4.48H159.148V16ZM170.039 13.432C170.14 13.432 170.228 13.472 170.303 13.552L171.047 14.36C170.577 14.9253 170.001 15.3627 169.319 15.672C168.636 15.976 167.82 16.128 166.871 16.128C166.028 16.128 165.265 15.984 164.583 15.696C163.905 15.4027 163.327 14.9973 162.847 14.48C162.367 13.9573 161.996 13.336 161.735 12.616C161.479 11.896 161.351 11.104 161.351 10.24C161.351 9.376 161.487 8.584 161.759 7.864C162.036 7.13867 162.423 6.51733 162.919 6C163.42 5.47733 164.017 5.072 164.711 4.784C165.409 4.496 166.177 4.352 167.015 4.352C167.847 4.352 168.58 4.488 169.215 4.76C169.855 5.02667 170.409 5.384 170.879 5.832L170.263 6.704C170.22 6.76267 170.169 6.81333 170.111 6.856C170.052 6.89867 169.972 6.92 169.871 6.92C169.764 6.92 169.641 6.872 169.503 6.776C169.369 6.67467 169.196 6.56533 168.983 6.448C168.775 6.32533 168.511 6.216 168.191 6.12C167.876 6.01867 167.481 5.968 167.007 5.968C166.457 5.968 165.953 6.064 165.495 6.256C165.036 6.448 164.641 6.728 164.311 7.096C163.98 7.464 163.721 7.912 163.535 8.44C163.353 8.968 163.263 9.568 163.263 10.24C163.263 10.9173 163.359 11.5227 163.551 12.056C163.743 12.584 164.007 13.032 164.343 13.4C164.679 13.7627 165.073 14.04 165.527 14.232C165.98 14.424 166.468 14.52 166.991 14.52C167.311 14.52 167.596 14.504 167.847 14.472C168.103 14.4347 168.337 14.3787 168.551 14.304C168.764 14.224 168.964 14.1253 169.151 14.008C169.343 13.8907 169.532 13.7467 169.719 13.576C169.825 13.48 169.932 13.432 170.039 13.432ZM183.413 10.24C183.413 11.0933 183.275 11.88 182.997 12.6C182.72 13.32 182.328 13.9413 181.821 14.464C181.32 14.9813 180.715 15.3867 180.005 15.68C179.301 15.9733 178.517 16.12 177.653 16.12C176.795 16.12 176.011 15.9733 175.301 15.68C174.597 15.3867 173.992 14.9813 173.485 14.464C172.979 13.9413 172.587 13.32 172.309 12.6C172.032 11.88 171.893 11.0933 171.893 10.24C171.893 9.38667 172.032 8.6 172.309 7.88C172.587 7.16 172.979 6.53867 173.485 6.016C173.992 5.49333 174.597 5.08533 175.301 4.792C176.011 4.49867 176.795 4.352 177.653 4.352C178.517 4.352 179.301 4.49867 180.005 4.792C180.715 5.08533 181.32 5.49333 181.821 6.016C182.328 6.53867 182.72 7.16 182.997 7.88C183.275 8.6 183.413 9.38667 183.413 10.24ZM181.501 10.24C181.501 9.57867 181.411 8.984 181.229 8.456C181.053 7.928 180.797 7.48 180.461 7.112C180.131 6.744 179.728 6.46133 179.253 6.264C178.779 6.06667 178.245 5.968 177.653 5.968C177.067 5.968 176.536 6.06667 176.061 6.264C175.587 6.46133 175.181 6.744 174.845 7.112C174.509 7.48 174.251 7.928 174.069 8.456C173.888 8.984 173.797 9.57867 173.797 10.24C173.797 10.9067 173.888 11.504 174.069 12.032C174.251 12.56 174.509 13.008 174.845 13.376C175.181 13.7387 175.587 14.0187 176.061 14.216C176.536 14.408 177.067 14.504 177.653 14.504C178.245 14.504 178.779 14.408 179.253 14.216C179.728 14.0187 180.131 13.7387 180.461 13.376C180.797 13.008 181.053 12.56 181.229 12.032C181.411 11.504 181.501 10.9067 181.501 10.24ZM195.128 16H193.44C193.259 16 193.107 15.952 192.984 15.856C192.862 15.76 192.747 15.6187 192.64 15.432L189.912 11.408C189.843 11.3013 189.774 11.2133 189.704 11.144C189.635 11.0693 189.558 11.0107 189.472 10.968C189.387 10.92 189.291 10.888 189.184 10.872C189.078 10.8507 188.958 10.84 188.824 10.84H187.496V16H185.624V4.48H187.496V9.408H188.624C188.859 9.408 189.056 9.37067 189.216 9.296C189.376 9.22133 189.534 9.07733 189.688 8.864L192.448 4.992C192.539 4.84267 192.648 4.72 192.776 4.624C192.91 4.528 193.067 4.48 193.248 4.48H194.832L191.536 9.152C191.403 9.34933 191.251 9.512 191.08 9.64C190.91 9.768 190.72 9.86933 190.512 9.944C190.811 10.024 191.064 10.1547 191.272 10.336C191.486 10.5173 191.686 10.768 191.872 11.088L195.128 16ZM206.258 4.48V16H204.386V8.352C204.386 8.096 204.391 7.82933 204.402 7.552C204.418 7.27467 204.447 6.976 204.49 6.656C204.388 6.93333 204.279 7.192 204.162 7.432C204.05 7.66667 203.938 7.87467 203.826 8.056L198.946 15.416C198.903 15.4853 198.852 15.5547 198.794 15.624C198.74 15.6933 198.676 15.7573 198.602 15.816C198.532 15.8693 198.458 15.9147 198.378 15.952C198.298 15.984 198.212 16 198.122 16H196.722V4.48H198.602V12.12C198.602 12.376 198.594 12.6453 198.578 12.928C198.567 13.2053 198.54 13.4987 198.498 13.808C198.599 13.536 198.706 13.2827 198.818 13.048C198.935 12.808 199.047 12.6 199.154 12.424L204.034 5.064C204.076 4.99467 204.124 4.92533 204.178 4.856C204.236 4.78667 204.3 4.72533 204.37 4.672C204.444 4.61333 204.522 4.568 204.602 4.536C204.682 4.49867 204.767 4.48 204.858 4.48H206.258ZM216.355 14.488L216.347 16H209.163V4.48H216.347V5.992H211.043V9.464H215.283V10.928H211.043V14.488H216.355ZM230.614 6.04H227.022V16H225.158V6.04H221.558V4.48H230.614V6.04ZM239.569 14.488L239.561 16H232.377V4.48H239.561V5.992H234.257V9.464H238.497V10.928H234.257V14.488H239.569ZM250.852 16H248.988C248.86 16 248.756 15.9653 248.676 15.896C248.596 15.8267 248.532 15.7493 248.484 15.664L245.62 11.048C245.599 11.112 245.575 11.1733 245.548 11.232C245.527 11.2907 245.5 11.3467 245.468 11.4L242.7 15.664C242.641 15.7493 242.575 15.8267 242.5 15.896C242.431 15.9653 242.337 16 242.22 16H240.476L244.364 10.08L240.636 4.48H242.492C242.625 4.48 242.721 4.50133 242.78 4.544C242.844 4.58133 242.9 4.64 242.948 4.72L245.748 9.12C245.775 9.056 245.801 8.992 245.828 8.928C245.855 8.864 245.889 8.79733 245.932 8.728L248.54 4.752C248.593 4.66133 248.652 4.59467 248.716 4.552C248.78 4.504 248.857 4.48 248.948 4.48H250.732L246.972 10L250.852 16ZM262.015 4.48V16H260.143V10.872H254.359V16H252.479V4.48H254.359V9.52H260.143V4.48H262.015ZM275.744 10.24C275.744 11.0933 275.605 11.88 275.328 12.6C275.051 13.32 274.659 13.9413 274.152 14.464C273.651 14.9813 273.045 15.3867 272.336 15.68C271.632 15.9733 270.848 16.12 269.984 16.12C269.125 16.12 268.341 15.9733 267.632 15.68C266.928 15.3867 266.323 14.9813 265.816 14.464C265.309 13.9413 264.917 13.32 264.64 12.6C264.363 11.88 264.224 11.0933 264.224 10.24C264.224 9.38667 264.363 8.6 264.64 7.88C264.917 7.16 265.309 6.53867 265.816 6.016C266.323 5.49333 266.928 5.08533 267.632 4.792C268.341 4.49867 269.125 4.352 269.984 4.352C270.848 4.352 271.632 4.49867 272.336 4.792C273.045 5.08533 273.651 5.49333 274.152 6.016C274.659 6.53867 275.051 7.16 275.328 7.88C275.605 8.6 275.744 9.38667 275.744 10.24ZM273.832 10.24C273.832 9.57867 273.741 8.984 273.56 8.456C273.384 7.928 273.128 7.48 272.792 7.112C272.461 6.744 272.059 6.46133 271.584 6.264C271.109 6.06667 270.576 5.968 269.984 5.968C269.397 5.968 268.867 6.06667 268.392 6.264C267.917 6.46133 267.512 6.744 267.176 7.112C266.84 7.48 266.581 7.928 266.4 8.456C266.219 8.984 266.128 9.57867 266.128 10.24C266.128 10.9067 266.219 11.504 266.4 12.032C266.581 12.56 266.84 13.008 267.176 13.376C267.512 13.7387 267.917 14.0187 268.392 14.216C268.867 14.408 269.397 14.504 269.984 14.504C270.576 14.504 271.109 14.408 271.584 14.216C272.059 14.0187 272.461 13.7387 272.792 13.376C273.128 13.008 273.384 12.56 273.56 12.032C273.741 11.504 273.832 10.9067 273.832 10.24ZM286.682 16H284.802V5.944H281.346C281.271 7.4 281.167 8.664 281.034 9.736C280.901 10.808 280.741 11.72 280.554 12.472C280.373 13.224 280.165 13.8373 279.93 14.312C279.701 14.7867 279.445 15.1573 279.162 15.424C278.885 15.6907 278.586 15.872 278.266 15.968C277.946 16.064 277.607 16.112 277.25 16.112C276.578 16.112 276.242 15.992 276.242 15.752V14.568H276.834C277.031 14.568 277.229 14.5333 277.426 14.464C277.629 14.3893 277.823 14.2347 278.01 14C278.197 13.7653 278.375 13.4267 278.546 12.984C278.717 12.536 278.871 11.9387 279.01 11.192C279.149 10.4453 279.266 9.52533 279.362 8.432C279.463 7.33333 279.538 6.016 279.586 4.48H286.682V16ZM300.408 10.24C300.408 11.0933 300.269 11.88 299.992 12.6C299.714 13.32 299.322 13.9413 298.816 14.464C298.314 14.9813 297.709 15.3867 297 15.68C296.296 15.9733 295.512 16.12 294.648 16.12C293.789 16.12 293.005 15.9733 292.296 15.68C291.592 15.3867 290.986 14.9813 290.48 14.464C289.973 13.9413 289.581 13.32 289.304 12.6C289.026 11.88 288.888 11.0933 288.888 10.24C288.888 9.38667 289.026 8.6 289.304 7.88C289.581 7.16 289.973 6.53867 290.48 6.016C290.986 5.49333 291.592 5.08533 292.296 4.792C293.005 4.49867 293.789 4.352 294.648 4.352C295.512 4.352 296.296 4.49867 297 4.792C297.709 5.08533 298.314 5.49333 298.816 6.016C299.322 6.53867 299.714 7.16 299.992 7.88C300.269 8.6 300.408 9.38667 300.408 10.24ZM298.496 10.24C298.496 9.57867 298.405 8.984 298.224 8.456C298.048 7.928 297.792 7.48 297.456 7.112C297.125 6.744 296.722 6.46133 296.248 6.264C295.773 6.06667 295.24 5.968 294.648 5.968C294.061 5.968 293.53 6.06667 293.056 6.264C292.581 6.46133 292.176 6.744 291.84 7.112C291.504 7.48 291.245 7.928 291.064 8.456C290.882 8.984 290.792 9.57867 290.792 10.24C290.792 10.9067 290.882 11.504 291.064 12.032C291.245 12.56 291.504 13.008 291.84 13.376C292.176 13.7387 292.581 14.0187 293.056 14.216C293.53 14.408 294.061 14.504 294.648 14.504C295.24 14.504 295.773 14.408 296.248 14.216C296.722 14.0187 297.125 13.7387 297.456 13.376C297.792 13.008 298.048 12.56 298.224 12.032C298.405 11.504 298.496 10.9067 298.496 10.24ZM309.643 5.944H304.499V16H302.619V4.48H309.643V5.944ZM320.94 4.48V16H319.068V8.352C319.068 8.096 319.073 7.82933 319.084 7.552C319.1 7.27467 319.129 6.976 319.172 6.656C319.07 6.93333 318.961 7.192 318.844 7.432C318.732 7.66667 318.62 7.87467 318.508 8.056L313.628 15.416C313.585 15.4853 313.534 15.5547 313.476 15.624C313.422 15.6933 313.358 15.7573 313.284 15.816C313.214 15.8693 313.14 15.9147 313.06 15.952C312.98 15.984 312.894 16 312.804 16H311.404V4.48H313.284V12.12C313.284 12.376 313.276 12.6453 313.26 12.928C313.249 13.2053 313.222 13.4987 313.18 13.808C313.281 13.536 313.388 13.2827 313.5 13.048C313.617 12.808 313.729 12.6 313.836 12.424L318.716 5.064C318.758 4.99467 318.806 4.92533 318.86 4.856C318.918 4.78667 318.982 4.72533 319.052 4.672C319.126 4.61333 319.204 4.568 319.284 4.536C319.364 4.49867 319.449 4.48 319.54 4.48H320.94ZM333.381 4.48V16H331.509V8.352C331.509 8.096 331.514 7.82933 331.525 7.552C331.541 7.27467 331.57 6.976 331.613 6.656C331.512 6.93333 331.402 7.192 331.285 7.432C331.173 7.66667 331.061 7.87467 330.949 8.056L326.069 15.416C326.026 15.4853 325.976 15.5547 325.917 15.624C325.864 15.6933 325.8 15.7573 325.725 15.816C325.656 15.8693 325.581 15.9147 325.501 15.952C325.421 15.984 325.336 16 325.245 16H323.845V4.48H325.725V12.12C325.725 12.376 325.717 12.6453 325.701 12.928C325.69 13.2053 325.664 13.4987 325.621 13.808C325.722 13.536 325.829 13.2827 325.941 13.048C326.058 12.808 326.17 12.6 326.277 12.424L331.157 5.064C331.2 4.99467 331.248 4.92533 331.301 4.856C331.36 4.78667 331.424 4.72533 331.493 4.672C331.568 4.61333 331.645 4.568 331.725 4.536C331.805 4.49867 331.89 4.48 331.981 4.48H333.381ZM337.142 3.712C337.382 4.11733 337.545 4.54133 337.63 4.984C337.715 5.42133 337.723 5.856 337.654 6.288C337.585 6.71467 337.438 7.12533 337.214 7.52C336.995 7.91467 336.702 8.26667 336.334 8.576L335.798 8.248C335.707 8.18933 335.665 8.11467 335.67 8.024C335.681 7.928 335.713 7.85333 335.766 7.8C335.889 7.65067 336.001 7.46133 336.102 7.232C336.203 7.00267 336.27 6.752 336.302 6.48C336.339 6.20267 336.331 5.912 336.278 5.608C336.23 5.304 336.115 5.00267 335.934 4.704C335.849 4.56533 335.825 4.44533 335.862 4.344C335.899 4.24267 335.977 4.17067 336.094 4.128L337.142 3.712ZM339.694 3.712C339.934 4.11733 340.097 4.54133 340.182 4.984C340.267 5.42133 340.275 5.856 340.206 6.288C340.137 6.71467 339.99 7.12533 339.766 7.52C339.547 7.91467 339.254 8.26667 338.886 8.576L338.35 8.248C338.259 8.18933 338.217 8.11467 338.222 8.024C338.233 7.928 338.265 7.85333 338.318 7.8C338.441 7.65067 338.553 7.46133 338.654 7.232C338.755 7.00267 338.822 6.752 338.854 6.48C338.891 6.20267 338.883 5.912 338.83 5.608C338.782 5.304 338.667 5.00267 338.486 4.704C338.401 4.56533 338.377 4.44533 338.414 4.344C338.451 4.24267 338.529 4.17067 338.646 4.128L339.694 3.712Z" fill="black"/>
</svg>
