<svg width="62" height="47" viewBox="0 0 62 47" fill="none" xmlns="http://www.w3.org/2000/svg">
<path d="M5.1959 10.2791L0 6.23782L0.421715 1.38696L7.3338 6.88903L5.1959 10.2791Z" fill="#1EAC6C"/>
<path d="M7.57332 31.7582C5.04454 31.7582 3.13505 33.5989 3.13505 36.3169C3.13505 39.0865 5.06174 40.8756 7.64213 40.8756C8.58827 40.8756 9.41399 40.6348 10.1365 40.1531V38.5533H9.94727C9.31078 39.1897 8.57106 39.4994 7.69373 39.4994C5.97348 39.4994 4.64888 38.278 4.64888 36.3169C4.64888 34.373 5.97348 33.1344 7.60772 33.1344C8.39904 33.1344 9.15595 33.4441 9.87846 34.0806H10.0333V32.4979C9.29357 31.9991 8.48505 31.7582 7.57332 31.7582ZM16.3954 31.7582C13.8322 31.7582 11.8539 33.5817 11.8539 36.3169C11.8539 39.0521 13.8322 40.8756 16.3954 40.8756C18.9586 40.8756 20.9369 39.0521 20.9369 36.3169C20.9369 33.5817 18.9586 31.7582 16.3954 31.7582ZM16.3954 39.4994C14.6924 39.4994 13.3678 38.2608 13.3678 36.3169C13.3678 34.373 14.6924 33.1344 16.3954 33.1344C18.0985 33.1344 19.4231 34.373 19.4231 36.3169C19.4231 38.2608 18.0985 39.4994 16.3954 39.4994ZM30.3987 35.1643C30.3987 32.9796 29.0053 31.7582 27.2334 31.7582C25.9949 31.7582 25.0487 32.3603 24.481 33.3753V31.9991H23.1736V40.6348H24.6531V36.1277C24.6531 34.4074 25.4616 33.1688 26.8894 33.1688C28.1108 33.1688 28.9193 34.0462 28.9193 35.5084V40.6348H30.3987V35.1643ZM32.4324 40.1531C33.1721 40.5832 34.2042 40.8756 35.3052 40.8756C36.2169 40.8756 36.9911 40.6864 37.6104 40.3079C38.2297 39.9123 38.5393 39.3102 38.5393 38.4672C38.5393 37.1598 37.748 36.4717 36.7846 36.0073L35.1848 35.2504C34.4623 34.9235 34.101 34.5106 34.101 34.0462C34.101 33.4957 34.5655 33.1344 35.5288 33.1344C36.3374 33.1344 37.0599 33.3581 37.834 33.9086H38.006V32.4979C37.3007 31.9991 36.4578 31.7582 35.4772 31.7582C34.6687 31.7582 33.9806 31.9303 33.4129 32.2915C32.8624 32.6356 32.5872 33.2033 32.5872 33.9946C32.5872 35.0783 33.1549 35.9041 34.3075 36.4545L36.0965 37.2975C36.7158 37.5899 37.0255 37.9856 37.0255 38.4844C37.0255 39.1553 36.4406 39.4994 35.288 39.4994C34.2559 39.4994 33.3785 39.1897 32.6388 38.5533H32.4324V40.1531ZM46.3866 31.9991V36.3857C46.3866 37.2631 46.1974 37.9856 45.8017 38.5877C45.4061 39.1725 44.8556 39.465 44.1503 39.465C42.9289 39.465 42.1204 38.5877 42.1204 37.1254V31.9991H40.641V37.2975C40.641 39.5854 42.0516 40.8756 43.8062 40.8756C45.062 40.8756 45.991 40.2047 46.5587 39.1553V40.6348H47.8661V31.9991H46.3866ZM50.691 27.6984V40.6348H52.1705V27.6984H50.691ZM60.0836 33.3065V31.9991H57.4689V29.3155H55.9894V31.9991H53.9595V33.3065H55.9894V38.106C55.9894 39.8262 56.9872 40.6348 58.6558 40.6348H60.0148V39.2242H58.8623C58.0193 39.2242 57.4689 38.7769 57.4689 37.8996V33.3065H60.0836Z" fill="#0E5233"/>
<path d="M39.845 27.0558C38.0692 27.0558 36.471 26.7513 35.0504 26.1425C33.6297 25.5083 32.5135 24.6204 31.7017 23.4788C30.8899 22.3372 30.484 21.0053 30.484 19.4832H35.1265C35.2279 20.6248 35.6719 21.5634 36.4583 22.2991C37.2701 23.0348 38.399 23.4027 39.845 23.4027C41.3418 23.4027 42.5088 23.0475 43.3459 22.3372C44.1831 21.6015 44.6017 20.6628 44.6017 19.5212C44.6017 18.6333 44.3353 17.9103 43.8026 17.3522C43.2952 16.7941 42.6483 16.3628 41.8619 16.0584C41.1008 15.754 40.0353 15.4242 38.6654 15.069C36.9403 14.6124 35.5324 14.1558 34.4415 13.6991C33.376 13.2171 32.4627 12.4814 31.7017 11.492C30.9406 10.5027 30.5601 9.18349 30.5601 7.53452C30.5601 6.01239 30.9406 4.68053 31.7017 3.53894C32.4627 2.39735 33.5282 1.52213 34.8981 0.913276C36.2681 0.304425 37.8536 0 39.6548 0C42.217 0 44.3099 0.646903 45.9335 1.94071C47.5825 3.20915 48.4958 4.95959 48.6734 7.19204H43.8787C43.8026 6.22803 43.3459 5.40354 42.5088 4.71859C41.6716 4.03363 40.5681 3.69115 39.1981 3.69115C37.9551 3.69115 36.9403 4.00826 36.1539 4.64248C35.3675 5.2767 34.9743 6.18997 34.9743 7.3823C34.9743 8.1941 35.2153 8.86638 35.6973 9.39912C36.2046 9.9065 36.8389 10.3124 37.5999 10.6168C38.361 10.9212 39.4011 11.251 40.7203 11.6062C42.4707 12.0882 43.8914 12.5702 44.9822 13.0522C46.0984 13.5342 47.0371 14.2826 47.7981 15.2973C48.5846 16.2867 48.9778 17.6186 48.9778 19.2929C48.9778 20.6375 48.6099 21.9059 47.8743 23.0982C47.1639 24.2906 46.1111 25.2546 44.7158 25.9903C43.3459 26.7006 41.7223 27.0558 39.845 27.0558Z" fill="#0E5233"/>
<path d="M58.4346 0.342479V26.7894H54.0965V0.342479H58.4346Z" fill="#0E5233"/>
<path fill-rule="evenodd" clip-rule="evenodd" d="M20.8399 7.9531C20.1549 6.63393 19.2036 5.64455 17.9859 4.98496C16.7682 4.3 15.3603 3.95753 13.762 3.95753C12.0116 3.95753 10.4514 4.35074 9.08149 5.13717C8.72943 5.33928 8.39663 5.56318 8.0831 5.80886L4.91248 3.14544C5.53863 2.62241 6.21798 2.15741 6.95052 1.75044C9.03076 0.583481 11.3013 0 13.762 0C16.578 0 19.0768 0.697641 21.2585 2.09292C23.4656 3.46283 25.0638 5.41623 26.0532 7.9531H20.8399ZM4.88192 11.3702C4.76423 12.0478 4.70539 12.7607 4.70539 13.5089C4.70539 15.4115 5.08592 17.0985 5.84698 18.5699C6.63341 20.0159 7.71158 21.1322 9.08149 21.9186C10.4514 22.705 12.0116 23.0982 13.762 23.0982C16.1213 23.0982 18.0367 22.4387 19.508 21.1195C20.9794 19.8003 21.88 18.0118 22.2098 15.754H12.278V12.2912H26.8523V15.6779C26.5732 17.7327 25.8375 19.6227 24.6452 21.3478C23.4783 23.0729 21.9434 24.4555 20.0408 25.4956C18.1635 26.5103 16.0706 27.0177 13.762 27.0177C11.2759 27.0177 9.00539 26.4469 6.95052 25.3053C4.89565 24.1384 3.25937 22.5274 2.04167 20.4726C0.849339 18.4177 0.253174 16.0965 0.253174 13.5089C0.253174 11.7742 0.5211 10.1592 1.05695 8.6639L4.88192 11.3702Z" fill="#0E5233"/>
</svg>
