<svg width="23" height="23" viewBox="0 0 23 23" fill="none" xmlns="http://www.w3.org/2000/svg">
<g clip-path="url(#clip0_1_745)">
<path d="M16.9895 4.90576H6.08568C5.466 4.90576 4.87169 5.15649 4.4335 5.60279C3.99532 6.04909 3.74915 6.6544 3.74915 7.28557V15.2183C3.74915 15.8494 3.99532 16.4547 4.4335 16.901C4.87169 17.3473 5.466 17.5981 6.08568 17.5981H16.9895C17.6092 17.5981 18.2035 17.3473 18.6417 16.901C19.0799 16.4547 19.3261 15.8494 19.3261 15.2183V7.28557C19.3261 6.6544 19.0799 6.04909 18.6417 5.60279C18.2035 5.15649 17.6092 4.90576 16.9895 4.90576ZM16.4677 6.4923L11.5376 10.2603L6.60751 6.4923H16.4677ZM16.9895 16.0115H6.08568C5.87912 16.0115 5.68102 15.928 5.53496 15.7792C5.38889 15.6304 5.30684 15.4286 5.30684 15.2183V7.48389L11.0703 11.8865C11.2051 11.9895 11.3691 12.0452 11.5376 12.0452C11.7061 12.0452 11.8701 11.9895 12.0049 11.8865L17.7684 7.48389V15.2183C17.7684 15.4286 17.6863 15.6304 17.5403 15.7792C17.3942 15.928 17.1961 16.0115 16.9895 16.0115Z" fill="#0E5233"/>
</g>
<defs>
<clipPath id="clip0_1_745">
<rect width="22.5" height="22.5" rx="3.75" fill="white"/>
</clipPath>
</defs>
</svg>
