<svg width="23" height="23" viewBox="0 0 23 23" fill="none" xmlns="http://www.w3.org/2000/svg">
<g clip-path="url(#clip0_1_738)">
<path d="M16.1559 17.9334L16.1559 17.9331C11.0982 17.6423 8.1959 15.3587 6.53847 12.813C4.88629 10.2754 4.47777 7.48883 4.37752 6.18803C4.35999 5.96795 4.38604 5.74658 4.45416 5.53658C4.52233 5.32644 4.6313 5.13182 4.77481 4.96387C4.91832 4.79592 5.09357 4.65793 5.2905 4.55782C5.48743 4.45771 5.70218 4.39745 5.92244 4.38047L5.93397 4.37959V4.38003L8.74252 4.38003L8.74266 4.38003V4.53003C8.94684 4.52983 9.14638 4.59095 9.31543 4.70546C9.48447 4.81998 9.61524 4.98262 9.69079 5.17231L16.1559 17.9334ZM16.1559 17.9334H16.1645H16.2512C16.6966 17.9334 17.1237 17.7565 17.4386 17.4416C17.7535 17.1266 17.9304 16.6995 17.9304 16.2542V13.5632M16.1559 17.9334L9.82994 5.1163C9.83001 5.11647 9.83007 5.11664 9.83014 5.11681L10.6046 7.02228L10.6047 7.02274C10.6903 7.23532 10.7116 7.46836 10.6658 7.69291C10.6201 7.91737 10.5095 8.12345 10.3477 8.28559C10.3476 8.28566 10.3475 8.28572 10.3475 8.28579L9.31729 9.32563C9.492 10.2299 9.93279 11.0621 10.584 11.715C11.2351 12.3678 12.066 12.8108 12.9697 12.9879L14.02 11.9473L14.021 11.9463C14.1856 11.7862 14.3937 11.6781 14.6193 11.6355C14.8445 11.5929 15.0773 11.6175 15.2887 11.7061L17.2092 12.4753L17.2112 12.4761L17.2112 12.4761C17.4255 12.5655 17.6084 12.7167 17.7365 12.9104C17.8644 13.104 17.932 13.3312 17.9304 13.5632M17.9304 13.5632C17.9304 13.5634 17.9304 13.5636 17.9304 13.5638L17.7804 13.5627M17.9304 13.5632V13.5627H17.7804M17.7804 13.5627V16.2542C17.7804 16.6597 17.6193 17.0487 17.3325 17.3355C17.0457 17.6223 16.6568 17.7834 16.2512 17.7834H16.1645M17.7804 13.5627C17.7819 13.3603 17.723 13.162 17.6113 12.9932C17.4997 12.8243 17.3403 12.6925 17.1535 12.6146L15.2317 11.8449C15.0472 11.7673 14.8439 11.7457 14.6472 11.7829C14.4505 11.82 14.2691 11.9143 14.1256 12.0539L16.1645 17.7834M16.1645 17.7834C6.14806 17.2074 4.72587 8.75581 4.52707 6.17651C4.51105 5.97596 4.53476 5.77423 4.59684 5.58286C4.65892 5.3915 4.75815 5.21426 4.88885 5.06131C5.01954 4.90836 5.17913 4.7827 5.35847 4.69154C5.53781 4.60037 5.73338 4.54549 5.93397 4.53003L16.1645 17.7834ZM16.2299 16.6142L16.2292 16.6141C11.8073 16.3619 9.24014 14.4741 7.74439 12.2878C6.24528 10.0965 5.81353 7.59165 5.69656 6.09421V6.05926C5.69656 5.96385 5.73446 5.87235 5.80193 5.80489C5.86939 5.73742 5.9609 5.69952 6.05631 5.69952H8.646L9.33672 7.43552L7.95808 8.82872L7.90682 8.88052L7.91586 8.95283L7.94602 9.19411C7.94672 9.2025 7.94775 9.21027 7.94825 9.21406L7.94841 9.21523C7.94987 9.22645 7.95202 9.2415 7.95492 9.26007C7.96073 9.29726 7.96971 9.34953 7.98265 9.41484C8.00853 9.54547 8.05037 9.72895 8.11456 9.94904C8.24285 10.3889 8.46112 10.9772 8.82149 11.5826C9.54394 12.7963 10.8392 14.0792 13.1129 14.364L13.113 14.364L13.3576 14.3946L13.4301 14.4037L13.4819 14.3522L14.875 12.9689L16.6109 13.6642V16.28C16.6078 16.3259 16.5958 16.3708 16.5757 16.4122C16.5551 16.4548 16.5262 16.4929 16.4907 16.5243C16.4553 16.5557 16.414 16.5798 16.3693 16.5952C16.3245 16.6107 16.2771 16.6171 16.2299 16.6142Z" fill="#0E5233" stroke="#0E5233" stroke-width="0.3"/>
</g>
<defs>
<clipPath id="clip0_1_738">
<rect width="22.5" height="22.5" rx="3.75" fill="white"/>
</clipPath>
</defs>
</svg>
