<svg width="54" height="54" viewBox="0 0 54 54" fill="none" xmlns="http://www.w3.org/2000/svg">
<path d="M26.9963 0C41.9126 0 54 12.0898 54 26.9989C54 41.9108 41.9126 54 26.9963 54C12.0874 54 0 41.9102 0 26.9989C0 12.0898 12.0874 0 26.9963 0ZM26.9963 2.08631C13.2361 2.08631 2.08628 13.2384 2.08628 26.9994C2.08628 40.7593 13.2361 51.9137 26.9963 51.9137C40.7599 51.9137 51.912 40.7593 51.912 26.9989C51.912 13.2384 40.7599 2.08631 26.9963 2.08631ZM28.7181 7.60106C28.7181 7.60106 29.3393 8.73281 32.2368 8.21644C34.6331 7.78781 35.9594 8.41331 35.9594 9.21488C35.9594 9.21488 37.6642 9.41906 38.4243 9.91238C39.1865 10.4057 38.3788 11.6381 38.3788 11.6381C38.2625 11.4114 38.1007 11.2781 37.6395 11.1769C37.6395 11.1769 35.797 10.7027 35.1555 11.9031C33.7551 12.0229 32.5452 12.8616 31.9761 14.0023C31.9452 14.0692 31.4121 15.1245 31.7436 17.2547C31.9166 18.3729 32.4693 19.3213 33.2541 20.1291C33.5967 20.4834 34.0236 20.7101 34.5421 20.6511C35.3611 20.556 36.0414 20.1634 36.6261 19.5846C36.9463 19.2662 37.0452 18.9039 36.7992 18.4871C36.7671 18.432 36.748 18.369 36.725 18.306C36.0009 16.5532 36.607 15.0024 37.8372 14.0844C38.7422 13.4117 39.7865 13.3318 40.8476 13.4826C47.8445 14.4692 48.0788 21.5466 48.0788 23.7296V24.3124C48.0844 30.1793 48.1743 34.3131 48.2181 35.1298C48.2883 36.4101 48.7343 36.6789 49.018 36.8809C48.5725 37.1897 44.9297 36.0427 44.0556 34.9549C43.9967 34.8823 43.8764 34.8519 43.7849 34.8272C41.6155 34.3221 41.611 32.0535 41.5694 31.3656C39.7539 31.3656 39.0512 29.3822 38.8585 28.8658C38.6934 28.403 38.5835 27.9223 38.531 27.4337C38.531 28.3995 37.1042 29.2281 35.5684 27.6885C35.5684 29.2719 33.6843 28.9918 32.7474 28.0541C32.6654 28.3748 32.1452 29.1904 32.1452 29.1904C33.2215 29.3861 33.7057 29.6224 34.2141 30.0679C35.4066 31.1158 35.542 32.8646 35.542 33.768C35.542 33.768 37.1839 35.3717 37.8339 35.9663C38.026 36.1457 38.2378 36.3015 38.449 36.4612C40.133 34.5757 40.6931 35.3109 40.6914 35.3166C41.9373 34.8137 42.6266 35.7036 42.3541 36.1569C42.0632 35.8273 41.5924 35.9246 41.3088 36.1794C42.9906 36.4635 42.5979 37.6982 42.1446 37.9569C42.1446 37.6026 42.0345 37.2088 41.5042 37.1722C41.5312 37.7173 41.1638 37.8124 40.815 37.8259C39.9808 37.8619 38.5883 37.9001 38.1636 38.3152C37.9193 38.5515 38.0378 39.2451 37.7766 39.4813C37.5592 39.6754 37.3289 39.6529 37.207 39.6546C37.1671 39.9099 37.2429 40.1974 37.567 40.5366C36.3554 40.6356 35.4488 39.5691 36.0487 38.9993C36.3003 38.7613 37.1458 37.9586 37.1896 37.6088C37.2452 37.2375 36.8525 36.8196 36.5801 36.5777C36.2282 36.268 35.8658 35.9705 35.4937 35.6856L34.7494 35.1107C34.5591 34.9671 34.3579 34.8385 34.1478 34.7259C34.0543 34.6745 33.9515 34.6421 33.8455 34.6307C33.7394 34.6193 33.6321 34.6291 33.5299 34.6596C33.0653 34.8041 33.0709 34.7929 32.9513 34.713C32.494 34.4121 31.6672 33.7337 29.9471 33.543C30.0612 33.6156 30.1415 33.6915 30.2078 33.7809C30.2993 33.9103 30.3662 34.065 30.4634 34.2748C30.5757 34.5127 30.6611 34.7569 30.7622 34.9948C31.8744 37.6273 32.9754 40.2126 34.0849 42.8456C34.4522 43.7164 34.1242 44.4786 33.2277 44.8976C32.5738 45.2025 31.8289 45.0383 31.3908 44.406C31.5166 44.8403 31.5762 45.216 31.3987 45.5777C31.2234 45.9394 30.9397 46.1987 30.5679 46.3568C30.21 46.5148 29.787 46.5705 29.3966 46.4917C28.9978 46.4119 28.7338 46.1486 28.5299 45.7622C28.4951 46.6217 27.9294 47.25 26.9963 47.25C26.0627 47.25 25.4965 46.6217 25.4628 45.7622C25.2589 46.1492 24.9938 46.4119 24.5955 46.4917C24.2004 46.5661 23.7921 46.5191 23.4243 46.3568C23.0524 46.1987 22.7687 45.9394 22.5935 45.5777C22.4165 45.2154 22.4755 44.8419 22.6013 44.406C22.1632 45.0383 21.4183 45.2025 20.7645 44.8976C19.8674 44.4786 19.5399 43.7164 19.9073 42.8456C21.0161 40.2131 22.1171 37.6273 23.2299 34.9948C23.331 34.7569 23.4164 34.5127 23.5288 34.2748C23.6259 34.0633 23.6911 33.9092 23.7821 33.7809C23.849 33.6915 23.9287 33.6156 24.045 33.543C22.325 33.7314 21.4964 34.4121 21.0409 34.713C20.9212 34.7929 20.9268 34.8041 20.4623 34.6596C20.36 34.629 20.2527 34.6192 20.1467 34.6306C20.0406 34.642 19.9378 34.6744 19.8444 34.7259C19.6365 34.8407 19.4236 34.9678 19.2427 35.1107C18.6237 35.5927 17.9946 36.0596 17.4115 36.5777C17.1396 36.8196 16.747 37.2369 16.8026 37.6088C16.8441 37.9575 17.6918 38.7613 17.9429 38.9993C18.5439 39.5691 17.6367 40.6378 16.4251 40.5366C16.7492 40.1974 16.8234 39.9099 16.7835 39.6546C16.6633 39.6529 16.4329 39.6754 16.2156 39.4813C15.9527 39.2451 16.0706 38.5515 15.8291 38.3152C15.4022 37.9001 14.0091 37.8619 13.1771 37.8259C12.8289 37.8124 12.4609 37.7173 12.4873 37.1722C11.9559 37.2066 11.847 37.6009 11.847 37.9569C11.392 37.6982 11.0016 36.4618 12.6839 36.1794C12.3997 35.9246 11.9273 35.8273 11.638 36.1569C11.3656 35.7036 12.0548 34.8137 13.3007 35.3166C13.2968 35.3109 13.8591 34.5774 15.5432 36.4618C15.7544 36.3015 15.9662 36.1457 16.1583 35.9668C16.8082 35.3739 18.4501 33.7674 18.4501 33.7674C18.4501 32.8669 18.585 31.1181 19.7758 30.0684C20.287 29.6224 20.7701 29.3861 21.8469 29.1898C21.8469 29.1898 21.3268 28.3742 21.2448 28.0547C20.3078 28.9941 18.4237 29.2719 18.4237 27.6891C16.888 29.2264 15.4612 28.3995 15.4612 27.4337C15.4086 27.9223 15.2987 28.403 15.1337 28.8658C14.941 29.3822 14.2383 31.3656 12.4227 31.3656C12.3806 32.0535 12.3767 34.3204 10.2073 34.8272C10.1157 34.8497 9.99549 34.8823 9.93651 34.9549C9.0602 36.0444 5.42017 37.1897 4.9719 36.8809C5.25614 36.6767 5.70216 36.4101 5.77237 35.1298C5.81787 34.2861 5.91112 29.9042 5.91112 23.7296L5.91168 23.5856C5.92404 21.2513 6.29479 14.4484 13.1446 13.4826C14.2062 13.3318 15.2499 13.4117 16.1543 14.0844C17.3851 15.0024 17.9912 16.5538 17.2671 18.306C17.2447 18.369 17.225 18.432 17.193 18.4871C16.9469 18.9045 17.0464 19.2662 17.366 19.584C17.9508 20.1634 18.631 20.556 19.45 20.6511C19.9685 20.7101 20.3954 20.4834 20.7381 20.1291C21.5228 19.3213 22.0565 18.3707 22.2491 17.2547C22.6126 15.1341 22.0469 14.0692 22.0166 14.0023C21.447 12.8616 20.237 12.0229 18.8372 11.9031C18.1951 10.7027 16.3526 11.1774 16.3526 11.1774C15.892 11.2787 15.7297 11.4114 15.6111 11.6387C15.6111 11.6387 14.8056 10.4057 15.5662 9.91181C16.3279 9.41906 18.0328 9.21488 18.0328 9.21488C18.0328 8.41275 19.3585 7.78781 21.7537 8.21644C24.6511 8.73281 25.2741 7.60106 25.2741 7.60106C25.3937 8.98819 24.3349 9.70256 23.9956 9.89719C25.0949 11.0897 26.6301 13.473 26.9963 16.8542C27.3615 13.473 28.8973 11.0897 29.996 9.89719C29.6556 9.70256 28.5984 8.98819 28.7181 7.60106Z" fill="#1EAC6C"/>
</svg>
