<svg width="119" height="67" viewBox="0 0 119 67" fill="none" xmlns="http://www.w3.org/2000/svg">
<path d="M24.1959 24.2788L19 20.2376L19.4217 15.3867L26.3338 20.8888L24.1959 24.2788Z" fill="#1EAC6C"/>
<path d="M26.5733 45.7582C24.0445 45.7582 22.135 47.5989 22.135 50.3169C22.135 53.0865 24.0617 54.8756 26.6421 54.8756C27.5883 54.8756 28.414 54.6348 29.1365 54.1531V52.5533H28.9473C28.3108 53.1897 27.5711 53.4994 26.6937 53.4994C24.9735 53.4994 23.6489 52.278 23.6489 50.3169C23.6489 48.373 24.9735 47.1344 26.6077 47.1344C27.399 47.1344 28.156 47.4441 28.8785 48.0806H29.0333V46.4979C28.2936 45.9991 27.4851 45.7582 26.5733 45.7582ZM35.3954 45.7582C32.8322 45.7582 30.8539 47.5817 30.8539 50.3169C30.8539 53.0521 32.8322 54.8756 35.3954 54.8756C37.9586 54.8756 39.9369 53.0521 39.9369 50.3169C39.9369 47.5817 37.9586 45.7582 35.3954 45.7582ZM35.3954 53.4994C33.6924 53.4994 32.3678 52.2608 32.3678 50.3169C32.3678 48.373 33.6924 47.1344 35.3954 47.1344C37.0985 47.1344 38.4231 48.373 38.4231 50.3169C38.4231 52.2608 37.0985 53.4994 35.3954 53.4994ZM49.3987 49.1643C49.3987 46.9796 48.0053 45.7582 46.2334 45.7582C44.9949 45.7582 44.0487 46.3603 43.481 47.3753V45.9991H42.1736V54.6348H43.6531V50.1277C43.6531 48.4074 44.4616 47.1688 45.8894 47.1688C47.1108 47.1688 47.9193 48.0462 47.9193 49.5084V54.6348H49.3987V49.1643ZM51.4324 54.1531C52.1721 54.5832 53.2042 54.8756 54.3052 54.8756C55.2169 54.8756 55.9911 54.6864 56.6104 54.3079C57.2297 53.9123 57.5393 53.3102 57.5393 52.4672C57.5393 51.1598 56.748 50.4717 55.7846 50.0073L54.1848 49.2504C53.4623 48.9235 53.101 48.5106 53.101 48.0462C53.101 47.4957 53.5655 47.1344 54.5288 47.1344C55.3374 47.1344 56.0599 47.3581 56.834 47.9086H57.006V46.4979C56.3007 45.9991 55.4578 45.7582 54.4772 45.7582C53.6687 45.7582 52.9806 45.9303 52.4129 46.2915C51.8624 46.6356 51.5872 47.2033 51.5872 47.9946C51.5872 49.0783 52.1549 49.9041 53.3075 50.4545L55.0965 51.2975C55.7158 51.5899 56.0255 51.9856 56.0255 52.4844C56.0255 53.1553 55.4406 53.4994 54.288 53.4994C53.2559 53.4994 52.3785 53.1897 51.6388 52.5533H51.4324V54.1531ZM65.3866 45.9991V50.3857C65.3866 51.2631 65.1974 51.9856 64.8017 52.5877C64.4061 53.1725 63.8556 53.465 63.1503 53.465C61.9289 53.465 61.1204 52.5877 61.1204 51.1254V45.9991H59.641V51.2975C59.641 53.5854 61.0516 54.8756 62.8062 54.8756C64.062 54.8756 64.991 54.2047 65.5587 53.1553V54.6348H66.8661V45.9991H65.3866ZM69.691 41.6984V54.6348H71.1705V41.6984H69.691ZM79.0836 47.3065V45.9991H76.4689V43.3155H74.9894V45.9991H72.9595V47.3065H74.9894V52.106C74.9894 53.8262 75.9872 54.6348 77.6558 54.6348H79.0148V53.2242H77.8623C77.0193 53.2242 76.4689 52.7769 76.4689 51.8996V47.3065H79.0836Z" fill="black"/>
<path d="M58.845 41.0558C57.0692 41.0558 55.471 40.7513 54.0504 40.1425C52.6297 39.5083 51.5135 38.6204 50.7017 37.4788C49.8899 36.3372 49.484 35.0053 49.484 33.4832H54.1265C54.2279 34.6248 54.6719 35.5634 55.4583 36.2991C56.2701 37.0348 57.399 37.4027 58.845 37.4027C60.3418 37.4027 61.5088 37.0475 62.3459 36.3372C63.1831 35.6015 63.6017 34.6628 63.6017 33.5212C63.6017 32.6333 63.3353 31.9103 62.8026 31.3522C62.2952 30.7941 61.6483 30.3628 60.8619 30.0584C60.1008 29.754 59.0353 29.4242 57.6654 29.069C55.9403 28.6124 54.5324 28.1558 53.4415 27.6991C52.376 27.2171 51.4627 26.4814 50.7017 25.492C49.9406 24.5027 49.5601 23.1835 49.5601 21.5345C49.5601 20.0124 49.9406 18.6805 50.7017 17.5389C51.4627 16.3973 52.5282 15.5221 53.8981 14.9133C55.2681 14.3044 56.8536 14 58.6548 14C61.217 14 63.3099 14.6469 64.9335 15.9407C66.5825 17.2091 67.4958 18.9596 67.6734 21.192H62.8787C62.8026 20.228 62.3459 19.4035 61.5088 18.7186C60.6716 18.0336 59.5681 17.6912 58.1981 17.6912C56.9551 17.6912 55.9403 18.0083 55.1539 18.6425C54.3675 19.2767 53.9743 20.19 53.9743 21.3823C53.9743 22.1941 54.2153 22.8664 54.6973 23.3991C55.2046 23.9065 55.8389 24.3124 56.5999 24.6168C57.361 24.9212 58.4011 25.251 59.7203 25.6062C61.4707 26.0882 62.8914 26.5702 63.9822 27.0522C65.0984 27.5342 66.0371 28.2826 66.7981 29.2974C67.5846 30.2867 67.9778 31.6186 67.9778 33.2929C67.9778 34.6375 67.6099 35.9059 66.8743 37.0982C66.1639 38.2906 65.1111 39.2546 63.7158 39.9903C62.3459 40.7006 60.7223 41.0558 58.845 41.0558Z" fill="black"/>
<path d="M77.4346 14.3425V40.7894H73.0965V14.3425H77.4346Z" fill="black"/>
<path fill-rule="evenodd" clip-rule="evenodd" d="M39.8399 21.9531C39.1549 20.6339 38.2036 19.6445 36.9859 18.985C35.7682 18.3 34.3603 17.9575 32.762 17.9575C31.0116 17.9575 29.4514 18.3507 28.0815 19.1372C27.7294 19.3393 27.3966 19.5632 27.0831 19.8089L23.9125 17.1454C24.5386 16.6224 25.218 16.1574 25.9505 15.7504C28.0308 14.5835 30.3013 14 32.762 14C35.578 14 38.0768 14.6976 40.2585 16.0929C42.4656 17.4628 44.0638 19.4162 45.0532 21.9531H39.8399ZM23.8819 25.3702C23.7642 26.0478 23.7054 26.7607 23.7054 27.5089C23.7054 29.4115 24.0859 31.0985 24.847 32.5699C25.6334 34.0159 26.7116 35.1322 28.0815 35.9186C29.4514 36.705 31.0116 37.0982 32.762 37.0982C35.1213 37.0982 37.0367 36.4387 38.508 35.1195C39.9794 33.8003 40.88 32.0118 41.2098 29.754H31.278V26.2912H45.8523V29.6779C45.5732 31.7327 44.8375 33.6227 43.6452 35.3478C42.4783 37.0729 40.9434 38.4555 39.0408 39.4956C37.1635 40.5103 35.0706 41.0177 32.762 41.0177C30.2759 41.0177 28.0054 40.4469 25.9505 39.3053C23.8957 38.1384 22.2594 36.5274 21.0417 34.4726C19.8493 32.4177 19.2532 30.0965 19.2532 27.5089C19.2532 25.7742 19.5211 24.1592 20.057 22.6639L23.8819 25.3702Z" fill="black"/>
</svg>
